%TF.GenerationSoftware,KiCad,Pcbnew,8.0.4*%
%TF.CreationDate,2025-02-11T21:16:32-05:00*%
%TF.ProjectId,DC_ESP32_Motor_Board_CAN,44435f45-5350-4333-925f-4d6f746f725f,rev?*%
%TF.SameCoordinates,Original*%
%TF.FileFunction,Legend,Bot*%
%TF.FilePolarity,Positive*%
%FSLAX46Y46*%
G04 Gerber Fmt 4.6, Leading zero omitted, Abs format (unit mm)*
G04 Created by KiCad (PCBNEW 8.0.4) date 2025-02-11 21:16:32*
%MOMM*%
%LPD*%
G01*
G04 APERTURE LIST*
%ADD10C,0.100000*%
%ADD11C,0.175000*%
%ADD12C,0.150000*%
%ADD13C,0.127000*%
G04 APERTURE END LIST*
D10*
X86772107Y-58784719D02*
X86702151Y-58785459D01*
X83278584Y-59453199D02*
X83221511Y-59728940D01*
X80238166Y-60872605D02*
G75*
G02*
X80180031Y-60835493I340134J596905D01*
G01*
X89457827Y-61765612D02*
X89338671Y-61743742D01*
X78215410Y-60309059D02*
X78573169Y-61279217D01*
X79035060Y-61058686D02*
X78993966Y-60951332D01*
X85949821Y-59075925D02*
X85869975Y-59146939D01*
X89338671Y-61743742D02*
X87886429Y-61506017D01*
X87170299Y-60356915D02*
G75*
G02*
X87064910Y-60421545I-396499J528315D01*
G01*
X89323431Y-60914526D02*
X89536791Y-60914526D01*
X89768773Y-62118490D02*
G75*
G02*
X89764099Y-62119971I-3773J3790D01*
G01*
X80027031Y-61260483D02*
X80776199Y-61220035D01*
X84698246Y-59360314D02*
G75*
G02*
X84707877Y-59287648I272054J914D01*
G01*
X88508139Y-59697807D02*
G75*
G02*
X88447799Y-59661693I129661J285107D01*
G01*
X86504190Y-60849231D02*
X86558548Y-60854777D01*
X77865876Y-61444367D02*
X78258696Y-61411851D01*
X81160582Y-59418655D02*
X81265130Y-59832486D01*
X78619797Y-61405801D02*
X78628262Y-61427607D01*
X88853531Y-59733460D02*
X88683785Y-59728585D01*
X83444089Y-60909446D02*
X83716657Y-59832486D01*
X81848936Y-60160446D02*
X81807896Y-59972567D01*
X88659016Y-58763533D02*
X88519122Y-58771130D01*
X80993653Y-58752981D02*
G75*
G02*
X80992362Y-58742826I42647J10581D01*
G01*
X81565262Y-58847344D02*
X81554576Y-58798706D01*
X83716657Y-59832486D02*
X83821169Y-59418644D01*
X84587084Y-60369367D02*
G75*
G02*
X84560826Y-60264285I285516J127167D01*
G01*
X81807896Y-59972567D02*
X81761925Y-59760875D01*
X80129509Y-60540206D02*
G75*
G02*
X80103281Y-60522712I124991J215806D01*
G01*
X82441442Y-59769716D02*
X82493214Y-59575824D01*
X79583365Y-59595671D02*
G75*
G02*
X79616926Y-59511712I371035J-99629D01*
G01*
X79485201Y-59499780D02*
X79569280Y-59275164D01*
X81078616Y-60265949D02*
G75*
G02*
X81093320Y-60344570I-409916J-117351D01*
G01*
X89709466Y-61820934D02*
G75*
G02*
X89713820Y-61828827I-10366J-10866D01*
G01*
X79404410Y-59268865D02*
X79301529Y-59268606D01*
X84319384Y-60809296D02*
X84387088Y-60841373D01*
X84696090Y-61365027D02*
X86211353Y-61534164D01*
X79559671Y-60296901D02*
X79559671Y-60914526D01*
X82548743Y-59769683D02*
X82603985Y-59985310D01*
X89617455Y-62094761D02*
X89695384Y-62108487D01*
X89695384Y-62108487D02*
X89764096Y-62119986D01*
X85038451Y-59129138D02*
X85198471Y-59123938D01*
X88128634Y-59956992D02*
G75*
G02*
X88027484Y-59858555I353366J464292D01*
G01*
X87905921Y-59600154D02*
G75*
G02*
X87892442Y-59501212I599479J132054D01*
G01*
X87937219Y-59141247D02*
X87934073Y-59149754D01*
X84694844Y-60010302D02*
X84764585Y-59974726D01*
X84184067Y-59455633D02*
G75*
G02*
X84153015Y-59362088I388333J180833D01*
G01*
X80261550Y-60599494D02*
G75*
G02*
X80232224Y-60591623I31650J176494D01*
G01*
X84914163Y-59136279D02*
X84974370Y-59131993D01*
X85046452Y-59593726D02*
X84963199Y-59592918D01*
X84981528Y-59971175D02*
X85198471Y-59967625D01*
X84765533Y-58737997D02*
X84661179Y-58745918D01*
X82311618Y-61074988D02*
X81684804Y-61077378D01*
X83909188Y-59068105D02*
X83988007Y-58753001D01*
X80062591Y-59831673D02*
X80065558Y-59786746D01*
X86444092Y-59197358D02*
G75*
G02*
X86581936Y-59157236I260708J-638842D01*
G01*
X86535924Y-58793157D02*
X86494797Y-58798624D01*
X77837230Y-59286386D02*
G75*
G02*
X77842307Y-59276130I7270J2786D01*
G01*
X78584629Y-59988078D02*
X78484110Y-59672280D01*
X80928731Y-59692322D02*
G75*
G02*
X80906864Y-59687202I23569J149922D01*
G01*
X89110071Y-59433873D02*
X89110071Y-59737994D01*
X80392438Y-59583587D02*
G75*
G02*
X80531816Y-59585439I57862J-891213D01*
G01*
X86112593Y-59423257D02*
X86171233Y-59372785D01*
X86897694Y-60485866D02*
G75*
G02*
X86819448Y-60498119I-120694J514766D01*
G01*
X89087669Y-59116584D02*
G75*
G02*
X89103316Y-59122961I231J-21816D01*
G01*
X79567135Y-59691422D02*
G75*
G02*
X79583364Y-59595671I514065J-37878D01*
G01*
X84035403Y-60274446D02*
X84035151Y-60503046D01*
X84200154Y-58991599D02*
G75*
G02*
X84252885Y-58919876I289646J-157701D01*
G01*
X79716818Y-59385782D02*
G75*
G02*
X79763121Y-59351330I361282J-437218D01*
G01*
X81291951Y-61086160D02*
X80820731Y-61106519D01*
X80844836Y-59667629D02*
X80880042Y-59679183D01*
X85896136Y-59216209D02*
X85937111Y-59257643D01*
X80617244Y-59597864D02*
G75*
G02*
X80707191Y-59620451I-188444J-940836D01*
G01*
X84422292Y-59725161D02*
X84406708Y-59730785D01*
X79213966Y-61519886D02*
G75*
G02*
X79214229Y-61521679I-8166J-2114D01*
G01*
X86799674Y-60498882D02*
X86722471Y-60501882D01*
X79647235Y-59462115D02*
G75*
G02*
X79679380Y-59421444I303565J-206885D01*
G01*
X78681089Y-60287101D02*
X78584629Y-59988078D01*
X78637881Y-61453061D02*
X78662553Y-61519046D01*
X89087669Y-59116557D02*
X89087669Y-59116584D01*
X80283949Y-59593628D02*
G75*
G02*
X80353767Y-59584982I108751J-591972D01*
G01*
X83221511Y-59728940D02*
X83172439Y-59962127D01*
X82668631Y-60241448D02*
X82836271Y-60909446D01*
X87398885Y-59654211D02*
G75*
G02*
X87412239Y-59742809I-435785J-110989D01*
G01*
X86977639Y-60845309D02*
G75*
G02*
X86889656Y-60855022I-96139J467509D01*
G01*
X84764585Y-59974726D02*
X84981528Y-59971175D01*
X83852402Y-58731646D02*
X83707844Y-58732505D01*
X80091718Y-60764030D02*
X80108132Y-60777298D01*
X88399107Y-59612947D02*
G75*
G02*
X88373683Y-59578953I179493J160747D01*
G01*
X79986530Y-59257527D02*
G75*
G02*
X80206764Y-59229749I246170J-1064773D01*
G01*
X89653051Y-61801322D02*
X89563554Y-61784971D01*
X84969279Y-58731972D02*
X84765533Y-58737997D01*
X83066808Y-59968360D02*
X83006785Y-59735104D01*
X79867294Y-59295693D02*
G75*
G02*
X79986529Y-59257522I290306J-701507D01*
G01*
X88428966Y-59645456D02*
X88408121Y-59623730D01*
X84734417Y-59493380D02*
G75*
G02*
X84707572Y-59433076I163883J109080D01*
G01*
X86737711Y-60857922D02*
X86859386Y-60856664D01*
X80469626Y-59223027D02*
X80392569Y-59222387D01*
X82207342Y-58735206D02*
X82038529Y-59446406D01*
X88253542Y-60031922D02*
G75*
G02*
X88128630Y-59956997I275458J600822D01*
G01*
X86887641Y-58785639D02*
X86835183Y-58784866D01*
X87967938Y-59072420D02*
G75*
G02*
X87981206Y-59048623I255362J-126780D01*
G01*
X80077610Y-60753250D02*
X80091718Y-60764030D01*
X86967494Y-59180172D02*
G75*
G02*
X87042511Y-59212518I-274694J-740228D01*
G01*
X80961751Y-59498709D02*
X80961751Y-59299869D01*
X84406708Y-59730785D02*
X84388177Y-59736269D01*
X80100691Y-60143509D02*
X80119493Y-60144721D01*
X80880042Y-59679183D02*
X80906865Y-59687200D01*
X86889656Y-60855023D02*
X86925030Y-60853105D01*
X89536791Y-60914526D02*
X89536791Y-59837566D01*
X84875258Y-59583895D02*
G75*
G02*
X84840047Y-59573373I60042J265095D01*
G01*
X79568506Y-59270736D02*
X79491017Y-59269666D01*
X78863592Y-59776660D02*
X78798035Y-59971771D01*
X87347714Y-59516372D02*
G75*
G02*
X87398879Y-59654213I-621014J-308928D01*
G01*
X79281731Y-60041835D02*
X79392199Y-59747860D01*
X88447797Y-59661695D02*
G75*
G02*
X88428969Y-59645453I125303J164295D01*
G01*
X88079625Y-58932729D02*
G75*
G02*
X88141210Y-58878535I637775J-662671D01*
G01*
X81684804Y-61077378D02*
X81291951Y-61086160D01*
X77765399Y-61450194D02*
X77865876Y-61444367D01*
X80986775Y-60097456D02*
G75*
G02*
X81042345Y-60177761I-358775J-307644D01*
G01*
X85869031Y-60486082D02*
G75*
G02*
X85871568Y-60479317I10069J82D01*
G01*
X81093327Y-60344569D02*
G75*
G02*
X81097460Y-60443933I-1001527J-91431D01*
G01*
X81841097Y-60909446D02*
X82144409Y-60909446D01*
X79568506Y-59270736D02*
G75*
G02*
X79569778Y-59272214I-206J-1464D01*
G01*
X89563554Y-61784971D02*
X89457827Y-61765612D01*
X86981060Y-60844498D02*
X87041786Y-60830106D01*
X84956609Y-60923072D02*
X85270668Y-60924686D01*
X89771009Y-62111680D02*
G75*
G02*
X89768800Y-62118517I-7909J-1220D01*
G01*
X79103360Y-61234572D02*
X79035060Y-61058686D01*
X81097463Y-60443933D02*
G75*
G02*
X81091818Y-60542287I-997863J7933D01*
G01*
X84736560Y-59224421D02*
G75*
G02*
X84781930Y-59175978I165440J-109479D01*
G01*
X81539242Y-58730126D02*
X81265737Y-58730126D01*
X79679379Y-59421443D02*
G75*
G02*
X79716818Y-59385782I271021J-247057D01*
G01*
X80300714Y-60904247D02*
G75*
G02*
X80238167Y-60872603I288586J648047D01*
G01*
X80928731Y-59692322D02*
X80961751Y-59697549D01*
X88716532Y-59125881D02*
X88851119Y-59119565D01*
X84434672Y-59713353D02*
G75*
G02*
X84436441Y-59716866I-2672J-3547D01*
G01*
X89110071Y-60104377D02*
X89110071Y-60509451D01*
X78686768Y-60289156D02*
G75*
G02*
X78681040Y-60287117I-2068J3256D01*
G01*
X81867770Y-60160471D02*
G75*
G02*
X81863977Y-60172804I-102170J24671D01*
G01*
X85198471Y-59358832D02*
X85198471Y-59593726D01*
X81042343Y-60177762D02*
G75*
G02*
X81078621Y-60265948I-376743J-206538D01*
G01*
X78484110Y-59672280D02*
X78378292Y-59332106D01*
X88027485Y-59858555D02*
G75*
G02*
X87952790Y-59738590I456315J367355D01*
G01*
X88343366Y-59456084D02*
G75*
G02*
X88346457Y-59358718I776534J24084D01*
G01*
X88469343Y-59178657D02*
G75*
G02*
X88526226Y-59152256I129457J-204443D01*
G01*
X87401722Y-59972525D02*
G75*
G02*
X87380316Y-60059405I-443622J63225D01*
G01*
X86799674Y-60498882D02*
G75*
G02*
X86573039Y-60489528I-74974J933682D01*
G01*
X80923651Y-59289864D02*
X80859632Y-59275150D01*
X84306426Y-59624274D02*
G75*
G02*
X84237265Y-59546056I370374J397174D01*
G01*
X80580432Y-60406526D02*
G75*
G02*
X80566696Y-60495580I-286632J-1374D01*
G01*
X83329031Y-61086321D02*
X82938172Y-61077470D01*
X85862254Y-59180306D02*
X85896136Y-59216209D01*
X80853859Y-60893079D02*
G75*
G02*
X80743309Y-60941366I-254459J431879D01*
G01*
X85878051Y-60506088D02*
X85878073Y-60506063D01*
X83983471Y-58735722D02*
X83931806Y-58732988D01*
X87892437Y-59501212D02*
G75*
G02*
X87891869Y-59382741I1203963J65012D01*
G01*
X80153885Y-60148165D02*
X80194052Y-60152654D01*
X85937111Y-59257643D02*
X85985732Y-59304237D01*
X80557783Y-60960066D02*
G75*
G02*
X80453993Y-60951058I26817J911466D01*
G01*
X80537584Y-59225000D02*
X80469626Y-59223027D01*
X86573040Y-60489521D02*
G75*
G02*
X86443796Y-60453218I98060J597321D01*
G01*
X89700689Y-61814341D02*
G75*
G02*
X89709465Y-61820935I-26689J-44659D01*
G01*
X89066891Y-58760693D02*
X88659016Y-58763533D01*
X86211353Y-61534164D02*
X87803866Y-61769258D01*
X86036431Y-59005317D02*
G75*
G02*
X86184182Y-58911149I608969J-792483D01*
G01*
X84328919Y-58855247D02*
G75*
G02*
X84421484Y-58802645I334481J-480853D01*
G01*
X84153024Y-59362086D02*
G75*
G02*
X84141710Y-59266750I541376J112586D01*
G01*
X88308472Y-58799307D02*
G75*
G02*
X88519122Y-58771141I222828J-864693D01*
G01*
X80820731Y-61106519D02*
X80369283Y-61131993D01*
X80194052Y-60152654D02*
X80221571Y-60156048D01*
X80580751Y-59228311D02*
X80537584Y-59225000D01*
X86115224Y-60224720D02*
X85992127Y-60350267D01*
X78612273Y-61386810D02*
X78619797Y-61405801D01*
X85858871Y-59171704D02*
G75*
G02*
X85869977Y-59146941I32929J104D01*
G01*
X86447775Y-58809054D02*
G75*
G02*
X86535924Y-58793155I136225J-502946D01*
G01*
X82755056Y-58729809D02*
X82481199Y-58732507D01*
X84707560Y-59433079D02*
G75*
G02*
X84698245Y-59360314I289040J73979D01*
G01*
X84760509Y-60917227D02*
X84956609Y-60923072D01*
X83006785Y-59735104D02*
X82936683Y-59456781D01*
X86443792Y-60453227D02*
G75*
G02*
X86319282Y-60387042I256008J631827D01*
G01*
X86183618Y-60283584D02*
X86115224Y-60224720D01*
X83121149Y-60176543D02*
X83066808Y-59968360D01*
X86896047Y-59159089D02*
G75*
G02*
X86967495Y-59180168I-117947J-531411D01*
G01*
X79170335Y-60338144D02*
X79281731Y-60041835D01*
X79154325Y-61363686D02*
X79145140Y-61337611D01*
X87967938Y-59072420D02*
X87952412Y-59105340D01*
X84936633Y-59591352D02*
G75*
G02*
X84875258Y-59583896I5867J304652D01*
G01*
X80707191Y-59620451D02*
X80809351Y-59654932D01*
X82481199Y-58732507D02*
X82207342Y-58735206D01*
X79203790Y-61493125D02*
X79192313Y-61463276D01*
X78101711Y-61346870D02*
X77943808Y-61365327D01*
X82938172Y-61077470D02*
X82311618Y-61074988D01*
X86835183Y-58784866D02*
X86772107Y-58784719D01*
X80067671Y-60833246D02*
X80068107Y-60802081D01*
X82495911Y-59573480D02*
G75*
G02*
X82498444Y-59575475I-11J-2620D01*
G01*
X80743311Y-60941371D02*
G75*
G02*
X80660484Y-60957168I-117811J392671D01*
G01*
X88380104Y-59264304D02*
G75*
G02*
X88417669Y-59220004I287596J-205796D01*
G01*
X83172439Y-59962127D02*
X83127916Y-60171399D01*
X89110071Y-59737994D02*
X88853531Y-59733460D01*
X78378292Y-59332106D02*
X78358743Y-59268606D01*
X81523202Y-61205744D02*
X82316671Y-61217417D01*
X79560793Y-59854246D02*
X79559671Y-60296901D01*
X81858218Y-60183006D02*
G75*
G02*
X81855980Y-60181527I-18J2406D01*
G01*
X78978072Y-60901955D02*
G75*
G02*
X78974905Y-60873046I98828J25455D01*
G01*
X80108132Y-60777298D02*
X80126466Y-60793049D01*
X78628262Y-61427607D02*
X78637881Y-61453061D01*
X83983471Y-58735722D02*
G75*
G02*
X83989375Y-58742665I-1171J-6978D01*
G01*
X85944944Y-60399131D02*
X85905191Y-60441951D01*
X85878051Y-60506088D02*
X85949047Y-60568256D01*
X84045741Y-60029194D02*
G75*
G02*
X84058718Y-59988169I282859J-66906D01*
G01*
X78974901Y-60873046D02*
G75*
G02*
X78980444Y-60844623I91299J-3054D01*
G01*
X78391154Y-61313370D02*
X78101711Y-61346870D01*
X88976087Y-59116868D02*
X89087669Y-59116557D01*
X88683785Y-59728585D02*
G75*
G02*
X88572745Y-59717863I12415J708885D01*
G01*
X86269928Y-58870133D02*
X86189381Y-58908176D01*
X79178687Y-61428367D02*
X79165241Y-61393474D01*
X88802731Y-60099041D02*
X89110071Y-60104377D01*
X87886429Y-61506017D02*
X86357332Y-61312501D01*
X84523487Y-58766719D02*
G75*
G02*
X84661179Y-58745910I170613J-662981D01*
G01*
X78741675Y-60136778D02*
X78690780Y-60284144D01*
X84103712Y-60618163D02*
X84155911Y-60679062D01*
X79213966Y-61519886D02*
X79203790Y-61493125D01*
X79133203Y-61522844D02*
X79213131Y-61522808D01*
X84058716Y-59988168D02*
G75*
G02*
X84105557Y-59911825I246384J-98632D01*
G01*
X80068107Y-60802081D02*
X80069451Y-60775842D01*
X79145140Y-61337611D02*
G75*
G02*
X79145651Y-61335302I2260J711D01*
G01*
X84781935Y-59175984D02*
G75*
G02*
X84840058Y-59146163I113165J-149016D01*
G01*
X80993653Y-58752981D02*
X81072531Y-59068152D01*
X85992127Y-60350267D02*
X85944944Y-60399131D01*
X78990737Y-60816583D02*
X79074313Y-60593839D01*
X80759010Y-59256181D02*
X80656101Y-59238671D01*
X86310217Y-59267900D02*
G75*
G02*
X86444092Y-59197357I428083J-650100D01*
G01*
X79567135Y-59691422D02*
X79560793Y-59854246D01*
X80306234Y-60603325D02*
G75*
G02*
X80261550Y-60599493I-1434J245725D01*
G01*
X86504190Y-60849231D02*
G75*
G02*
X86453232Y-60839745I81410J578931D01*
G01*
X80560197Y-60307630D02*
G75*
G02*
X80580432Y-60406526I-237297J-100070D01*
G01*
X88851119Y-59119565D02*
X88976087Y-59116868D01*
X81606092Y-59036656D02*
X81565262Y-58847344D01*
X87945671Y-59121272D02*
X87937219Y-59141247D01*
X80859632Y-59275150D02*
X80759010Y-59256181D01*
X84252885Y-58919876D02*
G75*
G02*
X84328920Y-58855248I370815J-359224D01*
G01*
X88346459Y-59358718D02*
G75*
G02*
X88357821Y-59307116I216341J-20582D01*
G01*
X80316591Y-59223368D02*
X80206764Y-59229753D01*
X86187297Y-60737567D02*
G75*
G02*
X86045869Y-60645069I536303J974367D01*
G01*
X80949826Y-60819761D02*
G75*
G02*
X80853854Y-60893070I-351326J360461D01*
G01*
X85270668Y-60924686D02*
X85747111Y-60924686D01*
X86581935Y-59157231D02*
G75*
G02*
X86732631Y-59143663I151165J-835269D01*
G01*
X77666688Y-61400652D02*
G75*
G02*
X77688039Y-61396805I46112J-194748D01*
G01*
X84237262Y-59546058D02*
G75*
G02*
X84184059Y-59455637I443238J321658D01*
G01*
X81537785Y-60909446D02*
X81841097Y-60909446D01*
X84404626Y-59693147D02*
X84421296Y-59703903D01*
X80067671Y-60318960D02*
X80067671Y-60142366D01*
X80221571Y-60156048D02*
G75*
G02*
X80401591Y-60189423I-165871J-1396852D01*
G01*
X80566686Y-60495577D02*
G75*
G02*
X80525743Y-60556767I-127286J40877D01*
G01*
X77712907Y-61446673D02*
G75*
G02*
X77673603Y-61431832I18393J108173D01*
G01*
X87326890Y-60177191D02*
G75*
G02*
X87257338Y-60275994I-511790J286391D01*
G01*
X81708419Y-59512446D02*
X81654238Y-59260284D01*
X79214231Y-61521679D02*
G75*
G02*
X79213136Y-61522729I-1031J-21D01*
G01*
X87803866Y-61769258D02*
X89525858Y-62077518D01*
X79491017Y-59269666D02*
X79404410Y-59268865D01*
X81860387Y-60181589D02*
G75*
G02*
X81858218Y-60183000I-2187J989D01*
G01*
X80065558Y-59786746D02*
G75*
G02*
X80074701Y-59737298I214842J-14154D01*
G01*
X86608951Y-58787858D02*
X86544979Y-58791953D01*
X89727390Y-61885134D02*
X89713833Y-61828824D01*
X84963199Y-59592918D02*
X84936633Y-59591352D01*
X85282291Y-58730213D02*
X84969279Y-58731972D01*
X87380320Y-60059406D02*
G75*
G02*
X87326887Y-60177189I-724820J257806D01*
G01*
X81854404Y-60177448D02*
G75*
G02*
X81848929Y-60160448I85596J36948D01*
G01*
X85198471Y-60528446D02*
X85094331Y-60527929D01*
X83821169Y-59418644D02*
X83909188Y-59068105D01*
X83127916Y-60171399D02*
G75*
G02*
X83124596Y-60177458I-12116J2699D01*
G01*
X80603563Y-59898377D02*
X80450483Y-59871794D01*
X89536791Y-58760606D02*
X89066891Y-58760693D01*
X85985732Y-59304237D02*
X86112593Y-59423257D01*
X80169295Y-59632123D02*
G75*
G02*
X80224994Y-59608843I188105J-371777D01*
G01*
X87012312Y-60444878D02*
G75*
G02*
X86897695Y-60485871I-237912J484478D01*
G01*
X83707844Y-58732505D02*
X83426257Y-58735206D01*
X84560817Y-60264286D02*
G75*
G02*
X84563275Y-60177027I439483J31286D01*
G01*
X85198471Y-59593726D02*
X85046452Y-59593726D01*
X89110071Y-60509451D02*
X89110071Y-60914526D01*
X84623573Y-60906209D02*
G75*
G02*
X84517750Y-60887528I94327J843409D01*
G01*
X87586594Y-60473229D02*
G75*
G02*
X87433808Y-60628888I-793994J626529D01*
G01*
X88373689Y-59578949D02*
G75*
G02*
X88356223Y-59547241I305511J188949D01*
G01*
X83207111Y-61255350D02*
X84696090Y-61365027D01*
X88526223Y-59152246D02*
G75*
G02*
X88601821Y-59136013I124177J-394154D01*
G01*
X81091816Y-60542287D02*
G75*
G02*
X81075840Y-60617325I-372016J39987D01*
G01*
X78094520Y-59268606D02*
X77931275Y-59269008D01*
X84267647Y-60778650D02*
G75*
G02*
X84186238Y-60709031I266253J393750D01*
G01*
X84931100Y-60522311D02*
X84898441Y-60520152D01*
X86355911Y-58837159D02*
X86269928Y-58870133D01*
X81761925Y-59760875D02*
X81708419Y-59512446D01*
X89536791Y-59837566D02*
X89536791Y-58760606D01*
X84035151Y-60503046D02*
X84069026Y-60565495D01*
X81863975Y-60172803D02*
X81860387Y-60181589D01*
X77842318Y-59276168D02*
G75*
G02*
X77879529Y-59270923I37882J-134132D01*
G01*
X79781121Y-61279111D02*
X80027031Y-61260483D01*
X89108081Y-59217098D02*
X89109583Y-59316795D01*
X84421296Y-59703903D02*
X84434672Y-59713353D01*
X84840045Y-59573377D02*
G75*
G02*
X84778939Y-59540178I87655J234177D01*
G01*
X78393067Y-61400793D02*
X78506560Y-61391844D01*
X88417670Y-59220005D02*
G75*
G02*
X88469338Y-59178649I211830J-211695D01*
G01*
X79192313Y-61463276D02*
X79178687Y-61428367D01*
X85198471Y-59967625D02*
X85198471Y-60528446D01*
X87891871Y-59382741D02*
G75*
G02*
X87902793Y-59266474I1182729J-52459D01*
G01*
X80347061Y-60604001D02*
X80306234Y-60603325D01*
X84282575Y-59776681D02*
G75*
G02*
X84388179Y-59736277I253025J-503119D01*
G01*
X81025373Y-60725940D02*
G75*
G02*
X80949828Y-60819763I-425073J264940D01*
G01*
X80367489Y-60930348D02*
G75*
G02*
X80300713Y-60904250I248511J734348D01*
G01*
X86702151Y-58785459D02*
X86608951Y-58787858D01*
X81973396Y-59720158D02*
X81917613Y-59953168D01*
X80197368Y-60577229D02*
X80172434Y-60564820D01*
X87934073Y-59149754D02*
X87924806Y-59174811D01*
X84141716Y-59266750D02*
G75*
G02*
X84146441Y-59167662I629284J19650D01*
G01*
X85747111Y-59827406D02*
X85747111Y-58730126D01*
X80961751Y-59697549D02*
X80961751Y-59498709D01*
X81075847Y-60617327D02*
G75*
G02*
X81025375Y-60725941I-466247J150627D01*
G01*
X84989062Y-60525116D02*
X84931100Y-60522311D01*
X80067671Y-60142366D02*
X80100691Y-60143509D01*
X77873156Y-59381089D02*
X78215410Y-60309059D01*
X80250551Y-59849254D02*
X80062591Y-59831673D01*
X81265130Y-59832486D02*
X81537785Y-60909446D01*
X77931275Y-59269008D02*
X77879529Y-59270921D01*
X87257339Y-60275995D02*
G75*
G02*
X87170300Y-60356917I-426339J371295D01*
G01*
X84584770Y-60109129D02*
G75*
G02*
X84627782Y-60055247I163330J-86271D01*
G01*
X83124611Y-60177473D02*
G75*
G02*
X83121109Y-60176552I-1511J1373D01*
G01*
X89689081Y-61808866D02*
G75*
G02*
X89700689Y-61814341I-22681J-63134D01*
G01*
X80660484Y-60957173D02*
G75*
G02*
X80557783Y-60960062I-76484J891973D01*
G01*
X79559671Y-60914526D02*
X79813671Y-60914526D01*
X80069451Y-60775842D02*
X80071272Y-60754479D01*
X80656101Y-59238671D02*
X80580751Y-59228311D01*
X79763122Y-59351332D02*
G75*
G02*
X79867292Y-59295688I334278J-500468D01*
G01*
X89677619Y-61805709D02*
G75*
G02*
X89689082Y-61808862I-15619J-79191D01*
G01*
X82498500Y-59575461D02*
X82548743Y-59769683D01*
X89771009Y-62111680D02*
X89748426Y-61992097D01*
X87448293Y-59038806D02*
G75*
G02*
X87636079Y-59251723I-639393J-753194D01*
G01*
X87433804Y-60628883D02*
G75*
G02*
X87248639Y-60750285I-661604J807183D01*
G01*
X86447775Y-58809054D02*
X86355911Y-58837159D01*
X89103298Y-59122979D02*
G75*
G02*
X89106075Y-59129411I-6498J-6621D01*
G01*
X80369283Y-61131993D02*
X79920169Y-61163675D01*
X86357332Y-61312501D02*
X84816523Y-61170200D01*
X87760117Y-60112040D02*
G75*
G02*
X87697870Y-60292274I-911217J213840D01*
G01*
X80094816Y-59695167D02*
G75*
G02*
X80126372Y-59660257I135684J-90933D01*
G01*
X80145715Y-60550015D02*
X80129509Y-60540206D01*
X82603985Y-59985310D02*
X82668631Y-60241448D01*
X79455975Y-61202682D02*
X79103360Y-61234572D01*
X80103280Y-60522714D02*
X80067671Y-60495554D01*
X87412245Y-59742809D02*
G75*
G02*
X87412487Y-59857936I-1202345J-60091D01*
G01*
X80453992Y-60951063D02*
G75*
G02*
X80367488Y-60930351I69808J482563D01*
G01*
X82316671Y-61217417D02*
X83207111Y-61255350D01*
X86905351Y-58787449D02*
G75*
G02*
X87199909Y-58881134I-242751J-1273151D01*
G01*
X80992352Y-58742826D02*
G75*
G02*
X80998708Y-58735962I6748J126D01*
G01*
X84563282Y-60177028D02*
G75*
G02*
X84584758Y-60109123I198318J-25372D01*
G01*
X86184184Y-58911153D02*
X86113753Y-58951496D01*
X87412483Y-59857936D02*
G75*
G02*
X87401723Y-59972525I-1200583J54936D01*
G01*
X89748426Y-61992097D02*
X89727390Y-61885134D01*
X86820424Y-59147449D02*
G75*
G02*
X86896046Y-59159093I-50224J-577551D01*
G01*
X80073732Y-60751966D02*
G75*
G02*
X80077614Y-60753244I-32J-6634D01*
G01*
X88601820Y-59136008D02*
X88716532Y-59125881D01*
X84036167Y-60135042D02*
X84035403Y-60274446D01*
X88572745Y-59717864D02*
G75*
G02*
X88508140Y-59697806I46755J264664D01*
G01*
X87791166Y-59907429D02*
G75*
G02*
X87760125Y-60112042I-1292566J91429D01*
G01*
X87981209Y-59048625D02*
G75*
G02*
X88022059Y-58993309I368891J-229675D01*
G01*
X79920169Y-61163675D02*
X79455975Y-61202682D01*
X86362043Y-60814046D02*
G75*
G02*
X86273300Y-60779961I328157J986946D01*
G01*
X78690780Y-60284144D02*
G75*
G02*
X78686777Y-60289171I-8980J3044D01*
G01*
X78573169Y-61279217D02*
G75*
G02*
X78574148Y-61284733I-14869J-5483D01*
G01*
X82038529Y-59446406D02*
X81973396Y-59720158D01*
X80180030Y-60835495D02*
G75*
G02*
X80126465Y-60793050I384370J540095D01*
G01*
X88579142Y-60092736D02*
X88802731Y-60099041D01*
X87952790Y-59738590D02*
G75*
G02*
X87905921Y-59600154I606210J282390D01*
G01*
X88340039Y-60062624D02*
G75*
G02*
X88253543Y-60031920I128761J499924D01*
G01*
X78980451Y-60844625D02*
X78990737Y-60816583D01*
X84898441Y-60520152D02*
G75*
G02*
X84743334Y-60494915I40659J739152D01*
G01*
X87636089Y-59251717D02*
G75*
G02*
X87753395Y-59507289I-796689J-520383D01*
G01*
X80126372Y-59660257D02*
G75*
G02*
X80169299Y-59632132I147328J-178043D01*
G01*
X84707869Y-59287646D02*
G75*
G02*
X84736548Y-59224413I211831J-57954D01*
G01*
X84166315Y-59073172D02*
G75*
G02*
X84200158Y-58991601I403085J-119428D01*
G01*
X88022057Y-58993307D02*
G75*
G02*
X88079625Y-58932729I706743J-613993D01*
G01*
X78574151Y-61284733D02*
G75*
G02*
X78569199Y-61290421I-5551J-167D01*
G01*
X86558548Y-60854777D02*
X86629515Y-60857467D01*
X80401592Y-60189418D02*
G75*
G02*
X80504131Y-60237273I-74392J-293182D01*
G01*
X80531816Y-59585434D02*
G75*
G02*
X80617245Y-59597860I-74516J-812166D01*
G01*
X87902796Y-59266474D02*
G75*
G02*
X87934069Y-59149752I504904J-72726D01*
G01*
X85198471Y-59123938D02*
X85198471Y-59358832D01*
X87268991Y-59393612D02*
G75*
G02*
X87347711Y-59516374I-524091J-422688D01*
G01*
X80392438Y-59583587D02*
X80443591Y-59581736D01*
X85094331Y-60527929D02*
X85046660Y-60527134D01*
X89110071Y-60914526D02*
X89323431Y-60914526D01*
X77666688Y-61400652D02*
X77635501Y-61408280D01*
X88141208Y-58878533D02*
G75*
G02*
X88194184Y-58843636I209892J-260967D01*
G01*
X84039063Y-60071493D02*
G75*
G02*
X84045749Y-60029196I281437J-22807D01*
G01*
X79392199Y-59747860D02*
X79485201Y-59499780D01*
X85747111Y-60924686D02*
X85747111Y-59827406D01*
X78938392Y-61521749D02*
X79044163Y-61522587D01*
X89677619Y-61805709D02*
X89653051Y-61801322D01*
X78569199Y-61290424D02*
X78502882Y-61299522D01*
X86319284Y-60387039D02*
G75*
G02*
X86183620Y-60283582I804816J1196039D01*
G01*
X77943808Y-61365327D02*
X77805906Y-61382058D01*
X84778936Y-59540182D02*
G75*
G02*
X84734422Y-59493377I111364J150482D01*
G01*
X79813671Y-60914526D02*
X80067671Y-60914526D01*
X87042511Y-59212518D02*
G75*
G02*
X87165837Y-59290963I-301511J-610182D01*
G01*
X82384402Y-59985347D02*
X82441442Y-59769716D01*
X83989328Y-58742665D02*
G75*
G02*
X83988018Y-58753004I-43528J265D01*
G01*
X86453231Y-60839747D02*
G75*
G02*
X86362044Y-60814043I232369J998947D01*
G01*
X89525858Y-62077518D02*
X89617455Y-62094761D01*
X80224993Y-59608839D02*
G75*
G02*
X80283948Y-59593621I137007J-408961D01*
G01*
X88343909Y-59490895D02*
X88343366Y-59456084D01*
X80828113Y-59973937D02*
G75*
G02*
X80914325Y-60028509I-242613J-478663D01*
G01*
X83426257Y-58735206D02*
X83278584Y-59453199D01*
X78610964Y-61384833D02*
G75*
G02*
X78612268Y-61386812I-3564J-3767D01*
G01*
X88347627Y-59522110D02*
G75*
G02*
X88343907Y-59490895I176073J36810D01*
G01*
X80776199Y-61220035D02*
X81523202Y-61205744D01*
X86273302Y-60779957D02*
G75*
G02*
X86187298Y-60737565I424598J969857D01*
G01*
X86732631Y-59143662D02*
G75*
G02*
X86820424Y-59147447I669J-1004438D01*
G01*
X80525749Y-60556774D02*
G75*
G02*
X80453971Y-60592220I-107049J126374D01*
G01*
X85878073Y-60506063D02*
G75*
G02*
X85869042Y-60486082I17327J19863D01*
G01*
X82144409Y-60909446D02*
X82317620Y-60241478D01*
X79569831Y-59272215D02*
G75*
G02*
X79569288Y-59275167I-7831J-85D01*
G01*
X86045871Y-60645066D02*
X86104292Y-60687027D01*
X81917613Y-59953168D02*
X81867770Y-60160471D01*
X84184303Y-59838204D02*
G75*
G02*
X84282574Y-59776679I377797J-494196D01*
G01*
X85046660Y-60527134D02*
X84989062Y-60525116D01*
X82836271Y-60909446D02*
X83140180Y-60909446D01*
X80119493Y-60144721D02*
X80153885Y-60148165D01*
X88356222Y-59547242D02*
G75*
G02*
X88347618Y-59522112I97278J47342D01*
G01*
X77805906Y-61382058D02*
X77688038Y-61396801D01*
X80961751Y-59299869D02*
X80923651Y-59289864D01*
X79616930Y-59511714D02*
G75*
G02*
X79647233Y-59462113I510270J-277686D01*
G01*
X81127432Y-58730668D02*
X81049473Y-58732783D01*
X80450483Y-59871794D02*
X80250551Y-59849254D01*
X86629515Y-60857467D02*
X86737711Y-60857922D01*
X84319384Y-60809296D02*
G75*
G02*
X84267647Y-60778650I229716J446796D01*
G01*
X84421488Y-58802654D02*
G75*
G02*
X84523488Y-58766722I257012J-566846D01*
G01*
X82936683Y-59456781D02*
X82755056Y-58729809D01*
X84039063Y-60071493D02*
X84036167Y-60135042D01*
X84387088Y-60841373D02*
X84422860Y-60855609D01*
X87199909Y-58881135D02*
G75*
G02*
X87448289Y-59038810I-442209J-971065D01*
G01*
X84646360Y-60445785D02*
G75*
G02*
X84587096Y-60369362I126240J159085D01*
G01*
X84627782Y-60055247D02*
G75*
G02*
X84694840Y-60010294I221718J-258253D01*
G01*
X86171233Y-59372785D02*
G75*
G02*
X86310216Y-59267898I885267J-1028515D01*
G01*
X88399107Y-59612947D02*
X88388593Y-59600367D01*
X78662553Y-61519046D02*
X78938392Y-61521749D01*
X78798035Y-59971771D02*
X78741675Y-60136778D01*
X84436461Y-59716866D02*
G75*
G02*
X84434508Y-59719887I-3261J-34D01*
G01*
X87165839Y-59290961D02*
G75*
G02*
X87268992Y-59393611I-418139J-523339D01*
G01*
X81554576Y-58798706D02*
X81539242Y-58730126D01*
X81265737Y-58730126D02*
X81127432Y-58730668D01*
X78358743Y-59268606D02*
X78094520Y-59268606D01*
X87753403Y-59507287D02*
G75*
G02*
X87789325Y-59698991I-967503J-280513D01*
G01*
X80725475Y-59931415D02*
G75*
G02*
X80828117Y-59973928I-227275J-693885D01*
G01*
X88361634Y-59297274D02*
G75*
G02*
X88380101Y-59264302I157266J-66426D01*
G01*
X80504139Y-60237263D02*
G75*
G02*
X80560181Y-60307637I-97239J-134937D01*
G01*
X81072531Y-59068152D02*
X81160582Y-59418655D01*
X84743334Y-60494915D02*
G75*
G02*
X84646372Y-60445769I71666J261615D01*
G01*
X82493214Y-59575824D02*
G75*
G02*
X82495911Y-59573488I2686J-376D01*
G01*
X80074703Y-59737299D02*
G75*
G02*
X80094825Y-59695173I153397J-47401D01*
G01*
X80071272Y-60754479D02*
G75*
G02*
X80073732Y-60751971I2428J79D01*
G01*
X88440029Y-60081539D02*
G75*
G02*
X88340039Y-60062623I94671J774139D01*
G01*
X79074313Y-60593839D02*
X79170335Y-60338144D01*
X87064909Y-60421543D02*
X87012312Y-60444878D01*
X87697868Y-60292273D02*
G75*
G02*
X87586599Y-60473233I-826768J383673D01*
G01*
X80392569Y-59222387D02*
X80316591Y-59223368D01*
X79044163Y-61522587D02*
X79133203Y-61522844D01*
X83140180Y-60909446D02*
X83444089Y-60909446D01*
X84840053Y-59146146D02*
G75*
G02*
X84863736Y-59141245I37647J-122254D01*
G01*
X85949047Y-60568256D02*
X86027871Y-60632137D01*
X85862254Y-59180306D02*
G75*
G02*
X85858854Y-59171704I9446J8706D01*
G01*
X84373264Y-59674810D02*
X84404626Y-59693147D01*
X78258696Y-61411851D02*
X78393067Y-61400793D01*
X79301529Y-59268606D02*
X79033228Y-59268606D01*
X79153386Y-61331731D02*
X79478378Y-61304096D01*
X80067671Y-60495554D02*
X80067671Y-60318960D01*
X84103712Y-60618163D02*
G75*
G02*
X84069023Y-60565497I289988J228763D01*
G01*
X79478378Y-61304096D02*
X79781121Y-61279111D01*
X88440029Y-60081539D02*
X88579142Y-60092736D01*
X79165241Y-61393474D02*
X79154325Y-61363686D01*
X80067671Y-60914526D02*
X80067671Y-60833246D01*
X86887641Y-58785639D02*
G75*
G02*
X86905350Y-58787455I-1541J-102261D01*
G01*
X85198471Y-61191738D02*
X83329031Y-61086321D01*
X78608762Y-61384017D02*
G75*
G02*
X78610960Y-61384838I138J-2983D01*
G01*
X80603563Y-59898377D02*
G75*
G02*
X80725475Y-59931414I-257863J-1193023D01*
G01*
X84155911Y-60679062D02*
X84186244Y-60709025D01*
X81049473Y-58732783D02*
X80998708Y-58735959D01*
X80453970Y-60592216D02*
G75*
G02*
X80347061Y-60604004I-109170J499416D01*
G01*
X84146445Y-59167663D02*
G75*
G02*
X84166320Y-59073173I594155J-75637D01*
G01*
X80914327Y-60028506D02*
G75*
G02*
X80986767Y-60097463I-303727J-391594D01*
G01*
X77635501Y-61408280D02*
X77673605Y-61431829D01*
X84105550Y-59911819D02*
G75*
G02*
X84184304Y-59838205I410550J-360281D01*
G01*
X81654238Y-59260284D02*
X81606092Y-59036656D01*
X83931806Y-58732988D02*
X83852402Y-58731646D01*
X78993966Y-60951332D02*
G75*
G02*
X78978070Y-60901955I405634J157832D01*
G01*
X84623573Y-60906209D02*
X84760509Y-60917227D01*
X89109583Y-59316795D02*
X89110071Y-59433873D01*
X78502882Y-61299522D02*
X78391154Y-61313370D01*
X85905191Y-60441951D02*
X85871585Y-60479332D01*
X84434511Y-59719895D02*
X84422292Y-59725161D01*
X87789320Y-59698991D02*
G75*
G02*
X87791166Y-59907429I-1307520J-115809D01*
G01*
X86036431Y-59005317D02*
X85949821Y-59075925D01*
X84974370Y-59131993D02*
X85038451Y-59129138D01*
X84863736Y-59141242D02*
X84914163Y-59136279D01*
X81856028Y-60181507D02*
X81852563Y-60172846D01*
X84517751Y-60887524D02*
G75*
G02*
X84422857Y-60855615I137149J564924D01*
G01*
X87248644Y-60750295D02*
G75*
G02*
X86981061Y-60844503I-479244J934095D01*
G01*
X77765399Y-61450194D02*
G75*
G02*
X77712906Y-61446681I-9099J257994D01*
G01*
X89106059Y-59129411D02*
X89108081Y-59217098D01*
X79145667Y-61335316D02*
G75*
G02*
X79153383Y-61331697I8733J-8584D01*
G01*
X80232221Y-60591630D02*
G75*
G02*
X80197368Y-60577229I143479J396630D01*
G01*
X78506560Y-61391844D02*
X78608762Y-61384017D01*
X88194186Y-58843640D02*
G75*
G02*
X88308475Y-58799317I244314J-460460D01*
G01*
X79033228Y-59268606D02*
X78863592Y-59776660D01*
X80172434Y-60564820D02*
X80145715Y-60550015D01*
X80809351Y-59654932D02*
X80844836Y-59667629D01*
X82317620Y-60241478D02*
X82384402Y-59985347D01*
X84373264Y-59674810D02*
G75*
G02*
X84306420Y-59624280I211236J348910D01*
G01*
X85747111Y-58730126D02*
X85282291Y-58730213D01*
X77837230Y-59286386D02*
X77873156Y-59381089D01*
D11*
X105244145Y-59231775D02*
X105701288Y-59231775D01*
X105472716Y-59231775D02*
X105472716Y-58431775D01*
X105472716Y-58431775D02*
X105548907Y-58546060D01*
X105548907Y-58546060D02*
X105625097Y-58622251D01*
X105625097Y-58622251D02*
X105701288Y-58660346D01*
X104329859Y-58393680D02*
X105015573Y-59422251D01*
X104101288Y-58507965D02*
X104063192Y-58469870D01*
X104063192Y-58469870D02*
X103987002Y-58431775D01*
X103987002Y-58431775D02*
X103796526Y-58431775D01*
X103796526Y-58431775D02*
X103720335Y-58469870D01*
X103720335Y-58469870D02*
X103682240Y-58507965D01*
X103682240Y-58507965D02*
X103644145Y-58584156D01*
X103644145Y-58584156D02*
X103644145Y-58660346D01*
X103644145Y-58660346D02*
X103682240Y-58774632D01*
X103682240Y-58774632D02*
X104139383Y-59231775D01*
X104139383Y-59231775D02*
X103644145Y-59231775D01*
X102958430Y-58698441D02*
X102958430Y-59231775D01*
X103148906Y-58393680D02*
X103339383Y-58965108D01*
X103339383Y-58965108D02*
X102844144Y-58965108D01*
X101967954Y-58393680D02*
X102653668Y-59422251D01*
X101739383Y-58507965D02*
X101701287Y-58469870D01*
X101701287Y-58469870D02*
X101625097Y-58431775D01*
X101625097Y-58431775D02*
X101434621Y-58431775D01*
X101434621Y-58431775D02*
X101358430Y-58469870D01*
X101358430Y-58469870D02*
X101320335Y-58507965D01*
X101320335Y-58507965D02*
X101282240Y-58584156D01*
X101282240Y-58584156D02*
X101282240Y-58660346D01*
X101282240Y-58660346D02*
X101320335Y-58774632D01*
X101320335Y-58774632D02*
X101777478Y-59231775D01*
X101777478Y-59231775D02*
X101282240Y-59231775D01*
X100558430Y-58431775D02*
X100939382Y-58431775D01*
X100939382Y-58431775D02*
X100977478Y-58812727D01*
X100977478Y-58812727D02*
X100939382Y-58774632D01*
X100939382Y-58774632D02*
X100863192Y-58736537D01*
X100863192Y-58736537D02*
X100672716Y-58736537D01*
X100672716Y-58736537D02*
X100596525Y-58774632D01*
X100596525Y-58774632D02*
X100558430Y-58812727D01*
X100558430Y-58812727D02*
X100520335Y-58888918D01*
X100520335Y-58888918D02*
X100520335Y-59079394D01*
X100520335Y-59079394D02*
X100558430Y-59155584D01*
X100558430Y-59155584D02*
X100596525Y-59193680D01*
X100596525Y-59193680D02*
X100672716Y-59231775D01*
X100672716Y-59231775D02*
X100863192Y-59231775D01*
X100863192Y-59231775D02*
X100939382Y-59193680D01*
X100939382Y-59193680D02*
X100977478Y-59155584D01*
X99110810Y-59231775D02*
X99377477Y-58850822D01*
X99567953Y-59231775D02*
X99567953Y-58431775D01*
X99567953Y-58431775D02*
X99263191Y-58431775D01*
X99263191Y-58431775D02*
X99187001Y-58469870D01*
X99187001Y-58469870D02*
X99148906Y-58507965D01*
X99148906Y-58507965D02*
X99110810Y-58584156D01*
X99110810Y-58584156D02*
X99110810Y-58698441D01*
X99110810Y-58698441D02*
X99148906Y-58774632D01*
X99148906Y-58774632D02*
X99187001Y-58812727D01*
X99187001Y-58812727D02*
X99263191Y-58850822D01*
X99263191Y-58850822D02*
X99567953Y-58850822D01*
X98463191Y-59193680D02*
X98539382Y-59231775D01*
X98539382Y-59231775D02*
X98691763Y-59231775D01*
X98691763Y-59231775D02*
X98767953Y-59193680D01*
X98767953Y-59193680D02*
X98806049Y-59117489D01*
X98806049Y-59117489D02*
X98806049Y-58812727D01*
X98806049Y-58812727D02*
X98767953Y-58736537D01*
X98767953Y-58736537D02*
X98691763Y-58698441D01*
X98691763Y-58698441D02*
X98539382Y-58698441D01*
X98539382Y-58698441D02*
X98463191Y-58736537D01*
X98463191Y-58736537D02*
X98425096Y-58812727D01*
X98425096Y-58812727D02*
X98425096Y-58888918D01*
X98425096Y-58888918D02*
X98806049Y-58965108D01*
X98158430Y-58698441D02*
X97967954Y-59231775D01*
X97967954Y-59231775D02*
X97777477Y-58698441D01*
X96939382Y-58431775D02*
X96444144Y-58431775D01*
X96444144Y-58431775D02*
X96710810Y-58736537D01*
X96710810Y-58736537D02*
X96596525Y-58736537D01*
X96596525Y-58736537D02*
X96520334Y-58774632D01*
X96520334Y-58774632D02*
X96482239Y-58812727D01*
X96482239Y-58812727D02*
X96444144Y-58888918D01*
X96444144Y-58888918D02*
X96444144Y-59079394D01*
X96444144Y-59079394D02*
X96482239Y-59155584D01*
X96482239Y-59155584D02*
X96520334Y-59193680D01*
X96520334Y-59193680D02*
X96596525Y-59231775D01*
X96596525Y-59231775D02*
X96825096Y-59231775D01*
X96825096Y-59231775D02*
X96901287Y-59193680D01*
X96901287Y-59193680D02*
X96939382Y-59155584D01*
X105663192Y-60519730D02*
X105663192Y-59719730D01*
X105663192Y-59719730D02*
X105472716Y-59719730D01*
X105472716Y-59719730D02*
X105358430Y-59757825D01*
X105358430Y-59757825D02*
X105282240Y-59834015D01*
X105282240Y-59834015D02*
X105244145Y-59910206D01*
X105244145Y-59910206D02*
X105206049Y-60062587D01*
X105206049Y-60062587D02*
X105206049Y-60176873D01*
X105206049Y-60176873D02*
X105244145Y-60329254D01*
X105244145Y-60329254D02*
X105282240Y-60405444D01*
X105282240Y-60405444D02*
X105358430Y-60481635D01*
X105358430Y-60481635D02*
X105472716Y-60519730D01*
X105472716Y-60519730D02*
X105663192Y-60519730D01*
X104901288Y-60291158D02*
X104520335Y-60291158D01*
X104977478Y-60519730D02*
X104710811Y-59719730D01*
X104710811Y-59719730D02*
X104444145Y-60519730D01*
X104177478Y-60519730D02*
X104177478Y-59719730D01*
X103834622Y-60481635D02*
X103720336Y-60519730D01*
X103720336Y-60519730D02*
X103529860Y-60519730D01*
X103529860Y-60519730D02*
X103453669Y-60481635D01*
X103453669Y-60481635D02*
X103415574Y-60443539D01*
X103415574Y-60443539D02*
X103377479Y-60367349D01*
X103377479Y-60367349D02*
X103377479Y-60291158D01*
X103377479Y-60291158D02*
X103415574Y-60214968D01*
X103415574Y-60214968D02*
X103453669Y-60176873D01*
X103453669Y-60176873D02*
X103529860Y-60138777D01*
X103529860Y-60138777D02*
X103682241Y-60100682D01*
X103682241Y-60100682D02*
X103758431Y-60062587D01*
X103758431Y-60062587D02*
X103796526Y-60024492D01*
X103796526Y-60024492D02*
X103834622Y-59948301D01*
X103834622Y-59948301D02*
X103834622Y-59872111D01*
X103834622Y-59872111D02*
X103796526Y-59795920D01*
X103796526Y-59795920D02*
X103758431Y-59757825D01*
X103758431Y-59757825D02*
X103682241Y-59719730D01*
X103682241Y-59719730D02*
X103491764Y-59719730D01*
X103491764Y-59719730D02*
X103377479Y-59757825D01*
X102882240Y-60138777D02*
X102882240Y-60519730D01*
X103148907Y-59719730D02*
X102882240Y-60138777D01*
X102882240Y-60138777D02*
X102615574Y-59719730D01*
X101472717Y-60100682D02*
X101358431Y-60138777D01*
X101358431Y-60138777D02*
X101320336Y-60176873D01*
X101320336Y-60176873D02*
X101282240Y-60253063D01*
X101282240Y-60253063D02*
X101282240Y-60367349D01*
X101282240Y-60367349D02*
X101320336Y-60443539D01*
X101320336Y-60443539D02*
X101358431Y-60481635D01*
X101358431Y-60481635D02*
X101434621Y-60519730D01*
X101434621Y-60519730D02*
X101739383Y-60519730D01*
X101739383Y-60519730D02*
X101739383Y-59719730D01*
X101739383Y-59719730D02*
X101472717Y-59719730D01*
X101472717Y-59719730D02*
X101396526Y-59757825D01*
X101396526Y-59757825D02*
X101358431Y-59795920D01*
X101358431Y-59795920D02*
X101320336Y-59872111D01*
X101320336Y-59872111D02*
X101320336Y-59948301D01*
X101320336Y-59948301D02*
X101358431Y-60024492D01*
X101358431Y-60024492D02*
X101396526Y-60062587D01*
X101396526Y-60062587D02*
X101472717Y-60100682D01*
X101472717Y-60100682D02*
X101739383Y-60100682D01*
X100787002Y-59719730D02*
X100634621Y-59719730D01*
X100634621Y-59719730D02*
X100558431Y-59757825D01*
X100558431Y-59757825D02*
X100482240Y-59834015D01*
X100482240Y-59834015D02*
X100444145Y-59986396D01*
X100444145Y-59986396D02*
X100444145Y-60253063D01*
X100444145Y-60253063D02*
X100482240Y-60405444D01*
X100482240Y-60405444D02*
X100558431Y-60481635D01*
X100558431Y-60481635D02*
X100634621Y-60519730D01*
X100634621Y-60519730D02*
X100787002Y-60519730D01*
X100787002Y-60519730D02*
X100863193Y-60481635D01*
X100863193Y-60481635D02*
X100939383Y-60405444D01*
X100939383Y-60405444D02*
X100977479Y-60253063D01*
X100977479Y-60253063D02*
X100977479Y-59986396D01*
X100977479Y-59986396D02*
X100939383Y-59834015D01*
X100939383Y-59834015D02*
X100863193Y-59757825D01*
X100863193Y-59757825D02*
X100787002Y-59719730D01*
X100139384Y-60291158D02*
X99758431Y-60291158D01*
X100215574Y-60519730D02*
X99948907Y-59719730D01*
X99948907Y-59719730D02*
X99682241Y-60519730D01*
X98958431Y-60519730D02*
X99225098Y-60138777D01*
X99415574Y-60519730D02*
X99415574Y-59719730D01*
X99415574Y-59719730D02*
X99110812Y-59719730D01*
X99110812Y-59719730D02*
X99034622Y-59757825D01*
X99034622Y-59757825D02*
X98996527Y-59795920D01*
X98996527Y-59795920D02*
X98958431Y-59872111D01*
X98958431Y-59872111D02*
X98958431Y-59986396D01*
X98958431Y-59986396D02*
X98996527Y-60062587D01*
X98996527Y-60062587D02*
X99034622Y-60100682D01*
X99034622Y-60100682D02*
X99110812Y-60138777D01*
X99110812Y-60138777D02*
X99415574Y-60138777D01*
X98615574Y-60519730D02*
X98615574Y-59719730D01*
X98615574Y-59719730D02*
X98425098Y-59719730D01*
X98425098Y-59719730D02*
X98310812Y-59757825D01*
X98310812Y-59757825D02*
X98234622Y-59834015D01*
X98234622Y-59834015D02*
X98196527Y-59910206D01*
X98196527Y-59910206D02*
X98158431Y-60062587D01*
X98158431Y-60062587D02*
X98158431Y-60176873D01*
X98158431Y-60176873D02*
X98196527Y-60329254D01*
X98196527Y-60329254D02*
X98234622Y-60405444D01*
X98234622Y-60405444D02*
X98310812Y-60481635D01*
X98310812Y-60481635D02*
X98425098Y-60519730D01*
X98425098Y-60519730D02*
X98615574Y-60519730D01*
X97206050Y-60519730D02*
X97206050Y-59719730D01*
X97206050Y-59719730D02*
X97015574Y-59719730D01*
X97015574Y-59719730D02*
X96901288Y-59757825D01*
X96901288Y-59757825D02*
X96825098Y-59834015D01*
X96825098Y-59834015D02*
X96787003Y-59910206D01*
X96787003Y-59910206D02*
X96748907Y-60062587D01*
X96748907Y-60062587D02*
X96748907Y-60176873D01*
X96748907Y-60176873D02*
X96787003Y-60329254D01*
X96787003Y-60329254D02*
X96825098Y-60405444D01*
X96825098Y-60405444D02*
X96901288Y-60481635D01*
X96901288Y-60481635D02*
X97015574Y-60519730D01*
X97015574Y-60519730D02*
X97206050Y-60519730D01*
X95948907Y-60443539D02*
X95987003Y-60481635D01*
X95987003Y-60481635D02*
X96101288Y-60519730D01*
X96101288Y-60519730D02*
X96177479Y-60519730D01*
X96177479Y-60519730D02*
X96291765Y-60481635D01*
X96291765Y-60481635D02*
X96367955Y-60405444D01*
X96367955Y-60405444D02*
X96406050Y-60329254D01*
X96406050Y-60329254D02*
X96444146Y-60176873D01*
X96444146Y-60176873D02*
X96444146Y-60062587D01*
X96444146Y-60062587D02*
X96406050Y-59910206D01*
X96406050Y-59910206D02*
X96367955Y-59834015D01*
X96367955Y-59834015D02*
X96291765Y-59757825D01*
X96291765Y-59757825D02*
X96177479Y-59719730D01*
X96177479Y-59719730D02*
X96101288Y-59719730D01*
X96101288Y-59719730D02*
X95987003Y-59757825D01*
X95987003Y-59757825D02*
X95948907Y-59795920D01*
X105396526Y-61388637D02*
X105282240Y-61426732D01*
X105282240Y-61426732D02*
X105244145Y-61464828D01*
X105244145Y-61464828D02*
X105206049Y-61541018D01*
X105206049Y-61541018D02*
X105206049Y-61655304D01*
X105206049Y-61655304D02*
X105244145Y-61731494D01*
X105244145Y-61731494D02*
X105282240Y-61769590D01*
X105282240Y-61769590D02*
X105358430Y-61807685D01*
X105358430Y-61807685D02*
X105663192Y-61807685D01*
X105663192Y-61807685D02*
X105663192Y-61007685D01*
X105663192Y-61007685D02*
X105396526Y-61007685D01*
X105396526Y-61007685D02*
X105320335Y-61045780D01*
X105320335Y-61045780D02*
X105282240Y-61083875D01*
X105282240Y-61083875D02*
X105244145Y-61160066D01*
X105244145Y-61160066D02*
X105244145Y-61236256D01*
X105244145Y-61236256D02*
X105282240Y-61312447D01*
X105282240Y-61312447D02*
X105320335Y-61350542D01*
X105320335Y-61350542D02*
X105396526Y-61388637D01*
X105396526Y-61388637D02*
X105663192Y-61388637D01*
X104939383Y-61274351D02*
X104748907Y-61807685D01*
X104558430Y-61274351D02*
X104748907Y-61807685D01*
X104748907Y-61807685D02*
X104825097Y-61998161D01*
X104825097Y-61998161D02*
X104863192Y-62036256D01*
X104863192Y-62036256D02*
X104939383Y-62074351D01*
X103263192Y-61807685D02*
X103644144Y-61807685D01*
X103644144Y-61807685D02*
X103644144Y-61007685D01*
X102653668Y-61274351D02*
X102653668Y-61807685D01*
X102996525Y-61274351D02*
X102996525Y-61693399D01*
X102996525Y-61693399D02*
X102958430Y-61769590D01*
X102958430Y-61769590D02*
X102882240Y-61807685D01*
X102882240Y-61807685D02*
X102767954Y-61807685D01*
X102767954Y-61807685D02*
X102691763Y-61769590D01*
X102691763Y-61769590D02*
X102653668Y-61731494D01*
X101929858Y-61769590D02*
X102006049Y-61807685D01*
X102006049Y-61807685D02*
X102158430Y-61807685D01*
X102158430Y-61807685D02*
X102234620Y-61769590D01*
X102234620Y-61769590D02*
X102272715Y-61731494D01*
X102272715Y-61731494D02*
X102310811Y-61655304D01*
X102310811Y-61655304D02*
X102310811Y-61426732D01*
X102310811Y-61426732D02*
X102272715Y-61350542D01*
X102272715Y-61350542D02*
X102234620Y-61312447D01*
X102234620Y-61312447D02*
X102158430Y-61274351D01*
X102158430Y-61274351D02*
X102006049Y-61274351D01*
X102006049Y-61274351D02*
X101929858Y-61312447D01*
X101244144Y-61807685D02*
X101244144Y-61388637D01*
X101244144Y-61388637D02*
X101282239Y-61312447D01*
X101282239Y-61312447D02*
X101358430Y-61274351D01*
X101358430Y-61274351D02*
X101510811Y-61274351D01*
X101510811Y-61274351D02*
X101587001Y-61312447D01*
X101244144Y-61769590D02*
X101320335Y-61807685D01*
X101320335Y-61807685D02*
X101510811Y-61807685D01*
X101510811Y-61807685D02*
X101587001Y-61769590D01*
X101587001Y-61769590D02*
X101625097Y-61693399D01*
X101625097Y-61693399D02*
X101625097Y-61617209D01*
X101625097Y-61617209D02*
X101587001Y-61541018D01*
X101587001Y-61541018D02*
X101510811Y-61502923D01*
X101510811Y-61502923D02*
X101320335Y-61502923D01*
X101320335Y-61502923D02*
X101244144Y-61464828D01*
X100901287Y-61769590D02*
X100825096Y-61807685D01*
X100825096Y-61807685D02*
X100672715Y-61807685D01*
X100672715Y-61807685D02*
X100596525Y-61769590D01*
X100596525Y-61769590D02*
X100558429Y-61693399D01*
X100558429Y-61693399D02*
X100558429Y-61655304D01*
X100558429Y-61655304D02*
X100596525Y-61579113D01*
X100596525Y-61579113D02*
X100672715Y-61541018D01*
X100672715Y-61541018D02*
X100787001Y-61541018D01*
X100787001Y-61541018D02*
X100863191Y-61502923D01*
X100863191Y-61502923D02*
X100901287Y-61426732D01*
X100901287Y-61426732D02*
X100901287Y-61388637D01*
X100901287Y-61388637D02*
X100863191Y-61312447D01*
X100863191Y-61312447D02*
X100787001Y-61274351D01*
X100787001Y-61274351D02*
X100672715Y-61274351D01*
X100672715Y-61274351D02*
X100596525Y-61312447D01*
X99682239Y-61007685D02*
X99491763Y-61807685D01*
X99491763Y-61807685D02*
X99339382Y-61236256D01*
X99339382Y-61236256D02*
X99187001Y-61807685D01*
X99187001Y-61807685D02*
X98996525Y-61007685D01*
X98691762Y-61807685D02*
X98691762Y-61274351D01*
X98691762Y-61007685D02*
X98729858Y-61045780D01*
X98729858Y-61045780D02*
X98691762Y-61083875D01*
X98691762Y-61083875D02*
X98653667Y-61045780D01*
X98653667Y-61045780D02*
X98691762Y-61007685D01*
X98691762Y-61007685D02*
X98691762Y-61083875D01*
X98196525Y-61807685D02*
X98272715Y-61769590D01*
X98272715Y-61769590D02*
X98310810Y-61693399D01*
X98310810Y-61693399D02*
X98310810Y-61007685D01*
X97929858Y-61769590D02*
X97853667Y-61807685D01*
X97853667Y-61807685D02*
X97701286Y-61807685D01*
X97701286Y-61807685D02*
X97625096Y-61769590D01*
X97625096Y-61769590D02*
X97587000Y-61693399D01*
X97587000Y-61693399D02*
X97587000Y-61655304D01*
X97587000Y-61655304D02*
X97625096Y-61579113D01*
X97625096Y-61579113D02*
X97701286Y-61541018D01*
X97701286Y-61541018D02*
X97815572Y-61541018D01*
X97815572Y-61541018D02*
X97891762Y-61502923D01*
X97891762Y-61502923D02*
X97929858Y-61426732D01*
X97929858Y-61426732D02*
X97929858Y-61388637D01*
X97929858Y-61388637D02*
X97891762Y-61312447D01*
X97891762Y-61312447D02*
X97815572Y-61274351D01*
X97815572Y-61274351D02*
X97701286Y-61274351D01*
X97701286Y-61274351D02*
X97625096Y-61312447D01*
X97129858Y-61807685D02*
X97206048Y-61769590D01*
X97206048Y-61769590D02*
X97244143Y-61731494D01*
X97244143Y-61731494D02*
X97282239Y-61655304D01*
X97282239Y-61655304D02*
X97282239Y-61426732D01*
X97282239Y-61426732D02*
X97244143Y-61350542D01*
X97244143Y-61350542D02*
X97206048Y-61312447D01*
X97206048Y-61312447D02*
X97129858Y-61274351D01*
X97129858Y-61274351D02*
X97015572Y-61274351D01*
X97015572Y-61274351D02*
X96939381Y-61312447D01*
X96939381Y-61312447D02*
X96901286Y-61350542D01*
X96901286Y-61350542D02*
X96863191Y-61426732D01*
X96863191Y-61426732D02*
X96863191Y-61655304D01*
X96863191Y-61655304D02*
X96901286Y-61731494D01*
X96901286Y-61731494D02*
X96939381Y-61769590D01*
X96939381Y-61769590D02*
X97015572Y-61807685D01*
X97015572Y-61807685D02*
X97129858Y-61807685D01*
X96520333Y-61274351D02*
X96520333Y-61807685D01*
X96520333Y-61350542D02*
X96482238Y-61312447D01*
X96482238Y-61312447D02*
X96406048Y-61274351D01*
X96406048Y-61274351D02*
X96291762Y-61274351D01*
X96291762Y-61274351D02*
X96215571Y-61312447D01*
X96215571Y-61312447D02*
X96177476Y-61388637D01*
X96177476Y-61388637D02*
X96177476Y-61807685D01*
X105015573Y-63095640D02*
X105053669Y-63095640D01*
X105053669Y-63095640D02*
X105129859Y-63057545D01*
X105129859Y-63057545D02*
X105244145Y-62943259D01*
X105244145Y-62943259D02*
X105434621Y-62714687D01*
X105434621Y-62714687D02*
X105510811Y-62600402D01*
X105510811Y-62600402D02*
X105548907Y-62486116D01*
X105548907Y-62486116D02*
X105548907Y-62409925D01*
X105548907Y-62409925D02*
X105510811Y-62333735D01*
X105510811Y-62333735D02*
X105434621Y-62295640D01*
X105434621Y-62295640D02*
X105396526Y-62295640D01*
X105396526Y-62295640D02*
X105320335Y-62333735D01*
X105320335Y-62333735D02*
X105282240Y-62409925D01*
X105282240Y-62409925D02*
X105282240Y-62448021D01*
X105282240Y-62448021D02*
X105320335Y-62524211D01*
X105320335Y-62524211D02*
X105358430Y-62562306D01*
X105358430Y-62562306D02*
X105587002Y-62714687D01*
X105587002Y-62714687D02*
X105625097Y-62752783D01*
X105625097Y-62752783D02*
X105663192Y-62828973D01*
X105663192Y-62828973D02*
X105663192Y-62943259D01*
X105663192Y-62943259D02*
X105625097Y-63019449D01*
X105625097Y-63019449D02*
X105587002Y-63057545D01*
X105587002Y-63057545D02*
X105510811Y-63095640D01*
X105510811Y-63095640D02*
X105396526Y-63095640D01*
X105396526Y-63095640D02*
X105320335Y-63057545D01*
X105320335Y-63057545D02*
X105282240Y-63019449D01*
X105282240Y-63019449D02*
X105167954Y-62867068D01*
X105167954Y-62867068D02*
X105129859Y-62752783D01*
X105129859Y-62752783D02*
X105129859Y-62676592D01*
X104139383Y-62295640D02*
X103948907Y-63095640D01*
X103948907Y-63095640D02*
X103796526Y-62524211D01*
X103796526Y-62524211D02*
X103644145Y-63095640D01*
X103644145Y-63095640D02*
X103453669Y-62295640D01*
X103148906Y-63095640D02*
X103148906Y-62562306D01*
X103148906Y-62295640D02*
X103187002Y-62333735D01*
X103187002Y-62333735D02*
X103148906Y-62371830D01*
X103148906Y-62371830D02*
X103110811Y-62333735D01*
X103110811Y-62333735D02*
X103148906Y-62295640D01*
X103148906Y-62295640D02*
X103148906Y-62371830D01*
X102653669Y-63095640D02*
X102729859Y-63057545D01*
X102729859Y-63057545D02*
X102767954Y-62981354D01*
X102767954Y-62981354D02*
X102767954Y-62295640D01*
X102234621Y-63095640D02*
X102310811Y-63057545D01*
X102310811Y-63057545D02*
X102348906Y-62981354D01*
X102348906Y-62981354D02*
X102348906Y-62295640D01*
X101434620Y-62295640D02*
X100977477Y-62295640D01*
X101206049Y-63095640D02*
X101206049Y-62295640D01*
X100710810Y-63095640D02*
X100710810Y-62295640D01*
X100367953Y-63095640D02*
X100367953Y-62676592D01*
X100367953Y-62676592D02*
X100406048Y-62600402D01*
X100406048Y-62600402D02*
X100482239Y-62562306D01*
X100482239Y-62562306D02*
X100596525Y-62562306D01*
X100596525Y-62562306D02*
X100672715Y-62600402D01*
X100672715Y-62600402D02*
X100710810Y-62638497D01*
X99644143Y-63095640D02*
X99644143Y-62676592D01*
X99644143Y-62676592D02*
X99682238Y-62600402D01*
X99682238Y-62600402D02*
X99758429Y-62562306D01*
X99758429Y-62562306D02*
X99910810Y-62562306D01*
X99910810Y-62562306D02*
X99987000Y-62600402D01*
X99644143Y-63057545D02*
X99720334Y-63095640D01*
X99720334Y-63095640D02*
X99910810Y-63095640D01*
X99910810Y-63095640D02*
X99987000Y-63057545D01*
X99987000Y-63057545D02*
X100025096Y-62981354D01*
X100025096Y-62981354D02*
X100025096Y-62905164D01*
X100025096Y-62905164D02*
X99987000Y-62828973D01*
X99987000Y-62828973D02*
X99910810Y-62790878D01*
X99910810Y-62790878D02*
X99720334Y-62790878D01*
X99720334Y-62790878D02*
X99644143Y-62752783D01*
X99339381Y-62562306D02*
X99148905Y-63095640D01*
X98958428Y-62562306D02*
X99148905Y-63095640D01*
X99148905Y-63095640D02*
X99225095Y-63286116D01*
X99225095Y-63286116D02*
X99263190Y-63324211D01*
X99263190Y-63324211D02*
X99339381Y-63362306D01*
X98348904Y-63057545D02*
X98425095Y-63095640D01*
X98425095Y-63095640D02*
X98577476Y-63095640D01*
X98577476Y-63095640D02*
X98653666Y-63057545D01*
X98653666Y-63057545D02*
X98691762Y-62981354D01*
X98691762Y-62981354D02*
X98691762Y-62676592D01*
X98691762Y-62676592D02*
X98653666Y-62600402D01*
X98653666Y-62600402D02*
X98577476Y-62562306D01*
X98577476Y-62562306D02*
X98425095Y-62562306D01*
X98425095Y-62562306D02*
X98348904Y-62600402D01*
X98348904Y-62600402D02*
X98310809Y-62676592D01*
X98310809Y-62676592D02*
X98310809Y-62752783D01*
X98310809Y-62752783D02*
X98691762Y-62828973D01*
X97967952Y-63095640D02*
X97967952Y-62562306D01*
X97967952Y-62714687D02*
X97929857Y-62638497D01*
X97929857Y-62638497D02*
X97891762Y-62600402D01*
X97891762Y-62600402D02*
X97815571Y-62562306D01*
X97815571Y-62562306D02*
X97739381Y-62562306D01*
D10*
X97143723Y-72846019D02*
X96810390Y-73846019D01*
X96810390Y-73846019D02*
X96477057Y-72846019D01*
X95572295Y-73846019D02*
X95905628Y-73369828D01*
X96143723Y-73846019D02*
X96143723Y-72846019D01*
X96143723Y-72846019D02*
X95762771Y-72846019D01*
X95762771Y-72846019D02*
X95667533Y-72893638D01*
X95667533Y-72893638D02*
X95619914Y-72941257D01*
X95619914Y-72941257D02*
X95572295Y-73036495D01*
X95572295Y-73036495D02*
X95572295Y-73179352D01*
X95572295Y-73179352D02*
X95619914Y-73274590D01*
X95619914Y-73274590D02*
X95667533Y-73322209D01*
X95667533Y-73322209D02*
X95762771Y-73369828D01*
X95762771Y-73369828D02*
X96143723Y-73369828D01*
X94619914Y-73846019D02*
X95191342Y-73846019D01*
X94905628Y-73846019D02*
X94905628Y-72846019D01*
X94905628Y-72846019D02*
X95000866Y-72988876D01*
X95000866Y-72988876D02*
X95096104Y-73084114D01*
X95096104Y-73084114D02*
X95191342Y-73131733D01*
X101880315Y-70713019D02*
X101880315Y-69713019D01*
X101404125Y-70713019D02*
X101404125Y-69713019D01*
X101404125Y-69713019D02*
X100832697Y-70713019D01*
X100832697Y-70713019D02*
X100832697Y-69713019D01*
X100356506Y-70332066D02*
X99594602Y-70332066D01*
X101753315Y-78968019D02*
X101753315Y-77968019D01*
X101277125Y-78968019D02*
X101277125Y-77968019D01*
X101277125Y-77968019D02*
X100705697Y-78968019D01*
X100705697Y-78968019D02*
X100705697Y-77968019D01*
X100229506Y-78587066D02*
X99467602Y-78587066D01*
X99848554Y-78968019D02*
X99848554Y-78206114D01*
X93137322Y-69967019D02*
X92946846Y-69967019D01*
X92946846Y-69967019D02*
X92851608Y-70014638D01*
X92851608Y-70014638D02*
X92756370Y-70109876D01*
X92756370Y-70109876D02*
X92708751Y-70300352D01*
X92708751Y-70300352D02*
X92708751Y-70633685D01*
X92708751Y-70633685D02*
X92756370Y-70824161D01*
X92756370Y-70824161D02*
X92851608Y-70919400D01*
X92851608Y-70919400D02*
X92946846Y-70967019D01*
X92946846Y-70967019D02*
X93137322Y-70967019D01*
X93137322Y-70967019D02*
X93232560Y-70919400D01*
X93232560Y-70919400D02*
X93327798Y-70824161D01*
X93327798Y-70824161D02*
X93375417Y-70633685D01*
X93375417Y-70633685D02*
X93375417Y-70300352D01*
X93375417Y-70300352D02*
X93327798Y-70109876D01*
X93327798Y-70109876D02*
X93232560Y-70014638D01*
X93232560Y-70014638D02*
X93137322Y-69967019D01*
X91851608Y-70300352D02*
X91851608Y-70967019D01*
X92280179Y-70300352D02*
X92280179Y-70824161D01*
X92280179Y-70824161D02*
X92232560Y-70919400D01*
X92232560Y-70919400D02*
X92137322Y-70967019D01*
X92137322Y-70967019D02*
X91994465Y-70967019D01*
X91994465Y-70967019D02*
X91899227Y-70919400D01*
X91899227Y-70919400D02*
X91851608Y-70871780D01*
X91518274Y-70300352D02*
X91137322Y-70300352D01*
X91375417Y-69967019D02*
X91375417Y-70824161D01*
X91375417Y-70824161D02*
X91327798Y-70919400D01*
X91327798Y-70919400D02*
X91232560Y-70967019D01*
X91232560Y-70967019D02*
X91137322Y-70967019D01*
X90803988Y-70586066D02*
X90042084Y-70586066D01*
X93010322Y-77714019D02*
X92819846Y-77714019D01*
X92819846Y-77714019D02*
X92724608Y-77761638D01*
X92724608Y-77761638D02*
X92629370Y-77856876D01*
X92629370Y-77856876D02*
X92581751Y-78047352D01*
X92581751Y-78047352D02*
X92581751Y-78380685D01*
X92581751Y-78380685D02*
X92629370Y-78571161D01*
X92629370Y-78571161D02*
X92724608Y-78666400D01*
X92724608Y-78666400D02*
X92819846Y-78714019D01*
X92819846Y-78714019D02*
X93010322Y-78714019D01*
X93010322Y-78714019D02*
X93105560Y-78666400D01*
X93105560Y-78666400D02*
X93200798Y-78571161D01*
X93200798Y-78571161D02*
X93248417Y-78380685D01*
X93248417Y-78380685D02*
X93248417Y-78047352D01*
X93248417Y-78047352D02*
X93200798Y-77856876D01*
X93200798Y-77856876D02*
X93105560Y-77761638D01*
X93105560Y-77761638D02*
X93010322Y-77714019D01*
X91724608Y-78047352D02*
X91724608Y-78714019D01*
X92153179Y-78047352D02*
X92153179Y-78571161D01*
X92153179Y-78571161D02*
X92105560Y-78666400D01*
X92105560Y-78666400D02*
X92010322Y-78714019D01*
X92010322Y-78714019D02*
X91867465Y-78714019D01*
X91867465Y-78714019D02*
X91772227Y-78666400D01*
X91772227Y-78666400D02*
X91724608Y-78618780D01*
X91391274Y-78047352D02*
X91010322Y-78047352D01*
X91248417Y-77714019D02*
X91248417Y-78571161D01*
X91248417Y-78571161D02*
X91200798Y-78666400D01*
X91200798Y-78666400D02*
X91105560Y-78714019D01*
X91105560Y-78714019D02*
X91010322Y-78714019D01*
X90676988Y-78333066D02*
X89915084Y-78333066D01*
X90296036Y-78714019D02*
X90296036Y-77952114D01*
D12*
X76131931Y-90705065D02*
X76698598Y-90705065D01*
X76698598Y-90705065D02*
X76765264Y-90738399D01*
X76765264Y-90738399D02*
X76798598Y-90771732D01*
X76798598Y-90771732D02*
X76831931Y-90838399D01*
X76831931Y-90838399D02*
X76831931Y-90971732D01*
X76831931Y-90971732D02*
X76798598Y-91038399D01*
X76798598Y-91038399D02*
X76765264Y-91071732D01*
X76765264Y-91071732D02*
X76698598Y-91105065D01*
X76698598Y-91105065D02*
X76131931Y-91105065D01*
X76831931Y-91805065D02*
X76831931Y-91405065D01*
X76831931Y-91605065D02*
X76131931Y-91605065D01*
X76131931Y-91605065D02*
X76231931Y-91538398D01*
X76231931Y-91538398D02*
X76298598Y-91471732D01*
X76298598Y-91471732D02*
X76331931Y-91405065D01*
D13*
%TO.C,U1*%
X75871400Y-86299901D02*
X83224398Y-86299900D01*
X75872400Y-95298899D02*
X75872401Y-86303900D01*
X77296400Y-82575442D02*
X77296400Y-99703899D01*
X77296400Y-99703899D02*
X101471400Y-99693900D01*
X77967901Y-81903901D02*
X77296400Y-82575442D01*
X83224398Y-86299900D02*
X83224399Y-95298900D01*
X83224399Y-95298900D02*
X75872400Y-95298899D01*
X101471400Y-81893900D02*
X77967901Y-81903901D01*
X101471400Y-99693900D02*
X101471400Y-81893900D01*
%TD*%
M02*
