%TF.GenerationSoftware,KiCad,Pcbnew,8.0.4*%
%TF.CreationDate,2025-02-11T21:16:32-05:00*%
%TF.ProjectId,DC_ESP32_Motor_Board_CAN,44435f45-5350-4333-925f-4d6f746f725f,rev?*%
%TF.SameCoordinates,Original*%
%TF.FileFunction,Soldermask,Top*%
%TF.FilePolarity,Negative*%
%FSLAX46Y46*%
G04 Gerber Fmt 4.6, Leading zero omitted, Abs format (unit mm)*
G04 Created by KiCad (PCBNEW 8.0.4) date 2025-02-11 21:16:32*
%MOMM*%
%LPD*%
G01*
G04 APERTURE LIST*
G04 Aperture macros list*
%AMRoundRect*
0 Rectangle with rounded corners*
0 $1 Rounding radius*
0 $2 $3 $4 $5 $6 $7 $8 $9 X,Y pos of 4 corners*
0 Add a 4 corners polygon primitive as box body*
4,1,4,$2,$3,$4,$5,$6,$7,$8,$9,$2,$3,0*
0 Add four circle primitives for the rounded corners*
1,1,$1+$1,$2,$3*
1,1,$1+$1,$4,$5*
1,1,$1+$1,$6,$7*
1,1,$1+$1,$8,$9*
0 Add four rect primitives between the rounded corners*
20,1,$1+$1,$2,$3,$4,$5,0*
20,1,$1+$1,$4,$5,$6,$7,0*
20,1,$1+$1,$6,$7,$8,$9,0*
20,1,$1+$1,$8,$9,$2,$3,0*%
%AMFreePoly0*
4,1,19,0.500000,-0.750000,0.000000,-0.750000,0.000000,-0.744911,-0.071157,-0.744911,-0.207708,-0.704816,-0.327430,-0.627875,-0.420627,-0.520320,-0.479746,-0.390866,-0.500000,-0.250000,-0.500000,0.250000,-0.479746,0.390866,-0.420627,0.520320,-0.327430,0.627875,-0.207708,0.704816,-0.071157,0.744911,0.000000,0.744911,0.000000,0.750000,0.500000,0.750000,0.500000,-0.750000,0.500000,-0.750000,
$1*%
%AMFreePoly1*
4,1,19,0.000000,0.744911,0.071157,0.744911,0.207708,0.704816,0.327430,0.627875,0.420627,0.520320,0.479746,0.390866,0.500000,0.250000,0.500000,-0.250000,0.479746,-0.390866,0.420627,-0.520320,0.327430,-0.627875,0.207708,-0.704816,0.071157,-0.744911,0.000000,-0.744911,0.000000,-0.750000,-0.500000,-0.750000,-0.500000,0.750000,0.000000,0.750000,0.000000,0.744911,0.000000,0.744911,
$1*%
G04 Aperture macros list end*
%ADD10C,1.400000*%
%ADD11R,3.500000X3.500000*%
%ADD12C,3.500000*%
%ADD13RoundRect,0.135000X-0.185000X0.135000X-0.185000X-0.135000X0.185000X-0.135000X0.185000X0.135000X0*%
%ADD14RoundRect,0.135000X-0.135000X-0.185000X0.135000X-0.185000X0.135000X0.185000X-0.135000X0.185000X0*%
%ADD15R,1.275000X1.275000*%
%ADD16C,1.275000*%
%ADD17RoundRect,0.150000X-0.150000X-0.625000X0.150000X-0.625000X0.150000X0.625000X-0.150000X0.625000X0*%
%ADD18RoundRect,0.250000X-0.350000X-0.650000X0.350000X-0.650000X0.350000X0.650000X-0.350000X0.650000X0*%
%ADD19RoundRect,0.135000X0.135000X0.185000X-0.135000X0.185000X-0.135000X-0.185000X0.135000X-0.185000X0*%
%ADD20RoundRect,0.135000X0.185000X-0.135000X0.185000X0.135000X-0.185000X0.135000X-0.185000X-0.135000X0*%
%ADD21R,1.700000X1.700000*%
%ADD22O,1.700000X1.700000*%
%ADD23RoundRect,0.200000X-0.250000X-0.200000X0.250000X-0.200000X0.250000X0.200000X-0.250000X0.200000X0*%
%ADD24RoundRect,0.140000X-0.170000X0.140000X-0.170000X-0.140000X0.170000X-0.140000X0.170000X0.140000X0*%
%ADD25R,1.016000X0.758000*%
%ADD26RoundRect,0.250000X-0.400000X-0.625000X0.400000X-0.625000X0.400000X0.625000X-0.400000X0.625000X0*%
%ADD27R,0.475000X0.250000*%
%ADD28R,0.250000X0.475000*%
%ADD29RoundRect,0.150000X-0.625000X0.150000X-0.625000X-0.150000X0.625000X-0.150000X0.625000X0.150000X0*%
%ADD30RoundRect,0.250000X-0.650000X0.350000X-0.650000X-0.350000X0.650000X-0.350000X0.650000X0.350000X0*%
%ADD31R,1.525000X0.650000*%
%ADD32RoundRect,0.225000X0.225000X0.375000X-0.225000X0.375000X-0.225000X-0.375000X0.225000X-0.375000X0*%
%ADD33RoundRect,0.218750X-0.218750X-0.256250X0.218750X-0.256250X0.218750X0.256250X-0.218750X0.256250X0*%
%ADD34C,3.600000*%
%ADD35RoundRect,0.200000X0.250000X0.200000X-0.250000X0.200000X-0.250000X-0.200000X0.250000X-0.200000X0*%
%ADD36R,1.500000X0.650000*%
%ADD37RoundRect,0.140000X0.170000X-0.140000X0.170000X0.140000X-0.170000X0.140000X-0.170000X-0.140000X0*%
%ADD38RoundRect,0.140000X0.140000X0.170000X-0.140000X0.170000X-0.140000X-0.170000X0.140000X-0.170000X0*%
%ADD39FreePoly0,90.000000*%
%ADD40FreePoly1,90.000000*%
%ADD41FreePoly0,180.000000*%
%ADD42FreePoly1,180.000000*%
%ADD43RoundRect,0.140000X-0.140000X-0.170000X0.140000X-0.170000X0.140000X0.170000X-0.140000X0.170000X0*%
%ADD44R,1.600000X0.760000*%
%ADD45R,0.700000X0.700000*%
G04 APERTURE END LIST*
D10*
%TO.C,J4*%
X78916000Y-55626000D03*
X89916000Y-55626000D03*
D11*
X86916000Y-65626000D03*
D12*
X81916000Y-65626000D03*
%TD*%
D13*
%TO.C,R13*%
X103759000Y-88261000D03*
X103759000Y-89281000D03*
%TD*%
D14*
%TO.C,R4*%
X99845400Y-79400400D03*
X100865400Y-79400400D03*
%TD*%
D15*
%TO.C,C1*%
X83337400Y-70383400D03*
D16*
X83337401Y-73883400D03*
%TD*%
D17*
%TO.C,J5*%
X79850200Y-95388200D03*
X80850200Y-95388200D03*
X81850200Y-95388200D03*
X82850200Y-95388200D03*
D18*
X78550200Y-99263200D03*
X84150200Y-99263200D03*
%TD*%
D19*
%TO.C,R9*%
X85602000Y-93243400D03*
X84582000Y-93243400D03*
%TD*%
D20*
%TO.C,R11*%
X103759000Y-94161800D03*
X103759000Y-93141800D03*
%TD*%
D21*
%TO.C,J8*%
X106045000Y-88773000D03*
D22*
X106045000Y-91313000D03*
X106045000Y-93852999D03*
%TD*%
D19*
%TO.C,R2*%
X93903800Y-81153000D03*
X92883800Y-81153000D03*
%TD*%
D23*
%TO.C,Q2*%
X85630000Y-89682200D03*
X85630000Y-91582200D03*
X87630000Y-90632200D03*
%TD*%
D24*
%TO.C,C2*%
X86512400Y-76403200D03*
X86512400Y-77363200D03*
%TD*%
D25*
%TO.C,JP2*%
X78105556Y-59499980D03*
X78105556Y-60769980D03*
%TD*%
D20*
%TO.C,R17*%
X78105000Y-73255600D03*
X78105000Y-72235600D03*
%TD*%
D26*
%TO.C,R6*%
X103072599Y-83489800D03*
X106172601Y-83489800D03*
%TD*%
D27*
%TO.C,IC3*%
X97863600Y-96707400D03*
X97863600Y-97207400D03*
X97863600Y-97707400D03*
X97863600Y-98207400D03*
D28*
X98526600Y-98369400D03*
X99026600Y-98369400D03*
X99526600Y-98369400D03*
D27*
X100189600Y-98207400D03*
X100189600Y-97707400D03*
X100189600Y-97207400D03*
X100189600Y-96707400D03*
D28*
X99526600Y-96545400D03*
X99026600Y-96545400D03*
X98526600Y-96545400D03*
%TD*%
D14*
%TO.C,R14*%
X88569800Y-93319600D03*
X89589800Y-93319600D03*
%TD*%
D29*
%TO.C,J2*%
X82473800Y-79750000D03*
X82473800Y-80750000D03*
X82473800Y-81750000D03*
X82473800Y-82750000D03*
D30*
X78598800Y-78450000D03*
X78598800Y-84050000D03*
%TD*%
D19*
%TO.C,R16*%
X78867000Y-64135000D03*
X77847000Y-64135000D03*
%TD*%
D31*
%TO.C,IC1*%
X88556000Y-69342000D03*
X88555999Y-70612000D03*
X88556000Y-71882000D03*
X88556000Y-73152000D03*
X88556000Y-74422000D03*
X88556000Y-75692000D03*
X88555998Y-76962000D03*
X88556000Y-78232000D03*
X93980000Y-78232000D03*
X93980001Y-76962000D03*
X93980000Y-75692000D03*
X93980000Y-74422000D03*
X93980000Y-73152000D03*
X93980000Y-71882000D03*
X93980002Y-70612000D03*
X93980000Y-69342000D03*
%TD*%
D32*
%TO.C,DZ1*%
X103833200Y-81229200D03*
X100533200Y-81229200D03*
%TD*%
D33*
%TO.C,D1*%
X78079600Y-62611000D03*
X79654600Y-62611000D03*
%TD*%
D19*
%TO.C,R3*%
X96143000Y-81153000D03*
X95123000Y-81153000D03*
%TD*%
D34*
%TO.C,J7*%
X92332600Y-65474400D03*
X92332600Y-60474400D03*
%TD*%
D20*
%TO.C,R1*%
X103759000Y-91696000D03*
X103759000Y-90676000D03*
%TD*%
D19*
%TO.C,R8*%
X87096600Y-88163400D03*
X86076600Y-88163400D03*
%TD*%
D35*
%TO.C,Q1*%
X91516200Y-91567000D03*
X91516200Y-89667000D03*
X89516200Y-90617000D03*
%TD*%
D36*
%TO.C,IC2*%
X93479600Y-86349800D03*
X93479600Y-85079800D03*
X93479600Y-83809800D03*
X93479600Y-82539800D03*
X88079600Y-82539800D03*
X88079600Y-83809800D03*
X88079600Y-85079800D03*
X88079600Y-86349800D03*
%TD*%
D20*
%TO.C,R18*%
X94259400Y-99950999D03*
X94259400Y-98931001D03*
%TD*%
D37*
%TO.C,C7*%
X94843600Y-96644400D03*
X94843600Y-95684400D03*
%TD*%
D38*
%TO.C,C8*%
X102969000Y-96647000D03*
X102009000Y-96647000D03*
%TD*%
D20*
%TO.C,R12*%
X94970600Y-93116400D03*
X94970600Y-92096400D03*
%TD*%
D14*
%TO.C,R5*%
X96949800Y-79248000D03*
X97969800Y-79248000D03*
%TD*%
D39*
%TO.C,JP1*%
X78486000Y-70804800D03*
D40*
X78486000Y-69504800D03*
%TD*%
D19*
%TO.C,R7*%
X90324400Y-88138000D03*
X89304400Y-88138000D03*
%TD*%
D24*
%TO.C,C4*%
X85140800Y-80368200D03*
X85140800Y-81328200D03*
%TD*%
%TO.C,C6*%
X95605600Y-83749000D03*
X95605600Y-84709000D03*
%TD*%
D29*
%TO.C,J1*%
X82473800Y-87878000D03*
X82473800Y-88878000D03*
X82473800Y-89878000D03*
X82473800Y-90878000D03*
D30*
X78598800Y-86578000D03*
X78598800Y-92178000D03*
%TD*%
D14*
%TO.C,R15*%
X101979001Y-95631000D03*
X102998999Y-95631000D03*
%TD*%
D24*
%TO.C,C5*%
X85039200Y-84671000D03*
X85039200Y-85631000D03*
%TD*%
D17*
%TO.C,J6*%
X88269600Y-95388200D03*
X89269600Y-95388200D03*
X90269600Y-95388200D03*
X91269600Y-95388200D03*
D18*
X86969600Y-99263200D03*
X92569600Y-99263200D03*
%TD*%
D20*
%TO.C,R10*%
X94970600Y-90574400D03*
X94970600Y-89554400D03*
%TD*%
D41*
%TO.C,JP3*%
X102742999Y-99441000D03*
D42*
X101443001Y-99441000D03*
%TD*%
D43*
%TO.C,C3*%
X104269600Y-78714600D03*
X105229600Y-78714600D03*
%TD*%
D44*
%TO.C,SW1*%
X97002600Y-89535000D03*
X97002600Y-90805000D03*
X97002600Y-92075000D03*
X97002600Y-93345000D03*
X102082600Y-93345000D03*
X102082600Y-92075000D03*
X102082600Y-90805000D03*
X102082600Y-89535000D03*
%TD*%
D45*
%TO.C,LED1*%
X97992000Y-86276000D03*
X97992000Y-87376000D03*
X99822000Y-87376000D03*
X99822000Y-86276000D03*
%TD*%
D10*
%TO.C,J3*%
X94791000Y-61214000D03*
X105791000Y-61214000D03*
D11*
X97791000Y-66214000D03*
D12*
X102791000Y-66214000D03*
%TD*%
D32*
%TO.C,D2*%
X91440000Y-80518000D03*
X88140000Y-80518000D03*
%TD*%
M02*
