M48
; DRILL file {KiCad 8.0.4} date 2025-02-11T21:16:34-0500
; FORMAT={-:-/ absolute / inch / decimal}
; #@! TF.CreationDate,2025-02-11T21:16:34-05:00
; #@! TF.GenerationSoftware,Kicad,Pcbnew,8.0.4
; #@! TF.FileFunction,Plated,1,2,PTH
FMAT,2
INCH
; #@! TA.AperFunction,Plated,PTH,ViaDrill
T1C0.0118
; #@! TA.AperFunction,Plated,PTH,ViaDrill
T2C0.0197
; #@! TA.AperFunction,Plated,PTH,ComponentDrill
T3C0.0335
; #@! TA.AperFunction,Plated,PTH,ComponentDrill
T4C0.0394
; #@! TA.AperFunction,Plated,PTH,ComponentDrill
T5C0.0748
; #@! TA.AperFunction,Plated,PTH,ComponentDrill
T6C0.0984
%
G90
G05
T1
X3.065Y-2.685
X3.1062Y-2.8838
X3.165Y-2.885
X3.19Y-3.145
X3.195Y-2.89
X3.2Y-2.915
X3.2003Y-3.3405
X3.205Y-2.94
X3.21Y-2.965
X3.22Y-2.99
X3.22Y-3.015
X3.245Y-3.025
X3.2675Y-3.6946
X3.27Y-3.015
X3.29Y-2.995
X3.2953Y-3.1624
X3.2959Y-3.316
X3.31Y-2.98
X3.4195Y-3.3198
X3.4204Y-3.6995
X3.505Y-3.845
X3.5103Y-3.5036
X3.5131Y-3.7997
X3.5326Y-3.4155
X3.5547Y-3.3481
X3.5567Y-2.8654
X3.5573Y-3.8157
X3.5628Y-2.9919
X3.5926Y-3.8142
X3.6014Y-3.3079
X3.6119Y-3.3757
X3.6172Y-3.3345
X3.6206Y-3.7409
X3.628Y-2.9918
X3.6669Y-3.7093
X3.6783Y-3.7656
X3.6984Y-3.4309
X3.719Y-3.5981
X3.7546Y-3.5957
X3.7568Y-2.986
X3.7836Y-3.0925
X3.7996Y-3.8416
X3.8003Y-3.81
X3.8135Y-2.9944
X3.8135Y-3.086
X3.8199Y-3.1891
X3.85Y-3.3346
X3.8618Y-3.1624
X3.8627Y-3.0654
X3.8817Y-3.0869
X3.8858Y-3.7611
X3.8941Y-3.441
X3.8973Y-3.8268
X3.8992Y-3.5261
X3.9383Y-3.6466
X3.968Y-3.7274
X3.985Y-3.795
X3.9921Y-3.0729
X4.0005Y-3.7096
X4.098Y-3.817
X4.105Y-3.755
X4.155Y-3.765
X4.183Y-2.857
X4.183Y-2.881
X4.183Y-2.903
X4.183Y-2.925
T2
X3.0847Y-3.8198
X3.14Y-3.1573
X3.1433Y-3.8128
X3.1823Y-3.0549
X3.4143Y-2.9711
X3.4337Y-3.734
X3.5197Y-3.162
X3.5587Y-3.155
X3.6542Y-3.1403
X3.695Y-3.148
X3.9231Y-3.9084
X3.9381Y-3.6944
X3.9603Y-3.2549
X3.9955Y-3.441
X4.1753Y-3.2333
T3
X3.281Y-2.771
X3.281Y-2.9088
T4
X3.1069Y-2.19
X3.54Y-2.19
X3.7319Y-2.41
X4.165Y-2.41
X4.175Y-3.495
X4.175Y-3.595
X4.175Y-3.695
T5
X3.225Y-2.5837
X3.4219Y-2.5837
X3.85Y-2.6069
X4.0469Y-2.6069
T6
X3.6351Y-2.3809
X3.6351Y-2.5777
M30
