M48
; DRILL file {KiCad 8.0.4} date 2025-04-14T17:42:23-0400
; FORMAT={-:-/ absolute / inch / decimal}
; #@! TF.CreationDate,2025-04-14T17:42:23-04:00
; #@! TF.GenerationSoftware,Kicad,Pcbnew,8.0.4
; #@! TF.FileFunction,Plated,1,2,PTH
FMAT,2
INCH
; #@! TA.AperFunction,Plated,PTH,ViaDrill
T1C0.0118
; #@! TA.AperFunction,Plated,PTH,ViaDrill
T2C0.0197
; #@! TA.AperFunction,Plated,PTH,ComponentDrill
T3C0.0315
; #@! TA.AperFunction,Plated,PTH,ComponentDrill
T4C0.0394
; #@! TA.AperFunction,Plated,PTH,ComponentDrill
T5C0.0748
; #@! TA.AperFunction,Plated,PTH,ComponentDrill
T6C0.0984
%
G90
G05
T1
X3.089Y-2.567
X3.146Y-3.3456
X3.171Y-3.811
X3.2113Y-3.3436
X3.255Y-3.059
X3.2637Y-2.9634
X3.2873Y-3.1594
X3.291Y-2.995
X3.293Y-3.831
X3.2953Y-3.4571
X3.323Y-3.413
X3.3386Y-3.093
X3.4087Y-3.3094
X3.4337Y-3.7868
X3.437Y-3.753
X3.443Y-2.883
X3.469Y-2.893
X3.477Y-2.861
X3.508Y-3.2187
X3.5416Y-3.4209
X3.551Y-2.8551
X3.5903Y-3.1745
X3.5965Y-3.4958
X3.5975Y-3.0821
X3.6077Y-3.8427
X3.6129Y-3.3407
X3.6227Y-2.7197
X3.633Y-3.805
X3.635Y-2.747
X3.6366Y-3.4649
X3.661Y-3.665
X3.675Y-3.111
X3.6973Y-3.7986
X3.703Y-3.047
X3.703Y-3.111
X3.713Y-2.732
X3.7152Y-3.8273
X3.7246Y-3.7134
X3.731Y-2.757
X3.761Y-2.657
X3.761Y-3.145
X3.7633Y-3.7134
X3.777Y-3.779
X3.807Y-3.351
X3.8148Y-2.9746
X3.8203Y-2.8398
X3.865Y-3.045
X3.8771Y-3.5193
X3.879Y-3.341
X3.891Y-2.967
X3.894Y-3.4455
X3.895Y-3.837
X3.9044Y-3.7234
X3.9161Y-3.0334
X3.9617Y-3.378
X3.963Y-3.667
X3.965Y-3.129
X3.975Y-2.971
X3.979Y-3.025
X4.003Y-3.129
X4.037Y-3.848
X4.085Y-3.938
X4.1264Y-3.6326
X4.175Y-2.927
T2
X3.086Y-3.8194
X3.162Y-3.1428
X3.4302Y-3.7015
X3.5513Y-2.7597
X3.569Y-2.663
X3.6093Y-2.7669
X3.618Y-3.0567
X3.649Y-2.6696
X3.773Y-2.766
X3.8333Y-2.7492
T3
X3.279Y-2.811
X3.3764Y-2.9084
T4
X3.1069Y-2.19
X3.54Y-2.19
X3.967Y-2.2573
X3.967Y-2.3557
X3.967Y-2.4541
X3.967Y-2.5526
X3.967Y-2.651
X4.175Y-3.495
X4.175Y-3.595
X4.175Y-3.695
T5
X3.225Y-2.5837
X3.4219Y-2.5837
T6
X3.6351Y-2.3809
X3.6351Y-2.5777
M30
