%TF.GenerationSoftware,KiCad,Pcbnew,8.0.4*%
%TF.CreationDate,2025-04-14T17:42:23-04:00*%
%TF.ProjectId,Daisy_Board_Stepper,44616973-795f-4426-9f61-72645f537465,rev?*%
%TF.SameCoordinates,Original*%
%TF.FileFunction,Legend,Bot*%
%TF.FilePolarity,Positive*%
%FSLAX46Y46*%
G04 Gerber Fmt 4.6, Leading zero omitted, Abs format (unit mm)*
G04 Created by KiCad (PCBNEW 8.0.4) date 2025-04-14 17:42:23*
%MOMM*%
%LPD*%
G01*
G04 APERTURE LIST*
G04 Aperture macros list*
%AMRoundRect*
0 Rectangle with rounded corners*
0 $1 Rounding radius*
0 $2 $3 $4 $5 $6 $7 $8 $9 X,Y pos of 4 corners*
0 Add a 4 corners polygon primitive as box body*
4,1,4,$2,$3,$4,$5,$6,$7,$8,$9,$2,$3,0*
0 Add four circle primitives for the rounded corners*
1,1,$1+$1,$2,$3*
1,1,$1+$1,$4,$5*
1,1,$1+$1,$6,$7*
1,1,$1+$1,$8,$9*
0 Add four rect primitives between the rounded corners*
20,1,$1+$1,$2,$3,$4,$5,0*
20,1,$1+$1,$4,$5,$6,$7,0*
20,1,$1+$1,$6,$7,$8,$9,0*
20,1,$1+$1,$8,$9,$2,$3,0*%
%AMRotRect*
0 Rectangle, with rotation*
0 The origin of the aperture is its center*
0 $1 length*
0 $2 width*
0 $3 Rotation angle, in degrees counterclockwise*
0 Add horizontal line*
21,1,$1,$2,0,0,$3*%
G04 Aperture macros list end*
%ADD10C,0.100000*%
%ADD11C,0.175000*%
%ADD12C,0.150000*%
%ADD13C,0.127000*%
%ADD14C,1.400000*%
%ADD15R,3.500000X3.500000*%
%ADD16C,3.500000*%
%ADD17R,1.700000X1.700000*%
%ADD18O,1.700000X1.700000*%
%ADD19C,3.600000*%
%ADD20R,1.750000X1.750000*%
%ADD21C,1.750000*%
%ADD22RotRect,1.600000X1.600000X135.000000*%
%ADD23C,1.600000*%
%ADD24RoundRect,1.000000X1.000000X1.000000X-1.000000X1.000000X-1.000000X-1.000000X1.000000X-1.000000X0*%
%ADD25RoundRect,1.000000X-0.000010X0.375000X-0.000010X-0.375000X0.000010X-0.375000X0.000010X0.375000X0*%
G04 APERTURE END LIST*
D10*
X84408884Y-77613086D02*
X84408144Y-77543130D01*
X83740404Y-74119563D02*
X83464663Y-74062490D01*
X82320998Y-71079145D02*
G75*
G02*
X82358113Y-71021013I597802J-340755D01*
G01*
X81427992Y-80298806D02*
X81449861Y-80179650D01*
X82884544Y-69056389D02*
X81914386Y-69414148D01*
X82134917Y-69876039D02*
X82242271Y-69834944D01*
X84117678Y-76790800D02*
X84046665Y-76710954D01*
X81449861Y-80179650D02*
X81687586Y-78727408D01*
X82836688Y-78011278D02*
G75*
G02*
X82772066Y-77905884I528212J396378D01*
G01*
X82279077Y-80164410D02*
X82279077Y-80377770D01*
X81075113Y-80609752D02*
G75*
G02*
X81073591Y-80605071I3887J3852D01*
G01*
X81933120Y-70868010D02*
X81973568Y-71617178D01*
X83833289Y-75539225D02*
G75*
G02*
X83905960Y-75548839I911J-272575D01*
G01*
X83495796Y-79349118D02*
G75*
G02*
X83531911Y-79288777I285304J-129782D01*
G01*
X82344372Y-77345169D02*
X82338826Y-77399527D01*
X81749236Y-68706855D02*
X81781752Y-69099675D01*
X83774948Y-72001561D02*
X83361117Y-72106108D01*
X81787802Y-69460776D02*
X81765996Y-69469241D01*
X83460143Y-79694510D02*
X83465018Y-79524764D01*
X82284156Y-74285068D02*
X83361117Y-74557636D01*
X83033157Y-72689915D02*
X83221036Y-72648875D01*
X84430070Y-79499995D02*
X84422473Y-79360101D01*
X84440622Y-71834632D02*
G75*
G02*
X84450777Y-71833343I10678J-43468D01*
G01*
X84346259Y-72406241D02*
X84394897Y-72395556D01*
X83361117Y-74557636D02*
X83774959Y-74662147D01*
X82824235Y-75428063D02*
G75*
G02*
X82929316Y-75401791I127265J-285737D01*
G01*
X83221036Y-72648875D02*
X83432728Y-72602904D01*
X82653397Y-70970489D02*
G75*
G02*
X82670890Y-70944260I216303J-125311D01*
G01*
X83423887Y-73282421D02*
X83617779Y-73334192D01*
X83597933Y-70424344D02*
G75*
G02*
X83681890Y-70457908I-99533J-370756D01*
G01*
X83693823Y-70326180D02*
X83918439Y-70410259D01*
X82927654Y-71919596D02*
G75*
G02*
X82849033Y-71934299I-117454J410496D01*
G01*
X81372669Y-80550446D02*
G75*
G02*
X81364783Y-80554830I-10969J10446D01*
G01*
X83924738Y-70245389D02*
X83924997Y-70142508D01*
X82384307Y-75160363D02*
X82352230Y-75228067D01*
X81828575Y-75537069D02*
X81659439Y-77052332D01*
X82896702Y-70400650D02*
X82279077Y-70400650D01*
X83423920Y-73389722D02*
X83208293Y-73444964D01*
X81098842Y-80458434D02*
X81085116Y-80536363D01*
X81085116Y-80536363D02*
X81073617Y-80605075D01*
X84064465Y-75879430D02*
X84069665Y-76039450D01*
X83236611Y-78969614D02*
G75*
G02*
X83335051Y-78868467I464289J-353386D01*
G01*
X83593449Y-78746900D02*
G75*
G02*
X83692391Y-78733422I132151J-600200D01*
G01*
X84052356Y-78778198D02*
X84043849Y-78775052D01*
X83183301Y-75535823D02*
X83218877Y-75605564D01*
X83737970Y-75025046D02*
G75*
G02*
X83831517Y-74994003I180530J-387554D01*
G01*
X82594109Y-71102529D02*
G75*
G02*
X82601969Y-71073198I177591J-31871D01*
G01*
X84057324Y-75755142D02*
X84061610Y-75815350D01*
X83599877Y-75887431D02*
X83600685Y-75804178D01*
X83222428Y-75822507D02*
X83225978Y-76039450D01*
X84455606Y-75606512D02*
X84447685Y-75502158D01*
X82118615Y-73152598D02*
X82116225Y-72525783D01*
X84125498Y-74750167D02*
X84440602Y-74828986D01*
X83361930Y-70903570D02*
X83406857Y-70906537D01*
X83996245Y-77285071D02*
G75*
G02*
X84036368Y-77422915I-639245J-260829D01*
G01*
X84400446Y-77376903D02*
X84394979Y-77335775D01*
X83907217Y-68678209D02*
G75*
G02*
X83917420Y-68683301I2783J-7191D01*
G01*
X83205525Y-69425608D02*
X83521323Y-69325089D01*
X83501281Y-71769709D02*
G75*
G02*
X83506403Y-71747844I149519J-23491D01*
G01*
X83759730Y-79951049D02*
X83455609Y-79951049D01*
X83610016Y-71233417D02*
G75*
G02*
X83608169Y-71372795I-891816J-57883D01*
G01*
X83770346Y-76953572D02*
X83820818Y-77012212D01*
X82707737Y-77738673D02*
G75*
G02*
X82695493Y-77660427I513763J120473D01*
G01*
X84077019Y-79928648D02*
G75*
G02*
X84070611Y-79944264I-21619J-252D01*
G01*
X83502181Y-70408114D02*
G75*
G02*
X83597932Y-70424349I-37881J-513886D01*
G01*
X82919157Y-74876382D02*
X82690558Y-74876130D01*
X84202004Y-75041133D02*
G75*
G02*
X84273718Y-75093873I-157704J-289567D01*
G01*
X83807821Y-70557797D02*
G75*
G02*
X83842272Y-70604100I-436721J-360903D01*
G01*
X82107443Y-72132930D02*
X82087084Y-71661710D01*
X83525974Y-71685815D02*
X83514420Y-71721021D01*
X83977394Y-76737115D02*
X83935960Y-76778090D01*
X83595739Y-71458223D02*
G75*
G02*
X83573150Y-71548168I-940639J188423D01*
G01*
X83468442Y-75263271D02*
X83462818Y-75247687D01*
X81673718Y-70054945D02*
G75*
G02*
X81671924Y-70055203I-2118J8345D01*
G01*
X82694721Y-77640653D02*
X82691721Y-77563450D01*
X83731488Y-70488214D02*
G75*
G02*
X83772158Y-70520359I-206988J-303686D01*
G01*
X82906502Y-69522068D02*
X83205525Y-69425608D01*
X81740542Y-69478860D02*
X81674558Y-69503532D01*
X84077046Y-79928648D02*
X84077019Y-79928648D01*
X83599975Y-71124928D02*
G75*
G02*
X83608617Y-71194745I-590775J-108572D01*
G01*
X83464663Y-74062490D02*
X83231477Y-74013418D01*
X82952155Y-73509610D02*
X82284157Y-73677250D01*
X83539392Y-78239865D02*
G75*
G02*
X83450794Y-78253225I-111092J436265D01*
G01*
X82348294Y-77818618D02*
G75*
G02*
X82338585Y-77730635I467506J96118D01*
G01*
X83218877Y-75605564D02*
X83222428Y-75822507D01*
X84461957Y-74693380D02*
X84461098Y-74548823D01*
X82429573Y-70932697D02*
X82416305Y-70949111D01*
X83580656Y-79240085D02*
G75*
G02*
X83614651Y-79214664I160144J-178715D01*
G01*
X83936076Y-70827509D02*
G75*
G02*
X83963846Y-71047743I-1064476J-246091D01*
G01*
X81392281Y-80494030D02*
X81408632Y-80404533D01*
X84461631Y-75810258D02*
X84455606Y-75606512D01*
X83225243Y-73907787D02*
X83458499Y-73847764D01*
X83897910Y-70708273D02*
G75*
G02*
X83936083Y-70827507I-700610J-290027D01*
G01*
X83548147Y-79269945D02*
X83569873Y-79249100D01*
X83700223Y-75575396D02*
G75*
G02*
X83760527Y-75548549I109277J-164304D01*
G01*
X82335681Y-77578690D02*
X82336939Y-77700365D01*
X83970576Y-71310605D02*
X83971216Y-71233548D01*
X84458397Y-73048321D02*
X83747197Y-72879508D01*
X83161681Y-79094520D02*
G75*
G02*
X83236608Y-78969612I600319J-275180D01*
G01*
X84407964Y-77728620D02*
X84408737Y-77676162D01*
X84121183Y-78808916D02*
G75*
G02*
X84144977Y-78822189I-126083J-253984D01*
G01*
X82440354Y-70918589D02*
X82429573Y-70932697D01*
X84013431Y-77808473D02*
G75*
G02*
X83981087Y-77883491I-740231J274673D01*
G01*
X83694894Y-71802730D02*
X83893734Y-71802730D01*
X83462818Y-75247687D02*
X83457334Y-75229156D01*
X83050094Y-70941670D02*
X83048882Y-70960472D01*
X83514420Y-71721021D02*
X83506403Y-71747844D01*
X82338580Y-77730635D02*
X82340498Y-77766010D01*
X82279077Y-80377770D02*
X83356037Y-80377770D01*
X83609708Y-75716237D02*
G75*
G02*
X83620228Y-75681025I265892J-60263D01*
G01*
X83922867Y-70409485D02*
X83923937Y-70331996D01*
X83416943Y-69704572D02*
X83221832Y-69639014D01*
X83677231Y-78188693D02*
G75*
G02*
X83539393Y-78239867I-309231J621693D01*
G01*
X83151767Y-70122710D02*
X83445743Y-70233178D01*
X83531908Y-79288775D02*
G75*
G02*
X83548150Y-79269948I164992J-125925D01*
G01*
X84260873Y-78920604D02*
G75*
G02*
X84315071Y-78982186I-663973J-638996D01*
G01*
X82116225Y-72525783D02*
X82107443Y-72132930D01*
X81743409Y-68606378D02*
X81749236Y-68706855D01*
X83096147Y-71827754D02*
G75*
G02*
X83015838Y-71883317I-307447J358554D01*
G01*
X82707521Y-76710010D02*
G75*
G02*
X82714254Y-76712583I79J-9890D01*
G01*
X82849034Y-71934306D02*
G75*
G02*
X82749670Y-71938446I-91534J1002306D01*
G01*
X82284157Y-72682076D02*
X82284157Y-72985388D01*
X83922867Y-70409485D02*
G75*
G02*
X83921387Y-70410790I-1567J285D01*
G01*
X81408632Y-80404533D02*
X81427992Y-80298806D01*
X82349105Y-77822039D02*
X82363497Y-77882765D01*
X82270531Y-75797588D02*
X82268918Y-76111647D01*
X81081923Y-80611989D02*
G75*
G02*
X81075128Y-80609738I-1223J7689D01*
G01*
X81959031Y-69944339D02*
X82134917Y-69876039D01*
X82749670Y-71938442D02*
G75*
G02*
X82651316Y-71932793I7930J997042D01*
G01*
X83969182Y-75577539D02*
G75*
G02*
X84017631Y-75622905I-109282J-165261D01*
G01*
X84463477Y-72380221D02*
X84463477Y-72106716D01*
X83772159Y-70520358D02*
G75*
G02*
X83807823Y-70557796I-247359J-271342D01*
G01*
X82289356Y-71141693D02*
G75*
G02*
X82320998Y-71079145I648744J-288907D01*
G01*
X83501281Y-71769709D02*
X83496054Y-71802730D01*
X84067722Y-79557511D02*
X84074038Y-79692098D01*
X83480250Y-75275651D02*
G75*
G02*
X83476738Y-75277469I-3650J2751D01*
G01*
X83089226Y-79951049D02*
X82684152Y-79951050D01*
X82904448Y-69527747D02*
G75*
G02*
X82906512Y-69522102I3152J2047D01*
G01*
X83033132Y-72708749D02*
G75*
G02*
X83020799Y-72704958I24468J101549D01*
G01*
X83834772Y-76039450D02*
X83599876Y-76039450D01*
X83015841Y-71883322D02*
G75*
G02*
X82927657Y-71919607I-206441J376422D01*
G01*
X83521323Y-69325089D02*
X83861497Y-69219271D01*
X83335048Y-78868464D02*
G75*
G02*
X83455014Y-78793772I367352J-456336D01*
G01*
X83737519Y-79184346D02*
G75*
G02*
X83834885Y-79187438I24081J-776354D01*
G01*
X84014946Y-79310322D02*
G75*
G02*
X84041356Y-79367202I-205046J-129778D01*
G01*
X83221078Y-78242701D02*
G75*
G02*
X83134199Y-78221294I63322J444001D01*
G01*
X82694721Y-77640653D02*
G75*
G02*
X82704085Y-77414020I933179J74953D01*
G01*
X83903739Y-71764630D02*
X83918453Y-71700611D01*
X83569329Y-75147405D02*
G75*
G02*
X83647547Y-75078244I397371J-370595D01*
G01*
X82787077Y-71421411D02*
G75*
G02*
X82698029Y-71407656I-1377J286211D01*
G01*
X82107282Y-74170010D02*
X82116133Y-73779151D01*
X84013297Y-76703233D02*
X83977394Y-76737115D01*
X82300524Y-71694837D02*
G75*
G02*
X82252228Y-71584292I432176J254637D01*
G01*
X82687515Y-76719031D02*
X82687540Y-76719052D01*
X84457881Y-74824450D02*
X84460616Y-74772785D01*
X83692391Y-78733416D02*
G75*
G02*
X83810862Y-78732848I65009J-1203084D01*
G01*
X83045438Y-70994864D02*
X83040949Y-71035031D01*
X83935960Y-76778090D02*
X83889366Y-76826712D01*
X82233537Y-71398762D02*
G75*
G02*
X82242535Y-71294970I912663J-26838D01*
G01*
X83968603Y-71378563D02*
X83970576Y-71310605D01*
X82704082Y-77414019D02*
G75*
G02*
X82740379Y-77284771I598218J-98281D01*
G01*
X81379262Y-80541668D02*
G75*
G02*
X81372667Y-80550445I-44762J26768D01*
G01*
X84432910Y-79907870D02*
X84430070Y-79499995D01*
X81659439Y-77052332D02*
X81424345Y-78644844D01*
X84188286Y-76877410D02*
G75*
G02*
X84282446Y-77025165I-791986J-608590D01*
G01*
X84338356Y-75169898D02*
G75*
G02*
X84390948Y-75262468I-479956J-333902D01*
G01*
X83831517Y-74994003D02*
G75*
G02*
X83926853Y-74982691I112483J-540597D01*
G01*
X84394296Y-79149451D02*
G75*
G02*
X84422469Y-79360101I-865396J-222949D01*
G01*
X82087084Y-71661710D02*
X82061610Y-71210262D01*
X83040949Y-71035031D02*
X83037555Y-71062550D01*
X83965292Y-71421730D02*
X83968603Y-71378563D01*
X82968883Y-76956203D02*
X82843337Y-76833106D01*
X81806793Y-69453252D02*
X81787802Y-69460776D01*
X84021899Y-76699850D02*
G75*
G02*
X84046666Y-76710953I101J-32950D01*
G01*
X84384549Y-77288754D02*
G75*
G02*
X84400441Y-77376903I-502749J-136146D01*
G01*
X84463794Y-73596035D02*
X84461096Y-73322178D01*
X83760524Y-75548538D02*
G75*
G02*
X83833289Y-75539222I73976J-288962D01*
G01*
X82276376Y-75601488D02*
X82270531Y-75797588D01*
X83458499Y-73847764D02*
X83736822Y-73777662D01*
X82740376Y-77284770D02*
G75*
G02*
X82806574Y-77160270I631324J-255830D01*
G01*
X82910019Y-77024597D02*
X82968883Y-76956203D01*
X83017060Y-73962128D02*
X83225243Y-73907787D01*
X84034514Y-77737026D02*
G75*
G02*
X84013433Y-77808474I-530614J117726D01*
G01*
X82855459Y-70011315D02*
X83151767Y-70122710D01*
X81829917Y-69995304D02*
X81855992Y-69986119D01*
X84121183Y-78808916D02*
X84088263Y-78793391D01*
X83602252Y-75777612D02*
G75*
G02*
X83609714Y-75716238I304548J-5888D01*
G01*
X83573152Y-71548169D02*
X83538671Y-71650330D01*
X84461096Y-73322178D02*
X84458397Y-73048321D01*
X81700478Y-70044769D02*
X81730327Y-70033292D01*
X81846733Y-68942690D02*
X81828276Y-68784787D01*
X82116133Y-73779151D02*
X82118615Y-73152598D01*
X84408737Y-77676162D02*
X84408884Y-77613086D01*
X82360357Y-70908650D02*
X82391522Y-70909086D01*
X83620123Y-73336890D02*
G75*
G02*
X83618127Y-73339426I-2723J90D01*
G01*
X82252232Y-71584291D02*
G75*
G02*
X82236434Y-71501463I393068J117891D01*
G01*
X83929299Y-79221083D02*
G75*
G02*
X83973601Y-79258645I-205699J-287517D01*
G01*
X83231477Y-74013418D02*
X83022203Y-73968895D01*
X83455609Y-79951049D02*
X83460143Y-79694510D01*
X83861497Y-69219271D02*
X83924997Y-69199722D01*
X81987859Y-72364181D02*
X81976186Y-73157650D01*
X83339357Y-70401773D02*
X82896702Y-70400650D01*
X83010597Y-72699197D02*
G75*
G02*
X83012074Y-72696948I2303J97D01*
G01*
X82291648Y-69819051D02*
G75*
G02*
X82320557Y-69815888I25452J-98949D01*
G01*
X82416305Y-70949111D02*
X82400554Y-70967445D01*
X81765996Y-69469241D02*
X81740542Y-69478860D01*
X84457881Y-74824450D02*
G75*
G02*
X84450938Y-74830276I-6881J1150D01*
G01*
X82794472Y-76785923D02*
X82751652Y-76746170D01*
X82687515Y-76719031D02*
X82625347Y-76790026D01*
X83164409Y-74886720D02*
G75*
G02*
X83205434Y-74899697I-67009J-283180D01*
G01*
X82320557Y-69815880D02*
G75*
G02*
X82348974Y-69821440I-3057J-91020D01*
G01*
X81880233Y-69232132D02*
X81846733Y-68942690D01*
X84076735Y-79817066D02*
X84077046Y-79928648D01*
X83465018Y-79524764D02*
G75*
G02*
X83475742Y-79413724I708982J-12436D01*
G01*
X84323469Y-77110907D02*
X84285427Y-77030360D01*
X81765236Y-70019666D02*
X81800129Y-70006221D01*
X83094562Y-79643710D02*
X83089226Y-79951049D01*
X81687586Y-78727408D02*
X81881101Y-77198311D01*
X84426884Y-75364466D02*
G75*
G02*
X84447681Y-75502158I-662184J-170434D01*
G01*
X83056825Y-69582654D02*
X82909459Y-69531759D01*
X82575441Y-74944691D02*
X82514541Y-74996890D01*
X81673718Y-70054945D02*
X81700478Y-70044769D01*
X81670759Y-69974182D02*
X81670795Y-70054110D01*
X83205435Y-74899695D02*
G75*
G02*
X83281795Y-74946516I-98735J-246705D01*
G01*
X82391522Y-70909086D02*
X82417761Y-70910430D01*
X81855992Y-69986119D02*
G75*
G02*
X81858288Y-69986645I708J-2181D01*
G01*
X84017619Y-75622914D02*
G75*
G02*
X84047458Y-75681032I-149519J-113486D01*
G01*
X84440622Y-71834632D02*
X84125451Y-71913510D01*
X82843337Y-76833106D02*
X82794472Y-76785923D01*
X82377020Y-69831716D02*
X82599764Y-69915292D01*
X83937422Y-71599989D02*
X83954932Y-71497080D01*
X83925703Y-77151196D02*
G75*
G02*
X83996250Y-77285069I-649903J-428004D01*
G01*
X83502181Y-70408114D02*
X83339357Y-70401773D01*
X82590278Y-71147213D02*
G75*
G02*
X82594114Y-71102530I245722J1413D01*
G01*
X82344372Y-77345169D02*
G75*
G02*
X82353858Y-77294210I580128J-81631D01*
G01*
X82885973Y-71401176D02*
G75*
G02*
X82787077Y-71421413I-100073J237276D01*
G01*
X84074038Y-79692098D02*
X84076735Y-79817066D01*
X84156947Y-72447071D02*
X84346259Y-72406241D01*
X84072331Y-78786650D02*
X84052356Y-78778198D01*
X83918453Y-71700611D02*
X83937422Y-71599989D01*
X84273727Y-75093864D02*
G75*
G02*
X84338359Y-75169896I-359327J-370936D01*
G01*
X83834885Y-79187438D02*
G75*
G02*
X83886492Y-79198784I-20585J-216662D01*
G01*
X83970236Y-71157570D02*
X83963850Y-71047743D01*
X82456036Y-77028276D02*
G75*
G02*
X82548539Y-76886852I973864J-536024D01*
G01*
X82373842Y-71790805D02*
G75*
G02*
X82300533Y-71694832I360958J351705D01*
G01*
X82268918Y-76111647D02*
X82268918Y-76588090D01*
X84036372Y-77422914D02*
G75*
G02*
X84049944Y-77573610I-835272J-151186D01*
G01*
X81792951Y-68507667D02*
G75*
G02*
X81796807Y-68529016I-196051J-46433D01*
G01*
X83647545Y-75078241D02*
G75*
G02*
X83737970Y-75025045I321155J-442459D01*
G01*
X82284157Y-72378764D02*
X82284157Y-72682076D01*
X83500456Y-75245605D02*
X83489700Y-75262275D01*
X82874643Y-70908650D02*
X83051237Y-70908650D01*
X83037555Y-71062550D02*
G75*
G02*
X83004190Y-71242572I-1398255J166050D01*
G01*
X82698026Y-71407665D02*
G75*
G02*
X82636852Y-71366709I40974J127365D01*
G01*
X81746930Y-68553886D02*
G75*
G02*
X81761790Y-68514594I108070J-18414D01*
G01*
X83016412Y-78167869D02*
G75*
G02*
X82917606Y-78098321I286488J511969D01*
G01*
X83681158Y-72549398D02*
X83933319Y-72495217D01*
X81671924Y-70055210D02*
G75*
G02*
X81670793Y-70054110I76J1210D01*
G01*
X81424345Y-78644844D02*
X81116085Y-80366837D01*
X83923937Y-70331996D02*
X83924738Y-70245389D01*
X83012014Y-72701367D02*
G75*
G02*
X83010619Y-72699197I986J2167D01*
G01*
X83406857Y-70906537D02*
G75*
G02*
X83456302Y-70915688I-14157J-214663D01*
G01*
X84405745Y-77449930D02*
X84401650Y-77385957D01*
X81308469Y-80568369D02*
X81364779Y-80554813D01*
X83600685Y-75804178D02*
X83602252Y-75777612D01*
X84463390Y-76123270D02*
X84461631Y-75810258D01*
X83134197Y-78221299D02*
G75*
G02*
X83016412Y-78167869I258003J725299D01*
G01*
X83016155Y-72695383D02*
G75*
G02*
X83033158Y-72689917I36645J-84817D01*
G01*
X82665158Y-76039450D02*
X82665674Y-75935310D01*
X83774959Y-74662147D02*
X84125498Y-74750167D01*
X83022203Y-73968895D02*
G75*
G02*
X83016125Y-73965594I2797J12395D01*
G01*
X83295226Y-71444542D02*
X83321809Y-71291462D01*
X84432997Y-80377770D02*
X84432910Y-79907870D01*
X83889366Y-76826712D02*
X83770346Y-76953572D01*
X83561480Y-71010274D02*
G75*
G02*
X83584764Y-71065972I-372480J-188426D01*
G01*
X82748725Y-77853291D02*
G75*
G02*
X82707728Y-77738675I484075J237791D01*
G01*
X84461098Y-74548823D02*
X84458397Y-74267236D01*
X82929316Y-75401796D02*
G75*
G02*
X83016575Y-75404259I31284J-438604D01*
G01*
X83599876Y-76039450D02*
X83599877Y-75887431D01*
X82684152Y-79951050D02*
X82279077Y-79951050D01*
X82287394Y-75464552D02*
G75*
G02*
X82306073Y-75358728I842506J-94148D01*
G01*
X82720374Y-78427573D02*
G75*
G02*
X82564728Y-78274776I626226J793573D01*
G01*
X83614654Y-79214668D02*
G75*
G02*
X83646363Y-79197206I189246J-306132D01*
G01*
X81938253Y-74048090D02*
X81828575Y-75537069D01*
X84041357Y-79367202D02*
G75*
G02*
X84057588Y-79442800I-394757J-124298D01*
G01*
X82651316Y-71932795D02*
G75*
G02*
X82576274Y-71916832I40084J372795D01*
G01*
X83924997Y-68935499D02*
X83924595Y-68772254D01*
X82414954Y-75108626D02*
G75*
G02*
X82484569Y-75027213I393346J-265874D01*
G01*
X82671292Y-75772079D02*
X82673451Y-75739420D01*
X84356444Y-77196891D02*
X84323469Y-77110907D01*
X83432728Y-72602904D02*
X83681158Y-72549398D01*
X83356037Y-80377770D02*
X84432997Y-80377770D01*
X82690558Y-74876130D02*
X82628108Y-74910005D01*
X83020800Y-72704954D02*
X83012014Y-72701367D01*
X83917435Y-68683297D02*
G75*
G02*
X83922682Y-68720507I-134235J-37903D01*
G01*
X81914492Y-70622100D02*
X81933120Y-70868010D01*
X83976505Y-79949060D02*
X83876808Y-79950562D01*
X83489700Y-75262275D02*
X83480250Y-75275651D01*
X83620226Y-75681024D02*
G75*
G02*
X83653427Y-75619920I234374J-87776D01*
G01*
X81792810Y-69234046D02*
X81801759Y-69347539D01*
X83973598Y-79258648D02*
G75*
G02*
X84014952Y-79310318I-210998J-211252D01*
G01*
X81730327Y-70033292D02*
X81765236Y-70019666D01*
X83225978Y-76039450D02*
X82665158Y-76039450D01*
X83810862Y-78732850D02*
G75*
G02*
X83927130Y-78743771I-52362J-1181850D01*
G01*
X82589602Y-71188040D02*
X82590278Y-71147213D01*
X83416922Y-75123554D02*
G75*
G02*
X83457336Y-75229156I-503822J-253346D01*
G01*
X82467663Y-71866352D02*
G75*
G02*
X82373840Y-71790807I264837J424952D01*
G01*
X82263255Y-71208468D02*
G75*
G02*
X82289360Y-71141695I733145J-248132D01*
G01*
X84408144Y-77543130D02*
X84405745Y-77449930D01*
X83473445Y-72814375D02*
X83240435Y-72758593D01*
X82616374Y-71038347D02*
X82628783Y-71013413D01*
X84043849Y-78775052D02*
X84018792Y-78765785D01*
X83926853Y-74982695D02*
G75*
G02*
X84025940Y-74987425I19647J-628705D01*
G01*
X83366197Y-76588090D02*
X84463477Y-76588090D01*
X83496054Y-71802730D02*
X83694894Y-71802730D01*
X82576276Y-71916826D02*
G75*
G02*
X82467668Y-71866344I150624J466126D01*
G01*
X82668487Y-75830041D02*
X82671292Y-75772079D01*
X83051237Y-70908650D02*
X83050094Y-70941670D01*
X83812514Y-68714136D02*
X82884544Y-69056389D01*
X83344349Y-71091530D02*
X83361930Y-70903570D01*
X83361117Y-72106108D02*
X82284157Y-72378764D01*
X83924595Y-68772254D02*
X83922682Y-68720507D01*
X82917608Y-78098318D02*
G75*
G02*
X82836689Y-78011277I371192J426218D01*
G01*
X83084474Y-75425749D02*
G75*
G02*
X83138359Y-75468758I-86274J-163351D01*
G01*
X83016129Y-73965590D02*
G75*
G02*
X83017059Y-73962124I1371J1490D01*
G01*
X81384737Y-80530060D02*
G75*
G02*
X81379266Y-80541670I-63137J22660D01*
G01*
X82236430Y-71501463D02*
G75*
G02*
X82233536Y-71398762I893170J76563D01*
G01*
X82279077Y-70400650D02*
X82279077Y-70654650D01*
X82417761Y-70910430D02*
X82439124Y-70912251D01*
X83954932Y-71497080D02*
X83965292Y-71421730D01*
X83842271Y-70604101D02*
G75*
G02*
X83897904Y-70708275I-500071J-333999D01*
G01*
X81387894Y-80518598D02*
G75*
G02*
X81384741Y-80530061I-78394J15398D01*
G01*
X83618142Y-73339479D02*
X83423920Y-73389722D01*
X81081923Y-80611989D02*
X81201506Y-80589405D01*
X84154797Y-78289271D02*
G75*
G02*
X83941877Y-78477054I-753597J639871D01*
G01*
X82564720Y-78274783D02*
G75*
G02*
X82443309Y-78089622I807980J662183D01*
G01*
X84384549Y-77288754D02*
X84356444Y-77196891D01*
X84070624Y-79944277D02*
G75*
G02*
X84064192Y-79947023I-6524J6377D01*
G01*
X82061610Y-71210262D02*
X82029928Y-70761148D01*
X81881101Y-77198311D02*
X82023403Y-75657502D01*
X83081563Y-78601096D02*
G75*
G02*
X82901336Y-78538836I213837J910996D01*
G01*
X83498436Y-70935795D02*
G75*
G02*
X83533348Y-70967349I-90936J-135705D01*
G01*
X82643588Y-70986694D02*
X82653397Y-70970489D01*
X83208293Y-73444964D02*
X82952155Y-73509610D01*
X81990921Y-70296954D02*
X81959031Y-69944339D01*
X82670889Y-70944259D02*
X82698049Y-70908650D01*
X83450794Y-78253224D02*
G75*
G02*
X83335667Y-78253467I-60094J1200624D01*
G01*
X82242540Y-71294971D02*
G75*
G02*
X82263255Y-71208468I482160J-69729D01*
G01*
X81976186Y-73157650D02*
X81938253Y-74048090D01*
X84406154Y-77746330D02*
G75*
G02*
X84312467Y-78040888I-1273054J242730D01*
G01*
X84450777Y-71833331D02*
G75*
G02*
X84457657Y-71839686I123J-6769D01*
G01*
X83016575Y-75404261D02*
G75*
G02*
X83084477Y-75425744I-25275J-197939D01*
G01*
X84282450Y-77025163D02*
X84242108Y-76954732D01*
X83335667Y-78253462D02*
G75*
G02*
X83221078Y-78242702I54933J1200562D01*
G01*
X81201506Y-80589405D02*
X81308469Y-80568369D01*
X84046154Y-77661403D02*
G75*
G02*
X84034517Y-77737027I-578454J50303D01*
G01*
X82441637Y-70914711D02*
G75*
G02*
X82440354Y-70918589I-6537J11D01*
G01*
X84057595Y-79442799D02*
X84067722Y-79557511D01*
X83058561Y-74877146D02*
X82919157Y-74876382D01*
X83475740Y-79413724D02*
G75*
G02*
X83495796Y-79349118I264760J-46776D01*
G01*
X83286174Y-78632145D02*
G75*
G02*
X83081565Y-78601089I91326J1291245D01*
G01*
X84144978Y-78822188D02*
G75*
G02*
X84200291Y-78863042I-229878J-369112D01*
G01*
X82029928Y-70761148D02*
X81990921Y-70296954D01*
X82379557Y-77203022D02*
G75*
G02*
X82413649Y-77114282I984943J-327478D01*
G01*
X82909459Y-69531759D02*
G75*
G02*
X82904430Y-69527758I2941J8859D01*
G01*
X81914386Y-69414148D02*
G75*
G02*
X81908870Y-69415123I-5486J14948D01*
G01*
X83747197Y-72879508D02*
X83473445Y-72814375D01*
X82358108Y-71021009D02*
G75*
G02*
X82400555Y-70967446I539692J-384091D01*
G01*
X83100867Y-79420120D02*
X83094562Y-79643710D01*
X83455013Y-78793770D02*
G75*
G02*
X83593450Y-78746903I282387J-606230D01*
G01*
X83130978Y-79181018D02*
G75*
G02*
X83161675Y-79094517I500122J-128782D01*
G01*
X82348978Y-69821430D02*
X82377020Y-69831716D01*
X82673451Y-75739420D02*
G75*
G02*
X82698692Y-75584314I739149J-40680D01*
G01*
X83941886Y-78477068D02*
G75*
G02*
X83686319Y-78594393I-520586J796968D01*
G01*
X83533346Y-70967350D02*
G75*
G02*
X83561476Y-71010276I-178646J-147750D01*
G01*
X83905958Y-75548848D02*
G75*
G02*
X83969180Y-75577542I-57758J-211252D01*
G01*
X84120431Y-75007294D02*
G75*
G02*
X84202001Y-75041139I-119531J-403306D01*
G01*
X84200296Y-78863036D02*
G75*
G02*
X84260873Y-78920604I-614196J-706964D01*
G01*
X81908870Y-69415129D02*
G75*
G02*
X81903198Y-69410176I-170J5529D01*
G01*
X82338826Y-77399527D02*
X82336136Y-77470493D01*
X83004185Y-71242571D02*
G75*
G02*
X82956347Y-71345123I-293485J74471D01*
G01*
X83608169Y-71372795D02*
G75*
G02*
X83595734Y-71458222I-810769J74395D01*
G01*
X83927129Y-78743775D02*
G75*
G02*
X84043853Y-78775043I-72629J-504625D01*
G01*
X84069665Y-76039450D02*
X83834772Y-76039450D01*
X83799991Y-78109970D02*
G75*
G02*
X83677231Y-78188694I-422891J524370D01*
G01*
X83610016Y-71233417D02*
X83611868Y-71284570D01*
X82665674Y-75935310D02*
X82666469Y-75887639D01*
X82279077Y-79951050D02*
X82279077Y-80164410D01*
X81792951Y-68507667D02*
X81785323Y-68476481D01*
X84315070Y-78982187D02*
G75*
G02*
X84349965Y-79035164I-260570J-209613D01*
G01*
X83122110Y-74880042D02*
G75*
G02*
X83164408Y-74886724I-23010J-282858D01*
G01*
X83445743Y-70233178D02*
X83693823Y-70326180D01*
X82268918Y-76588090D02*
X83366197Y-76588090D01*
X81671854Y-69779371D02*
X81671016Y-69885142D01*
X81387894Y-80518598D02*
X81392281Y-80494030D01*
X81903179Y-69410178D02*
X81894081Y-69343861D01*
X82806564Y-77160263D02*
G75*
G02*
X82910020Y-77024598I1196736J-805337D01*
G01*
X81828276Y-68784787D02*
X81811545Y-68646885D01*
X83653421Y-75619915D02*
G75*
G02*
X83700229Y-75575405I150579J-111485D01*
G01*
X82279077Y-70654650D02*
X82279077Y-70908650D01*
X83981085Y-77883490D02*
G75*
G02*
X83902647Y-78006822I-610385J301590D01*
G01*
X83208256Y-73225381D02*
X83423887Y-73282421D01*
X84450938Y-74830307D02*
G75*
G02*
X84440605Y-74828976I262J42807D01*
G01*
X82353856Y-77294210D02*
G75*
G02*
X82379556Y-77203022I1000944J-232890D01*
G01*
X81116085Y-80366837D02*
X81098842Y-80458434D01*
X83584764Y-71065972D02*
G75*
G02*
X83599970Y-71124929I-407464J-136528D01*
G01*
X83702707Y-79184888D02*
X83737519Y-79184346D01*
X83219666Y-71669092D02*
G75*
G02*
X83165096Y-71755305I-478966J242792D01*
G01*
X84458397Y-74267236D02*
X83740404Y-74119563D01*
X81808770Y-69451944D02*
G75*
G02*
X81806798Y-69453265I-3870J3644D01*
G01*
X83671493Y-79188606D02*
G75*
G02*
X83702707Y-79184883I36807J-175894D01*
G01*
X81973568Y-71617178D02*
X81987859Y-72364181D01*
X82413646Y-77114281D02*
G75*
G02*
X82456036Y-77028276I970954J-425119D01*
G01*
X84049941Y-77573610D02*
G75*
G02*
X84046154Y-77661403I-1003441J-690D01*
G01*
X82636829Y-71366728D02*
G75*
G02*
X82601370Y-71294953I126271J107028D01*
G01*
X82687540Y-76719052D02*
G75*
G02*
X82707521Y-76710030I19860J-17348D01*
G01*
X82284157Y-72985388D02*
X82952125Y-73158599D01*
X83921388Y-70410809D02*
G75*
G02*
X83918442Y-70410252I-88J7609D01*
G01*
X82548537Y-76886850D02*
X82506576Y-76945271D01*
X83240435Y-72758593D02*
X83033132Y-72708749D01*
X83355399Y-75025282D02*
G75*
G02*
X83416916Y-75123557I-493999J-377618D01*
G01*
X82666469Y-75887639D02*
X82668487Y-75830041D01*
X82284157Y-73677250D02*
X82284156Y-73981159D01*
X83048882Y-70960472D02*
X83045438Y-70994864D01*
X83646361Y-79197202D02*
G75*
G02*
X83671493Y-79188607I47139J-96798D01*
G01*
X81811545Y-68646885D02*
X81796802Y-68529017D01*
X83893734Y-71802730D02*
X83903739Y-71764630D01*
X83681889Y-70457909D02*
G75*
G02*
X83731487Y-70488216I-277389J-509691D01*
G01*
X84462935Y-71968411D02*
X84460820Y-71890452D01*
X83321809Y-71291462D02*
X83344349Y-71091530D01*
X82336136Y-77470493D02*
X82335681Y-77578690D01*
X82384307Y-75160363D02*
G75*
G02*
X82414956Y-75108627I446793J-229737D01*
G01*
X84390949Y-75262467D02*
G75*
G02*
X84426888Y-75364465I-567349J-257233D01*
G01*
X83736822Y-73777662D02*
X84463794Y-73596035D01*
X83122110Y-74880042D02*
X83058561Y-74877146D01*
X82352230Y-75228067D02*
X82337994Y-75263839D01*
X84312468Y-78040888D02*
G75*
G02*
X84154795Y-78289270I-971368J442388D01*
G01*
X82747818Y-75487339D02*
G75*
G02*
X82824225Y-75428040I159282J-126361D01*
G01*
X83138356Y-75468761D02*
G75*
G02*
X83183301Y-75535823I-257756J-221339D01*
G01*
X83820818Y-77012212D02*
G75*
G02*
X83925703Y-77151196I-1027918J-884788D01*
G01*
X83580656Y-79240085D02*
X83593236Y-79229571D01*
X81674558Y-69503532D02*
X81671854Y-69779371D01*
X83221832Y-69639014D02*
X83056825Y-69582654D01*
X83476737Y-75277440D02*
G75*
G02*
X83473725Y-75275483I-37J3240D01*
G01*
X83902642Y-78006818D02*
G75*
G02*
X83799994Y-78109974I-523342J418118D01*
G01*
X84394897Y-72395556D02*
X84463477Y-72380221D01*
X84463477Y-72106716D02*
X84462935Y-71968411D01*
X83924997Y-69199722D02*
X83924997Y-68935499D01*
X83686316Y-78594382D02*
G75*
G02*
X83494613Y-78630308I-280416J966882D01*
G01*
X83262188Y-71566454D02*
G75*
G02*
X83219662Y-71669090I-692388J226754D01*
G01*
X83896330Y-79202613D02*
G75*
G02*
X83929306Y-79221074I-66230J-156987D01*
G01*
X82956340Y-71345118D02*
G75*
G02*
X82885976Y-71401183I-135140J97418D01*
G01*
X84125451Y-71913510D02*
X83774948Y-72001561D01*
X82698688Y-75584313D02*
G75*
G02*
X82747825Y-75487345I262112J-71887D01*
G01*
X83617779Y-73334192D02*
G75*
G02*
X83620134Y-73336890I-379J-2708D01*
G01*
X83456304Y-70915682D02*
G75*
G02*
X83498437Y-70935794I-47604J-153918D01*
G01*
X82439124Y-70912251D02*
G75*
G02*
X82441650Y-70914711I76J-2449D01*
G01*
X83112064Y-79281008D02*
G75*
G02*
X83130979Y-79181018I774836J-94792D01*
G01*
X82599764Y-69915292D02*
X82855459Y-70011315D01*
X82772059Y-77905888D02*
X82748725Y-77853291D01*
X82901331Y-78538847D02*
G75*
G02*
X82720377Y-78427569I383469J826347D01*
G01*
X83971216Y-71233548D02*
X83970236Y-71157570D01*
X81671016Y-69885142D02*
X81670759Y-69974182D01*
X82284156Y-73981159D02*
X82284156Y-74285068D01*
X84047457Y-75681032D02*
G75*
G02*
X84052369Y-75704714I-122557J-37768D01*
G01*
X82625347Y-76790026D02*
X82561466Y-76868850D01*
X84013297Y-76703233D02*
G75*
G02*
X84021899Y-76699882I8603J-9367D01*
G01*
X83518793Y-75214243D02*
X83500456Y-75245605D01*
X81781752Y-69099675D02*
X81792810Y-69234046D01*
X83924997Y-70142508D02*
X83924997Y-69874207D01*
X81861872Y-69994365D02*
X81889507Y-70319357D01*
X82698049Y-70908650D02*
X82874643Y-70908650D01*
X82575441Y-74944691D02*
G75*
G02*
X82628106Y-74910001I228459J-289509D01*
G01*
X81889507Y-70319357D02*
X81914492Y-70622100D01*
X83112064Y-79281008D02*
X83100867Y-79420120D01*
X81800129Y-70006221D02*
X81829917Y-69995304D01*
X82279077Y-70908650D02*
X82360357Y-70908650D01*
X84407964Y-77728620D02*
G75*
G02*
X84406148Y-77746329I-103064J1620D01*
G01*
X82001865Y-76039450D02*
X82107282Y-74170010D01*
X81809586Y-69449742D02*
G75*
G02*
X81808777Y-69451950I-2986J-158D01*
G01*
X83295226Y-71444542D02*
G75*
G02*
X83262192Y-71566455I-1192326J257642D01*
G01*
X82514541Y-74996890D02*
X82484578Y-75027222D01*
X84460820Y-71890452D02*
X84457644Y-71839687D01*
X82601387Y-71294949D02*
G75*
G02*
X82589599Y-71188040I499213J109149D01*
G01*
X84025940Y-74987424D02*
G75*
G02*
X84120432Y-75007291I-75740J-594876D01*
G01*
X83165097Y-71755306D02*
G75*
G02*
X83096139Y-71827745I-392297J304406D01*
G01*
X81785323Y-68476481D02*
X81761774Y-68514584D01*
X83281784Y-74946529D02*
G75*
G02*
X83355400Y-75025281I-360284J-410571D01*
G01*
X83933319Y-72495217D02*
X84156947Y-72447071D01*
X84460616Y-74772785D02*
X84461957Y-74693380D01*
X82242271Y-69834944D02*
G75*
G02*
X82291649Y-69819054I157529J-404856D01*
G01*
X82287394Y-75464552D02*
X82276376Y-75601488D01*
X83876808Y-79950562D02*
X83759730Y-79951049D01*
X81894081Y-69343861D02*
X81880233Y-69232132D01*
X82751652Y-76746170D02*
X82714271Y-76712564D01*
X83473708Y-75275490D02*
X83468442Y-75263271D01*
X83494612Y-78630299D02*
G75*
G02*
X83286174Y-78632146I-115812J1307499D01*
G01*
X84188286Y-76877410D02*
X84117678Y-76790800D01*
X84061610Y-75815350D02*
X84064465Y-75879430D01*
X84052360Y-75704715D02*
X84057324Y-75755142D01*
X83012096Y-72697006D02*
X83020757Y-72693542D01*
X82306079Y-75358730D02*
G75*
G02*
X82337986Y-75263836I564121J-136870D01*
G01*
X82443308Y-78089623D02*
G75*
G02*
X82349103Y-77822039I933792J479123D01*
G01*
X81743409Y-68606378D02*
G75*
G02*
X81746936Y-68553887I257291J9078D01*
G01*
X84064192Y-79947038D02*
X83976505Y-79949060D01*
X81858287Y-69986646D02*
G75*
G02*
X81861851Y-69994366I-8387J-8554D01*
G01*
X82601973Y-71073200D02*
G75*
G02*
X82616375Y-71038348I396627J-143500D01*
G01*
X81801759Y-69347539D02*
X81809586Y-69449742D01*
X84349963Y-79035165D02*
G75*
G02*
X84394296Y-79149451I-461163J-244635D01*
G01*
X83924997Y-69874207D02*
X83416943Y-69704572D01*
X82628783Y-71013413D02*
X82643588Y-70986694D01*
X83538671Y-71650330D02*
X83525974Y-71685815D01*
X82952125Y-73158599D02*
X83208256Y-73225381D01*
X83518793Y-75214243D02*
G75*
G02*
X83569320Y-75147397I348307J-210757D01*
G01*
X84463477Y-76588090D02*
X84463390Y-76123270D01*
X83907217Y-68678209D02*
X83812514Y-68714136D01*
D11*
X89007945Y-57715575D02*
X89465088Y-57715575D01*
X89236516Y-57715575D02*
X89236516Y-56915575D01*
X89236516Y-56915575D02*
X89312707Y-57029860D01*
X89312707Y-57029860D02*
X89388897Y-57106051D01*
X89388897Y-57106051D02*
X89465088Y-57144146D01*
X88093659Y-56877480D02*
X88779373Y-57906051D01*
X87407945Y-57715575D02*
X87865088Y-57715575D01*
X87636516Y-57715575D02*
X87636516Y-56915575D01*
X87636516Y-56915575D02*
X87712707Y-57029860D01*
X87712707Y-57029860D02*
X87788897Y-57106051D01*
X87788897Y-57106051D02*
X87865088Y-57144146D01*
X86722230Y-57182241D02*
X86722230Y-57715575D01*
X86912706Y-56877480D02*
X87103183Y-57448908D01*
X87103183Y-57448908D02*
X86607944Y-57448908D01*
X85731754Y-56877480D02*
X86417468Y-57906051D01*
X85503183Y-56991765D02*
X85465087Y-56953670D01*
X85465087Y-56953670D02*
X85388897Y-56915575D01*
X85388897Y-56915575D02*
X85198421Y-56915575D01*
X85198421Y-56915575D02*
X85122230Y-56953670D01*
X85122230Y-56953670D02*
X85084135Y-56991765D01*
X85084135Y-56991765D02*
X85046040Y-57067956D01*
X85046040Y-57067956D02*
X85046040Y-57144146D01*
X85046040Y-57144146D02*
X85084135Y-57258432D01*
X85084135Y-57258432D02*
X85541278Y-57715575D01*
X85541278Y-57715575D02*
X85046040Y-57715575D01*
X84322230Y-56915575D02*
X84703182Y-56915575D01*
X84703182Y-56915575D02*
X84741278Y-57296527D01*
X84741278Y-57296527D02*
X84703182Y-57258432D01*
X84703182Y-57258432D02*
X84626992Y-57220337D01*
X84626992Y-57220337D02*
X84436516Y-57220337D01*
X84436516Y-57220337D02*
X84360325Y-57258432D01*
X84360325Y-57258432D02*
X84322230Y-57296527D01*
X84322230Y-57296527D02*
X84284135Y-57372718D01*
X84284135Y-57372718D02*
X84284135Y-57563194D01*
X84284135Y-57563194D02*
X84322230Y-57639384D01*
X84322230Y-57639384D02*
X84360325Y-57677480D01*
X84360325Y-57677480D02*
X84436516Y-57715575D01*
X84436516Y-57715575D02*
X84626992Y-57715575D01*
X84626992Y-57715575D02*
X84703182Y-57677480D01*
X84703182Y-57677480D02*
X84741278Y-57639384D01*
X82874610Y-57715575D02*
X83141277Y-57334622D01*
X83331753Y-57715575D02*
X83331753Y-56915575D01*
X83331753Y-56915575D02*
X83026991Y-56915575D01*
X83026991Y-56915575D02*
X82950801Y-56953670D01*
X82950801Y-56953670D02*
X82912706Y-56991765D01*
X82912706Y-56991765D02*
X82874610Y-57067956D01*
X82874610Y-57067956D02*
X82874610Y-57182241D01*
X82874610Y-57182241D02*
X82912706Y-57258432D01*
X82912706Y-57258432D02*
X82950801Y-57296527D01*
X82950801Y-57296527D02*
X83026991Y-57334622D01*
X83026991Y-57334622D02*
X83331753Y-57334622D01*
X82226991Y-57677480D02*
X82303182Y-57715575D01*
X82303182Y-57715575D02*
X82455563Y-57715575D01*
X82455563Y-57715575D02*
X82531753Y-57677480D01*
X82531753Y-57677480D02*
X82569849Y-57601289D01*
X82569849Y-57601289D02*
X82569849Y-57296527D01*
X82569849Y-57296527D02*
X82531753Y-57220337D01*
X82531753Y-57220337D02*
X82455563Y-57182241D01*
X82455563Y-57182241D02*
X82303182Y-57182241D01*
X82303182Y-57182241D02*
X82226991Y-57220337D01*
X82226991Y-57220337D02*
X82188896Y-57296527D01*
X82188896Y-57296527D02*
X82188896Y-57372718D01*
X82188896Y-57372718D02*
X82569849Y-57448908D01*
X81922230Y-57182241D02*
X81731754Y-57715575D01*
X81731754Y-57715575D02*
X81541277Y-57182241D01*
X80703182Y-56915575D02*
X80207944Y-56915575D01*
X80207944Y-56915575D02*
X80474610Y-57220337D01*
X80474610Y-57220337D02*
X80360325Y-57220337D01*
X80360325Y-57220337D02*
X80284134Y-57258432D01*
X80284134Y-57258432D02*
X80246039Y-57296527D01*
X80246039Y-57296527D02*
X80207944Y-57372718D01*
X80207944Y-57372718D02*
X80207944Y-57563194D01*
X80207944Y-57563194D02*
X80246039Y-57639384D01*
X80246039Y-57639384D02*
X80284134Y-57677480D01*
X80284134Y-57677480D02*
X80360325Y-57715575D01*
X80360325Y-57715575D02*
X80588896Y-57715575D01*
X80588896Y-57715575D02*
X80665087Y-57677480D01*
X80665087Y-57677480D02*
X80703182Y-57639384D01*
X89426992Y-59003530D02*
X89426992Y-58203530D01*
X89426992Y-58203530D02*
X89236516Y-58203530D01*
X89236516Y-58203530D02*
X89122230Y-58241625D01*
X89122230Y-58241625D02*
X89046040Y-58317815D01*
X89046040Y-58317815D02*
X89007945Y-58394006D01*
X89007945Y-58394006D02*
X88969849Y-58546387D01*
X88969849Y-58546387D02*
X88969849Y-58660673D01*
X88969849Y-58660673D02*
X89007945Y-58813054D01*
X89007945Y-58813054D02*
X89046040Y-58889244D01*
X89046040Y-58889244D02*
X89122230Y-58965435D01*
X89122230Y-58965435D02*
X89236516Y-59003530D01*
X89236516Y-59003530D02*
X89426992Y-59003530D01*
X88665088Y-58774958D02*
X88284135Y-58774958D01*
X88741278Y-59003530D02*
X88474611Y-58203530D01*
X88474611Y-58203530D02*
X88207945Y-59003530D01*
X87941278Y-59003530D02*
X87941278Y-58203530D01*
X87598422Y-58965435D02*
X87484136Y-59003530D01*
X87484136Y-59003530D02*
X87293660Y-59003530D01*
X87293660Y-59003530D02*
X87217469Y-58965435D01*
X87217469Y-58965435D02*
X87179374Y-58927339D01*
X87179374Y-58927339D02*
X87141279Y-58851149D01*
X87141279Y-58851149D02*
X87141279Y-58774958D01*
X87141279Y-58774958D02*
X87179374Y-58698768D01*
X87179374Y-58698768D02*
X87217469Y-58660673D01*
X87217469Y-58660673D02*
X87293660Y-58622577D01*
X87293660Y-58622577D02*
X87446041Y-58584482D01*
X87446041Y-58584482D02*
X87522231Y-58546387D01*
X87522231Y-58546387D02*
X87560326Y-58508292D01*
X87560326Y-58508292D02*
X87598422Y-58432101D01*
X87598422Y-58432101D02*
X87598422Y-58355911D01*
X87598422Y-58355911D02*
X87560326Y-58279720D01*
X87560326Y-58279720D02*
X87522231Y-58241625D01*
X87522231Y-58241625D02*
X87446041Y-58203530D01*
X87446041Y-58203530D02*
X87255564Y-58203530D01*
X87255564Y-58203530D02*
X87141279Y-58241625D01*
X86646040Y-58622577D02*
X86646040Y-59003530D01*
X86912707Y-58203530D02*
X86646040Y-58622577D01*
X86646040Y-58622577D02*
X86379374Y-58203530D01*
X85236517Y-58584482D02*
X85122231Y-58622577D01*
X85122231Y-58622577D02*
X85084136Y-58660673D01*
X85084136Y-58660673D02*
X85046040Y-58736863D01*
X85046040Y-58736863D02*
X85046040Y-58851149D01*
X85046040Y-58851149D02*
X85084136Y-58927339D01*
X85084136Y-58927339D02*
X85122231Y-58965435D01*
X85122231Y-58965435D02*
X85198421Y-59003530D01*
X85198421Y-59003530D02*
X85503183Y-59003530D01*
X85503183Y-59003530D02*
X85503183Y-58203530D01*
X85503183Y-58203530D02*
X85236517Y-58203530D01*
X85236517Y-58203530D02*
X85160326Y-58241625D01*
X85160326Y-58241625D02*
X85122231Y-58279720D01*
X85122231Y-58279720D02*
X85084136Y-58355911D01*
X85084136Y-58355911D02*
X85084136Y-58432101D01*
X85084136Y-58432101D02*
X85122231Y-58508292D01*
X85122231Y-58508292D02*
X85160326Y-58546387D01*
X85160326Y-58546387D02*
X85236517Y-58584482D01*
X85236517Y-58584482D02*
X85503183Y-58584482D01*
X84550802Y-58203530D02*
X84398421Y-58203530D01*
X84398421Y-58203530D02*
X84322231Y-58241625D01*
X84322231Y-58241625D02*
X84246040Y-58317815D01*
X84246040Y-58317815D02*
X84207945Y-58470196D01*
X84207945Y-58470196D02*
X84207945Y-58736863D01*
X84207945Y-58736863D02*
X84246040Y-58889244D01*
X84246040Y-58889244D02*
X84322231Y-58965435D01*
X84322231Y-58965435D02*
X84398421Y-59003530D01*
X84398421Y-59003530D02*
X84550802Y-59003530D01*
X84550802Y-59003530D02*
X84626993Y-58965435D01*
X84626993Y-58965435D02*
X84703183Y-58889244D01*
X84703183Y-58889244D02*
X84741279Y-58736863D01*
X84741279Y-58736863D02*
X84741279Y-58470196D01*
X84741279Y-58470196D02*
X84703183Y-58317815D01*
X84703183Y-58317815D02*
X84626993Y-58241625D01*
X84626993Y-58241625D02*
X84550802Y-58203530D01*
X83903184Y-58774958D02*
X83522231Y-58774958D01*
X83979374Y-59003530D02*
X83712707Y-58203530D01*
X83712707Y-58203530D02*
X83446041Y-59003530D01*
X82722231Y-59003530D02*
X82988898Y-58622577D01*
X83179374Y-59003530D02*
X83179374Y-58203530D01*
X83179374Y-58203530D02*
X82874612Y-58203530D01*
X82874612Y-58203530D02*
X82798422Y-58241625D01*
X82798422Y-58241625D02*
X82760327Y-58279720D01*
X82760327Y-58279720D02*
X82722231Y-58355911D01*
X82722231Y-58355911D02*
X82722231Y-58470196D01*
X82722231Y-58470196D02*
X82760327Y-58546387D01*
X82760327Y-58546387D02*
X82798422Y-58584482D01*
X82798422Y-58584482D02*
X82874612Y-58622577D01*
X82874612Y-58622577D02*
X83179374Y-58622577D01*
X82379374Y-59003530D02*
X82379374Y-58203530D01*
X82379374Y-58203530D02*
X82188898Y-58203530D01*
X82188898Y-58203530D02*
X82074612Y-58241625D01*
X82074612Y-58241625D02*
X81998422Y-58317815D01*
X81998422Y-58317815D02*
X81960327Y-58394006D01*
X81960327Y-58394006D02*
X81922231Y-58546387D01*
X81922231Y-58546387D02*
X81922231Y-58660673D01*
X81922231Y-58660673D02*
X81960327Y-58813054D01*
X81960327Y-58813054D02*
X81998422Y-58889244D01*
X81998422Y-58889244D02*
X82074612Y-58965435D01*
X82074612Y-58965435D02*
X82188898Y-59003530D01*
X82188898Y-59003530D02*
X82379374Y-59003530D01*
X80969850Y-59003530D02*
X80969850Y-58203530D01*
X80969850Y-58203530D02*
X80779374Y-58203530D01*
X80779374Y-58203530D02*
X80665088Y-58241625D01*
X80665088Y-58241625D02*
X80588898Y-58317815D01*
X80588898Y-58317815D02*
X80550803Y-58394006D01*
X80550803Y-58394006D02*
X80512707Y-58546387D01*
X80512707Y-58546387D02*
X80512707Y-58660673D01*
X80512707Y-58660673D02*
X80550803Y-58813054D01*
X80550803Y-58813054D02*
X80588898Y-58889244D01*
X80588898Y-58889244D02*
X80665088Y-58965435D01*
X80665088Y-58965435D02*
X80779374Y-59003530D01*
X80779374Y-59003530D02*
X80969850Y-59003530D01*
X79712707Y-58927339D02*
X79750803Y-58965435D01*
X79750803Y-58965435D02*
X79865088Y-59003530D01*
X79865088Y-59003530D02*
X79941279Y-59003530D01*
X79941279Y-59003530D02*
X80055565Y-58965435D01*
X80055565Y-58965435D02*
X80131755Y-58889244D01*
X80131755Y-58889244D02*
X80169850Y-58813054D01*
X80169850Y-58813054D02*
X80207946Y-58660673D01*
X80207946Y-58660673D02*
X80207946Y-58546387D01*
X80207946Y-58546387D02*
X80169850Y-58394006D01*
X80169850Y-58394006D02*
X80131755Y-58317815D01*
X80131755Y-58317815D02*
X80055565Y-58241625D01*
X80055565Y-58241625D02*
X79941279Y-58203530D01*
X79941279Y-58203530D02*
X79865088Y-58203530D01*
X79865088Y-58203530D02*
X79750803Y-58241625D01*
X79750803Y-58241625D02*
X79712707Y-58279720D01*
X89160326Y-59872437D02*
X89046040Y-59910532D01*
X89046040Y-59910532D02*
X89007945Y-59948628D01*
X89007945Y-59948628D02*
X88969849Y-60024818D01*
X88969849Y-60024818D02*
X88969849Y-60139104D01*
X88969849Y-60139104D02*
X89007945Y-60215294D01*
X89007945Y-60215294D02*
X89046040Y-60253390D01*
X89046040Y-60253390D02*
X89122230Y-60291485D01*
X89122230Y-60291485D02*
X89426992Y-60291485D01*
X89426992Y-60291485D02*
X89426992Y-59491485D01*
X89426992Y-59491485D02*
X89160326Y-59491485D01*
X89160326Y-59491485D02*
X89084135Y-59529580D01*
X89084135Y-59529580D02*
X89046040Y-59567675D01*
X89046040Y-59567675D02*
X89007945Y-59643866D01*
X89007945Y-59643866D02*
X89007945Y-59720056D01*
X89007945Y-59720056D02*
X89046040Y-59796247D01*
X89046040Y-59796247D02*
X89084135Y-59834342D01*
X89084135Y-59834342D02*
X89160326Y-59872437D01*
X89160326Y-59872437D02*
X89426992Y-59872437D01*
X88703183Y-59758151D02*
X88512707Y-60291485D01*
X88322230Y-59758151D02*
X88512707Y-60291485D01*
X88512707Y-60291485D02*
X88588897Y-60481961D01*
X88588897Y-60481961D02*
X88626992Y-60520056D01*
X88626992Y-60520056D02*
X88703183Y-60558151D01*
X87026992Y-60291485D02*
X87407944Y-60291485D01*
X87407944Y-60291485D02*
X87407944Y-59491485D01*
X86417468Y-59758151D02*
X86417468Y-60291485D01*
X86760325Y-59758151D02*
X86760325Y-60177199D01*
X86760325Y-60177199D02*
X86722230Y-60253390D01*
X86722230Y-60253390D02*
X86646040Y-60291485D01*
X86646040Y-60291485D02*
X86531754Y-60291485D01*
X86531754Y-60291485D02*
X86455563Y-60253390D01*
X86455563Y-60253390D02*
X86417468Y-60215294D01*
X85693658Y-60253390D02*
X85769849Y-60291485D01*
X85769849Y-60291485D02*
X85922230Y-60291485D01*
X85922230Y-60291485D02*
X85998420Y-60253390D01*
X85998420Y-60253390D02*
X86036515Y-60215294D01*
X86036515Y-60215294D02*
X86074611Y-60139104D01*
X86074611Y-60139104D02*
X86074611Y-59910532D01*
X86074611Y-59910532D02*
X86036515Y-59834342D01*
X86036515Y-59834342D02*
X85998420Y-59796247D01*
X85998420Y-59796247D02*
X85922230Y-59758151D01*
X85922230Y-59758151D02*
X85769849Y-59758151D01*
X85769849Y-59758151D02*
X85693658Y-59796247D01*
X85007944Y-60291485D02*
X85007944Y-59872437D01*
X85007944Y-59872437D02*
X85046039Y-59796247D01*
X85046039Y-59796247D02*
X85122230Y-59758151D01*
X85122230Y-59758151D02*
X85274611Y-59758151D01*
X85274611Y-59758151D02*
X85350801Y-59796247D01*
X85007944Y-60253390D02*
X85084135Y-60291485D01*
X85084135Y-60291485D02*
X85274611Y-60291485D01*
X85274611Y-60291485D02*
X85350801Y-60253390D01*
X85350801Y-60253390D02*
X85388897Y-60177199D01*
X85388897Y-60177199D02*
X85388897Y-60101009D01*
X85388897Y-60101009D02*
X85350801Y-60024818D01*
X85350801Y-60024818D02*
X85274611Y-59986723D01*
X85274611Y-59986723D02*
X85084135Y-59986723D01*
X85084135Y-59986723D02*
X85007944Y-59948628D01*
X84665087Y-60253390D02*
X84588896Y-60291485D01*
X84588896Y-60291485D02*
X84436515Y-60291485D01*
X84436515Y-60291485D02*
X84360325Y-60253390D01*
X84360325Y-60253390D02*
X84322229Y-60177199D01*
X84322229Y-60177199D02*
X84322229Y-60139104D01*
X84322229Y-60139104D02*
X84360325Y-60062913D01*
X84360325Y-60062913D02*
X84436515Y-60024818D01*
X84436515Y-60024818D02*
X84550801Y-60024818D01*
X84550801Y-60024818D02*
X84626991Y-59986723D01*
X84626991Y-59986723D02*
X84665087Y-59910532D01*
X84665087Y-59910532D02*
X84665087Y-59872437D01*
X84665087Y-59872437D02*
X84626991Y-59796247D01*
X84626991Y-59796247D02*
X84550801Y-59758151D01*
X84550801Y-59758151D02*
X84436515Y-59758151D01*
X84436515Y-59758151D02*
X84360325Y-59796247D01*
X83446039Y-59491485D02*
X83255563Y-60291485D01*
X83255563Y-60291485D02*
X83103182Y-59720056D01*
X83103182Y-59720056D02*
X82950801Y-60291485D01*
X82950801Y-60291485D02*
X82760325Y-59491485D01*
X82455562Y-60291485D02*
X82455562Y-59758151D01*
X82455562Y-59491485D02*
X82493658Y-59529580D01*
X82493658Y-59529580D02*
X82455562Y-59567675D01*
X82455562Y-59567675D02*
X82417467Y-59529580D01*
X82417467Y-59529580D02*
X82455562Y-59491485D01*
X82455562Y-59491485D02*
X82455562Y-59567675D01*
X81960325Y-60291485D02*
X82036515Y-60253390D01*
X82036515Y-60253390D02*
X82074610Y-60177199D01*
X82074610Y-60177199D02*
X82074610Y-59491485D01*
X81693658Y-60253390D02*
X81617467Y-60291485D01*
X81617467Y-60291485D02*
X81465086Y-60291485D01*
X81465086Y-60291485D02*
X81388896Y-60253390D01*
X81388896Y-60253390D02*
X81350800Y-60177199D01*
X81350800Y-60177199D02*
X81350800Y-60139104D01*
X81350800Y-60139104D02*
X81388896Y-60062913D01*
X81388896Y-60062913D02*
X81465086Y-60024818D01*
X81465086Y-60024818D02*
X81579372Y-60024818D01*
X81579372Y-60024818D02*
X81655562Y-59986723D01*
X81655562Y-59986723D02*
X81693658Y-59910532D01*
X81693658Y-59910532D02*
X81693658Y-59872437D01*
X81693658Y-59872437D02*
X81655562Y-59796247D01*
X81655562Y-59796247D02*
X81579372Y-59758151D01*
X81579372Y-59758151D02*
X81465086Y-59758151D01*
X81465086Y-59758151D02*
X81388896Y-59796247D01*
X80893658Y-60291485D02*
X80969848Y-60253390D01*
X80969848Y-60253390D02*
X81007943Y-60215294D01*
X81007943Y-60215294D02*
X81046039Y-60139104D01*
X81046039Y-60139104D02*
X81046039Y-59910532D01*
X81046039Y-59910532D02*
X81007943Y-59834342D01*
X81007943Y-59834342D02*
X80969848Y-59796247D01*
X80969848Y-59796247D02*
X80893658Y-59758151D01*
X80893658Y-59758151D02*
X80779372Y-59758151D01*
X80779372Y-59758151D02*
X80703181Y-59796247D01*
X80703181Y-59796247D02*
X80665086Y-59834342D01*
X80665086Y-59834342D02*
X80626991Y-59910532D01*
X80626991Y-59910532D02*
X80626991Y-60139104D01*
X80626991Y-60139104D02*
X80665086Y-60215294D01*
X80665086Y-60215294D02*
X80703181Y-60253390D01*
X80703181Y-60253390D02*
X80779372Y-60291485D01*
X80779372Y-60291485D02*
X80893658Y-60291485D01*
X80284133Y-59758151D02*
X80284133Y-60291485D01*
X80284133Y-59834342D02*
X80246038Y-59796247D01*
X80246038Y-59796247D02*
X80169848Y-59758151D01*
X80169848Y-59758151D02*
X80055562Y-59758151D01*
X80055562Y-59758151D02*
X79979371Y-59796247D01*
X79979371Y-59796247D02*
X79941276Y-59872437D01*
X79941276Y-59872437D02*
X79941276Y-60291485D01*
X88779373Y-61579440D02*
X88817469Y-61579440D01*
X88817469Y-61579440D02*
X88893659Y-61541345D01*
X88893659Y-61541345D02*
X89007945Y-61427059D01*
X89007945Y-61427059D02*
X89198421Y-61198487D01*
X89198421Y-61198487D02*
X89274611Y-61084202D01*
X89274611Y-61084202D02*
X89312707Y-60969916D01*
X89312707Y-60969916D02*
X89312707Y-60893725D01*
X89312707Y-60893725D02*
X89274611Y-60817535D01*
X89274611Y-60817535D02*
X89198421Y-60779440D01*
X89198421Y-60779440D02*
X89160326Y-60779440D01*
X89160326Y-60779440D02*
X89084135Y-60817535D01*
X89084135Y-60817535D02*
X89046040Y-60893725D01*
X89046040Y-60893725D02*
X89046040Y-60931821D01*
X89046040Y-60931821D02*
X89084135Y-61008011D01*
X89084135Y-61008011D02*
X89122230Y-61046106D01*
X89122230Y-61046106D02*
X89350802Y-61198487D01*
X89350802Y-61198487D02*
X89388897Y-61236583D01*
X89388897Y-61236583D02*
X89426992Y-61312773D01*
X89426992Y-61312773D02*
X89426992Y-61427059D01*
X89426992Y-61427059D02*
X89388897Y-61503249D01*
X89388897Y-61503249D02*
X89350802Y-61541345D01*
X89350802Y-61541345D02*
X89274611Y-61579440D01*
X89274611Y-61579440D02*
X89160326Y-61579440D01*
X89160326Y-61579440D02*
X89084135Y-61541345D01*
X89084135Y-61541345D02*
X89046040Y-61503249D01*
X89046040Y-61503249D02*
X88931754Y-61350868D01*
X88931754Y-61350868D02*
X88893659Y-61236583D01*
X88893659Y-61236583D02*
X88893659Y-61160392D01*
X87903183Y-60779440D02*
X87712707Y-61579440D01*
X87712707Y-61579440D02*
X87560326Y-61008011D01*
X87560326Y-61008011D02*
X87407945Y-61579440D01*
X87407945Y-61579440D02*
X87217469Y-60779440D01*
X86912706Y-61579440D02*
X86912706Y-61046106D01*
X86912706Y-60779440D02*
X86950802Y-60817535D01*
X86950802Y-60817535D02*
X86912706Y-60855630D01*
X86912706Y-60855630D02*
X86874611Y-60817535D01*
X86874611Y-60817535D02*
X86912706Y-60779440D01*
X86912706Y-60779440D02*
X86912706Y-60855630D01*
X86417469Y-61579440D02*
X86493659Y-61541345D01*
X86493659Y-61541345D02*
X86531754Y-61465154D01*
X86531754Y-61465154D02*
X86531754Y-60779440D01*
X85998421Y-61579440D02*
X86074611Y-61541345D01*
X86074611Y-61541345D02*
X86112706Y-61465154D01*
X86112706Y-61465154D02*
X86112706Y-60779440D01*
X85198420Y-60779440D02*
X84741277Y-60779440D01*
X84969849Y-61579440D02*
X84969849Y-60779440D01*
X84474610Y-61579440D02*
X84474610Y-60779440D01*
X84131753Y-61579440D02*
X84131753Y-61160392D01*
X84131753Y-61160392D02*
X84169848Y-61084202D01*
X84169848Y-61084202D02*
X84246039Y-61046106D01*
X84246039Y-61046106D02*
X84360325Y-61046106D01*
X84360325Y-61046106D02*
X84436515Y-61084202D01*
X84436515Y-61084202D02*
X84474610Y-61122297D01*
X83407943Y-61579440D02*
X83407943Y-61160392D01*
X83407943Y-61160392D02*
X83446038Y-61084202D01*
X83446038Y-61084202D02*
X83522229Y-61046106D01*
X83522229Y-61046106D02*
X83674610Y-61046106D01*
X83674610Y-61046106D02*
X83750800Y-61084202D01*
X83407943Y-61541345D02*
X83484134Y-61579440D01*
X83484134Y-61579440D02*
X83674610Y-61579440D01*
X83674610Y-61579440D02*
X83750800Y-61541345D01*
X83750800Y-61541345D02*
X83788896Y-61465154D01*
X83788896Y-61465154D02*
X83788896Y-61388964D01*
X83788896Y-61388964D02*
X83750800Y-61312773D01*
X83750800Y-61312773D02*
X83674610Y-61274678D01*
X83674610Y-61274678D02*
X83484134Y-61274678D01*
X83484134Y-61274678D02*
X83407943Y-61236583D01*
X83103181Y-61046106D02*
X82912705Y-61579440D01*
X82722228Y-61046106D02*
X82912705Y-61579440D01*
X82912705Y-61579440D02*
X82988895Y-61769916D01*
X82988895Y-61769916D02*
X83026990Y-61808011D01*
X83026990Y-61808011D02*
X83103181Y-61846106D01*
X82112704Y-61541345D02*
X82188895Y-61579440D01*
X82188895Y-61579440D02*
X82341276Y-61579440D01*
X82341276Y-61579440D02*
X82417466Y-61541345D01*
X82417466Y-61541345D02*
X82455562Y-61465154D01*
X82455562Y-61465154D02*
X82455562Y-61160392D01*
X82455562Y-61160392D02*
X82417466Y-61084202D01*
X82417466Y-61084202D02*
X82341276Y-61046106D01*
X82341276Y-61046106D02*
X82188895Y-61046106D01*
X82188895Y-61046106D02*
X82112704Y-61084202D01*
X82112704Y-61084202D02*
X82074609Y-61160392D01*
X82074609Y-61160392D02*
X82074609Y-61236583D01*
X82074609Y-61236583D02*
X82455562Y-61312773D01*
X81731752Y-61579440D02*
X81731752Y-61046106D01*
X81731752Y-61198487D02*
X81693657Y-61122297D01*
X81693657Y-61122297D02*
X81655562Y-61084202D01*
X81655562Y-61084202D02*
X81579371Y-61046106D01*
X81579371Y-61046106D02*
X81503181Y-61046106D01*
D10*
X97143723Y-72846019D02*
X96810390Y-73846019D01*
X96810390Y-73846019D02*
X96477057Y-72846019D01*
X95572295Y-73846019D02*
X95905628Y-73369828D01*
X96143723Y-73846019D02*
X96143723Y-72846019D01*
X96143723Y-72846019D02*
X95762771Y-72846019D01*
X95762771Y-72846019D02*
X95667533Y-72893638D01*
X95667533Y-72893638D02*
X95619914Y-72941257D01*
X95619914Y-72941257D02*
X95572295Y-73036495D01*
X95572295Y-73036495D02*
X95572295Y-73179352D01*
X95572295Y-73179352D02*
X95619914Y-73274590D01*
X95619914Y-73274590D02*
X95667533Y-73322209D01*
X95667533Y-73322209D02*
X95762771Y-73369828D01*
X95762771Y-73369828D02*
X96143723Y-73369828D01*
X94619914Y-73846019D02*
X95191342Y-73846019D01*
X94905628Y-73846019D02*
X94905628Y-72846019D01*
X94905628Y-72846019D02*
X95000866Y-72988876D01*
X95000866Y-72988876D02*
X95096104Y-73084114D01*
X95096104Y-73084114D02*
X95191342Y-73131733D01*
X101880315Y-70713019D02*
X101880315Y-69713019D01*
X101404125Y-70713019D02*
X101404125Y-69713019D01*
X101404125Y-69713019D02*
X100832697Y-70713019D01*
X100832697Y-70713019D02*
X100832697Y-69713019D01*
X100356506Y-70332066D02*
X99594602Y-70332066D01*
X101753315Y-78968019D02*
X101753315Y-77968019D01*
X101277125Y-78968019D02*
X101277125Y-77968019D01*
X101277125Y-77968019D02*
X100705697Y-78968019D01*
X100705697Y-78968019D02*
X100705697Y-77968019D01*
X100229506Y-78587066D02*
X99467602Y-78587066D01*
X99848554Y-78968019D02*
X99848554Y-78206114D01*
X93137322Y-69967019D02*
X92946846Y-69967019D01*
X92946846Y-69967019D02*
X92851608Y-70014638D01*
X92851608Y-70014638D02*
X92756370Y-70109876D01*
X92756370Y-70109876D02*
X92708751Y-70300352D01*
X92708751Y-70300352D02*
X92708751Y-70633685D01*
X92708751Y-70633685D02*
X92756370Y-70824161D01*
X92756370Y-70824161D02*
X92851608Y-70919400D01*
X92851608Y-70919400D02*
X92946846Y-70967019D01*
X92946846Y-70967019D02*
X93137322Y-70967019D01*
X93137322Y-70967019D02*
X93232560Y-70919400D01*
X93232560Y-70919400D02*
X93327798Y-70824161D01*
X93327798Y-70824161D02*
X93375417Y-70633685D01*
X93375417Y-70633685D02*
X93375417Y-70300352D01*
X93375417Y-70300352D02*
X93327798Y-70109876D01*
X93327798Y-70109876D02*
X93232560Y-70014638D01*
X93232560Y-70014638D02*
X93137322Y-69967019D01*
X91851608Y-70300352D02*
X91851608Y-70967019D01*
X92280179Y-70300352D02*
X92280179Y-70824161D01*
X92280179Y-70824161D02*
X92232560Y-70919400D01*
X92232560Y-70919400D02*
X92137322Y-70967019D01*
X92137322Y-70967019D02*
X91994465Y-70967019D01*
X91994465Y-70967019D02*
X91899227Y-70919400D01*
X91899227Y-70919400D02*
X91851608Y-70871780D01*
X91518274Y-70300352D02*
X91137322Y-70300352D01*
X91375417Y-69967019D02*
X91375417Y-70824161D01*
X91375417Y-70824161D02*
X91327798Y-70919400D01*
X91327798Y-70919400D02*
X91232560Y-70967019D01*
X91232560Y-70967019D02*
X91137322Y-70967019D01*
X90803988Y-70586066D02*
X90042084Y-70586066D01*
X93010322Y-77714019D02*
X92819846Y-77714019D01*
X92819846Y-77714019D02*
X92724608Y-77761638D01*
X92724608Y-77761638D02*
X92629370Y-77856876D01*
X92629370Y-77856876D02*
X92581751Y-78047352D01*
X92581751Y-78047352D02*
X92581751Y-78380685D01*
X92581751Y-78380685D02*
X92629370Y-78571161D01*
X92629370Y-78571161D02*
X92724608Y-78666400D01*
X92724608Y-78666400D02*
X92819846Y-78714019D01*
X92819846Y-78714019D02*
X93010322Y-78714019D01*
X93010322Y-78714019D02*
X93105560Y-78666400D01*
X93105560Y-78666400D02*
X93200798Y-78571161D01*
X93200798Y-78571161D02*
X93248417Y-78380685D01*
X93248417Y-78380685D02*
X93248417Y-78047352D01*
X93248417Y-78047352D02*
X93200798Y-77856876D01*
X93200798Y-77856876D02*
X93105560Y-77761638D01*
X93105560Y-77761638D02*
X93010322Y-77714019D01*
X91724608Y-78047352D02*
X91724608Y-78714019D01*
X92153179Y-78047352D02*
X92153179Y-78571161D01*
X92153179Y-78571161D02*
X92105560Y-78666400D01*
X92105560Y-78666400D02*
X92010322Y-78714019D01*
X92010322Y-78714019D02*
X91867465Y-78714019D01*
X91867465Y-78714019D02*
X91772227Y-78666400D01*
X91772227Y-78666400D02*
X91724608Y-78618780D01*
X91391274Y-78047352D02*
X91010322Y-78047352D01*
X91248417Y-77714019D02*
X91248417Y-78571161D01*
X91248417Y-78571161D02*
X91200798Y-78666400D01*
X91200798Y-78666400D02*
X91105560Y-78714019D01*
X91105560Y-78714019D02*
X91010322Y-78714019D01*
X90676988Y-78333066D02*
X89915084Y-78333066D01*
X90296036Y-78714019D02*
X90296036Y-77952114D01*
D12*
X76131931Y-90705065D02*
X76698598Y-90705065D01*
X76698598Y-90705065D02*
X76765264Y-90738399D01*
X76765264Y-90738399D02*
X76798598Y-90771732D01*
X76798598Y-90771732D02*
X76831931Y-90838399D01*
X76831931Y-90838399D02*
X76831931Y-90971732D01*
X76831931Y-90971732D02*
X76798598Y-91038399D01*
X76798598Y-91038399D02*
X76765264Y-91071732D01*
X76765264Y-91071732D02*
X76698598Y-91105065D01*
X76698598Y-91105065D02*
X76131931Y-91105065D01*
X76831931Y-91805065D02*
X76831931Y-91405065D01*
X76831931Y-91605065D02*
X76131931Y-91605065D01*
X76131931Y-91605065D02*
X76231931Y-91538398D01*
X76231931Y-91538398D02*
X76298598Y-91471732D01*
X76298598Y-91471732D02*
X76331931Y-91405065D01*
D13*
%TO.C,U1*%
X75871400Y-86299902D02*
X83224398Y-86299900D01*
X75872400Y-95298899D02*
X75872401Y-86303900D01*
X77296400Y-82575441D02*
X77296401Y-99703899D01*
X77296401Y-99703899D02*
X101471400Y-99693901D01*
X77967901Y-81903901D02*
X77296400Y-82575441D01*
X83224398Y-86299900D02*
X83224399Y-95298900D01*
X83224399Y-95298900D02*
X75872400Y-95298899D01*
X101471400Y-81893900D02*
X77967901Y-81903901D01*
X101471400Y-99693901D02*
X101471400Y-81893900D01*
%TD*%
%LPC*%
D14*
%TO.C,J4*%
X78916000Y-55626000D03*
X89916000Y-55626000D03*
D15*
X86916000Y-65626000D03*
D16*
X81916000Y-65626000D03*
%TD*%
D17*
%TO.C,J8*%
X106045000Y-88773000D03*
D18*
X106045000Y-91313000D03*
X106045000Y-93852999D03*
%TD*%
D19*
%TO.C,J7*%
X92332600Y-65474400D03*
X92332600Y-60474400D03*
%TD*%
D20*
%TO.C,Jr1*%
X100761800Y-57335400D03*
D21*
X100761800Y-59835400D03*
X100761800Y-62335400D03*
X100761800Y-64835400D03*
X100761800Y-67335400D03*
%TD*%
D22*
%TO.C,C11*%
X85761500Y-73874300D03*
D23*
X83286626Y-71399426D03*
%TD*%
D24*
%TO.C,VR1*%
X87579200Y-70332600D03*
X87452200Y-78333600D03*
X104470200Y-78333600D03*
X104343200Y-70332600D03*
%TD*%
D25*
%TO.C,U1*%
X80176401Y-82738900D03*
X82716400Y-82738901D03*
X85256401Y-82738900D03*
X87796401Y-82738899D03*
X90336400Y-82738900D03*
X92876400Y-82738901D03*
X95416399Y-82738899D03*
X97915400Y-82792900D03*
X98042400Y-98921900D03*
X95416401Y-98903901D03*
X92876400Y-98903900D03*
X90336402Y-98903900D03*
X87796398Y-98903900D03*
X85256400Y-98903900D03*
X82716404Y-98903901D03*
X80176400Y-98903902D03*
%TD*%
%LPD*%
M02*
