%TF.GenerationSoftware,KiCad,Pcbnew,8.0.4*%
%TF.CreationDate,2025-04-14T17:42:23-04:00*%
%TF.ProjectId,Daisy_Board_Stepper,44616973-795f-4426-9f61-72645f537465,rev?*%
%TF.SameCoordinates,Original*%
%TF.FileFunction,Soldermask,Top*%
%TF.FilePolarity,Negative*%
%FSLAX46Y46*%
G04 Gerber Fmt 4.6, Leading zero omitted, Abs format (unit mm)*
G04 Created by KiCad (PCBNEW 8.0.4) date 2025-04-14 17:42:23*
%MOMM*%
%LPD*%
G01*
G04 APERTURE LIST*
G04 Aperture macros list*
%AMRoundRect*
0 Rectangle with rounded corners*
0 $1 Rounding radius*
0 $2 $3 $4 $5 $6 $7 $8 $9 X,Y pos of 4 corners*
0 Add a 4 corners polygon primitive as box body*
4,1,4,$2,$3,$4,$5,$6,$7,$8,$9,$2,$3,0*
0 Add four circle primitives for the rounded corners*
1,1,$1+$1,$2,$3*
1,1,$1+$1,$4,$5*
1,1,$1+$1,$6,$7*
1,1,$1+$1,$8,$9*
0 Add four rect primitives between the rounded corners*
20,1,$1+$1,$2,$3,$4,$5,0*
20,1,$1+$1,$4,$5,$6,$7,0*
20,1,$1+$1,$6,$7,$8,$9,0*
20,1,$1+$1,$8,$9,$2,$3,0*%
%AMRotRect*
0 Rectangle, with rotation*
0 The origin of the aperture is its center*
0 $1 length*
0 $2 width*
0 $3 Rotation angle, in degrees counterclockwise*
0 Add horizontal line*
21,1,$1,$2,0,0,$3*%
%AMFreePoly0*
4,1,19,0.500000,-0.750000,0.000000,-0.750000,0.000000,-0.744911,-0.071157,-0.744911,-0.207708,-0.704816,-0.327430,-0.627875,-0.420627,-0.520320,-0.479746,-0.390866,-0.500000,-0.250000,-0.500000,0.250000,-0.479746,0.390866,-0.420627,0.520320,-0.327430,0.627875,-0.207708,0.704816,-0.071157,0.744911,0.000000,0.744911,0.000000,0.750000,0.500000,0.750000,0.500000,-0.750000,0.500000,-0.750000,
$1*%
%AMFreePoly1*
4,1,19,0.000000,0.744911,0.071157,0.744911,0.207708,0.704816,0.327430,0.627875,0.420627,0.520320,0.479746,0.390866,0.500000,0.250000,0.500000,-0.250000,0.479746,-0.390866,0.420627,-0.520320,0.327430,-0.627875,0.207708,-0.704816,0.071157,-0.744911,0.000000,-0.744911,0.000000,-0.750000,-0.500000,-0.750000,-0.500000,0.750000,0.000000,0.750000,0.000000,0.744911,0.000000,0.744911,
$1*%
%AMFreePoly2*
4,1,19,0.550000,-0.750000,0.000000,-0.750000,0.000000,-0.744911,-0.071157,-0.744911,-0.207708,-0.704816,-0.327430,-0.627875,-0.420627,-0.520320,-0.479746,-0.390866,-0.500000,-0.250000,-0.500000,0.250000,-0.479746,0.390866,-0.420627,0.520320,-0.327430,0.627875,-0.207708,0.704816,-0.071157,0.744911,0.000000,0.744911,0.000000,0.750000,0.550000,0.750000,0.550000,-0.750000,0.550000,-0.750000,
$1*%
%AMFreePoly3*
4,1,19,0.000000,0.744911,0.071157,0.744911,0.207708,0.704816,0.327430,0.627875,0.420627,0.520320,0.479746,0.390866,0.500000,0.250000,0.500000,-0.250000,0.479746,-0.390866,0.420627,-0.520320,0.327430,-0.627875,0.207708,-0.704816,0.071157,-0.744911,0.000000,-0.744911,0.000000,-0.750000,-0.550000,-0.750000,-0.550000,0.750000,0.000000,0.750000,0.000000,0.744911,0.000000,0.744911,
$1*%
G04 Aperture macros list end*
%ADD10C,1.400000*%
%ADD11R,3.500000X3.500000*%
%ADD12C,3.500000*%
%ADD13RoundRect,0.135000X-0.185000X0.135000X-0.185000X-0.135000X0.185000X-0.135000X0.185000X0.135000X0*%
%ADD14RoundRect,0.150000X-0.150000X-0.625000X0.150000X-0.625000X0.150000X0.625000X-0.150000X0.625000X0*%
%ADD15RoundRect,0.250000X-0.350000X-0.650000X0.350000X-0.650000X0.350000X0.650000X-0.350000X0.650000X0*%
%ADD16RoundRect,0.135000X0.135000X0.185000X-0.135000X0.185000X-0.135000X-0.185000X0.135000X-0.185000X0*%
%ADD17RoundRect,0.135000X0.185000X-0.135000X0.185000X0.135000X-0.185000X0.135000X-0.185000X-0.135000X0*%
%ADD18R,1.700000X1.700000*%
%ADD19O,1.700000X1.700000*%
%ADD20RoundRect,0.200000X-0.250000X-0.200000X0.250000X-0.200000X0.250000X0.200000X-0.250000X0.200000X0*%
%ADD21R,1.016000X0.758000*%
%ADD22R,0.475000X0.250000*%
%ADD23R,0.250000X0.475000*%
%ADD24RoundRect,0.135000X-0.135000X-0.185000X0.135000X-0.185000X0.135000X0.185000X-0.135000X0.185000X0*%
%ADD25RoundRect,0.150000X-0.625000X0.150000X-0.625000X-0.150000X0.625000X-0.150000X0.625000X0.150000X0*%
%ADD26RoundRect,0.250000X-0.650000X0.350000X-0.650000X-0.350000X0.650000X-0.350000X0.650000X0.350000X0*%
%ADD27RoundRect,0.140000X-0.170000X0.140000X-0.170000X-0.140000X0.170000X-0.140000X0.170000X0.140000X0*%
%ADD28RoundRect,0.218750X-0.218750X-0.256250X0.218750X-0.256250X0.218750X0.256250X-0.218750X0.256250X0*%
%ADD29C,3.600000*%
%ADD30RoundRect,0.200000X0.250000X0.200000X-0.250000X0.200000X-0.250000X-0.200000X0.250000X-0.200000X0*%
%ADD31R,1.500000X0.650000*%
%ADD32RoundRect,0.140000X0.170000X-0.140000X0.170000X0.140000X-0.170000X0.140000X-0.170000X-0.140000X0*%
%ADD33RoundRect,0.140000X-0.140000X-0.170000X0.140000X-0.170000X0.140000X0.170000X-0.140000X0.170000X0*%
%ADD34R,1.750000X1.750000*%
%ADD35C,1.750000*%
%ADD36FreePoly0,90.000000*%
%ADD37FreePoly1,90.000000*%
%ADD38RoundRect,0.140000X0.140000X0.170000X-0.140000X0.170000X-0.140000X-0.170000X0.140000X-0.170000X0*%
%ADD39FreePoly2,270.000000*%
%ADD40R,1.500000X1.000000*%
%ADD41FreePoly3,270.000000*%
%ADD42R,0.800000X0.300000*%
%ADD43R,0.300000X0.800000*%
%ADD44R,3.800000X3.800000*%
%ADD45FreePoly0,180.000000*%
%ADD46FreePoly1,180.000000*%
%ADD47R,1.600000X0.760000*%
%ADD48R,0.700000X0.700000*%
%ADD49RoundRect,0.225000X0.225000X0.375000X-0.225000X0.375000X-0.225000X-0.375000X0.225000X-0.375000X0*%
%ADD50RotRect,1.600000X1.600000X135.000000*%
%ADD51C,1.600000*%
G04 APERTURE END LIST*
D10*
%TO.C,J4*%
X78916000Y-55626000D03*
X89916000Y-55626000D03*
D11*
X86916000Y-65626000D03*
D12*
X81916000Y-65626000D03*
%TD*%
D13*
%TO.C,R13*%
X103759000Y-88261000D03*
X103759000Y-89281000D03*
%TD*%
D14*
%TO.C,J5*%
X79850200Y-95388200D03*
X80850200Y-95388200D03*
X81850200Y-95388200D03*
X82850200Y-95388200D03*
D15*
X78550200Y-99263200D03*
X84150200Y-99263200D03*
%TD*%
D16*
%TO.C,R9*%
X85602000Y-93243400D03*
X84582000Y-93243400D03*
%TD*%
D17*
%TO.C,R11*%
X103759000Y-94161800D03*
X103759000Y-93141800D03*
%TD*%
D18*
%TO.C,J8*%
X106045000Y-88773000D03*
D19*
X106045000Y-91313000D03*
X106045000Y-93852999D03*
%TD*%
D20*
%TO.C,Q2*%
X85630000Y-89682200D03*
X85630000Y-91582200D03*
X87630000Y-90632200D03*
%TD*%
D21*
%TO.C,JP2*%
X78105556Y-59499980D03*
X78105556Y-60769980D03*
%TD*%
D17*
%TO.C,R17*%
X78105000Y-73255600D03*
X78105000Y-72235600D03*
%TD*%
D22*
%TO.C,IC3*%
X97863600Y-96707400D03*
X97863600Y-97207400D03*
X97863600Y-97707400D03*
X97863600Y-98207400D03*
D23*
X98526600Y-98369400D03*
X99026600Y-98369400D03*
X99526600Y-98369400D03*
D22*
X100189600Y-98207400D03*
X100189600Y-97707400D03*
X100189600Y-97207400D03*
X100189600Y-96707400D03*
D23*
X99526600Y-96545400D03*
X99026600Y-96545400D03*
X98526600Y-96545400D03*
%TD*%
D24*
%TO.C,R14*%
X88569800Y-93319600D03*
X89589800Y-93319600D03*
%TD*%
D25*
%TO.C,J2*%
X82473800Y-79750000D03*
X82473800Y-80750000D03*
X82473800Y-81750000D03*
X82473800Y-82750000D03*
D26*
X78598800Y-78450000D03*
X78598800Y-84050000D03*
%TD*%
D16*
%TO.C,R16*%
X78867000Y-64135000D03*
X77847000Y-64135000D03*
%TD*%
D24*
%TO.C,R2*%
X90089801Y-81356200D03*
X91109799Y-81356200D03*
%TD*%
D27*
%TO.C,C3*%
X89585800Y-75412600D03*
X89585800Y-76372600D03*
%TD*%
D28*
%TO.C,D1*%
X78079600Y-62611000D03*
X79654600Y-62611000D03*
%TD*%
D29*
%TO.C,J7*%
X92332600Y-65474400D03*
X92332600Y-60474400D03*
%TD*%
D17*
%TO.C,R1*%
X103759000Y-91696000D03*
X103759000Y-90676000D03*
%TD*%
D16*
%TO.C,R8*%
X87096600Y-88163400D03*
X86076600Y-88163400D03*
%TD*%
D30*
%TO.C,Q1*%
X91516200Y-91567000D03*
X91516200Y-89667000D03*
X89516200Y-90617000D03*
%TD*%
D31*
%TO.C,IC2*%
X93479600Y-86349800D03*
X93479600Y-85079800D03*
X93479600Y-83809800D03*
X93479600Y-82539800D03*
X88079600Y-82539800D03*
X88079600Y-83809800D03*
X88079600Y-85079800D03*
X88079600Y-86349800D03*
%TD*%
D32*
%TO.C,C7*%
X94843600Y-96644400D03*
X94843600Y-95684400D03*
%TD*%
D33*
%TO.C,C8*%
X102136000Y-96723200D03*
X103096000Y-96723200D03*
%TD*%
D17*
%TO.C,R3*%
X94259400Y-99671599D03*
X94259400Y-98651601D03*
%TD*%
%TO.C,R12*%
X94970600Y-93116400D03*
X94970600Y-92096400D03*
%TD*%
D34*
%TO.C,Jr1*%
X100761800Y-57335400D03*
D35*
X100761800Y-59835400D03*
X100761800Y-62335400D03*
X100761800Y-64835400D03*
X100761800Y-67335400D03*
%TD*%
D33*
%TO.C,C2*%
X97160200Y-76225400D03*
X98120200Y-76225400D03*
%TD*%
D36*
%TO.C,JP1*%
X78486000Y-70804800D03*
D37*
X78486000Y-69504800D03*
%TD*%
D16*
%TO.C,R7*%
X90324400Y-88138000D03*
X89304400Y-88138000D03*
%TD*%
D27*
%TO.C,C4*%
X84607400Y-80419000D03*
X84607400Y-81379000D03*
%TD*%
D38*
%TO.C,C10*%
X98143000Y-71094600D03*
X97183000Y-71094600D03*
%TD*%
D27*
%TO.C,C6*%
X95605600Y-83583800D03*
X95605600Y-84543800D03*
%TD*%
D25*
%TO.C,J1*%
X82473800Y-87878000D03*
X82473800Y-88878000D03*
X82473800Y-89878000D03*
X82473800Y-90878000D03*
D26*
X78598800Y-86578000D03*
X78598800Y-92178000D03*
%TD*%
D39*
%TO.C,JP3*%
X96789500Y-77871800D03*
D40*
X96789500Y-79171800D03*
D41*
X96789500Y-80471800D03*
%TD*%
D16*
%TO.C,R15*%
X103100599Y-95529400D03*
X102080601Y-95529400D03*
%TD*%
D42*
%TO.C,IC4*%
X90970600Y-72348600D03*
X90970600Y-72848600D03*
X90970600Y-73348600D03*
X90970600Y-73848600D03*
X90970600Y-74348600D03*
X90970600Y-74848600D03*
X90970600Y-75348600D03*
D43*
X91970600Y-76348600D03*
X92470600Y-76348600D03*
X92970600Y-76348600D03*
X93470600Y-76348600D03*
X93970600Y-76348600D03*
X94470600Y-76348600D03*
X94970600Y-76348600D03*
D42*
X95970600Y-75348600D03*
X95970600Y-74848600D03*
X95970600Y-74348600D03*
X95970600Y-73848600D03*
X95970600Y-73348600D03*
X95970600Y-72848600D03*
X95970600Y-72348600D03*
D43*
X94970600Y-71348600D03*
X94470600Y-71348600D03*
X93970600Y-71348600D03*
X93470600Y-71348600D03*
X92970600Y-71348600D03*
X92470600Y-71348600D03*
X91970600Y-71348600D03*
D44*
X93470600Y-73848600D03*
%TD*%
D27*
%TO.C,C5*%
X85039200Y-84671000D03*
X85039200Y-85631000D03*
%TD*%
D14*
%TO.C,J6*%
X88269600Y-95388200D03*
X89269600Y-95388200D03*
X90269600Y-95388200D03*
X91269600Y-95388200D03*
D15*
X86969600Y-99263200D03*
X92569600Y-99263200D03*
%TD*%
D17*
%TO.C,R10*%
X94970600Y-90574400D03*
X94970600Y-89554400D03*
%TD*%
D45*
%TO.C,JP4*%
X102463600Y-99288600D03*
D46*
X101163602Y-99288600D03*
%TD*%
D47*
%TO.C,SW1*%
X97002600Y-89535000D03*
X97002600Y-90805000D03*
X97002600Y-92075000D03*
X97002600Y-93345000D03*
X102082600Y-93345000D03*
X102082600Y-92075000D03*
X102082600Y-90805000D03*
X102082600Y-89535000D03*
%TD*%
D48*
%TO.C,LED1*%
X97992000Y-86276000D03*
X97992000Y-87376000D03*
X99822000Y-87376000D03*
X99822000Y-86276000D03*
%TD*%
D33*
%TO.C,C9*%
X87609800Y-69469000D03*
X88569800Y-69469000D03*
%TD*%
D27*
%TO.C,C1*%
X89585800Y-73538200D03*
X89585800Y-74498200D03*
%TD*%
D49*
%TO.C,D2*%
X91794600Y-79629000D03*
X88494600Y-79629000D03*
%TD*%
D50*
%TO.C,C11*%
X85761500Y-73874300D03*
D51*
X83286626Y-71399426D03*
%TD*%
M02*
