%TF.GenerationSoftware,KiCad,Pcbnew,8.0.4*%
%TF.CreationDate,2025-04-14T17:42:23-04:00*%
%TF.ProjectId,Daisy_Board_Stepper,44616973-795f-4426-9f61-72645f537465,rev?*%
%TF.SameCoordinates,Original*%
%TF.FileFunction,Copper,L2,Bot*%
%TF.FilePolarity,Positive*%
%FSLAX46Y46*%
G04 Gerber Fmt 4.6, Leading zero omitted, Abs format (unit mm)*
G04 Created by KiCad (PCBNEW 8.0.4) date 2025-04-14 17:42:23*
%MOMM*%
%LPD*%
G01*
G04 APERTURE LIST*
G04 Aperture macros list*
%AMRoundRect*
0 Rectangle with rounded corners*
0 $1 Rounding radius*
0 $2 $3 $4 $5 $6 $7 $8 $9 X,Y pos of 4 corners*
0 Add a 4 corners polygon primitive as box body*
4,1,4,$2,$3,$4,$5,$6,$7,$8,$9,$2,$3,0*
0 Add four circle primitives for the rounded corners*
1,1,$1+$1,$2,$3*
1,1,$1+$1,$4,$5*
1,1,$1+$1,$6,$7*
1,1,$1+$1,$8,$9*
0 Add four rect primitives between the rounded corners*
20,1,$1+$1,$2,$3,$4,$5,0*
20,1,$1+$1,$4,$5,$6,$7,0*
20,1,$1+$1,$6,$7,$8,$9,0*
20,1,$1+$1,$8,$9,$2,$3,0*%
%AMRotRect*
0 Rectangle, with rotation*
0 The origin of the aperture is its center*
0 $1 length*
0 $2 width*
0 $3 Rotation angle, in degrees counterclockwise*
0 Add horizontal line*
21,1,$1,$2,0,0,$3*%
G04 Aperture macros list end*
%TA.AperFunction,ComponentPad*%
%ADD10C,1.400000*%
%TD*%
%TA.AperFunction,ComponentPad*%
%ADD11R,3.500000X3.500000*%
%TD*%
%TA.AperFunction,ComponentPad*%
%ADD12C,3.500000*%
%TD*%
%TA.AperFunction,ComponentPad*%
%ADD13R,1.700000X1.700000*%
%TD*%
%TA.AperFunction,ComponentPad*%
%ADD14O,1.700000X1.700000*%
%TD*%
%TA.AperFunction,ComponentPad*%
%ADD15C,3.600000*%
%TD*%
%TA.AperFunction,ComponentPad*%
%ADD16R,1.750000X1.750000*%
%TD*%
%TA.AperFunction,ComponentPad*%
%ADD17C,1.750000*%
%TD*%
%TA.AperFunction,ComponentPad*%
%ADD18RotRect,1.600000X1.600000X135.000000*%
%TD*%
%TA.AperFunction,ComponentPad*%
%ADD19C,1.600000*%
%TD*%
%TA.AperFunction,SMDPad,CuDef*%
%ADD20RoundRect,1.000000X1.000000X1.000000X-1.000000X1.000000X-1.000000X-1.000000X1.000000X-1.000000X0*%
%TD*%
%TA.AperFunction,SMDPad,CuDef*%
%ADD21RoundRect,1.000000X-0.000010X0.375000X-0.000010X-0.375000X0.000010X-0.375000X0.000010X0.375000X0*%
%TD*%
%TA.AperFunction,ViaPad*%
%ADD22C,0.500000*%
%TD*%
%TA.AperFunction,ViaPad*%
%ADD23C,0.800000*%
%TD*%
%TA.AperFunction,Conductor*%
%ADD24C,0.300000*%
%TD*%
%TA.AperFunction,Conductor*%
%ADD25C,0.150000*%
%TD*%
G04 APERTURE END LIST*
D10*
%TO.P,J4,*%
%TO.N,*%
X78916000Y-55626000D03*
X89916000Y-55626000D03*
D11*
%TO.P,J4,1,1*%
%TO.N,GND*%
X86916000Y-65626000D03*
D12*
%TO.P,J4,2,2*%
%TO.N,+24V*%
X81916000Y-65626000D03*
%TD*%
D13*
%TO.P,J8,1,Pin_1*%
%TO.N,GND*%
X106045000Y-88773000D03*
D14*
%TO.P,J8,2,Pin_2*%
%TO.N,+5V*%
X106045000Y-91313000D03*
%TO.P,J8,3,Pin_3*%
%TO.N,GPIO_2*%
X106045000Y-93852999D03*
%TD*%
D15*
%TO.P,J7,1,1*%
%TO.N,GND*%
X92332600Y-65474400D03*
%TO.P,J7,2,2*%
%TO.N,+24V*%
X92332600Y-60474400D03*
%TD*%
D16*
%TO.P,Jr1,1,Pin_1*%
%TO.N,OA1*%
X100761800Y-57335400D03*
D17*
%TO.P,Jr1,2,Pin_2*%
%TO.N,OB1*%
X100761800Y-59835400D03*
%TO.P,Jr1,3,Pin_3*%
%TO.N,OA2*%
X100761800Y-62335400D03*
%TO.P,Jr1,4,Pin_4*%
%TO.N,OB2*%
X100761800Y-64835400D03*
%TO.P,Jr1,5,Pin_5*%
%TO.N,unconnected-(Jr1-Pin_5-Pad5)*%
X100761800Y-67335400D03*
%TD*%
D18*
%TO.P,C11,1*%
%TO.N,+24V*%
X85761500Y-73874300D03*
D19*
%TO.P,C11,2*%
%TO.N,GND*%
X83286626Y-71399426D03*
%TD*%
D20*
%TO.P,VR1,1,Out-*%
%TO.N,GND*%
X87579200Y-70332600D03*
%TO.P,VR1,2,Out+*%
%TO.N,+5V*%
X87452200Y-78333600D03*
%TO.P,VR1,3,In+*%
%TO.N,Net-(D2-K)*%
X104470200Y-78333600D03*
%TO.P,VR1,4,In-*%
%TO.N,GND*%
X104343200Y-70332600D03*
%TD*%
D21*
%TO.P,U1,1,A5_GPIO5_MISO*%
%TO.N,STEP*%
X80176401Y-82738900D03*
%TO.P,U1,2,GPIO6_MOSI*%
%TO.N,DIR*%
X82716400Y-82738901D03*
%TO.P,U1,3,GPIO7_SS*%
%TO.N,Net-(U1-GPIO7_SS)*%
X85256401Y-82738900D03*
%TO.P,U1,4,GPIO8_SDA*%
%TO.N,SDA*%
X87796401Y-82738899D03*
%TO.P,U1,5,GPIO9_SCL*%
%TO.N,SCL*%
X90336400Y-82738900D03*
%TO.P,U1,6,GPIO10*%
%TO.N,PDN_UART*%
X92876400Y-82738901D03*
%TO.P,U1,7,GPIO20_RX*%
%TO.N,GPIO_1*%
X95416399Y-82738899D03*
%TO.P,U1,8,GPIO21_TX*%
%TO.N,GPIO_2*%
X97915400Y-82792900D03*
%TO.P,U1,9,A0_GPIO0*%
%TO.N,ENN*%
X98042400Y-98921900D03*
%TO.P,U1,10,A1_GPIO1*%
%TO.N,CANTX*%
X95416401Y-98903901D03*
%TO.P,U1,11,A2_GPIO2*%
%TO.N,CANRX*%
X92876400Y-98903900D03*
%TO.P,U1,12,A3_GPIO3*%
%TO.N,GPIO_A*%
X90336402Y-98903900D03*
%TO.P,U1,13,A4_GPIO4*%
%TO.N,DipV*%
X87796398Y-98903900D03*
%TO.P,U1,14,3.3V*%
%TO.N,+3.3V*%
X85256400Y-98903900D03*
%TO.P,U1,15,GND*%
%TO.N,GND*%
X82716404Y-98903901D03*
%TO.P,U1,16,5V*%
%TO.N,+5V*%
X80176400Y-98903902D03*
%TD*%
D22*
%TO.N,GND*%
X95935800Y-95986600D03*
X98831400Y-75361800D03*
X94056200Y-77393800D03*
X78460600Y-65201800D03*
X100660200Y-93141800D03*
X100711000Y-79476600D03*
X87452200Y-73228200D03*
X98933000Y-97459800D03*
X98171000Y-77343000D03*
X80543400Y-96799400D03*
X88112600Y-73482200D03*
X101676200Y-79476600D03*
X94056200Y-79019400D03*
X100965000Y-75463400D03*
X101066600Y-76835000D03*
X106045000Y-74345800D03*
X94310200Y-69392800D03*
X94767400Y-70027800D03*
X92329000Y-69773800D03*
X88315800Y-72669400D03*
X95529400Y-67487800D03*
X87299800Y-95326200D03*
X96697800Y-85115400D03*
X82677000Y-77698600D03*
X92989400Y-93091000D03*
X102539800Y-97739200D03*
X84404200Y-86690200D03*
X98526600Y-84861400D03*
X94603698Y-94321500D03*
X92017184Y-69079600D03*
X83642200Y-97307400D03*
X93345000Y-79019400D03*
D23*
%TO.N,+24V*%
X91677354Y-70278301D03*
X97365500Y-69829500D03*
X90201800Y-70095500D03*
X95834200Y-70255835D03*
%TO.N,+5V*%
X80315200Y-79826100D03*
X87127500Y-94018000D03*
X78383700Y-97012500D03*
D22*
%TO.N,Net-(IC4-SPREAD)*%
X95529400Y-79883000D03*
X91375700Y-78284900D03*
%TO.N,PDN_UART*%
X91192900Y-80632800D03*
%TO.N,CANH*%
X84799800Y-78561300D03*
X83496900Y-80250000D03*
%TO.N,CANL*%
X86581300Y-84058500D03*
X79907700Y-84978700D03*
X81566600Y-84927500D03*
%TO.N,CANTX*%
X93911700Y-96485100D03*
%TO.N,+3.3V*%
X87215700Y-96184100D03*
%TO.N,CANRX*%
X94366900Y-97214200D03*
%TO.N,DipV*%
X98477700Y-89390800D03*
%TO.N,ENN*%
X103759000Y-100025200D03*
X100626000Y-85802200D03*
X90196200Y-72519800D03*
X104810000Y-92268400D03*
X99469600Y-77049400D03*
%TO.N,STEP*%
X83591400Y-76073000D03*
X82898900Y-75270800D03*
X96895500Y-75555100D03*
D23*
%TO.N,OB1*%
X92684600Y-67808075D03*
%TO.N,OB2*%
X90652600Y-67640200D03*
D22*
%TO.N,GPIO_1*%
X92369000Y-88007300D03*
%TO.N,GPIO_A*%
X91635650Y-97604650D03*
X92278200Y-96647000D03*
%TO.N,SDA*%
X99172800Y-94574600D03*
X89955600Y-86889700D03*
%TO.N,SCL*%
X83700300Y-87809400D03*
X91768900Y-84853100D03*
X95587205Y-94321500D03*
X91350800Y-88794100D03*
%TO.N,GPIO_2*%
X98907000Y-87514500D03*
D23*
%TO.N,Net-(D2-K)*%
X91897200Y-77641400D03*
D22*
%TO.N,DIR*%
X97036300Y-72130800D03*
%TO.N,Net-(U1-GPIO7_SS)*%
X89103400Y-81754600D03*
%TD*%
D24*
%TO.N,GND*%
X97950100Y-96006600D02*
X98933000Y-96989500D01*
X101625000Y-76952300D02*
X100975000Y-77602500D01*
X95963900Y-96006600D02*
X97950100Y-96006600D01*
X100975000Y-77602500D02*
X98452400Y-77602500D01*
X103600000Y-74977500D02*
X101692000Y-76885800D01*
X85384200Y-66876900D02*
X87579200Y-69071900D01*
X98526600Y-84834700D02*
X98526600Y-84861400D01*
X87299800Y-95326200D02*
X87307000Y-95319000D01*
X99403300Y-97459800D02*
X99351200Y-97407700D01*
X82716400Y-98903900D02*
X86301300Y-95319000D01*
X101168200Y-99339400D02*
X101114000Y-99393600D01*
X98933000Y-96989500D02*
X98933000Y-97459800D01*
X99351200Y-97407700D02*
X101114000Y-99170900D01*
X101114000Y-99170900D02*
X101114000Y-99285200D01*
X98526900Y-84834400D02*
X98526600Y-84834700D01*
X88317200Y-94321500D02*
X87319700Y-95319000D01*
X98499900Y-84861400D02*
X98219300Y-85142000D01*
X92689400Y-76047200D02*
X94052400Y-77410200D01*
X98933000Y-97459800D02*
X99403300Y-97459800D01*
X84516500Y-76047200D02*
X92689400Y-76047200D01*
X86301300Y-95319000D02*
X87292600Y-95319000D01*
X82716400Y-98903900D02*
X80658500Y-96846000D01*
X101625000Y-76885800D02*
X101625000Y-76952300D01*
X96697800Y-85115400D02*
X96676900Y-85142000D01*
X98219300Y-85142000D02*
X96697800Y-85115400D01*
X98159100Y-77410200D02*
X94052400Y-77410200D01*
X82901400Y-77662300D02*
X84516500Y-76047200D01*
X101114000Y-99285200D02*
X101168200Y-99339400D01*
X87307000Y-95319000D02*
X87319700Y-95319000D01*
X106052000Y-74977500D02*
X103600000Y-74977500D01*
X94575300Y-94321500D02*
X88317200Y-94321500D01*
X82696100Y-77662300D02*
X82901400Y-77662300D01*
X80658500Y-96846000D02*
X80539200Y-96846000D01*
X101114000Y-99393600D02*
X101114000Y-99413600D01*
X98526600Y-84861400D02*
X98499900Y-84861400D01*
X98209600Y-77359700D02*
X98159100Y-77410200D01*
X87579200Y-69071900D02*
X87579200Y-70332600D01*
X101692000Y-76885800D02*
X101625000Y-76885800D01*
X87292600Y-95319000D02*
X87299800Y-95326200D01*
X98452400Y-77602500D02*
X98209600Y-77359700D01*
%TO.N,+24V*%
X95049885Y-71040150D02*
X95834200Y-70255835D01*
X92439203Y-71040150D02*
X95049885Y-71040150D01*
X91677354Y-70278301D02*
X92439203Y-71040150D01*
X91677354Y-70278301D02*
X91216655Y-70739000D01*
X91216655Y-70739000D02*
X90845300Y-70739000D01*
X90845300Y-70739000D02*
X90201800Y-70095500D01*
X96939165Y-70255835D02*
X95834200Y-70255835D01*
X97365500Y-69829500D02*
X96939165Y-70255835D01*
%TO.N,+5V*%
X80176400Y-98903900D02*
X78383700Y-97111200D01*
X84512400Y-96326500D02*
X86820900Y-94018000D01*
X92852900Y-80533800D02*
X90652700Y-78333600D01*
X97895200Y-80533800D02*
X92852900Y-80533800D01*
X78383700Y-97012500D02*
X79313300Y-97012500D01*
X106045000Y-91313000D02*
X101153000Y-86420900D01*
X101153000Y-83791500D02*
X97895200Y-80533800D01*
X83280800Y-78034600D02*
X87153200Y-78034600D01*
X81095600Y-96326500D02*
X84512400Y-96326500D01*
X78383700Y-97111200D02*
X78383700Y-97012500D01*
X81489300Y-79826100D02*
X83280800Y-78034600D01*
X79313300Y-97012500D02*
X80156600Y-96169200D01*
X101153000Y-86420900D02*
X101153000Y-83791500D01*
X80156600Y-96169200D02*
X80938300Y-96169200D01*
X87153200Y-78034600D02*
X87452200Y-78333600D01*
X80315200Y-79826100D02*
X81489300Y-79826100D01*
X80938300Y-96169200D02*
X81095600Y-96326500D01*
X90652700Y-78333600D02*
X87452200Y-78333600D01*
X86820900Y-94018000D02*
X87127500Y-94018000D01*
D25*
%TO.N,Net-(IC4-SPREAD)*%
X92973800Y-79883000D02*
X95529400Y-79883000D01*
X91375700Y-78284900D02*
X92973800Y-79883000D01*
%TO.N,PDN_UART*%
X92876400Y-82738900D02*
X91192900Y-81055400D01*
X91192900Y-81055400D02*
X91192900Y-80632800D01*
%TO.N,CANH*%
X84799800Y-78561300D02*
X84799800Y-78947100D01*
X84799800Y-78947100D02*
X83496900Y-80250000D01*
%TO.N,CANL*%
X79958900Y-84927500D02*
X81566600Y-84927500D01*
X79907700Y-84978700D02*
X79958900Y-84927500D01*
X81566600Y-84927500D02*
X82124200Y-84369900D01*
X86269900Y-84369900D02*
X86581300Y-84058500D01*
X82124200Y-84369900D02*
X86269900Y-84369900D01*
%TO.N,CANTX*%
X94380263Y-96485100D02*
X93911700Y-96485100D01*
X95416400Y-98903900D02*
X95416400Y-97521237D01*
X95416400Y-97521237D02*
X94380263Y-96485100D01*
%TO.N,+3.3V*%
X85256400Y-98903900D02*
X87215700Y-96944600D01*
X87215700Y-96944600D02*
X87215700Y-96184100D01*
%TO.N,CANRX*%
X92876400Y-98903900D02*
X94366900Y-97413400D01*
X94366900Y-97413400D02*
X94366900Y-97214200D01*
%TO.N,DipV*%
X99056600Y-95331100D02*
X91369200Y-95331100D01*
X91369200Y-95331100D02*
X87796400Y-98903900D01*
X99635500Y-94752200D02*
X99056600Y-95331100D01*
X99635500Y-90548600D02*
X99635500Y-94752200D01*
X98477700Y-89390800D02*
X99635500Y-90548600D01*
%TO.N,ENN*%
X100626000Y-88084200D02*
X104810000Y-92268400D01*
X97253700Y-72655800D02*
X97727200Y-72182400D01*
X97727200Y-72182400D02*
X99919200Y-72182400D01*
X100152000Y-76366800D02*
X99469600Y-77049400D01*
X90332200Y-72655800D02*
X97253700Y-72655800D01*
X100152000Y-72415400D02*
X100152000Y-76366800D01*
X100626000Y-85802200D02*
X100626000Y-88084200D01*
X99919200Y-72182400D02*
X100152000Y-72415400D01*
X99145700Y-100025200D02*
X103759000Y-100025200D01*
X90196200Y-72519800D02*
X90332200Y-72655800D01*
X98042400Y-98921900D02*
X99145700Y-100025200D01*
%TO.N,STEP*%
X79331700Y-81894200D02*
X79331700Y-78837900D01*
X80176400Y-82738900D02*
X79331700Y-81894200D01*
X96895500Y-75555100D02*
X96875200Y-75534900D01*
X96875200Y-75534900D02*
X84129500Y-75534900D01*
X79331700Y-78837900D02*
X82898900Y-75270800D01*
X84129500Y-75534900D02*
X83591400Y-76073000D01*
D24*
%TO.N,OB1*%
X93380325Y-67808075D02*
X92684600Y-67808075D01*
X100761800Y-59835400D02*
X100761800Y-60426600D01*
X100761800Y-60426600D02*
X93380325Y-67808075D01*
%TO.N,OB2*%
X91567000Y-68554600D02*
X90652600Y-67640200D01*
X100761800Y-64835400D02*
X97042600Y-68554600D01*
X97042600Y-68554600D02*
X91567000Y-68554600D01*
D25*
%TO.N,GPIO_1*%
X95416400Y-82738900D02*
X92369000Y-85786300D01*
X92369000Y-85786300D02*
X92369000Y-88007300D01*
%TO.N,GPIO_A*%
X92278200Y-96962100D02*
X92278200Y-96647000D01*
X91635650Y-97604650D02*
X92278200Y-96962100D01*
X90336400Y-98903900D02*
X91635650Y-97604650D01*
%TO.N,SDA*%
X87796400Y-82738900D02*
X89955600Y-84898100D01*
X89955600Y-84898100D02*
X89955600Y-86889700D01*
X99172800Y-94574600D02*
X97770200Y-94574600D01*
X97770200Y-94574600D02*
X90085300Y-86889700D01*
X90085300Y-86889700D02*
X89955600Y-86889700D01*
%TO.N,SCL*%
X90460900Y-88031600D02*
X83922500Y-88031600D01*
X90336400Y-82738900D02*
X91768900Y-84171400D01*
X91350800Y-88794100D02*
X91287100Y-88857800D01*
X95587205Y-93157905D02*
X95587205Y-94321500D01*
X91768900Y-84171400D02*
X91768900Y-84853100D01*
X91287100Y-88857800D02*
X90460900Y-88031600D01*
X83922500Y-88031600D02*
X83700300Y-87809400D01*
X91287100Y-88857800D02*
X95587205Y-93157905D01*
%TO.N,GPIO_2*%
X99128600Y-87292900D02*
X99128600Y-84006100D01*
X104993000Y-93600800D02*
X98907000Y-87514500D01*
X106045000Y-93853000D02*
X104993000Y-93853000D01*
X98907000Y-87514500D02*
X99128600Y-87292900D01*
X99128600Y-84006100D02*
X97915400Y-82792900D01*
X104993000Y-93853000D02*
X104993000Y-93600800D01*
D24*
%TO.N,Net-(D2-K)*%
X95044100Y-78054000D02*
X104191000Y-78054000D01*
X94974600Y-78123500D02*
X95044100Y-78054000D01*
X104470100Y-78333500D02*
X104470200Y-78333600D01*
X104470000Y-78333500D02*
X104470100Y-78333500D01*
X92379300Y-78123500D02*
X94974600Y-78123500D01*
X104470000Y-78333500D02*
X104470000Y-78333600D01*
X104330000Y-78193800D02*
X104470000Y-78333500D01*
X104470000Y-78333600D02*
X104330000Y-78193800D01*
X104470000Y-78333500D02*
X104470000Y-78333600D01*
X91897200Y-77641400D02*
X92379300Y-78123500D01*
X104191000Y-78054000D02*
X104330000Y-78193800D01*
X104470000Y-78333500D02*
X104470000Y-78333600D01*
D25*
%TO.N,DIR*%
X82716400Y-82738900D02*
X82300100Y-82738900D01*
X96795900Y-71890400D02*
X97036300Y-72130800D01*
X88143863Y-73939400D02*
X89027000Y-73939400D01*
X79660400Y-79210700D02*
X83665500Y-75205600D01*
X82300100Y-82738900D02*
X79660400Y-80099200D01*
X79660400Y-80099200D02*
X79660400Y-79210700D01*
X83665500Y-75205600D02*
X86877663Y-75205600D01*
X90161600Y-71890400D02*
X96795900Y-71890400D01*
X89145600Y-73820800D02*
X89145600Y-72906400D01*
X86877663Y-75205600D02*
X88143863Y-73939400D01*
X89027000Y-73939400D02*
X89145600Y-73820800D01*
X89145600Y-72906400D02*
X90161600Y-71890400D01*
%TO.N,Net-(U1-GPIO7_SS)*%
X88496700Y-81147900D02*
X86847400Y-81147900D01*
X86847400Y-81147900D02*
X85256400Y-82738900D01*
X89103400Y-81754600D02*
X88496700Y-81147900D01*
%TD*%
%TA.AperFunction,Conductor*%
%TO.N,GND*%
G36*
X107105639Y-54375685D02*
G01*
X107151394Y-54428489D01*
X107162600Y-54480000D01*
X107162600Y-57954686D01*
X107162550Y-57958184D01*
X106857800Y-68757800D01*
X97751461Y-68765683D01*
X99177129Y-67340015D01*
X99238450Y-67306532D01*
X99308142Y-67311516D01*
X99364075Y-67353388D01*
X99388384Y-67417458D01*
X99400408Y-67562567D01*
X99400410Y-67562579D01*
X99456369Y-67783555D01*
X99547937Y-67992308D01*
X99672614Y-68183142D01*
X99672617Y-68183145D01*
X99807380Y-68329537D01*
X99827008Y-68350858D01*
X99827012Y-68350861D01*
X100006890Y-68490866D01*
X100006894Y-68490869D01*
X100006896Y-68490870D01*
X100006899Y-68490872D01*
X100053936Y-68516327D01*
X100207374Y-68599363D01*
X100319329Y-68637797D01*
X100422973Y-68673379D01*
X100422975Y-68673379D01*
X100422977Y-68673380D01*
X100647823Y-68710900D01*
X100647824Y-68710900D01*
X100875776Y-68710900D01*
X100875777Y-68710900D01*
X101100623Y-68673380D01*
X101316226Y-68599363D01*
X101516706Y-68490869D01*
X101696594Y-68350856D01*
X101850983Y-68183145D01*
X101975662Y-67992309D01*
X102067230Y-67783555D01*
X102123190Y-67562576D01*
X102123191Y-67562567D01*
X102142014Y-67335406D01*
X102142014Y-67335393D01*
X102123191Y-67108231D01*
X102123189Y-67108220D01*
X102067230Y-66887244D01*
X101975662Y-66678491D01*
X101850985Y-66487657D01*
X101696591Y-66319941D01*
X101696587Y-66319938D01*
X101520974Y-66183253D01*
X101480161Y-66126543D01*
X101476486Y-66056770D01*
X101511118Y-65996087D01*
X101520974Y-65987547D01*
X101611551Y-65917048D01*
X101696594Y-65850856D01*
X101850983Y-65683145D01*
X101975662Y-65492309D01*
X102067230Y-65283555D01*
X102123190Y-65062576D01*
X102126684Y-65020410D01*
X102142014Y-64835406D01*
X102142014Y-64835393D01*
X102123191Y-64608231D01*
X102123189Y-64608220D01*
X102067230Y-64387244D01*
X101975662Y-64178491D01*
X101850985Y-63987657D01*
X101696591Y-63819941D01*
X101696587Y-63819938D01*
X101520974Y-63683253D01*
X101480161Y-63626543D01*
X101476486Y-63556770D01*
X101511118Y-63496087D01*
X101520974Y-63487547D01*
X101532897Y-63478267D01*
X101696594Y-63350856D01*
X101850983Y-63183145D01*
X101975662Y-62992309D01*
X102067230Y-62783555D01*
X102123190Y-62562576D01*
X102129562Y-62485676D01*
X102142014Y-62335406D01*
X102142014Y-62335393D01*
X102123191Y-62108231D01*
X102123189Y-62108220D01*
X102067230Y-61887244D01*
X101975662Y-61678491D01*
X101850985Y-61487657D01*
X101764747Y-61393978D01*
X101696594Y-61319944D01*
X101696593Y-61319943D01*
X101696591Y-61319941D01*
X101696587Y-61319938D01*
X101520974Y-61183253D01*
X101480161Y-61126543D01*
X101476486Y-61056770D01*
X101511118Y-60996087D01*
X101520974Y-60987547D01*
X101530334Y-60980262D01*
X101696594Y-60850856D01*
X101850983Y-60683145D01*
X101975662Y-60492309D01*
X102067230Y-60283555D01*
X102123190Y-60062576D01*
X102123191Y-60062568D01*
X102142014Y-59835406D01*
X102142014Y-59835393D01*
X102123191Y-59608231D01*
X102123189Y-59608220D01*
X102067230Y-59387244D01*
X101975662Y-59178491D01*
X101850985Y-58987657D01*
X101754591Y-58882946D01*
X101723669Y-58820292D01*
X101731529Y-58750865D01*
X101775676Y-58696710D01*
X101802481Y-58682784D01*
X101879131Y-58654196D01*
X101994346Y-58567946D01*
X102080596Y-58452731D01*
X102130891Y-58317883D01*
X102137300Y-58258273D01*
X102137299Y-56412528D01*
X102130891Y-56352917D01*
X102096492Y-56260689D01*
X102080597Y-56218071D01*
X102080593Y-56218064D01*
X101994347Y-56102855D01*
X101994344Y-56102852D01*
X101879135Y-56016606D01*
X101879128Y-56016602D01*
X101744282Y-55966308D01*
X101744283Y-55966308D01*
X101684683Y-55959901D01*
X101684681Y-55959900D01*
X101684673Y-55959900D01*
X101684664Y-55959900D01*
X99838929Y-55959900D01*
X99838923Y-55959901D01*
X99779316Y-55966308D01*
X99644471Y-56016602D01*
X99644464Y-56016606D01*
X99529255Y-56102852D01*
X99529252Y-56102855D01*
X99443006Y-56218064D01*
X99443002Y-56218071D01*
X99392708Y-56352917D01*
X99388187Y-56394974D01*
X99386301Y-56412523D01*
X99386300Y-56412535D01*
X99386300Y-58258270D01*
X99386301Y-58258276D01*
X99392708Y-58317883D01*
X99443002Y-58452728D01*
X99443006Y-58452735D01*
X99529252Y-58567944D01*
X99529255Y-58567947D01*
X99644464Y-58654193D01*
X99644473Y-58654198D01*
X99698310Y-58674277D01*
X99721110Y-58682781D01*
X99777044Y-58724651D01*
X99801462Y-58790115D01*
X99786611Y-58858388D01*
X99769008Y-58882946D01*
X99672614Y-58987657D01*
X99547937Y-59178491D01*
X99456369Y-59387244D01*
X99400410Y-59608220D01*
X99400408Y-59608231D01*
X99381586Y-59835393D01*
X99381586Y-59835406D01*
X99400408Y-60062568D01*
X99400410Y-60062579D01*
X99456369Y-60283555D01*
X99547937Y-60492309D01*
X99583040Y-60546038D01*
X99603228Y-60612928D01*
X99584047Y-60680113D01*
X99566912Y-60701540D01*
X94840679Y-65427772D01*
X94779356Y-65461257D01*
X94709664Y-65456273D01*
X94653731Y-65414401D01*
X94629314Y-65348937D01*
X94629263Y-65348201D01*
X94617815Y-65173547D01*
X94617813Y-65173535D01*
X94558997Y-64877846D01*
X94558993Y-64877831D01*
X94462083Y-64592344D01*
X94462074Y-64592323D01*
X94328732Y-64321933D01*
X94203227Y-64134101D01*
X94203227Y-64134100D01*
X93440976Y-64896350D01*
X93401696Y-64819257D01*
X93286046Y-64660080D01*
X93146920Y-64520954D01*
X92987743Y-64405304D01*
X92910647Y-64366022D01*
X93672897Y-63603771D01*
X93672897Y-63603769D01*
X93485072Y-63478270D01*
X93214662Y-63344918D01*
X93214652Y-63344914D01*
X92929173Y-63248007D01*
X92929153Y-63248002D01*
X92633464Y-63189186D01*
X92633452Y-63189184D01*
X92332600Y-63169465D01*
X92031747Y-63189184D01*
X92031735Y-63189186D01*
X91736046Y-63248002D01*
X91736031Y-63248006D01*
X91450544Y-63344916D01*
X91450523Y-63344925D01*
X91180133Y-63478267D01*
X90992301Y-63603771D01*
X90992300Y-63603771D01*
X91754552Y-64366022D01*
X91677457Y-64405304D01*
X91518280Y-64520954D01*
X91379154Y-64660080D01*
X91263504Y-64819257D01*
X91224222Y-64896351D01*
X90461971Y-64134100D01*
X90461971Y-64134101D01*
X90336467Y-64321933D01*
X90203125Y-64592323D01*
X90203116Y-64592344D01*
X90106206Y-64877831D01*
X90106202Y-64877846D01*
X90047386Y-65173535D01*
X90047384Y-65173547D01*
X90027665Y-65474400D01*
X90047384Y-65775252D01*
X90047386Y-65775264D01*
X90106202Y-66070953D01*
X90106207Y-66070973D01*
X90203114Y-66356452D01*
X90203118Y-66356462D01*
X90336468Y-66626869D01*
X90341434Y-66634301D01*
X90362310Y-66700978D01*
X90343824Y-66768358D01*
X90291844Y-66815047D01*
X90288767Y-66816468D01*
X90199867Y-66856050D01*
X90199865Y-66856051D01*
X90046729Y-66967311D01*
X89920066Y-67107985D01*
X89825421Y-67271915D01*
X89825418Y-67271922D01*
X89766927Y-67451940D01*
X89766926Y-67451944D01*
X89747140Y-67640200D01*
X89766926Y-67828456D01*
X89766927Y-67828459D01*
X89825418Y-68008477D01*
X89825421Y-68008484D01*
X89920067Y-68172416D01*
X90023518Y-68287310D01*
X90046729Y-68313088D01*
X90199865Y-68424348D01*
X90199870Y-68424351D01*
X90372792Y-68501342D01*
X90372797Y-68501344D01*
X90557954Y-68540700D01*
X90581792Y-68540700D01*
X90648831Y-68560385D01*
X90669473Y-68577019D01*
X90864100Y-68771646D01*
X77596266Y-68783134D01*
X77596265Y-68783134D01*
X77596266Y-68783133D01*
X77559904Y-68746774D01*
X77561871Y-68744805D01*
X77532264Y-68710690D01*
X77521018Y-68658877D01*
X77543170Y-56076492D01*
X77562973Y-56009491D01*
X77615857Y-55963829D01*
X77685033Y-55954007D01*
X77748538Y-55983144D01*
X77786208Y-56041989D01*
X77786435Y-56042776D01*
X77791769Y-56061522D01*
X77791775Y-56061538D01*
X77890938Y-56260683D01*
X77890943Y-56260691D01*
X78025020Y-56438238D01*
X78189437Y-56588123D01*
X78189439Y-56588125D01*
X78378595Y-56705245D01*
X78378596Y-56705245D01*
X78378599Y-56705247D01*
X78586060Y-56785618D01*
X78804757Y-56826500D01*
X78804759Y-56826500D01*
X79027242Y-56826500D01*
X79027243Y-56826500D01*
X79041619Y-56823812D01*
X79055436Y-56821230D01*
X79124951Y-56828260D01*
X79179630Y-56871757D01*
X79202113Y-56937911D01*
X79185261Y-57005718D01*
X79166007Y-57030694D01*
X79158735Y-57037983D01*
X79151380Y-57045355D01*
X79118080Y-57082189D01*
X79118079Y-57082191D01*
X79009227Y-57215180D01*
X79009197Y-57215218D01*
X78979674Y-57255139D01*
X78979664Y-57255153D01*
X78979664Y-57255154D01*
X78966174Y-57275408D01*
X78966168Y-57275417D01*
X78966164Y-57275424D01*
X78966147Y-57275450D01*
X78940713Y-57318034D01*
X78859927Y-57469751D01*
X78838764Y-57514691D01*
X78829499Y-57537170D01*
X78829488Y-57537198D01*
X78812850Y-57583967D01*
X78812843Y-57583988D01*
X78763259Y-57748553D01*
X78763257Y-57748562D01*
X78751279Y-57796782D01*
X78751275Y-57796799D01*
X78751275Y-57796802D01*
X78746584Y-57820632D01*
X78746583Y-57820639D01*
X78739393Y-57869819D01*
X78739393Y-57869820D01*
X78723017Y-58039880D01*
X78723017Y-58039884D01*
X78722334Y-58046967D01*
X78721506Y-58058535D01*
X78720560Y-58071748D01*
X78720068Y-58082219D01*
X78719988Y-58083938D01*
X78719435Y-58108756D01*
X78719435Y-58108776D01*
X78719435Y-58108779D01*
X78728693Y-62108220D01*
X78732924Y-63935829D01*
X78736836Y-65625999D01*
X78740177Y-67069443D01*
X78740844Y-67094244D01*
X78741468Y-67106349D01*
X78743342Y-67131000D01*
X78743764Y-67135187D01*
X78760809Y-67304483D01*
X78760920Y-67305580D01*
X78761122Y-67307586D01*
X78762412Y-67316165D01*
X78768489Y-67356549D01*
X78773273Y-67380350D01*
X78773275Y-67380358D01*
X78785403Y-67428380D01*
X78834779Y-67590058D01*
X78834778Y-67590058D01*
X78834782Y-67590069D01*
X78835463Y-67592301D01*
X78844743Y-67618086D01*
X78852227Y-67638881D01*
X78861553Y-67661286D01*
X78882807Y-67706031D01*
X78902744Y-67743188D01*
X78963813Y-67857006D01*
X78963829Y-67857033D01*
X78989340Y-67899451D01*
X78989354Y-67899472D01*
X79002855Y-67919617D01*
X79002861Y-67919625D01*
X79032431Y-67959382D01*
X79140207Y-68090359D01*
X79141329Y-68091722D01*
X79174610Y-68128352D01*
X79174628Y-68128371D01*
X79190583Y-68144288D01*
X79191809Y-68145511D01*
X79228546Y-68178734D01*
X79361119Y-68287309D01*
X79374170Y-68296969D01*
X79400918Y-68316768D01*
X79400976Y-68316809D01*
X79417106Y-68327565D01*
X79421139Y-68330254D01*
X79463633Y-68355677D01*
X79614809Y-68436342D01*
X79659595Y-68457489D01*
X79682025Y-68466765D01*
X79728679Y-68483432D01*
X79728690Y-68483435D01*
X79728706Y-68483441D01*
X79892656Y-68533097D01*
X79892710Y-68533112D01*
X79940710Y-68545117D01*
X79940715Y-68545118D01*
X79940723Y-68545120D01*
X79964531Y-68549849D01*
X80013540Y-68557108D01*
X80190163Y-68574478D01*
X80214884Y-68576299D01*
X80214900Y-68576299D01*
X80214903Y-68576300D01*
X80216825Y-68576394D01*
X80227020Y-68576894D01*
X80251774Y-68577500D01*
X80251777Y-68577500D01*
X81420761Y-68577500D01*
X81423702Y-68577434D01*
X81443330Y-68576996D01*
X81454382Y-68576502D01*
X81476863Y-68574994D01*
X81616887Y-68541907D01*
X81681905Y-68516326D01*
X81726606Y-68490872D01*
X81806927Y-68445134D01*
X81806927Y-68445133D01*
X81806934Y-68445130D01*
X81828483Y-68422797D01*
X81889196Y-68388224D01*
X81958965Y-68391963D01*
X81998917Y-68415188D01*
X82070902Y-68477564D01*
X82070903Y-68477565D01*
X82070906Y-68477567D01*
X82070908Y-68477568D01*
X82070910Y-68477569D01*
X82192529Y-68533112D01*
X82201783Y-68537338D01*
X82268822Y-68557023D01*
X82268826Y-68557024D01*
X82411242Y-68577500D01*
X82411245Y-68577500D01*
X83575890Y-68577500D01*
X83575907Y-68577500D01*
X83600707Y-68576891D01*
X83612861Y-68576294D01*
X83637610Y-68574469D01*
X83814483Y-68557048D01*
X83863547Y-68549770D01*
X83887388Y-68545028D01*
X83935513Y-68532974D01*
X84099736Y-68483158D01*
X84146455Y-68466441D01*
X84168913Y-68457138D01*
X84213747Y-68435932D01*
X84365089Y-68355038D01*
X84407635Y-68329537D01*
X84427847Y-68316032D01*
X84467696Y-68286479D01*
X84600352Y-68177611D01*
X84637108Y-68144296D01*
X84637109Y-68144295D01*
X84637117Y-68144288D01*
X84654288Y-68127117D01*
X84654295Y-68127109D01*
X84686369Y-68091722D01*
X84687611Y-68090352D01*
X84796479Y-67957696D01*
X84826032Y-67917847D01*
X84839537Y-67897635D01*
X84840247Y-67896449D01*
X84840343Y-67896360D01*
X84840350Y-67896351D01*
X84840352Y-67896352D01*
X84891580Y-67849054D01*
X84960391Y-67836935D01*
X84989957Y-67843986D01*
X85058623Y-67869597D01*
X85058627Y-67869598D01*
X85118155Y-67875999D01*
X85118172Y-67876000D01*
X86541000Y-67876000D01*
X86541000Y-66498942D01*
X86638895Y-66539492D01*
X86822433Y-66576000D01*
X87009567Y-66576000D01*
X87193105Y-66539492D01*
X87291000Y-66498942D01*
X87291000Y-67876000D01*
X88713828Y-67876000D01*
X88713844Y-67875999D01*
X88773372Y-67869598D01*
X88773379Y-67869596D01*
X88908086Y-67819354D01*
X88908093Y-67819350D01*
X89023187Y-67733190D01*
X89023190Y-67733187D01*
X89109350Y-67618093D01*
X89109354Y-67618086D01*
X89159596Y-67483379D01*
X89159598Y-67483372D01*
X89165999Y-67423844D01*
X89166000Y-67423827D01*
X89166000Y-66001000D01*
X87788943Y-66001000D01*
X87829492Y-65903105D01*
X87866000Y-65719567D01*
X87866000Y-65532433D01*
X87829492Y-65348895D01*
X87788943Y-65251000D01*
X89166000Y-65251000D01*
X89166000Y-63828172D01*
X89165999Y-63828155D01*
X89159598Y-63768627D01*
X89159596Y-63768620D01*
X89109354Y-63633913D01*
X89109350Y-63633906D01*
X89023190Y-63518812D01*
X89023187Y-63518809D01*
X88908093Y-63432649D01*
X88908086Y-63432645D01*
X88773379Y-63382403D01*
X88773372Y-63382401D01*
X88713844Y-63376000D01*
X87291000Y-63376000D01*
X87291000Y-64753057D01*
X87193105Y-64712508D01*
X87009567Y-64676000D01*
X86822433Y-64676000D01*
X86638895Y-64712508D01*
X86541000Y-64753057D01*
X86541000Y-63376000D01*
X85211500Y-63376000D01*
X85144461Y-63356315D01*
X85098706Y-63303511D01*
X85087500Y-63252000D01*
X85087500Y-63011900D01*
X85107185Y-62944861D01*
X85159989Y-62899106D01*
X85211500Y-62887900D01*
X90903568Y-62887900D01*
X90913714Y-62887355D01*
X90957606Y-62885003D01*
X90957614Y-62885002D01*
X90957616Y-62885002D01*
X90957617Y-62885002D01*
X90964610Y-62884249D01*
X90983964Y-62882169D01*
X90983974Y-62882167D01*
X90983977Y-62882167D01*
X90993576Y-62880611D01*
X91037376Y-62873514D01*
X91172185Y-62823232D01*
X91233508Y-62789747D01*
X91348689Y-62703523D01*
X91393971Y-62658240D01*
X91455293Y-62624755D01*
X91521510Y-62628502D01*
X91735896Y-62701276D01*
X91735900Y-62701277D01*
X91735909Y-62701280D01*
X91935851Y-62741051D01*
X92031669Y-62760111D01*
X92031670Y-62760111D01*
X92031680Y-62760113D01*
X92332600Y-62779836D01*
X92633520Y-62760113D01*
X92929291Y-62701280D01*
X93143688Y-62628501D01*
X93213495Y-62625592D01*
X93271227Y-62658241D01*
X93313749Y-62700764D01*
X93313755Y-62700769D01*
X93313760Y-62700774D01*
X93373763Y-62752062D01*
X93404984Y-62774782D01*
X93472263Y-62816115D01*
X93608384Y-62862728D01*
X93677034Y-62875726D01*
X93820768Y-62882101D01*
X93970362Y-62867323D01*
X94019576Y-62860001D01*
X94043488Y-62855230D01*
X94091754Y-62843102D01*
X94256430Y-62792986D01*
X94256445Y-62792980D01*
X94256456Y-62792977D01*
X94293061Y-62779835D01*
X94303267Y-62776171D01*
X94325782Y-62766813D01*
X94370731Y-62745480D01*
X94522415Y-62664110D01*
X94565045Y-62638463D01*
X94585295Y-62624880D01*
X94625213Y-62595154D01*
X94758038Y-62485678D01*
X94794831Y-62452179D01*
X94812029Y-62434898D01*
X94845349Y-62397946D01*
X94954190Y-62264590D01*
X94983711Y-62224548D01*
X94997197Y-62204234D01*
X95022650Y-62161464D01*
X95103292Y-62009387D01*
X95124418Y-61964315D01*
X95133667Y-61941754D01*
X95150248Y-61894856D01*
X95199570Y-61729945D01*
X95211464Y-61681630D01*
X95216120Y-61657697D01*
X95223207Y-61608445D01*
X95239880Y-61430964D01*
X95241596Y-61406172D01*
X95242139Y-61393978D01*
X95242633Y-61369059D01*
X95242278Y-61295239D01*
X95224348Y-61164209D01*
X95207365Y-61102166D01*
X95156061Y-60980269D01*
X95156059Y-60980267D01*
X95156057Y-60980262D01*
X95066449Y-60867707D01*
X95015594Y-60819792D01*
X94972491Y-60789484D01*
X94897901Y-60737036D01*
X94761656Y-60690788D01*
X94761655Y-60690787D01*
X94761650Y-60690786D01*
X94733709Y-60685574D01*
X94671417Y-60653929D01*
X94636122Y-60593629D01*
X94632716Y-60555566D01*
X94638036Y-60474406D01*
X94638036Y-60474392D01*
X94631146Y-60369273D01*
X94646403Y-60301090D01*
X94696102Y-60251979D01*
X94727962Y-60240120D01*
X94731135Y-60239414D01*
X94731149Y-60239412D01*
X94869000Y-60198215D01*
X94989665Y-60119847D01*
X95036145Y-60079179D01*
X95036683Y-60078767D01*
X95042102Y-60073967D01*
X95042249Y-60073839D01*
X95042252Y-60073837D01*
X95135949Y-59964648D01*
X95195090Y-59833484D01*
X95214452Y-59766351D01*
X95234243Y-59623838D01*
X95226908Y-58098033D01*
X95226184Y-58073298D01*
X95225532Y-58061183D01*
X95223599Y-58036531D01*
X95205436Y-57860277D01*
X95205434Y-57860264D01*
X95205433Y-57860254D01*
X95197967Y-57811395D01*
X95197965Y-57811381D01*
X95193137Y-57787634D01*
X95183181Y-57748562D01*
X95180930Y-57739727D01*
X95130628Y-57576204D01*
X95130624Y-57576193D01*
X95113788Y-57529689D01*
X95104433Y-57507333D01*
X95104425Y-57507316D01*
X95083136Y-57462704D01*
X95002006Y-57312121D01*
X95002002Y-57312115D01*
X95001990Y-57312092D01*
X94976437Y-57269762D01*
X94962913Y-57249652D01*
X94933332Y-57210002D01*
X94824435Y-57078041D01*
X94824428Y-57078033D01*
X94824422Y-57078026D01*
X94791147Y-57041500D01*
X94773964Y-57024399D01*
X94773963Y-57024398D01*
X94737241Y-56991265D01*
X94671950Y-56937911D01*
X94604776Y-56883018D01*
X94604756Y-56883002D01*
X94564976Y-56853621D01*
X94564977Y-56853621D01*
X94564968Y-56853615D01*
X94544800Y-56840192D01*
X94513046Y-56821230D01*
X94502357Y-56814847D01*
X94502353Y-56814844D01*
X94485987Y-56806128D01*
X94485987Y-56806127D01*
X94391036Y-56755558D01*
X94351331Y-56734412D01*
X94351324Y-56734408D01*
X94351319Y-56734406D01*
X94306582Y-56713321D01*
X94306575Y-56713319D01*
X94304309Y-56712383D01*
X94284198Y-56704082D01*
X94237620Y-56687472D01*
X94237614Y-56687470D01*
X94237608Y-56687468D01*
X94073886Y-56637965D01*
X94073851Y-56637955D01*
X94025881Y-56625976D01*
X94025868Y-56625973D01*
X94002119Y-56621264D01*
X93953196Y-56614029D01*
X93953191Y-56614028D01*
X93953181Y-56614027D01*
X93776830Y-56596712D01*
X93776819Y-56596711D01*
X93776807Y-56596710D01*
X93752150Y-56594896D01*
X93740026Y-56594303D01*
X93715921Y-56593714D01*
X93715318Y-56593700D01*
X93715317Y-56593700D01*
X90938606Y-56593700D01*
X90871567Y-56574015D01*
X90825812Y-56521211D01*
X90815868Y-56452053D01*
X90839652Y-56394974D01*
X90941052Y-56260697D01*
X90941056Y-56260691D01*
X90941058Y-56260689D01*
X91040229Y-56061528D01*
X91101115Y-55847536D01*
X91121643Y-55626000D01*
X91101115Y-55404464D01*
X91040229Y-55190472D01*
X91040224Y-55190461D01*
X90941061Y-54991316D01*
X90941056Y-54991308D01*
X90806979Y-54813761D01*
X90642562Y-54663876D01*
X90642560Y-54663874D01*
X90515862Y-54585427D01*
X90469226Y-54533400D01*
X90458122Y-54464418D01*
X90486075Y-54400383D01*
X90544210Y-54361627D01*
X90581139Y-54356000D01*
X107038600Y-54356000D01*
X107105639Y-54375685D01*
G37*
%TD.AperFunction*%
%TA.AperFunction,Conductor*%
G36*
X99418933Y-62791925D02*
G01*
X99474866Y-62833797D01*
X99489154Y-62858296D01*
X99493114Y-62867322D01*
X99547937Y-62992308D01*
X99672614Y-63183142D01*
X99672617Y-63183145D01*
X99827006Y-63350856D01*
X99990703Y-63478267D01*
X100002626Y-63487547D01*
X100043439Y-63544257D01*
X100047113Y-63614030D01*
X100012481Y-63674713D01*
X100002626Y-63683253D01*
X99827008Y-63819942D01*
X99672614Y-63987657D01*
X99547937Y-64178491D01*
X99456369Y-64387244D01*
X99400410Y-64608220D01*
X99400408Y-64608231D01*
X99381586Y-64835393D01*
X99381586Y-64835406D01*
X99400408Y-65062568D01*
X99400410Y-65062580D01*
X99426409Y-65165247D01*
X99423783Y-65235068D01*
X99393884Y-65283368D01*
X96809473Y-67867781D01*
X96748150Y-67901266D01*
X96721792Y-67904100D01*
X94503608Y-67904100D01*
X94436569Y-67884415D01*
X94390814Y-67831611D01*
X94380870Y-67762453D01*
X94409895Y-67698897D01*
X94415927Y-67692419D01*
X95620691Y-66487655D01*
X99287920Y-62820424D01*
X99349241Y-62786941D01*
X99418933Y-62791925D01*
G37*
%TD.AperFunction*%
%TD*%
%TA.AperFunction,NonConductor*%
G36*
X78317900Y-54375685D02*
G01*
X78363655Y-54428489D01*
X78373599Y-54497647D01*
X78344574Y-54561203D01*
X78316138Y-54585427D01*
X78189439Y-54663874D01*
X78189437Y-54663876D01*
X78025020Y-54813761D01*
X77890943Y-54991308D01*
X77890938Y-54991316D01*
X77791775Y-55190461D01*
X77791771Y-55190472D01*
X77788032Y-55203613D01*
X77750750Y-55262704D01*
X77687439Y-55292259D01*
X77618200Y-55282894D01*
X77565015Y-55237582D01*
X77544771Y-55170709D01*
X77544767Y-55169628D01*
X77545982Y-54479781D01*
X77565785Y-54412777D01*
X77618669Y-54367115D01*
X77669982Y-54356000D01*
X78250861Y-54356000D01*
X78317900Y-54375685D01*
G37*
%TD.AperFunction*%
%TA.AperFunction,NonConductor*%
G36*
X89317900Y-54375685D02*
G01*
X89363655Y-54428489D01*
X89373599Y-54497647D01*
X89344574Y-54561203D01*
X89316138Y-54585427D01*
X89189439Y-54663874D01*
X89189437Y-54663876D01*
X89025020Y-54813761D01*
X88890943Y-54991308D01*
X88890938Y-54991316D01*
X88791775Y-55190461D01*
X88791769Y-55190476D01*
X88730885Y-55404462D01*
X88730884Y-55404464D01*
X88710357Y-55625999D01*
X88710357Y-55626000D01*
X88730884Y-55847535D01*
X88730885Y-55847537D01*
X88791769Y-56061523D01*
X88791775Y-56061538D01*
X88890938Y-56260683D01*
X88890947Y-56260697D01*
X88992348Y-56394974D01*
X89017040Y-56460335D01*
X89002475Y-56528669D01*
X88953277Y-56578282D01*
X88893394Y-56593700D01*
X80231016Y-56593700D01*
X80215398Y-56594083D01*
X80206201Y-56594309D01*
X80194012Y-56594908D01*
X80169235Y-56596737D01*
X79992105Y-56614209D01*
X79942966Y-56621509D01*
X79942963Y-56621509D01*
X79939480Y-56622203D01*
X79869888Y-56615980D01*
X79814708Y-56573121D01*
X79791458Y-56507233D01*
X79807521Y-56439235D01*
X79816319Y-56425869D01*
X79941058Y-56260689D01*
X80040229Y-56061528D01*
X80101115Y-55847536D01*
X80121643Y-55626000D01*
X80101115Y-55404464D01*
X80040229Y-55190472D01*
X80040224Y-55190461D01*
X79941061Y-54991316D01*
X79941056Y-54991308D01*
X79806979Y-54813761D01*
X79642562Y-54663876D01*
X79642560Y-54663874D01*
X79515862Y-54585427D01*
X79469226Y-54533400D01*
X79458122Y-54464418D01*
X79486075Y-54400383D01*
X79544210Y-54361627D01*
X79581139Y-54356000D01*
X89250861Y-54356000D01*
X89317900Y-54375685D01*
G37*
%TD.AperFunction*%
%TA.AperFunction,Conductor*%
%TO.N,GND*%
G36*
X81007959Y-96972311D02*
G01*
X81031530Y-96977000D01*
X84479161Y-96977000D01*
X84546200Y-96996685D01*
X84591955Y-97049489D01*
X84601899Y-97118647D01*
X84572874Y-97182203D01*
X84542637Y-97207520D01*
X84381506Y-97303534D01*
X84381505Y-97303535D01*
X84381497Y-97303540D01*
X84191750Y-97464248D01*
X84191748Y-97464250D01*
X84031039Y-97653997D01*
X83903742Y-97867630D01*
X83813353Y-98099274D01*
X83813350Y-98099284D01*
X83762319Y-98342661D01*
X83762318Y-98342664D01*
X83755900Y-98446049D01*
X83755900Y-99361750D01*
X83762318Y-99465135D01*
X83762319Y-99465138D01*
X83813350Y-99708515D01*
X83813353Y-99708525D01*
X83871345Y-99857143D01*
X83903744Y-99940173D01*
X84031034Y-100153794D01*
X84031035Y-100153795D01*
X84031037Y-100153798D01*
X84088715Y-100221898D01*
X84117021Y-100285777D01*
X84106298Y-100354819D01*
X84059951Y-100407104D01*
X83994199Y-100426039D01*
X81436941Y-100428252D01*
X81369885Y-100408625D01*
X81324084Y-100355861D01*
X81314081Y-100286711D01*
X81342211Y-100224111D01*
X81401766Y-100153796D01*
X81529056Y-99940175D01*
X81619447Y-99708525D01*
X81619446Y-99708523D01*
X81619450Y-99708516D01*
X81670481Y-99465139D01*
X81676900Y-99361744D01*
X81676900Y-98446060D01*
X81670481Y-98342665D01*
X81619450Y-98099288D01*
X81619448Y-98099283D01*
X81619446Y-98099276D01*
X81529057Y-97867632D01*
X81529056Y-97867630D01*
X81529056Y-97867629D01*
X81401766Y-97654008D01*
X81401763Y-97654005D01*
X81401760Y-97653999D01*
X81241051Y-97464252D01*
X81241049Y-97464250D01*
X81051299Y-97303540D01*
X81051296Y-97303537D01*
X80857248Y-97187909D01*
X80809734Y-97136683D01*
X80797458Y-97067900D01*
X80824317Y-97003399D01*
X80881784Y-96963659D01*
X80944912Y-96959770D01*
X81007959Y-96972311D01*
G37*
%TD.AperFunction*%
%TA.AperFunction,Conductor*%
G36*
X96735821Y-84096904D02*
G01*
X96737652Y-84099017D01*
X96850752Y-84232553D01*
X97040497Y-84393260D01*
X97040503Y-84393263D01*
X97040506Y-84393266D01*
X97254127Y-84520556D01*
X97300458Y-84538634D01*
X97485774Y-84610946D01*
X97485781Y-84610948D01*
X97485786Y-84610950D01*
X97729163Y-84661981D01*
X97832558Y-84668400D01*
X97832569Y-84668400D01*
X97998231Y-84668400D01*
X97998242Y-84668400D01*
X98101637Y-84661981D01*
X98345014Y-84610950D01*
X98384024Y-84595727D01*
X98453633Y-84589696D01*
X98515453Y-84622255D01*
X98549856Y-84683067D01*
X98553100Y-84711245D01*
X98553100Y-86781980D01*
X98533415Y-86849019D01*
X98495074Y-86886973D01*
X98436108Y-86924024D01*
X98316523Y-87043609D01*
X98316518Y-87043615D01*
X98226547Y-87186802D01*
X98226545Y-87186805D01*
X98170685Y-87346443D01*
X98151751Y-87514497D01*
X98151751Y-87514502D01*
X98170685Y-87682556D01*
X98226545Y-87842194D01*
X98226547Y-87842197D01*
X98316518Y-87985384D01*
X98316523Y-87985390D01*
X98436109Y-88104976D01*
X98436115Y-88104981D01*
X98579302Y-88194952D01*
X98579308Y-88194955D01*
X98579310Y-88194956D01*
X98738941Y-88250813D01*
X98797787Y-88257443D01*
X98862199Y-88284508D01*
X98871586Y-88292984D01*
X101722952Y-91144491D01*
X104369380Y-93791050D01*
X104381183Y-93802853D01*
X104414667Y-93864177D01*
X104417500Y-93890532D01*
X104417500Y-93928766D01*
X104434928Y-93993810D01*
X104456719Y-94075136D01*
X104470386Y-94098807D01*
X104532485Y-94206365D01*
X104639635Y-94313515D01*
X104765662Y-94386277D01*
X104777904Y-94393345D01*
X104776915Y-94395056D01*
X104822973Y-94432170D01*
X104833500Y-94450487D01*
X104870964Y-94530828D01*
X104870965Y-94530830D01*
X104972919Y-94676434D01*
X105006505Y-94724400D01*
X105173599Y-94891494D01*
X105212168Y-94918500D01*
X105367165Y-95027031D01*
X105367167Y-95027032D01*
X105367170Y-95027034D01*
X105581337Y-95126902D01*
X105809592Y-95188062D01*
X105997918Y-95204538D01*
X106044999Y-95208658D01*
X106045000Y-95208658D01*
X106045001Y-95208658D01*
X106084234Y-95205225D01*
X106280408Y-95188062D01*
X106508663Y-95126902D01*
X106722830Y-95027034D01*
X106758972Y-95001726D01*
X106825175Y-94979399D01*
X106892943Y-94996408D01*
X106940757Y-95047355D01*
X106954090Y-95104365D01*
X106909653Y-100283370D01*
X106889394Y-100350238D01*
X106836200Y-100395538D01*
X106785765Y-100406306D01*
X104594970Y-100408202D01*
X104527914Y-100388575D01*
X104482113Y-100335811D01*
X104472110Y-100266661D01*
X104477822Y-100243247D01*
X104495313Y-100193260D01*
X104495313Y-100193259D01*
X104514249Y-100025202D01*
X104514249Y-100025197D01*
X104495314Y-99857143D01*
X104439454Y-99697505D01*
X104439452Y-99697502D01*
X104349481Y-99554315D01*
X104349476Y-99554309D01*
X104229890Y-99434723D01*
X104229884Y-99434718D01*
X104086697Y-99344747D01*
X104086694Y-99344745D01*
X103927056Y-99288885D01*
X103759003Y-99269951D01*
X103758997Y-99269951D01*
X103590943Y-99288885D01*
X103431307Y-99344745D01*
X103294522Y-99430694D01*
X103228550Y-99449700D01*
X99666900Y-99449700D01*
X99599861Y-99430015D01*
X99554106Y-99377211D01*
X99542900Y-99325700D01*
X99542900Y-98664884D01*
X104160993Y-98664884D01*
X104202013Y-98871100D01*
X104202016Y-98871110D01*
X104282475Y-99065358D01*
X104282482Y-99065371D01*
X104399295Y-99240192D01*
X104399298Y-99240196D01*
X104547971Y-99388869D01*
X104547975Y-99388872D01*
X104722796Y-99505685D01*
X104722809Y-99505692D01*
X104917057Y-99586151D01*
X104917062Y-99586153D01*
X104917066Y-99586153D01*
X104917067Y-99586154D01*
X105123283Y-99627174D01*
X105333550Y-99627174D01*
X105333552Y-99627174D01*
X105472290Y-99599576D01*
X105539774Y-99586153D01*
X105734033Y-99505689D01*
X105908861Y-99388872D01*
X106057540Y-99240193D01*
X106174357Y-99065365D01*
X106254821Y-98871106D01*
X106295842Y-98664882D01*
X106298418Y-98559750D01*
X106295842Y-98454618D01*
X106254821Y-98248394D01*
X106193059Y-98099286D01*
X106174360Y-98054141D01*
X106174353Y-98054128D01*
X106057540Y-97879307D01*
X106057537Y-97879303D01*
X105908864Y-97730630D01*
X105908860Y-97730627D01*
X105734039Y-97613814D01*
X105734026Y-97613807D01*
X105539778Y-97533348D01*
X105539768Y-97533345D01*
X105333552Y-97492326D01*
X105333550Y-97492326D01*
X105123286Y-97492326D01*
X105123284Y-97492326D01*
X104917067Y-97533345D01*
X104917057Y-97533348D01*
X104722809Y-97613807D01*
X104722796Y-97613814D01*
X104547975Y-97730627D01*
X104547971Y-97730630D01*
X104399298Y-97879303D01*
X104399295Y-97879307D01*
X104282482Y-98054128D01*
X104282475Y-98054141D01*
X104202016Y-98248389D01*
X104202013Y-98248399D01*
X104160994Y-98454615D01*
X104160994Y-98454618D01*
X104160994Y-98664882D01*
X104160994Y-98664884D01*
X104160993Y-98664884D01*
X99542900Y-98664884D01*
X99542900Y-98464068D01*
X99542900Y-98464058D01*
X99536481Y-98360663D01*
X99485450Y-98117286D01*
X99485448Y-98117281D01*
X99485446Y-98117274D01*
X99413134Y-97931958D01*
X99395056Y-97885627D01*
X99267766Y-97672006D01*
X99267763Y-97672003D01*
X99267760Y-97671997D01*
X99107051Y-97482250D01*
X99107049Y-97482248D01*
X98917302Y-97321539D01*
X98887089Y-97303536D01*
X98703673Y-97194244D01*
X98703671Y-97194243D01*
X98703669Y-97194242D01*
X98472025Y-97103853D01*
X98472015Y-97103850D01*
X98228638Y-97052819D01*
X98228635Y-97052818D01*
X98125250Y-97046400D01*
X98125242Y-97046400D01*
X97959558Y-97046400D01*
X97959549Y-97046400D01*
X97856164Y-97052818D01*
X97856161Y-97052819D01*
X97612784Y-97103850D01*
X97612774Y-97103853D01*
X97381130Y-97194242D01*
X97167497Y-97321539D01*
X96977752Y-97482246D01*
X96831644Y-97654755D01*
X96773295Y-97693189D01*
X96703430Y-97693976D01*
X96644230Y-97656867D01*
X96642400Y-97654754D01*
X96481051Y-97464250D01*
X96481050Y-97464249D01*
X96291303Y-97303540D01*
X96177558Y-97235763D01*
X96077674Y-97176245D01*
X96077672Y-97176244D01*
X96077670Y-97176243D01*
X95846023Y-97085853D01*
X95846011Y-97085850D01*
X95817457Y-97079862D01*
X95755885Y-97046837D01*
X95755226Y-97046183D01*
X94827324Y-96118281D01*
X94793839Y-96056958D01*
X94798823Y-95987266D01*
X94840695Y-95931333D01*
X94906159Y-95906916D01*
X94915005Y-95906600D01*
X99132364Y-95906600D01*
X99132366Y-95906600D01*
X99278735Y-95867381D01*
X99409965Y-95791615D01*
X99988863Y-95212716D01*
X99988865Y-95212715D01*
X100096015Y-95105565D01*
X100171781Y-94974335D01*
X100199580Y-94870586D01*
X100211000Y-94827967D01*
X100211000Y-94676434D01*
X100211000Y-90472834D01*
X100171781Y-90326465D01*
X100096015Y-90195235D01*
X99988865Y-90088085D01*
X99256184Y-89355404D01*
X99222699Y-89294081D01*
X99220646Y-89281621D01*
X99214013Y-89222741D01*
X99158156Y-89063110D01*
X99158153Y-89063105D01*
X99158152Y-89063102D01*
X99068181Y-88919915D01*
X99068176Y-88919909D01*
X98948590Y-88800323D01*
X98948584Y-88800318D01*
X98805397Y-88710347D01*
X98805394Y-88710345D01*
X98645756Y-88654485D01*
X98477703Y-88635551D01*
X98477697Y-88635551D01*
X98309643Y-88654485D01*
X98150005Y-88710345D01*
X98150002Y-88710347D01*
X98006815Y-88800318D01*
X98006809Y-88800323D01*
X97887223Y-88919909D01*
X97887218Y-88919915D01*
X97797247Y-89063102D01*
X97797245Y-89063105D01*
X97741385Y-89222743D01*
X97722451Y-89390797D01*
X97722451Y-89390802D01*
X97741385Y-89558856D01*
X97797245Y-89718494D01*
X97797247Y-89718497D01*
X97887218Y-89861684D01*
X97887223Y-89861690D01*
X98006809Y-89981276D01*
X98006815Y-89981281D01*
X98150002Y-90071252D01*
X98150008Y-90071255D01*
X98150010Y-90071256D01*
X98309641Y-90127113D01*
X98368506Y-90133745D01*
X98432919Y-90160810D01*
X98442304Y-90169284D01*
X99023681Y-90750661D01*
X99057166Y-90811984D01*
X99060000Y-90838342D01*
X99060000Y-93730968D01*
X99040315Y-93798007D01*
X98987511Y-93843762D01*
X98976954Y-93848010D01*
X98845108Y-93894144D01*
X98708322Y-93980094D01*
X98642350Y-93999100D01*
X98059942Y-93999100D01*
X97992903Y-93979415D01*
X97972261Y-93962781D01*
X92806973Y-88797493D01*
X92773488Y-88736170D01*
X92778472Y-88666478D01*
X92820344Y-88610545D01*
X92828664Y-88604830D01*
X92839890Y-88597777D01*
X92959477Y-88478190D01*
X93049452Y-88334997D01*
X93049454Y-88334994D01*
X93049454Y-88334992D01*
X93049456Y-88334990D01*
X93105313Y-88175359D01*
X93105313Y-88175358D01*
X93105314Y-88175356D01*
X93124249Y-88007302D01*
X93124249Y-88007297D01*
X93105314Y-87839243D01*
X93052644Y-87688722D01*
X93049456Y-87679610D01*
X92963506Y-87542822D01*
X92944500Y-87476850D01*
X92944500Y-86076041D01*
X92964185Y-86009002D01*
X92980814Y-85988365D01*
X94528660Y-84440518D01*
X94589981Y-84407035D01*
X94659673Y-84412019D01*
X94679811Y-84421677D01*
X94755126Y-84466555D01*
X94755129Y-84466556D01*
X94986773Y-84556945D01*
X94986780Y-84556947D01*
X94986785Y-84556949D01*
X95230162Y-84607980D01*
X95333557Y-84614399D01*
X95333568Y-84614399D01*
X95499230Y-84614399D01*
X95499241Y-84614399D01*
X95602636Y-84607980D01*
X95846013Y-84556949D01*
X95846020Y-84556945D01*
X95846024Y-84556945D01*
X95945118Y-84518278D01*
X96077672Y-84466555D01*
X96291293Y-84339265D01*
X96291297Y-84339260D01*
X96291301Y-84339259D01*
X96481048Y-84178550D01*
X96481049Y-84178549D01*
X96548408Y-84099017D01*
X96606755Y-84060584D01*
X96676620Y-84059795D01*
X96735821Y-84096904D01*
G37*
%TD.AperFunction*%
%TA.AperFunction,Conductor*%
G36*
X91951602Y-90336628D02*
G01*
X91958080Y-90342660D01*
X94975386Y-93359966D01*
X95008871Y-93421289D01*
X95011705Y-93447647D01*
X95011705Y-93791050D01*
X94992699Y-93857022D01*
X94906750Y-93993807D01*
X94850890Y-94153443D01*
X94831956Y-94321497D01*
X94831956Y-94321502D01*
X94850891Y-94489559D01*
X94850891Y-94489561D01*
X94886263Y-94590645D01*
X94889825Y-94660424D01*
X94855097Y-94721051D01*
X94793103Y-94753279D01*
X94769222Y-94755600D01*
X91293433Y-94755600D01*
X91156133Y-94792388D01*
X91156134Y-94792389D01*
X91147063Y-94794819D01*
X91015835Y-94870585D01*
X91015832Y-94870587D01*
X90908683Y-94977737D01*
X88684139Y-97202279D01*
X88622816Y-97235764D01*
X88553124Y-97230780D01*
X88532989Y-97221123D01*
X88457671Y-97176244D01*
X88457669Y-97176243D01*
X88457667Y-97176242D01*
X88226023Y-97085853D01*
X88226013Y-97085850D01*
X87982636Y-97034819D01*
X87982633Y-97034818D01*
X87907516Y-97030155D01*
X87841825Y-97006354D01*
X87799430Y-96950816D01*
X87791200Y-96906393D01*
X87791200Y-96714549D01*
X87810207Y-96648576D01*
X87896154Y-96511793D01*
X87896153Y-96511793D01*
X87896156Y-96511790D01*
X87952013Y-96352159D01*
X87952013Y-96352158D01*
X87952014Y-96352156D01*
X87970949Y-96184102D01*
X87970949Y-96184097D01*
X87952014Y-96016043D01*
X87899995Y-95867381D01*
X87896156Y-95856410D01*
X87896155Y-95856409D01*
X87896154Y-95856405D01*
X87896152Y-95856402D01*
X87806181Y-95713215D01*
X87806176Y-95713209D01*
X87686590Y-95593623D01*
X87686584Y-95593618D01*
X87543397Y-95503647D01*
X87543394Y-95503645D01*
X87383756Y-95447785D01*
X87215703Y-95428851D01*
X87215697Y-95428851D01*
X87047643Y-95447785D01*
X86888005Y-95503645D01*
X86888002Y-95503647D01*
X86744815Y-95593618D01*
X86744809Y-95593623D01*
X86625223Y-95713209D01*
X86625218Y-95713215D01*
X86535247Y-95856402D01*
X86535245Y-95856405D01*
X86479385Y-96016043D01*
X86460451Y-96184097D01*
X86460451Y-96184102D01*
X86479385Y-96352156D01*
X86535245Y-96511793D01*
X86598159Y-96611918D01*
X86617160Y-96679155D01*
X86596793Y-96745990D01*
X86580847Y-96765572D01*
X86144140Y-97202278D01*
X86082817Y-97235763D01*
X86013125Y-97230779D01*
X85992986Y-97221120D01*
X85917672Y-97176243D01*
X85686025Y-97085853D01*
X85686015Y-97085850D01*
X85442638Y-97034819D01*
X85442635Y-97034818D01*
X85339250Y-97028400D01*
X85339242Y-97028400D01*
X85173558Y-97028400D01*
X85173549Y-97028400D01*
X85070164Y-97034818D01*
X85070157Y-97034819D01*
X85039838Y-97041177D01*
X84970186Y-97035669D01*
X84914569Y-96993378D01*
X84890645Y-96927732D01*
X84906010Y-96859572D01*
X84926711Y-96832135D01*
X85396846Y-96362000D01*
X86826486Y-94932358D01*
X86887807Y-94898875D01*
X86939941Y-94898751D01*
X87032854Y-94918500D01*
X87032856Y-94918500D01*
X87222144Y-94918500D01*
X87222146Y-94918500D01*
X87407303Y-94879144D01*
X87580230Y-94802151D01*
X87733371Y-94690888D01*
X87860033Y-94550216D01*
X87954679Y-94386284D01*
X88013174Y-94206256D01*
X88027396Y-94070934D01*
X88053979Y-94006323D01*
X88111276Y-93966338D01*
X88150715Y-93959899D01*
X91746401Y-93959901D01*
X91746399Y-90430340D01*
X91766084Y-90363302D01*
X91818887Y-90317547D01*
X91888046Y-90307603D01*
X91951602Y-90336628D01*
G37*
%TD.AperFunction*%
%TA.AperFunction,Conductor*%
G36*
X101912739Y-78724185D02*
G01*
X101958494Y-78776989D01*
X101969700Y-78828500D01*
X101969700Y-79416450D01*
X101976118Y-79519835D01*
X101976119Y-79519838D01*
X102027150Y-79763215D01*
X102027153Y-79763225D01*
X102114104Y-79986058D01*
X102117544Y-79994873D01*
X102217076Y-80161910D01*
X102244839Y-80208502D01*
X102405548Y-80398249D01*
X102595297Y-80558960D01*
X102595303Y-80558963D01*
X102595306Y-80558966D01*
X102808927Y-80686256D01*
X102855258Y-80704334D01*
X103040574Y-80776646D01*
X103040581Y-80776648D01*
X103040586Y-80776650D01*
X103283963Y-80827681D01*
X103387358Y-80834100D01*
X103387369Y-80834100D01*
X105553031Y-80834100D01*
X105553042Y-80834100D01*
X105656437Y-80827681D01*
X105899814Y-80776650D01*
X105899821Y-80776646D01*
X105899825Y-80776646D01*
X106030856Y-80725517D01*
X106131473Y-80686256D01*
X106345094Y-80558966D01*
X106345098Y-80558961D01*
X106345102Y-80558960D01*
X106534852Y-80398249D01*
X106695560Y-80208502D01*
X106695561Y-80208498D01*
X106695566Y-80208494D01*
X106822856Y-79994873D01*
X106844299Y-79939917D01*
X106887005Y-79884622D01*
X106952829Y-79861191D01*
X107020871Y-79877067D01*
X107069529Y-79927209D01*
X107083811Y-79986058D01*
X107021055Y-87300064D01*
X107000796Y-87366932D01*
X106947602Y-87412232D01*
X106897060Y-87423000D01*
X106420000Y-87423000D01*
X106420000Y-88440894D01*
X106352007Y-88372901D01*
X106237993Y-88307075D01*
X106110826Y-88273000D01*
X105979174Y-88273000D01*
X105852007Y-88307075D01*
X105737993Y-88372901D01*
X105644901Y-88465993D01*
X105579075Y-88580007D01*
X105545000Y-88707174D01*
X105545000Y-88838826D01*
X105579075Y-88965993D01*
X105644901Y-89080007D01*
X105712894Y-89148000D01*
X104851343Y-89148000D01*
X104784304Y-89128315D01*
X104763661Y-89111680D01*
X103527162Y-87875155D01*
X104695000Y-87875155D01*
X104695000Y-88398000D01*
X105670000Y-88398000D01*
X105670000Y-87423000D01*
X105147155Y-87423000D01*
X105087627Y-87429401D01*
X105087620Y-87429403D01*
X104952913Y-87479645D01*
X104952906Y-87479649D01*
X104837812Y-87565809D01*
X104837809Y-87565812D01*
X104751649Y-87680906D01*
X104751645Y-87680913D01*
X104701403Y-87815620D01*
X104701401Y-87815627D01*
X104695000Y-87875155D01*
X103527162Y-87875155D01*
X101839818Y-86187775D01*
X101806334Y-86126452D01*
X101803500Y-86100095D01*
X101803500Y-83727428D01*
X101788641Y-83652732D01*
X101778501Y-83601756D01*
X101778500Y-83601754D01*
X101778368Y-83601090D01*
X101776820Y-83597697D01*
X101755234Y-83545586D01*
X101755234Y-83545585D01*
X101731126Y-83487384D01*
X101729960Y-83484260D01*
X101729641Y-83483635D01*
X101659086Y-83378043D01*
X101659091Y-83378039D01*
X101659067Y-83378016D01*
X101658276Y-83376831D01*
X101658274Y-83376829D01*
X101658270Y-83376823D01*
X101581581Y-83300136D01*
X101567669Y-83286224D01*
X101567668Y-83286223D01*
X101563346Y-83281901D01*
X101563333Y-83281889D01*
X100215677Y-81934274D01*
X98309862Y-80028517D01*
X98235686Y-79978956D01*
X98203327Y-79957335D01*
X98203328Y-79957335D01*
X98203326Y-79957334D01*
X98203312Y-79957327D01*
X98140939Y-79931492D01*
X98140938Y-79931492D01*
X98084953Y-79908302D01*
X98084943Y-79908298D01*
X98084938Y-79908297D01*
X98084934Y-79908296D01*
X98084925Y-79908294D01*
X98084909Y-79908290D01*
X98042589Y-79899873D01*
X97959272Y-79883300D01*
X97959269Y-79883300D01*
X96395496Y-79883300D01*
X96328457Y-79863615D01*
X96282702Y-79810811D01*
X96272276Y-79773183D01*
X96265714Y-79714944D01*
X96256117Y-79687516D01*
X96209856Y-79555310D01*
X96209855Y-79555309D01*
X96209854Y-79555305D01*
X96209852Y-79555302D01*
X96119881Y-79412115D01*
X96119876Y-79412109D01*
X96000290Y-79292523D01*
X96000284Y-79292518D01*
X95857097Y-79202547D01*
X95857094Y-79202545D01*
X95697456Y-79146685D01*
X95529403Y-79127751D01*
X95529397Y-79127751D01*
X95361343Y-79146685D01*
X95201707Y-79202545D01*
X95064922Y-79288494D01*
X94998950Y-79307500D01*
X93263542Y-79307500D01*
X93196503Y-79287815D01*
X93175861Y-79271181D01*
X92890361Y-78985681D01*
X92856876Y-78924358D01*
X92861860Y-78854666D01*
X92903732Y-78798733D01*
X92969196Y-78774316D01*
X92978042Y-78774000D01*
X95038671Y-78774000D01*
X95123215Y-78757182D01*
X95164344Y-78749001D01*
X95248991Y-78713938D01*
X95296444Y-78704500D01*
X101845700Y-78704500D01*
X101912739Y-78724185D01*
G37*
%TD.AperFunction*%
%TA.AperFunction,Conductor*%
G36*
X84702938Y-84965085D02*
G01*
X84748693Y-85017889D01*
X84759899Y-85069400D01*
X84759900Y-85449590D01*
X84759901Y-87023419D01*
X84759902Y-87332100D01*
X84740218Y-87399139D01*
X84687414Y-87444894D01*
X84635902Y-87456100D01*
X84433196Y-87456100D01*
X84366157Y-87436415D01*
X84328202Y-87398072D01*
X84322725Y-87389356D01*
X84290777Y-87338510D01*
X84171190Y-87218923D01*
X84171184Y-87218918D01*
X84027999Y-87128948D01*
X84021722Y-87125926D01*
X84022309Y-87124705D01*
X83971662Y-87088373D01*
X83945919Y-87023419D01*
X83945398Y-87012081D01*
X83945398Y-85586900D01*
X83945398Y-85586899D01*
X82262989Y-85586899D01*
X82195949Y-85567214D01*
X82150195Y-85514410D01*
X82140251Y-85445252D01*
X82157996Y-85396927D01*
X82247056Y-85255190D01*
X82302913Y-85095559D01*
X82304739Y-85079354D01*
X82307425Y-85055517D01*
X82334491Y-84991103D01*
X82392086Y-84951548D01*
X82430645Y-84945400D01*
X84635899Y-84945400D01*
X84702938Y-84965085D01*
G37*
%TD.AperFunction*%
%TA.AperFunction,Conductor*%
G36*
X78963813Y-67857006D02*
G01*
X78963829Y-67857033D01*
X78989340Y-67899451D01*
X78989354Y-67899472D01*
X79002855Y-67919617D01*
X79002861Y-67919625D01*
X79032431Y-67959382D01*
X79140207Y-68090359D01*
X79141329Y-68091722D01*
X79174610Y-68128352D01*
X79174628Y-68128371D01*
X79190583Y-68144288D01*
X79191809Y-68145511D01*
X79228546Y-68178734D01*
X79361119Y-68287309D01*
X79374170Y-68296969D01*
X79400918Y-68316768D01*
X79400976Y-68316809D01*
X79417106Y-68327565D01*
X79421139Y-68330254D01*
X79463633Y-68355677D01*
X79614809Y-68436342D01*
X79659595Y-68457489D01*
X79682025Y-68466765D01*
X79728679Y-68483432D01*
X79728690Y-68483435D01*
X79728706Y-68483441D01*
X79892656Y-68533097D01*
X79892710Y-68533112D01*
X79940710Y-68545117D01*
X79940715Y-68545118D01*
X79940723Y-68545120D01*
X79964531Y-68549849D01*
X80013540Y-68557108D01*
X80190163Y-68574478D01*
X80214884Y-68576299D01*
X80214900Y-68576299D01*
X80214903Y-68576300D01*
X80216825Y-68576394D01*
X80227020Y-68576894D01*
X80251774Y-68577500D01*
X80251777Y-68577500D01*
X81420761Y-68577500D01*
X81423702Y-68577434D01*
X81443330Y-68576996D01*
X81454382Y-68576502D01*
X81476863Y-68574994D01*
X81616887Y-68541907D01*
X81681905Y-68516326D01*
X81726606Y-68490872D01*
X81806927Y-68445134D01*
X81806927Y-68445133D01*
X81806934Y-68445130D01*
X81828483Y-68422797D01*
X81889196Y-68388224D01*
X81958965Y-68391963D01*
X81998917Y-68415188D01*
X82070902Y-68477564D01*
X82070903Y-68477565D01*
X82070906Y-68477567D01*
X82070908Y-68477568D01*
X82070910Y-68477569D01*
X82192529Y-68533112D01*
X82201783Y-68537338D01*
X82268822Y-68557023D01*
X82268826Y-68557024D01*
X82411242Y-68577500D01*
X82411245Y-68577500D01*
X83575890Y-68577500D01*
X83575907Y-68577500D01*
X83600707Y-68576891D01*
X83612861Y-68576294D01*
X83637610Y-68574469D01*
X83814483Y-68557048D01*
X83863547Y-68549770D01*
X83887388Y-68545028D01*
X83935513Y-68532974D01*
X84099736Y-68483158D01*
X84146455Y-68466441D01*
X84168913Y-68457138D01*
X84213747Y-68435932D01*
X84365089Y-68355038D01*
X84407635Y-68329537D01*
X84427847Y-68316032D01*
X84467696Y-68286479D01*
X84600352Y-68177611D01*
X84637108Y-68144296D01*
X84637109Y-68144295D01*
X84637117Y-68144288D01*
X84654288Y-68127117D01*
X84654295Y-68127109D01*
X84686369Y-68091722D01*
X84687611Y-68090352D01*
X84796479Y-67957696D01*
X84826032Y-67917847D01*
X84839537Y-67897635D01*
X84865038Y-67855089D01*
X84871286Y-67843400D01*
X89771782Y-67843400D01*
X89778178Y-67863085D01*
X89825418Y-68008477D01*
X89825421Y-68008484D01*
X89920067Y-68172416D01*
X90023518Y-68287310D01*
X90046729Y-68313088D01*
X90199865Y-68424348D01*
X90199870Y-68424351D01*
X90372792Y-68501342D01*
X90372797Y-68501344D01*
X90557954Y-68540700D01*
X90581792Y-68540700D01*
X90648831Y-68560385D01*
X90669473Y-68577019D01*
X91152325Y-69059872D01*
X91152328Y-69059875D01*
X91152331Y-69059877D01*
X91202184Y-69093187D01*
X91258873Y-69131065D01*
X91377256Y-69180101D01*
X91377262Y-69180102D01*
X91383088Y-69181870D01*
X91382687Y-69183189D01*
X91438406Y-69212336D01*
X91472980Y-69273052D01*
X91469239Y-69342821D01*
X91428372Y-69399493D01*
X91402739Y-69414846D01*
X91224625Y-69494149D01*
X91101829Y-69583365D01*
X91036022Y-69606844D01*
X90967968Y-69591018D01*
X90936794Y-69566018D01*
X90934334Y-69563286D01*
X90934333Y-69563284D01*
X90807671Y-69422612D01*
X90796982Y-69414846D01*
X90654534Y-69311351D01*
X90654529Y-69311348D01*
X90481607Y-69234357D01*
X90481602Y-69234355D01*
X90335801Y-69203365D01*
X90296446Y-69195000D01*
X90107154Y-69195000D01*
X90074697Y-69201898D01*
X89921997Y-69234355D01*
X89921992Y-69234357D01*
X89749070Y-69311348D01*
X89749065Y-69311351D01*
X89595929Y-69422611D01*
X89469266Y-69563285D01*
X89374621Y-69727215D01*
X89374618Y-69727222D01*
X89316127Y-69907240D01*
X89316126Y-69907244D01*
X89296340Y-70095500D01*
X89316126Y-70283756D01*
X89316127Y-70283759D01*
X89374618Y-70463777D01*
X89374621Y-70463784D01*
X89469267Y-70627716D01*
X89525926Y-70690642D01*
X89595929Y-70768388D01*
X89749065Y-70879648D01*
X89749070Y-70879651D01*
X89921992Y-70956642D01*
X89921997Y-70956644D01*
X90107154Y-70996000D01*
X90130992Y-70996000D01*
X90198031Y-71015685D01*
X90218673Y-71032319D01*
X90289573Y-71103219D01*
X90323058Y-71164542D01*
X90318074Y-71234234D01*
X90276202Y-71290167D01*
X90210738Y-71314584D01*
X90201892Y-71314900D01*
X90085834Y-71314900D01*
X89939463Y-71354119D01*
X89808235Y-71429885D01*
X89808232Y-71429887D01*
X88685087Y-72553032D01*
X88685085Y-72553035D01*
X88609319Y-72684263D01*
X88570100Y-72830634D01*
X88570100Y-73239900D01*
X88550415Y-73306939D01*
X88497611Y-73352694D01*
X88446100Y-73363900D01*
X88068096Y-73363900D01*
X87921726Y-73403119D01*
X87790498Y-73478885D01*
X87790495Y-73478887D01*
X87715149Y-73554234D01*
X87683348Y-73586035D01*
X87683346Y-73586037D01*
X87590497Y-73678886D01*
X87554326Y-73715057D01*
X87493003Y-73748541D01*
X87423311Y-73743557D01*
X87367378Y-73701685D01*
X87353854Y-73678893D01*
X87318248Y-73600927D01*
X87280629Y-73554244D01*
X87280624Y-73554239D01*
X87280620Y-73554234D01*
X86081563Y-72355179D01*
X86081556Y-72355172D01*
X86034873Y-72317552D01*
X86034871Y-72317551D01*
X86034869Y-72317549D01*
X85903959Y-72257764D01*
X85903955Y-72257763D01*
X85761500Y-72237283D01*
X85619044Y-72257763D01*
X85619040Y-72257764D01*
X85488129Y-72317550D01*
X85441434Y-72355179D01*
X84242379Y-73554236D01*
X84242373Y-73554243D01*
X84204751Y-73600928D01*
X84204749Y-73600930D01*
X84144964Y-73731840D01*
X84144963Y-73731844D01*
X84124483Y-73874300D01*
X84144963Y-74016755D01*
X84144964Y-74016759D01*
X84204750Y-74147670D01*
X84204751Y-74147671D01*
X84204752Y-74147673D01*
X84242371Y-74194356D01*
X84242374Y-74194359D01*
X84242379Y-74194365D01*
X84466434Y-74418419D01*
X84499919Y-74479742D01*
X84494935Y-74549433D01*
X84453064Y-74605367D01*
X84387599Y-74629784D01*
X84378753Y-74630100D01*
X83741267Y-74630100D01*
X83589734Y-74630100D01*
X83443365Y-74669319D01*
X83443363Y-74669319D01*
X83435514Y-74671423D01*
X83434844Y-74668925D01*
X83378149Y-74675006D01*
X83334226Y-74657976D01*
X83226592Y-74590345D01*
X83226591Y-74590344D01*
X83226590Y-74590344D01*
X83188270Y-74576935D01*
X83066956Y-74534485D01*
X82898903Y-74515551D01*
X82898897Y-74515551D01*
X82730843Y-74534485D01*
X82571205Y-74590345D01*
X82571202Y-74590347D01*
X82428015Y-74680318D01*
X82428009Y-74680323D01*
X82308423Y-74799909D01*
X82308418Y-74799915D01*
X82218447Y-74943102D01*
X82218444Y-74943107D01*
X82162585Y-75102746D01*
X82155955Y-75161595D01*
X82128888Y-75226009D01*
X82120415Y-75235393D01*
X78978339Y-78377379D01*
X78978335Y-78377385D01*
X78959071Y-78396649D01*
X78871194Y-78484523D01*
X78871188Y-78484530D01*
X78871186Y-78484533D01*
X78848779Y-78523343D01*
X78795419Y-78615762D01*
X78779704Y-78674417D01*
X78779703Y-78674419D01*
X78756208Y-78762097D01*
X78756205Y-78762109D01*
X78756201Y-78762125D01*
X78756200Y-78762130D01*
X78756200Y-78762132D01*
X78756200Y-78818755D01*
X78756199Y-78923646D01*
X78756200Y-78923659D01*
X78756200Y-81852393D01*
X78747717Y-81897468D01*
X78733354Y-81934274D01*
X78733351Y-81934284D01*
X78682320Y-82177661D01*
X78682319Y-82177664D01*
X78675901Y-82281049D01*
X78675901Y-83196750D01*
X78682320Y-83300133D01*
X78682320Y-83300137D01*
X78733351Y-83543515D01*
X78733354Y-83543525D01*
X78823743Y-83775169D01*
X78823745Y-83775173D01*
X78951035Y-83988794D01*
X78951040Y-83988802D01*
X79111749Y-84178549D01*
X79111751Y-84178551D01*
X79299241Y-84337348D01*
X79337676Y-84395696D01*
X79338463Y-84465562D01*
X79320097Y-84501392D01*
X79320927Y-84501914D01*
X79227247Y-84651002D01*
X79227245Y-84651005D01*
X79171385Y-84810643D01*
X79152451Y-84978697D01*
X79152451Y-84978702D01*
X79171385Y-85146756D01*
X79227245Y-85306392D01*
X79284132Y-85396927D01*
X79303132Y-85464164D01*
X79282764Y-85530999D01*
X79229496Y-85576213D01*
X79179138Y-85586899D01*
X77707266Y-85586898D01*
X77640226Y-85567213D01*
X77594472Y-85514409D01*
X77583267Y-85462805D01*
X77591058Y-75466934D01*
X78234575Y-75466934D01*
X78275595Y-75673150D01*
X78275598Y-75673160D01*
X78356057Y-75867408D01*
X78356064Y-75867421D01*
X78472877Y-76042242D01*
X78472880Y-76042246D01*
X78621553Y-76190919D01*
X78621557Y-76190922D01*
X78796378Y-76307735D01*
X78796391Y-76307742D01*
X78944148Y-76368944D01*
X78990644Y-76388203D01*
X78990648Y-76388203D01*
X78990649Y-76388204D01*
X79196865Y-76429224D01*
X79407132Y-76429224D01*
X79407134Y-76429224D01*
X79550575Y-76400691D01*
X79613356Y-76388203D01*
X79763595Y-76325972D01*
X79807608Y-76307742D01*
X79807608Y-76307741D01*
X79807615Y-76307739D01*
X79982443Y-76190922D01*
X80131122Y-76042243D01*
X80247939Y-75867415D01*
X80328403Y-75673156D01*
X80369424Y-75466932D01*
X80372000Y-75361800D01*
X80369424Y-75256668D01*
X80328403Y-75050444D01*
X80283941Y-74943102D01*
X80247942Y-74856191D01*
X80247935Y-74856178D01*
X80131122Y-74681357D01*
X80131119Y-74681353D01*
X79982446Y-74532680D01*
X79982442Y-74532677D01*
X79807621Y-74415864D01*
X79807608Y-74415857D01*
X79613360Y-74335398D01*
X79613350Y-74335395D01*
X79407134Y-74294376D01*
X79407132Y-74294376D01*
X79196868Y-74294376D01*
X79196866Y-74294376D01*
X78990649Y-74335395D01*
X78990639Y-74335398D01*
X78796391Y-74415857D01*
X78796378Y-74415864D01*
X78621557Y-74532677D01*
X78621553Y-74532680D01*
X78472880Y-74681353D01*
X78472877Y-74681357D01*
X78356064Y-74856178D01*
X78356057Y-74856191D01*
X78275598Y-75050439D01*
X78275595Y-75050449D01*
X78234576Y-75256665D01*
X78234576Y-75256668D01*
X78234576Y-75466932D01*
X78234576Y-75466934D01*
X78234575Y-75466934D01*
X77591058Y-75466934D01*
X77593936Y-71774426D01*
X82041247Y-71774426D01*
X82060358Y-71845747D01*
X82060359Y-71845750D01*
X82156491Y-72051908D01*
X82286968Y-72238246D01*
X82447805Y-72399083D01*
X82634143Y-72529560D01*
X82840302Y-72625693D01*
X82911626Y-72644803D01*
X82911626Y-72644802D01*
X83661626Y-72644802D01*
X83732949Y-72625693D01*
X83732950Y-72625693D01*
X83939108Y-72529560D01*
X84125446Y-72399083D01*
X84286283Y-72238246D01*
X84416760Y-72051908D01*
X84512892Y-71845750D01*
X84512893Y-71845747D01*
X84532005Y-71774426D01*
X83661626Y-71774426D01*
X83661626Y-72644802D01*
X82911626Y-72644802D01*
X82911626Y-71774426D01*
X82041247Y-71774426D01*
X77593936Y-71774426D01*
X77594270Y-71346765D01*
X82886626Y-71346765D01*
X82886626Y-71452087D01*
X82913885Y-71553820D01*
X82966546Y-71645032D01*
X83041020Y-71719506D01*
X83132232Y-71772167D01*
X83233965Y-71799426D01*
X83339287Y-71799426D01*
X83441020Y-71772167D01*
X83532232Y-71719506D01*
X83606706Y-71645032D01*
X83659367Y-71553820D01*
X83686626Y-71452087D01*
X83686626Y-71346765D01*
X83659367Y-71245032D01*
X83606706Y-71153820D01*
X83532232Y-71079346D01*
X83441020Y-71026685D01*
X83432589Y-71024426D01*
X83661626Y-71024426D01*
X84532005Y-71024426D01*
X84532005Y-71024425D01*
X84512893Y-70953104D01*
X84512892Y-70953101D01*
X84416760Y-70746943D01*
X84286283Y-70560605D01*
X84125446Y-70399768D01*
X83939108Y-70269291D01*
X83732950Y-70173159D01*
X83732947Y-70173158D01*
X83661626Y-70154046D01*
X83661626Y-71024426D01*
X83432589Y-71024426D01*
X83339287Y-70999426D01*
X83233965Y-70999426D01*
X83132232Y-71026685D01*
X83041020Y-71079346D01*
X82966546Y-71153820D01*
X82913885Y-71245032D01*
X82886626Y-71346765D01*
X77594270Y-71346765D01*
X77594521Y-71024425D01*
X82041246Y-71024425D01*
X82041247Y-71024426D01*
X82911626Y-71024426D01*
X82911626Y-70154047D01*
X82911625Y-70154046D01*
X82840304Y-70173158D01*
X82840301Y-70173159D01*
X82634143Y-70269291D01*
X82447805Y-70399768D01*
X82286968Y-70560605D01*
X82156491Y-70746943D01*
X82060359Y-70953101D01*
X82060358Y-70953104D01*
X82041246Y-71024425D01*
X77594521Y-71024425D01*
X77597000Y-67843400D01*
X78956513Y-67843400D01*
X78963813Y-67857006D01*
G37*
%TD.AperFunction*%
%TA.AperFunction,Conductor*%
G36*
X85321352Y-76130085D02*
G01*
X85367107Y-76182889D01*
X85377051Y-76252047D01*
X85348935Y-76314541D01*
X85226840Y-76458697D01*
X85226836Y-76458703D01*
X85226834Y-76458706D01*
X85149235Y-76588935D01*
X85099542Y-76672330D01*
X85009153Y-76903974D01*
X85009150Y-76903984D01*
X84958119Y-77147361D01*
X84958118Y-77147364D01*
X84951700Y-77250749D01*
X84951700Y-77260100D01*
X84932015Y-77327139D01*
X84879211Y-77372894D01*
X84827700Y-77384100D01*
X83216729Y-77384100D01*
X83091061Y-77409097D01*
X83091055Y-77409099D01*
X83045529Y-77427957D01*
X83045528Y-77427957D01*
X82972681Y-77458130D01*
X82972663Y-77458140D01*
X82866132Y-77529321D01*
X82866125Y-77529327D01*
X81256173Y-79139281D01*
X81194850Y-79172766D01*
X81168492Y-79175600D01*
X80992175Y-79175600D01*
X80925136Y-79155915D01*
X80919305Y-79151929D01*
X80813044Y-79074726D01*
X80770380Y-79019397D01*
X80764401Y-78949784D01*
X80797007Y-78887989D01*
X80798180Y-78886798D01*
X82989785Y-76695193D01*
X83051106Y-76661710D01*
X83120798Y-76666694D01*
X83143436Y-76677882D01*
X83243727Y-76740900D01*
X83263707Y-76753454D01*
X83263705Y-76753454D01*
X83263709Y-76753455D01*
X83263710Y-76753456D01*
X83314937Y-76771381D01*
X83423343Y-76809314D01*
X83591397Y-76828249D01*
X83591400Y-76828249D01*
X83591403Y-76828249D01*
X83759456Y-76809314D01*
X83759459Y-76809313D01*
X83919090Y-76753456D01*
X83919092Y-76753454D01*
X83919094Y-76753454D01*
X83919097Y-76753452D01*
X84062284Y-76663481D01*
X84062285Y-76663480D01*
X84062290Y-76663477D01*
X84181877Y-76543890D01*
X84181881Y-76543884D01*
X84271852Y-76400697D01*
X84271855Y-76400691D01*
X84271856Y-76400690D01*
X84327713Y-76241059D01*
X84328531Y-76233797D01*
X84330028Y-76220517D01*
X84357094Y-76156103D01*
X84414688Y-76116548D01*
X84453248Y-76110400D01*
X85254313Y-76110400D01*
X85321352Y-76130085D01*
G37*
%TD.AperFunction*%
%TA.AperFunction,Conductor*%
G36*
X89886052Y-73206394D02*
G01*
X89898192Y-73210642D01*
X90028139Y-73256113D01*
X90196197Y-73275049D01*
X90196200Y-73275049D01*
X90196203Y-73275049D01*
X90364259Y-73256113D01*
X90364261Y-73256113D01*
X90415285Y-73238259D01*
X90456240Y-73231300D01*
X97253639Y-73231300D01*
X97253651Y-73231300D01*
X97329406Y-73231308D01*
X97329408Y-73231307D01*
X97336188Y-73231308D01*
X97403226Y-73250999D01*
X97448975Y-73303807D01*
X97460176Y-73355308D01*
X97460176Y-73434932D01*
X97460176Y-73434934D01*
X97460175Y-73434934D01*
X97501195Y-73641150D01*
X97501198Y-73641160D01*
X97581657Y-73835408D01*
X97581664Y-73835421D01*
X97698477Y-74010242D01*
X97698480Y-74010246D01*
X97847153Y-74158919D01*
X97847157Y-74158922D01*
X98021978Y-74275735D01*
X98021991Y-74275742D01*
X98216239Y-74356201D01*
X98216244Y-74356203D01*
X98216248Y-74356203D01*
X98216249Y-74356204D01*
X98422465Y-74397224D01*
X98632732Y-74397224D01*
X98632734Y-74397224D01*
X98771472Y-74369626D01*
X98838956Y-74356203D01*
X99033215Y-74275739D01*
X99208043Y-74158922D01*
X99277966Y-74088999D01*
X99361030Y-74005936D01*
X99361872Y-74006778D01*
X99414379Y-73971004D01*
X99484223Y-73969126D01*
X99543996Y-74005306D01*
X99574719Y-74068058D01*
X99576500Y-74088999D01*
X99576500Y-76077116D01*
X99556815Y-76144155D01*
X99540194Y-76164785D01*
X99434093Y-76270916D01*
X99372774Y-76304409D01*
X99360286Y-76306467D01*
X99301541Y-76313087D01*
X99141907Y-76368944D01*
X99141902Y-76368947D01*
X98998715Y-76458918D01*
X98998709Y-76458923D01*
X98879123Y-76578509D01*
X98879118Y-76578515D01*
X98789147Y-76721702D01*
X98789145Y-76721705D01*
X98733285Y-76881343D01*
X98714351Y-77049397D01*
X98714351Y-77049402D01*
X98733286Y-77217459D01*
X98740665Y-77238547D01*
X98744226Y-77308325D01*
X98709497Y-77368952D01*
X98647503Y-77401179D01*
X98623623Y-77403500D01*
X94980029Y-77403500D01*
X94857083Y-77427956D01*
X94854365Y-77428496D01*
X94854352Y-77428500D01*
X94769708Y-77463561D01*
X94722256Y-77473000D01*
X92879417Y-77473000D01*
X92812378Y-77453315D01*
X92766623Y-77400511D01*
X92761486Y-77387318D01*
X92724381Y-77273122D01*
X92724380Y-77273121D01*
X92724379Y-77273116D01*
X92629733Y-77109184D01*
X92503071Y-76968512D01*
X92503070Y-76968511D01*
X92349934Y-76857251D01*
X92349929Y-76857248D01*
X92177007Y-76780257D01*
X92177002Y-76780255D01*
X92031201Y-76749265D01*
X91991846Y-76740900D01*
X91802554Y-76740900D01*
X91770097Y-76747798D01*
X91617397Y-76780255D01*
X91617392Y-76780257D01*
X91444470Y-76857248D01*
X91444465Y-76857251D01*
X91291329Y-76968511D01*
X91164666Y-77109185D01*
X91070021Y-77273115D01*
X91070018Y-77273122D01*
X91011527Y-77453139D01*
X91011526Y-77453141D01*
X90998220Y-77579732D01*
X90971634Y-77644346D01*
X90940872Y-77671762D01*
X90915057Y-77687983D01*
X90847820Y-77706984D01*
X90824892Y-77704607D01*
X90716771Y-77683100D01*
X90716769Y-77683100D01*
X90076700Y-77683100D01*
X90009661Y-77663415D01*
X89963906Y-77610611D01*
X89952700Y-77559100D01*
X89952700Y-77250768D01*
X89952700Y-77250758D01*
X89946281Y-77147363D01*
X89895250Y-76903986D01*
X89895248Y-76903981D01*
X89895246Y-76903974D01*
X89804857Y-76672330D01*
X89804856Y-76672327D01*
X89677566Y-76458706D01*
X89677560Y-76458699D01*
X89677559Y-76458697D01*
X89555465Y-76314541D01*
X89527158Y-76250662D01*
X89537880Y-76181620D01*
X89584228Y-76129336D01*
X89650087Y-76110400D01*
X96338071Y-76110400D01*
X96405110Y-76130085D01*
X96419081Y-76141343D01*
X96419167Y-76141236D01*
X96424615Y-76145581D01*
X96567802Y-76235552D01*
X96567805Y-76235554D01*
X96567809Y-76235555D01*
X96567810Y-76235556D01*
X96583537Y-76241059D01*
X96727443Y-76291414D01*
X96895497Y-76310349D01*
X96895500Y-76310349D01*
X96895503Y-76310349D01*
X97063556Y-76291414D01*
X97122136Y-76270916D01*
X97223190Y-76235556D01*
X97223192Y-76235554D01*
X97223194Y-76235554D01*
X97223197Y-76235552D01*
X97366384Y-76145581D01*
X97366385Y-76145580D01*
X97366390Y-76145577D01*
X97485977Y-76025990D01*
X97485981Y-76025984D01*
X97575952Y-75882797D01*
X97575954Y-75882794D01*
X97575954Y-75882792D01*
X97575956Y-75882790D01*
X97631813Y-75723159D01*
X97631813Y-75723158D01*
X97631814Y-75723156D01*
X97650749Y-75555102D01*
X97650749Y-75555097D01*
X97631814Y-75387043D01*
X97575954Y-75227405D01*
X97575952Y-75227402D01*
X97485981Y-75084215D01*
X97485976Y-75084209D01*
X97366390Y-74964623D01*
X97366384Y-74964618D01*
X97223197Y-74874647D01*
X97223194Y-74874645D01*
X97063556Y-74818785D01*
X96895503Y-74799851D01*
X96895497Y-74799851D01*
X96727443Y-74818785D01*
X96567807Y-74874645D01*
X96476985Y-74931712D01*
X96464251Y-74939715D01*
X96463170Y-74940394D01*
X96397198Y-74959400D01*
X88237104Y-74959400D01*
X88170065Y-74939715D01*
X88124310Y-74886911D01*
X88114366Y-74817753D01*
X88143391Y-74754197D01*
X88149423Y-74747719D01*
X88345923Y-74551219D01*
X88407246Y-74517734D01*
X88433604Y-74514900D01*
X89102764Y-74514900D01*
X89102766Y-74514900D01*
X89249135Y-74475681D01*
X89380365Y-74399915D01*
X89606115Y-74174165D01*
X89681881Y-74042935D01*
X89721100Y-73896566D01*
X89721100Y-73745033D01*
X89721100Y-73323436D01*
X89740785Y-73256397D01*
X89793589Y-73210642D01*
X89862747Y-73200698D01*
X89886052Y-73206394D01*
G37*
%TD.AperFunction*%
%TA.AperFunction,Conductor*%
G36*
X99547937Y-67992308D02*
G01*
X99672614Y-68183142D01*
X99672617Y-68183145D01*
X99807380Y-68329537D01*
X99827008Y-68350858D01*
X99827012Y-68350861D01*
X100006890Y-68490866D01*
X100006894Y-68490869D01*
X100006896Y-68490870D01*
X100006899Y-68490872D01*
X100053936Y-68516327D01*
X100207374Y-68599363D01*
X100319329Y-68637797D01*
X100422973Y-68673379D01*
X100422975Y-68673379D01*
X100422977Y-68673380D01*
X100647823Y-68710900D01*
X100647824Y-68710900D01*
X100875776Y-68710900D01*
X100875777Y-68710900D01*
X101100623Y-68673380D01*
X101316226Y-68599363D01*
X101516706Y-68490869D01*
X101696594Y-68350856D01*
X101850983Y-68183145D01*
X101975662Y-67992309D01*
X102040980Y-67843400D01*
X106883603Y-67843400D01*
X107038600Y-67843400D01*
X107105639Y-67863085D01*
X107151394Y-67915889D01*
X107162600Y-67967400D01*
X107162600Y-70803172D01*
X107162595Y-70804236D01*
X107111541Y-76754333D01*
X107091282Y-76821201D01*
X107038088Y-76866501D01*
X106968847Y-76875851D01*
X106905542Y-76846282D01*
X106872029Y-76798344D01*
X106822857Y-76672330D01*
X106822856Y-76672327D01*
X106695566Y-76458706D01*
X106695563Y-76458703D01*
X106695560Y-76458697D01*
X106534851Y-76268950D01*
X106534849Y-76268948D01*
X106345102Y-76108239D01*
X106234346Y-76042243D01*
X106131473Y-75980944D01*
X106131471Y-75980943D01*
X106131469Y-75980942D01*
X105899825Y-75890553D01*
X105899815Y-75890550D01*
X105656438Y-75839519D01*
X105656435Y-75839518D01*
X105553050Y-75833100D01*
X105553042Y-75833100D01*
X103387358Y-75833100D01*
X103387349Y-75833100D01*
X103283964Y-75839518D01*
X103283961Y-75839519D01*
X103040584Y-75890550D01*
X103040574Y-75890553D01*
X102808930Y-75980942D01*
X102595297Y-76108239D01*
X102405550Y-76268948D01*
X102405548Y-76268950D01*
X102244839Y-76458697D01*
X102117542Y-76672330D01*
X102027153Y-76903974D01*
X102027150Y-76903984D01*
X101976119Y-77147361D01*
X101976118Y-77147364D01*
X101969700Y-77250749D01*
X101969700Y-77279500D01*
X101950015Y-77346539D01*
X101897211Y-77392294D01*
X101845700Y-77403500D01*
X100315576Y-77403500D01*
X100248537Y-77383815D01*
X100202782Y-77331011D01*
X100192838Y-77261853D01*
X100198535Y-77238544D01*
X100205913Y-77217459D01*
X100212559Y-77158468D01*
X100239624Y-77094057D01*
X100248066Y-77084704D01*
X100561298Y-76771381D01*
X100612445Y-76720234D01*
X100612547Y-76720134D01*
X100612617Y-76720010D01*
X100651472Y-76652688D01*
X100687952Y-76589505D01*
X100688311Y-76588895D01*
X100688312Y-76588893D01*
X100688497Y-76588171D01*
X100708185Y-76514650D01*
X100727500Y-76442566D01*
X100727500Y-76442559D01*
X100727508Y-76442491D01*
X100727511Y-76442482D01*
X100727500Y-76366715D01*
X100727500Y-72414480D01*
X100727532Y-72339880D01*
X100727530Y-72339875D01*
X100727500Y-72339640D01*
X100727500Y-72339634D01*
X100707796Y-72266097D01*
X100688376Y-72193495D01*
X100688371Y-72193487D01*
X100688323Y-72193369D01*
X100688282Y-72193271D01*
X100688281Y-72193265D01*
X100682045Y-72182464D01*
X100650253Y-72127399D01*
X100650263Y-72127393D01*
X100650227Y-72127355D01*
X100612666Y-72062232D01*
X100612664Y-72062230D01*
X100612663Y-72062228D01*
X100612514Y-72062034D01*
X100559156Y-72008676D01*
X100559129Y-72008628D01*
X100559119Y-72008639D01*
X100385641Y-71835012D01*
X100385282Y-71834602D01*
X100326346Y-71775666D01*
X100326320Y-71775618D01*
X100326310Y-71775629D01*
X100272764Y-71722038D01*
X100272567Y-71721887D01*
X100272565Y-71721885D01*
X100207256Y-71684179D01*
X100141565Y-71646214D01*
X100141338Y-71646119D01*
X100068475Y-71626596D01*
X100068476Y-71626588D01*
X100068424Y-71626582D01*
X99995199Y-71606928D01*
X99994984Y-71606900D01*
X99994966Y-71606900D01*
X99919448Y-71606900D01*
X99919385Y-71606899D01*
X99835865Y-71606863D01*
X99835303Y-71606900D01*
X97727261Y-71606900D01*
X97651488Y-71606891D01*
X97644247Y-71607840D01*
X97644214Y-71607847D01*
X97644134Y-71607858D01*
X97644125Y-71607856D01*
X97643474Y-71607942D01*
X97643449Y-71607755D01*
X97575038Y-71597489D01*
X97539562Y-71572695D01*
X97507190Y-71540323D01*
X97507184Y-71540318D01*
X97363997Y-71450347D01*
X97363992Y-71450344D01*
X97204353Y-71394485D01*
X97085437Y-71381086D01*
X97037326Y-71365255D01*
X97018041Y-71354122D01*
X97018037Y-71354120D01*
X97018035Y-71354119D01*
X96871666Y-71314900D01*
X96871665Y-71314900D01*
X96252838Y-71314900D01*
X96185799Y-71295215D01*
X96140044Y-71242411D01*
X96130100Y-71173253D01*
X96159125Y-71109697D01*
X96202402Y-71077621D01*
X96232846Y-71064065D01*
X96286930Y-71039986D01*
X96438290Y-70930017D01*
X96504096Y-70906537D01*
X96511175Y-70906335D01*
X97003236Y-70906335D01*
X97087780Y-70889517D01*
X97128909Y-70881336D01*
X97247292Y-70832300D01*
X97279893Y-70810517D01*
X97353834Y-70761112D01*
X97353837Y-70761109D01*
X97357451Y-70758144D01*
X97421762Y-70730833D01*
X97436112Y-70730000D01*
X97460144Y-70730000D01*
X97460146Y-70730000D01*
X97645303Y-70690644D01*
X97818230Y-70613651D01*
X97971371Y-70502388D01*
X98098033Y-70361716D01*
X98192679Y-70197784D01*
X98251174Y-70017756D01*
X98270960Y-69829500D01*
X98251174Y-69641244D01*
X98192679Y-69461216D01*
X98098033Y-69297284D01*
X97971371Y-69156612D01*
X97971370Y-69156611D01*
X97818234Y-69045351D01*
X97818232Y-69045350D01*
X97743342Y-69012006D01*
X97690106Y-68966755D01*
X97669785Y-68899906D01*
X97688831Y-68832682D01*
X97706094Y-68811050D01*
X98673745Y-67843400D01*
X99482620Y-67843400D01*
X99547937Y-67992308D01*
G37*
%TD.AperFunction*%
%TA.AperFunction,Conductor*%
G36*
X95463892Y-69224785D02*
G01*
X95509647Y-69277589D01*
X95519591Y-69346747D01*
X95490566Y-69410303D01*
X95447289Y-69442379D01*
X95381470Y-69471683D01*
X95381465Y-69471686D01*
X95228329Y-69582946D01*
X95101666Y-69723620D01*
X95007021Y-69887550D01*
X95007018Y-69887557D01*
X94948527Y-70067574D01*
X94948526Y-70067576D01*
X94935031Y-70195977D01*
X94908446Y-70260592D01*
X94899392Y-70270696D01*
X94816758Y-70353331D01*
X94755435Y-70386816D01*
X94729076Y-70389650D01*
X92760010Y-70389650D01*
X92692971Y-70369965D01*
X92672329Y-70353331D01*
X92612162Y-70293164D01*
X92578677Y-70231841D01*
X92576522Y-70218443D01*
X92563028Y-70090046D01*
X92555726Y-70067574D01*
X92504533Y-69910017D01*
X92409887Y-69746085D01*
X92283225Y-69605413D01*
X92263412Y-69591018D01*
X92130088Y-69494152D01*
X92130083Y-69494149D01*
X92013807Y-69442379D01*
X91960570Y-69397129D01*
X91940249Y-69330279D01*
X91959295Y-69263056D01*
X92011661Y-69216801D01*
X92064243Y-69205100D01*
X95396853Y-69205100D01*
X95463892Y-69224785D01*
G37*
%TD.AperFunction*%
%TA.AperFunction,Conductor*%
G36*
X96809473Y-67867781D02*
G01*
X96748150Y-67901266D01*
X96721792Y-67904100D01*
X94503608Y-67904100D01*
X94436569Y-67884415D01*
X94401029Y-67843400D01*
X96833854Y-67843400D01*
X96809473Y-67867781D01*
G37*
%TD.AperFunction*%
%TD*%
%TA.AperFunction,Conductor*%
%TO.N,+24V*%
G36*
X93727435Y-57099793D02*
G01*
X93903786Y-57117108D01*
X93927550Y-57121821D01*
X94091319Y-57171338D01*
X94113708Y-57180580D01*
X94248366Y-57252297D01*
X94264722Y-57261008D01*
X94284890Y-57274431D01*
X94417377Y-57382695D01*
X94434548Y-57399784D01*
X94543445Y-57531745D01*
X94556969Y-57551855D01*
X94638114Y-57702467D01*
X94647469Y-57724823D01*
X94697771Y-57888347D01*
X94702599Y-57912094D01*
X94720762Y-58088348D01*
X94721414Y-58100463D01*
X94728749Y-59626268D01*
X94709387Y-59693401D01*
X94656803Y-59739409D01*
X94587693Y-59749685D01*
X94523999Y-59720966D01*
X94487331Y-59666722D01*
X94462084Y-59592349D01*
X94462074Y-59592323D01*
X94328732Y-59321933D01*
X94203227Y-59134101D01*
X94203227Y-59134100D01*
X93440977Y-59896351D01*
X93401696Y-59819257D01*
X93286046Y-59660080D01*
X93146920Y-59520954D01*
X92987743Y-59405304D01*
X92910647Y-59366022D01*
X93672897Y-58603771D01*
X93672897Y-58603769D01*
X93485072Y-58478270D01*
X93214662Y-58344918D01*
X93214652Y-58344914D01*
X92929173Y-58248007D01*
X92929153Y-58248002D01*
X92633464Y-58189186D01*
X92633452Y-58189184D01*
X92332600Y-58169465D01*
X92031747Y-58189184D01*
X92031735Y-58189186D01*
X91736046Y-58248002D01*
X91736031Y-58248006D01*
X91450544Y-58344916D01*
X91450523Y-58344925D01*
X91180133Y-58478267D01*
X90992301Y-58603771D01*
X90992300Y-58603771D01*
X91754552Y-59366022D01*
X91677457Y-59405304D01*
X91518280Y-59520954D01*
X91379154Y-59660080D01*
X91263504Y-59819257D01*
X91224222Y-59896351D01*
X90461971Y-59134100D01*
X90461971Y-59134101D01*
X90336467Y-59321933D01*
X90203125Y-59592323D01*
X90203116Y-59592344D01*
X90106206Y-59877831D01*
X90106202Y-59877846D01*
X90047386Y-60173535D01*
X90047384Y-60173547D01*
X90027665Y-60474400D01*
X90047384Y-60775252D01*
X90047386Y-60775264D01*
X90106202Y-61070953D01*
X90106207Y-61070973D01*
X90203114Y-61356452D01*
X90203118Y-61356462D01*
X90336470Y-61626872D01*
X90461969Y-61814697D01*
X90461971Y-61814697D01*
X91224222Y-61052447D01*
X91263504Y-61129543D01*
X91379154Y-61288720D01*
X91518280Y-61427846D01*
X91677457Y-61543496D01*
X91754551Y-61582777D01*
X90991247Y-62346081D01*
X90929924Y-62379566D01*
X90903566Y-62382400D01*
X84582000Y-62382400D01*
X84582000Y-63382400D01*
X84582000Y-63382403D01*
X84582000Y-67065907D01*
X84581403Y-67078061D01*
X84563982Y-67254934D01*
X84559240Y-67278775D01*
X84509424Y-67442998D01*
X84500121Y-67465456D01*
X84419227Y-67616798D01*
X84405722Y-67637010D01*
X84296854Y-67769666D01*
X84279666Y-67786854D01*
X84147010Y-67895722D01*
X84126798Y-67909227D01*
X83975456Y-67990121D01*
X83952998Y-67999424D01*
X83788775Y-68049240D01*
X83764934Y-68053982D01*
X83588061Y-68071403D01*
X83575907Y-68072000D01*
X82411242Y-68072000D01*
X82344203Y-68052315D01*
X82298448Y-67999511D01*
X82288504Y-67930353D01*
X82317529Y-67866797D01*
X82376307Y-67829023D01*
X82387051Y-67826383D01*
X82499584Y-67803998D01*
X82499599Y-67803994D01*
X82778888Y-67709187D01*
X83043410Y-67578740D01*
X83220249Y-67460579D01*
X82268098Y-66508428D01*
X82365994Y-66467879D01*
X82521590Y-66363913D01*
X82653913Y-66231590D01*
X82757879Y-66075994D01*
X82798428Y-65978098D01*
X83750579Y-66930249D01*
X83868740Y-66753410D01*
X83999187Y-66488888D01*
X84093994Y-66209599D01*
X84093998Y-66209584D01*
X84151535Y-65920324D01*
X84151537Y-65920312D01*
X84170827Y-65626000D01*
X84151537Y-65331687D01*
X84151535Y-65331675D01*
X84093998Y-65042415D01*
X84093994Y-65042400D01*
X83999187Y-64763111D01*
X83868740Y-64498589D01*
X83750579Y-64321749D01*
X82798428Y-65273900D01*
X82757879Y-65176006D01*
X82653913Y-65020410D01*
X82521590Y-64888087D01*
X82365994Y-64784121D01*
X82268098Y-64743571D01*
X83220249Y-63791419D01*
X83043410Y-63673259D01*
X82778888Y-63542812D01*
X82499599Y-63448005D01*
X82499584Y-63448001D01*
X82210324Y-63390464D01*
X82210312Y-63390462D01*
X81916000Y-63371172D01*
X81621687Y-63390462D01*
X81621675Y-63390464D01*
X81332415Y-63448001D01*
X81332400Y-63448005D01*
X81053111Y-63542812D01*
X80788585Y-63673262D01*
X80611750Y-63791420D01*
X81563901Y-64743571D01*
X81466006Y-64784121D01*
X81310410Y-64888087D01*
X81178087Y-65020410D01*
X81074121Y-65176006D01*
X81033571Y-65273901D01*
X80081420Y-64321750D01*
X79963262Y-64498585D01*
X79832812Y-64763111D01*
X79738005Y-65042400D01*
X79738001Y-65042415D01*
X79680464Y-65331675D01*
X79680462Y-65331687D01*
X79661172Y-65626000D01*
X79680462Y-65920312D01*
X79680464Y-65920324D01*
X79738001Y-66209584D01*
X79738005Y-66209599D01*
X79832812Y-66488888D01*
X79963259Y-66753410D01*
X80081419Y-66930249D01*
X81033570Y-65978097D01*
X81074121Y-66075994D01*
X81178087Y-66231590D01*
X81310410Y-66363913D01*
X81466006Y-66467879D01*
X81563901Y-66508428D01*
X80611749Y-67460579D01*
X80788589Y-67578740D01*
X81053111Y-67709187D01*
X81332400Y-67803994D01*
X81332415Y-67803998D01*
X81444949Y-67826383D01*
X81506860Y-67858768D01*
X81541434Y-67919484D01*
X81537695Y-67989253D01*
X81496828Y-68045925D01*
X81431810Y-68071506D01*
X81420758Y-68072000D01*
X80251774Y-68072000D01*
X80239638Y-68071405D01*
X80063015Y-68054035D01*
X80039207Y-68049306D01*
X79875208Y-67999635D01*
X79852778Y-67990359D01*
X79701602Y-67909694D01*
X79681408Y-67896227D01*
X79548835Y-67787652D01*
X79531652Y-67770509D01*
X79422769Y-67638187D01*
X79409257Y-67618027D01*
X79328238Y-67467030D01*
X79318912Y-67444625D01*
X79318415Y-67442998D01*
X79268861Y-67280736D01*
X79264078Y-67256940D01*
X79263876Y-67254934D01*
X79246299Y-67080355D01*
X79245676Y-67068255D01*
X79224934Y-58107609D01*
X79225505Y-58095439D01*
X79226188Y-58088348D01*
X79242567Y-57918264D01*
X79247265Y-57894392D01*
X79296849Y-57729823D01*
X79306119Y-57707332D01*
X79386897Y-57555627D01*
X79400387Y-57535373D01*
X79509249Y-57402372D01*
X79526434Y-57385147D01*
X79659185Y-57275976D01*
X79679401Y-57262443D01*
X79830926Y-57181309D01*
X79853397Y-57171987D01*
X80017842Y-57122025D01*
X80041713Y-57117270D01*
X80218844Y-57099798D01*
X80231016Y-57099200D01*
X93715318Y-57099200D01*
X93727435Y-57099793D01*
G37*
%TD.AperFunction*%
%TA.AperFunction,Conductor*%
G36*
X94203227Y-61814697D02*
G01*
X94328731Y-61626868D01*
X94462081Y-61356462D01*
X94462081Y-61356461D01*
X94495365Y-61258409D01*
X94535554Y-61201254D01*
X94600263Y-61174900D01*
X94668947Y-61187714D01*
X94719801Y-61235627D01*
X94736784Y-61297670D01*
X94737139Y-61371490D01*
X94736596Y-61383684D01*
X94719923Y-61561165D01*
X94715267Y-61585098D01*
X94665945Y-61750009D01*
X94656696Y-61772570D01*
X94576054Y-61924647D01*
X94562568Y-61944961D01*
X94453727Y-62078317D01*
X94436529Y-62095598D01*
X94303704Y-62205074D01*
X94283454Y-62218657D01*
X94131770Y-62300027D01*
X94109255Y-62309385D01*
X93944579Y-62359501D01*
X93920667Y-62364272D01*
X93771073Y-62379050D01*
X93702423Y-62366052D01*
X93671202Y-62343332D01*
X92910647Y-61582777D01*
X92987743Y-61543496D01*
X93146920Y-61427846D01*
X93286046Y-61288720D01*
X93401696Y-61129543D01*
X93440977Y-61052447D01*
X94203227Y-61814697D01*
G37*
%TD.AperFunction*%
%TD*%
M02*
