%TF.GenerationSoftware,KiCad,Pcbnew,8.0.4*%
%TF.CreationDate,2025-04-14T17:42:23-04:00*%
%TF.ProjectId,Daisy_Board_Stepper,44616973-795f-4426-9f61-72645f537465,rev?*%
%TF.SameCoordinates,Original*%
%TF.FileFunction,Legend,Top*%
%TF.FilePolarity,Positive*%
%FSLAX46Y46*%
G04 Gerber Fmt 4.6, Leading zero omitted, Abs format (unit mm)*
G04 Created by KiCad (PCBNEW 8.0.4) date 2025-04-14 17:42:23*
%MOMM*%
%LPD*%
G01*
G04 APERTURE LIST*
G04 Aperture macros list*
%AMRoundRect*
0 Rectangle with rounded corners*
0 $1 Rounding radius*
0 $2 $3 $4 $5 $6 $7 $8 $9 X,Y pos of 4 corners*
0 Add a 4 corners polygon primitive as box body*
4,1,4,$2,$3,$4,$5,$6,$7,$8,$9,$2,$3,0*
0 Add four circle primitives for the rounded corners*
1,1,$1+$1,$2,$3*
1,1,$1+$1,$4,$5*
1,1,$1+$1,$6,$7*
1,1,$1+$1,$8,$9*
0 Add four rect primitives between the rounded corners*
20,1,$1+$1,$2,$3,$4,$5,0*
20,1,$1+$1,$4,$5,$6,$7,0*
20,1,$1+$1,$6,$7,$8,$9,0*
20,1,$1+$1,$8,$9,$2,$3,0*%
%AMRotRect*
0 Rectangle, with rotation*
0 The origin of the aperture is its center*
0 $1 length*
0 $2 width*
0 $3 Rotation angle, in degrees counterclockwise*
0 Add horizontal line*
21,1,$1,$2,0,0,$3*%
%AMFreePoly0*
4,1,19,0.500000,-0.750000,0.000000,-0.750000,0.000000,-0.744911,-0.071157,-0.744911,-0.207708,-0.704816,-0.327430,-0.627875,-0.420627,-0.520320,-0.479746,-0.390866,-0.500000,-0.250000,-0.500000,0.250000,-0.479746,0.390866,-0.420627,0.520320,-0.327430,0.627875,-0.207708,0.704816,-0.071157,0.744911,0.000000,0.744911,0.000000,0.750000,0.500000,0.750000,0.500000,-0.750000,0.500000,-0.750000,
$1*%
%AMFreePoly1*
4,1,19,0.000000,0.744911,0.071157,0.744911,0.207708,0.704816,0.327430,0.627875,0.420627,0.520320,0.479746,0.390866,0.500000,0.250000,0.500000,-0.250000,0.479746,-0.390866,0.420627,-0.520320,0.327430,-0.627875,0.207708,-0.704816,0.071157,-0.744911,0.000000,-0.744911,0.000000,-0.750000,-0.500000,-0.750000,-0.500000,0.750000,0.000000,0.750000,0.000000,0.744911,0.000000,0.744911,
$1*%
%AMFreePoly2*
4,1,19,0.550000,-0.750000,0.000000,-0.750000,0.000000,-0.744911,-0.071157,-0.744911,-0.207708,-0.704816,-0.327430,-0.627875,-0.420627,-0.520320,-0.479746,-0.390866,-0.500000,-0.250000,-0.500000,0.250000,-0.479746,0.390866,-0.420627,0.520320,-0.327430,0.627875,-0.207708,0.704816,-0.071157,0.744911,0.000000,0.744911,0.000000,0.750000,0.550000,0.750000,0.550000,-0.750000,0.550000,-0.750000,
$1*%
%AMFreePoly3*
4,1,19,0.000000,0.744911,0.071157,0.744911,0.207708,0.704816,0.327430,0.627875,0.420627,0.520320,0.479746,0.390866,0.500000,0.250000,0.500000,-0.250000,0.479746,-0.390866,0.420627,-0.520320,0.327430,-0.627875,0.207708,-0.704816,0.071157,-0.744911,0.000000,-0.744911,0.000000,-0.750000,-0.550000,-0.750000,-0.550000,0.750000,0.000000,0.750000,0.000000,0.744911,0.000000,0.744911,
$1*%
G04 Aperture macros list end*
%ADD10C,0.150000*%
%ADD11C,0.175000*%
%ADD12C,0.100000*%
%ADD13C,0.110000*%
%ADD14C,0.120000*%
%ADD15C,0.254000*%
%ADD16C,0.200000*%
%ADD17C,0.250000*%
%ADD18C,1.400000*%
%ADD19R,3.500000X3.500000*%
%ADD20C,3.500000*%
%ADD21RoundRect,0.135000X-0.185000X0.135000X-0.185000X-0.135000X0.185000X-0.135000X0.185000X0.135000X0*%
%ADD22RoundRect,0.150000X-0.150000X-0.625000X0.150000X-0.625000X0.150000X0.625000X-0.150000X0.625000X0*%
%ADD23RoundRect,0.250000X-0.350000X-0.650000X0.350000X-0.650000X0.350000X0.650000X-0.350000X0.650000X0*%
%ADD24RoundRect,0.135000X0.135000X0.185000X-0.135000X0.185000X-0.135000X-0.185000X0.135000X-0.185000X0*%
%ADD25RoundRect,0.135000X0.185000X-0.135000X0.185000X0.135000X-0.185000X0.135000X-0.185000X-0.135000X0*%
%ADD26R,1.700000X1.700000*%
%ADD27O,1.700000X1.700000*%
%ADD28RoundRect,0.200000X-0.250000X-0.200000X0.250000X-0.200000X0.250000X0.200000X-0.250000X0.200000X0*%
%ADD29R,1.016000X0.758000*%
%ADD30R,0.475000X0.250000*%
%ADD31R,0.250000X0.475000*%
%ADD32RoundRect,0.135000X-0.135000X-0.185000X0.135000X-0.185000X0.135000X0.185000X-0.135000X0.185000X0*%
%ADD33RoundRect,0.150000X-0.625000X0.150000X-0.625000X-0.150000X0.625000X-0.150000X0.625000X0.150000X0*%
%ADD34RoundRect,0.250000X-0.650000X0.350000X-0.650000X-0.350000X0.650000X-0.350000X0.650000X0.350000X0*%
%ADD35RoundRect,0.140000X-0.170000X0.140000X-0.170000X-0.140000X0.170000X-0.140000X0.170000X0.140000X0*%
%ADD36RoundRect,0.218750X-0.218750X-0.256250X0.218750X-0.256250X0.218750X0.256250X-0.218750X0.256250X0*%
%ADD37C,3.600000*%
%ADD38RoundRect,0.200000X0.250000X0.200000X-0.250000X0.200000X-0.250000X-0.200000X0.250000X-0.200000X0*%
%ADD39R,1.500000X0.650000*%
%ADD40RoundRect,0.140000X0.170000X-0.140000X0.170000X0.140000X-0.170000X0.140000X-0.170000X-0.140000X0*%
%ADD41RoundRect,0.140000X-0.140000X-0.170000X0.140000X-0.170000X0.140000X0.170000X-0.140000X0.170000X0*%
%ADD42R,1.750000X1.750000*%
%ADD43C,1.750000*%
%ADD44FreePoly0,90.000000*%
%ADD45FreePoly1,90.000000*%
%ADD46RoundRect,0.140000X0.140000X0.170000X-0.140000X0.170000X-0.140000X-0.170000X0.140000X-0.170000X0*%
%ADD47FreePoly2,270.000000*%
%ADD48R,1.500000X1.000000*%
%ADD49FreePoly3,270.000000*%
%ADD50R,0.800000X0.300000*%
%ADD51R,0.300000X0.800000*%
%ADD52R,3.800000X3.800000*%
%ADD53FreePoly0,180.000000*%
%ADD54FreePoly1,180.000000*%
%ADD55R,1.600000X0.760000*%
%ADD56R,0.700000X0.700000*%
%ADD57RoundRect,0.225000X0.225000X0.375000X-0.225000X0.375000X-0.225000X-0.375000X0.225000X-0.375000X0*%
%ADD58RotRect,1.600000X1.600000X135.000000*%
%ADD59C,1.600000*%
G04 APERTURE END LIST*
D10*
X77978000Y-58521600D02*
X77597000Y-58064400D01*
X106670755Y-94755821D02*
X106455230Y-95150953D01*
X78943200Y-68072000D02*
X78562200Y-68503800D01*
X106878418Y-98559750D02*
G75*
G02*
X103578418Y-98559750I-1650000J0D01*
G01*
X103578418Y-98559750D02*
G75*
G02*
X106878418Y-98559750I1650000J0D01*
G01*
X96850200Y-99364800D02*
G75*
G02*
X95072200Y-99364800I-889000J0D01*
G01*
X95072200Y-99364800D02*
G75*
G02*
X96850200Y-99364800I889000J0D01*
G01*
X78359000Y-58089800D02*
X77978000Y-58521600D01*
X78181200Y-68046600D02*
X78562200Y-68503800D01*
X96850200Y-99364800D02*
X97536000Y-99364800D01*
X78562200Y-65227200D02*
X78562200Y-68503800D01*
X100177600Y-73329800D02*
G75*
G02*
X96877600Y-73329800I-1650000J0D01*
G01*
X96877600Y-73329800D02*
G75*
G02*
X100177600Y-73329800I1650000J0D01*
G01*
X77978000Y-56794400D02*
X77978000Y-58521600D01*
X95961200Y-97739200D02*
X95758000Y-97967800D01*
X106994045Y-96048978D02*
X106670755Y-94755821D01*
X97536000Y-99364800D02*
X97358200Y-99110800D01*
X95961200Y-97739200D02*
X96164400Y-97967800D01*
X80952000Y-75361800D02*
G75*
G02*
X77652000Y-75361800I-1650000J0D01*
G01*
X77652000Y-75361800D02*
G75*
G02*
X80952000Y-75361800I1650000J0D01*
G01*
X78562200Y-68503800D02*
X78181200Y-68046600D01*
X95961200Y-98475800D02*
X95961200Y-97739200D01*
X106670755Y-94755821D02*
X107083848Y-94953387D01*
X97536000Y-99364800D02*
X97358200Y-99593400D01*
D11*
X101943664Y-98076233D02*
X101543664Y-98076233D01*
X101743664Y-98076233D02*
X101743664Y-97376233D01*
X101743664Y-97376233D02*
X101676997Y-97476233D01*
X101676997Y-97476233D02*
X101610331Y-97542900D01*
X101610331Y-97542900D02*
X101543664Y-97576233D01*
X102376998Y-97376233D02*
X102443664Y-97376233D01*
X102443664Y-97376233D02*
X102510331Y-97409566D01*
X102510331Y-97409566D02*
X102543664Y-97442900D01*
X102543664Y-97442900D02*
X102576998Y-97509566D01*
X102576998Y-97509566D02*
X102610331Y-97642900D01*
X102610331Y-97642900D02*
X102610331Y-97809566D01*
X102610331Y-97809566D02*
X102576998Y-97942900D01*
X102576998Y-97942900D02*
X102543664Y-98009566D01*
X102543664Y-98009566D02*
X102510331Y-98042900D01*
X102510331Y-98042900D02*
X102443664Y-98076233D01*
X102443664Y-98076233D02*
X102376998Y-98076233D01*
X102376998Y-98076233D02*
X102310331Y-98042900D01*
X102310331Y-98042900D02*
X102276998Y-98009566D01*
X102276998Y-98009566D02*
X102243664Y-97942900D01*
X102243664Y-97942900D02*
X102210331Y-97809566D01*
X102210331Y-97809566D02*
X102210331Y-97642900D01*
X102210331Y-97642900D02*
X102243664Y-97509566D01*
X102243664Y-97509566D02*
X102276998Y-97442900D01*
X102276998Y-97442900D02*
X102310331Y-97409566D01*
X102310331Y-97409566D02*
X102376998Y-97376233D01*
X102910331Y-98076233D02*
X102910331Y-97376233D01*
X102976998Y-97809566D02*
X103176998Y-98076233D01*
X103176998Y-97609566D02*
X102910331Y-97876233D01*
D10*
X97853741Y-98895019D02*
X98520407Y-99895019D01*
X98520407Y-98895019D02*
X97853741Y-99895019D01*
X91757571Y-68466100D02*
X92900429Y-68466100D01*
X86392190Y-59496180D02*
X86392190Y-60496180D01*
X86392190Y-60496180D02*
X86011238Y-60496180D01*
X86011238Y-60496180D02*
X85916000Y-60448561D01*
X85916000Y-60448561D02*
X85868381Y-60400942D01*
X85868381Y-60400942D02*
X85820762Y-60305704D01*
X85820762Y-60305704D02*
X85820762Y-60162847D01*
X85820762Y-60162847D02*
X85868381Y-60067609D01*
X85868381Y-60067609D02*
X85916000Y-60019990D01*
X85916000Y-60019990D02*
X86011238Y-59972371D01*
X86011238Y-59972371D02*
X86392190Y-59972371D01*
X85249333Y-59496180D02*
X85344571Y-59543800D01*
X85344571Y-59543800D02*
X85392190Y-59591419D01*
X85392190Y-59591419D02*
X85439809Y-59686657D01*
X85439809Y-59686657D02*
X85439809Y-59972371D01*
X85439809Y-59972371D02*
X85392190Y-60067609D01*
X85392190Y-60067609D02*
X85344571Y-60115228D01*
X85344571Y-60115228D02*
X85249333Y-60162847D01*
X85249333Y-60162847D02*
X85106476Y-60162847D01*
X85106476Y-60162847D02*
X85011238Y-60115228D01*
X85011238Y-60115228D02*
X84963619Y-60067609D01*
X84963619Y-60067609D02*
X84916000Y-59972371D01*
X84916000Y-59972371D02*
X84916000Y-59686657D01*
X84916000Y-59686657D02*
X84963619Y-59591419D01*
X84963619Y-59591419D02*
X85011238Y-59543800D01*
X85011238Y-59543800D02*
X85106476Y-59496180D01*
X85106476Y-59496180D02*
X85249333Y-59496180D01*
X84582666Y-60162847D02*
X84392190Y-59496180D01*
X84392190Y-59496180D02*
X84201714Y-59972371D01*
X84201714Y-59972371D02*
X84011238Y-59496180D01*
X84011238Y-59496180D02*
X83820762Y-60162847D01*
X83058857Y-59543800D02*
X83154095Y-59496180D01*
X83154095Y-59496180D02*
X83344571Y-59496180D01*
X83344571Y-59496180D02*
X83439809Y-59543800D01*
X83439809Y-59543800D02*
X83487428Y-59639038D01*
X83487428Y-59639038D02*
X83487428Y-60019990D01*
X83487428Y-60019990D02*
X83439809Y-60115228D01*
X83439809Y-60115228D02*
X83344571Y-60162847D01*
X83344571Y-60162847D02*
X83154095Y-60162847D01*
X83154095Y-60162847D02*
X83058857Y-60115228D01*
X83058857Y-60115228D02*
X83011238Y-60019990D01*
X83011238Y-60019990D02*
X83011238Y-59924752D01*
X83011238Y-59924752D02*
X83487428Y-59829514D01*
X82582666Y-59496180D02*
X82582666Y-60162847D01*
X82582666Y-59972371D02*
X82535047Y-60067609D01*
X82535047Y-60067609D02*
X82487428Y-60115228D01*
X82487428Y-60115228D02*
X82392190Y-60162847D01*
X82392190Y-60162847D02*
X82296952Y-60162847D01*
X86170000Y-93561819D02*
X86789047Y-93561819D01*
X86789047Y-93561819D02*
X86455714Y-93942771D01*
X86455714Y-93942771D02*
X86598571Y-93942771D01*
X86598571Y-93942771D02*
X86693809Y-93990390D01*
X86693809Y-93990390D02*
X86741428Y-94038009D01*
X86741428Y-94038009D02*
X86789047Y-94133247D01*
X86789047Y-94133247D02*
X86789047Y-94371342D01*
X86789047Y-94371342D02*
X86741428Y-94466580D01*
X86741428Y-94466580D02*
X86693809Y-94514200D01*
X86693809Y-94514200D02*
X86598571Y-94561819D01*
X86598571Y-94561819D02*
X86312857Y-94561819D01*
X86312857Y-94561819D02*
X86217619Y-94514200D01*
X86217619Y-94514200D02*
X86170000Y-94466580D01*
X87217619Y-94466580D02*
X87265238Y-94514200D01*
X87265238Y-94514200D02*
X87217619Y-94561819D01*
X87217619Y-94561819D02*
X87170000Y-94514200D01*
X87170000Y-94514200D02*
X87217619Y-94466580D01*
X87217619Y-94466580D02*
X87217619Y-94561819D01*
X87598571Y-93561819D02*
X88217618Y-93561819D01*
X88217618Y-93561819D02*
X87884285Y-93942771D01*
X87884285Y-93942771D02*
X88027142Y-93942771D01*
X88027142Y-93942771D02*
X88122380Y-93990390D01*
X88122380Y-93990390D02*
X88169999Y-94038009D01*
X88169999Y-94038009D02*
X88217618Y-94133247D01*
X88217618Y-94133247D02*
X88217618Y-94371342D01*
X88217618Y-94371342D02*
X88169999Y-94466580D01*
X88169999Y-94466580D02*
X88122380Y-94514200D01*
X88122380Y-94514200D02*
X88027142Y-94561819D01*
X88027142Y-94561819D02*
X87741428Y-94561819D01*
X87741428Y-94561819D02*
X87646190Y-94514200D01*
X87646190Y-94514200D02*
X87598571Y-94466580D01*
X88503333Y-93561819D02*
X88836666Y-94561819D01*
X88836666Y-94561819D02*
X89169999Y-93561819D01*
X90789047Y-93609438D02*
X90693809Y-93561819D01*
X90693809Y-93561819D02*
X90550952Y-93561819D01*
X90550952Y-93561819D02*
X90408095Y-93609438D01*
X90408095Y-93609438D02*
X90312857Y-93704676D01*
X90312857Y-93704676D02*
X90265238Y-93799914D01*
X90265238Y-93799914D02*
X90217619Y-93990390D01*
X90217619Y-93990390D02*
X90217619Y-94133247D01*
X90217619Y-94133247D02*
X90265238Y-94323723D01*
X90265238Y-94323723D02*
X90312857Y-94418961D01*
X90312857Y-94418961D02*
X90408095Y-94514200D01*
X90408095Y-94514200D02*
X90550952Y-94561819D01*
X90550952Y-94561819D02*
X90646190Y-94561819D01*
X90646190Y-94561819D02*
X90789047Y-94514200D01*
X90789047Y-94514200D02*
X90836666Y-94466580D01*
X90836666Y-94466580D02*
X90836666Y-94133247D01*
X90836666Y-94133247D02*
X90646190Y-94133247D01*
X91265238Y-94561819D02*
X91265238Y-93561819D01*
X91265238Y-93561819D02*
X91646190Y-93561819D01*
X91646190Y-93561819D02*
X91741428Y-93609438D01*
X91741428Y-93609438D02*
X91789047Y-93657057D01*
X91789047Y-93657057D02*
X91836666Y-93752295D01*
X91836666Y-93752295D02*
X91836666Y-93895152D01*
X91836666Y-93895152D02*
X91789047Y-93990390D01*
X91789047Y-93990390D02*
X91741428Y-94038009D01*
X91741428Y-94038009D02*
X91646190Y-94085628D01*
X91646190Y-94085628D02*
X91265238Y-94085628D01*
X92265238Y-94561819D02*
X92265238Y-93561819D01*
X92931904Y-93561819D02*
X93122380Y-93561819D01*
X93122380Y-93561819D02*
X93217618Y-93609438D01*
X93217618Y-93609438D02*
X93312856Y-93704676D01*
X93312856Y-93704676D02*
X93360475Y-93895152D01*
X93360475Y-93895152D02*
X93360475Y-94228485D01*
X93360475Y-94228485D02*
X93312856Y-94418961D01*
X93312856Y-94418961D02*
X93217618Y-94514200D01*
X93217618Y-94514200D02*
X93122380Y-94561819D01*
X93122380Y-94561819D02*
X92931904Y-94561819D01*
X92931904Y-94561819D02*
X92836666Y-94514200D01*
X92836666Y-94514200D02*
X92741428Y-94418961D01*
X92741428Y-94418961D02*
X92693809Y-94228485D01*
X92693809Y-94228485D02*
X92693809Y-93895152D01*
X92693809Y-93895152D02*
X92741428Y-93704676D01*
X92741428Y-93704676D02*
X92836666Y-93609438D01*
X92836666Y-93609438D02*
X92931904Y-93561819D01*
D12*
X104193371Y-91427285D02*
X104193371Y-91712999D01*
X104193371Y-91712999D02*
X104479085Y-91741571D01*
X104479085Y-91741571D02*
X104450514Y-91712999D01*
X104450514Y-91712999D02*
X104421942Y-91655857D01*
X104421942Y-91655857D02*
X104421942Y-91512999D01*
X104421942Y-91512999D02*
X104450514Y-91455857D01*
X104450514Y-91455857D02*
X104479085Y-91427285D01*
X104479085Y-91427285D02*
X104536228Y-91398714D01*
X104536228Y-91398714D02*
X104679085Y-91398714D01*
X104679085Y-91398714D02*
X104736228Y-91427285D01*
X104736228Y-91427285D02*
X104764800Y-91455857D01*
X104764800Y-91455857D02*
X104793371Y-91512999D01*
X104793371Y-91512999D02*
X104793371Y-91655857D01*
X104793371Y-91655857D02*
X104764800Y-91712999D01*
X104764800Y-91712999D02*
X104736228Y-91741571D01*
X104193371Y-91227285D02*
X104793371Y-91027285D01*
X104793371Y-91027285D02*
X104193371Y-90827285D01*
D10*
X91884571Y-57010700D02*
X93027429Y-57010700D01*
X92456000Y-57582128D02*
X92456000Y-56439271D01*
D11*
X103950264Y-96139566D02*
X103883597Y-96106233D01*
X103883597Y-96106233D02*
X103783597Y-96106233D01*
X103783597Y-96106233D02*
X103683597Y-96139566D01*
X103683597Y-96139566D02*
X103616931Y-96206233D01*
X103616931Y-96206233D02*
X103583597Y-96272900D01*
X103583597Y-96272900D02*
X103550264Y-96406233D01*
X103550264Y-96406233D02*
X103550264Y-96506233D01*
X103550264Y-96506233D02*
X103583597Y-96639566D01*
X103583597Y-96639566D02*
X103616931Y-96706233D01*
X103616931Y-96706233D02*
X103683597Y-96772900D01*
X103683597Y-96772900D02*
X103783597Y-96806233D01*
X103783597Y-96806233D02*
X103850264Y-96806233D01*
X103850264Y-96806233D02*
X103950264Y-96772900D01*
X103950264Y-96772900D02*
X103983597Y-96739566D01*
X103983597Y-96739566D02*
X103983597Y-96506233D01*
X103983597Y-96506233D02*
X103850264Y-96506233D01*
X104283597Y-96806233D02*
X104283597Y-96106233D01*
X104283597Y-96106233D02*
X104550264Y-96106233D01*
X104550264Y-96106233D02*
X104616931Y-96139566D01*
X104616931Y-96139566D02*
X104650264Y-96172900D01*
X104650264Y-96172900D02*
X104683597Y-96239566D01*
X104683597Y-96239566D02*
X104683597Y-96339566D01*
X104683597Y-96339566D02*
X104650264Y-96406233D01*
X104650264Y-96406233D02*
X104616931Y-96439566D01*
X104616931Y-96439566D02*
X104550264Y-96472900D01*
X104550264Y-96472900D02*
X104283597Y-96472900D01*
X104983597Y-96806233D02*
X104983597Y-96106233D01*
X105450264Y-96106233D02*
X105583597Y-96106233D01*
X105583597Y-96106233D02*
X105650264Y-96139566D01*
X105650264Y-96139566D02*
X105716930Y-96206233D01*
X105716930Y-96206233D02*
X105750264Y-96339566D01*
X105750264Y-96339566D02*
X105750264Y-96572900D01*
X105750264Y-96572900D02*
X105716930Y-96706233D01*
X105716930Y-96706233D02*
X105650264Y-96772900D01*
X105650264Y-96772900D02*
X105583597Y-96806233D01*
X105583597Y-96806233D02*
X105450264Y-96806233D01*
X105450264Y-96806233D02*
X105383597Y-96772900D01*
X105383597Y-96772900D02*
X105316930Y-96706233D01*
X105316930Y-96706233D02*
X105283597Y-96572900D01*
X105283597Y-96572900D02*
X105283597Y-96339566D01*
X105283597Y-96339566D02*
X105316930Y-96206233D01*
X105316930Y-96206233D02*
X105383597Y-96139566D01*
X105383597Y-96139566D02*
X105450264Y-96106233D01*
X106016930Y-96172900D02*
X106050263Y-96139566D01*
X106050263Y-96139566D02*
X106116930Y-96106233D01*
X106116930Y-96106233D02*
X106283597Y-96106233D01*
X106283597Y-96106233D02*
X106350263Y-96139566D01*
X106350263Y-96139566D02*
X106383597Y-96172900D01*
X106383597Y-96172900D02*
X106416930Y-96239566D01*
X106416930Y-96239566D02*
X106416930Y-96306233D01*
X106416930Y-96306233D02*
X106383597Y-96406233D01*
X106383597Y-96406233D02*
X105983597Y-96806233D01*
X105983597Y-96806233D02*
X106416930Y-96806233D01*
X107083597Y-96806233D02*
X106683597Y-96806233D01*
X106883597Y-96806233D02*
X106883597Y-96106233D01*
X106883597Y-96106233D02*
X106816930Y-96206233D01*
X106816930Y-96206233D02*
X106750264Y-96272900D01*
X106750264Y-96272900D02*
X106683597Y-96306233D01*
D10*
X82749219Y-84370942D02*
X82701600Y-84323323D01*
X82701600Y-84323323D02*
X82653980Y-84180466D01*
X82653980Y-84180466D02*
X82653980Y-84085228D01*
X82653980Y-84085228D02*
X82701600Y-83942371D01*
X82701600Y-83942371D02*
X82796838Y-83847133D01*
X82796838Y-83847133D02*
X82892076Y-83799514D01*
X82892076Y-83799514D02*
X83082552Y-83751895D01*
X83082552Y-83751895D02*
X83225409Y-83751895D01*
X83225409Y-83751895D02*
X83415885Y-83799514D01*
X83415885Y-83799514D02*
X83511123Y-83847133D01*
X83511123Y-83847133D02*
X83606361Y-83942371D01*
X83606361Y-83942371D02*
X83653980Y-84085228D01*
X83653980Y-84085228D02*
X83653980Y-84180466D01*
X83653980Y-84180466D02*
X83606361Y-84323323D01*
X83606361Y-84323323D02*
X83558742Y-84370942D01*
X82939695Y-84751895D02*
X82939695Y-85228085D01*
X82653980Y-84656657D02*
X83653980Y-84989990D01*
X83653980Y-84989990D02*
X82653980Y-85323323D01*
X82653980Y-85656657D02*
X83653980Y-85656657D01*
X83653980Y-85656657D02*
X82653980Y-86228085D01*
X82653980Y-86228085D02*
X83653980Y-86228085D01*
X79748333Y-93434819D02*
X79272143Y-93434819D01*
X79272143Y-93434819D02*
X79224524Y-93911009D01*
X79224524Y-93911009D02*
X79272143Y-93863390D01*
X79272143Y-93863390D02*
X79367381Y-93815771D01*
X79367381Y-93815771D02*
X79605476Y-93815771D01*
X79605476Y-93815771D02*
X79700714Y-93863390D01*
X79700714Y-93863390D02*
X79748333Y-93911009D01*
X79748333Y-93911009D02*
X79795952Y-94006247D01*
X79795952Y-94006247D02*
X79795952Y-94244342D01*
X79795952Y-94244342D02*
X79748333Y-94339580D01*
X79748333Y-94339580D02*
X79700714Y-94387200D01*
X79700714Y-94387200D02*
X79605476Y-94434819D01*
X79605476Y-94434819D02*
X79367381Y-94434819D01*
X79367381Y-94434819D02*
X79272143Y-94387200D01*
X79272143Y-94387200D02*
X79224524Y-94339580D01*
X80081667Y-93434819D02*
X80415000Y-94434819D01*
X80415000Y-94434819D02*
X80748333Y-93434819D01*
X81843572Y-94434819D02*
X81843572Y-93434819D01*
X82272143Y-93530057D02*
X82319762Y-93482438D01*
X82319762Y-93482438D02*
X82415000Y-93434819D01*
X82415000Y-93434819D02*
X82653095Y-93434819D01*
X82653095Y-93434819D02*
X82748333Y-93482438D01*
X82748333Y-93482438D02*
X82795952Y-93530057D01*
X82795952Y-93530057D02*
X82843571Y-93625295D01*
X82843571Y-93625295D02*
X82843571Y-93720533D01*
X82843571Y-93720533D02*
X82795952Y-93863390D01*
X82795952Y-93863390D02*
X82224524Y-94434819D01*
X82224524Y-94434819D02*
X82843571Y-94434819D01*
X83843571Y-94339580D02*
X83795952Y-94387200D01*
X83795952Y-94387200D02*
X83653095Y-94434819D01*
X83653095Y-94434819D02*
X83557857Y-94434819D01*
X83557857Y-94434819D02*
X83415000Y-94387200D01*
X83415000Y-94387200D02*
X83319762Y-94291961D01*
X83319762Y-94291961D02*
X83272143Y-94196723D01*
X83272143Y-94196723D02*
X83224524Y-94006247D01*
X83224524Y-94006247D02*
X83224524Y-93863390D01*
X83224524Y-93863390D02*
X83272143Y-93672914D01*
X83272143Y-93672914D02*
X83319762Y-93577676D01*
X83319762Y-93577676D02*
X83415000Y-93482438D01*
X83415000Y-93482438D02*
X83557857Y-93434819D01*
X83557857Y-93434819D02*
X83653095Y-93434819D01*
X83653095Y-93434819D02*
X83795952Y-93482438D01*
X83795952Y-93482438D02*
X83843571Y-93530057D01*
D13*
X106380446Y-74279286D02*
X106980446Y-74279286D01*
X106980446Y-74279286D02*
X106980446Y-74507857D01*
X106980446Y-74507857D02*
X106951875Y-74565000D01*
X106951875Y-74565000D02*
X106923303Y-74593571D01*
X106923303Y-74593571D02*
X106866160Y-74622143D01*
X106866160Y-74622143D02*
X106780446Y-74622143D01*
X106780446Y-74622143D02*
X106723303Y-74593571D01*
X106723303Y-74593571D02*
X106694732Y-74565000D01*
X106694732Y-74565000D02*
X106666160Y-74507857D01*
X106666160Y-74507857D02*
X106666160Y-74279286D01*
X106380446Y-74879286D02*
X106780446Y-74879286D01*
X106980446Y-74879286D02*
X106951875Y-74850714D01*
X106951875Y-74850714D02*
X106923303Y-74879286D01*
X106923303Y-74879286D02*
X106951875Y-74907857D01*
X106951875Y-74907857D02*
X106980446Y-74879286D01*
X106980446Y-74879286D02*
X106923303Y-74879286D01*
X106780446Y-75165000D02*
X106380446Y-75165000D01*
X106723303Y-75165000D02*
X106751875Y-75193571D01*
X106751875Y-75193571D02*
X106780446Y-75250714D01*
X106780446Y-75250714D02*
X106780446Y-75336428D01*
X106780446Y-75336428D02*
X106751875Y-75393571D01*
X106751875Y-75393571D02*
X106694732Y-75422143D01*
X106694732Y-75422143D02*
X106380446Y-75422143D01*
X106380446Y-75793571D02*
X106409018Y-75736428D01*
X106409018Y-75736428D02*
X106437589Y-75707857D01*
X106437589Y-75707857D02*
X106494732Y-75679285D01*
X106494732Y-75679285D02*
X106666160Y-75679285D01*
X106666160Y-75679285D02*
X106723303Y-75707857D01*
X106723303Y-75707857D02*
X106751875Y-75736428D01*
X106751875Y-75736428D02*
X106780446Y-75793571D01*
X106780446Y-75793571D02*
X106780446Y-75879285D01*
X106780446Y-75879285D02*
X106751875Y-75936428D01*
X106751875Y-75936428D02*
X106723303Y-75965000D01*
X106723303Y-75965000D02*
X106666160Y-75993571D01*
X106666160Y-75993571D02*
X106494732Y-75993571D01*
X106494732Y-75993571D02*
X106437589Y-75965000D01*
X106437589Y-75965000D02*
X106409018Y-75936428D01*
X106409018Y-75936428D02*
X106380446Y-75879285D01*
X106380446Y-75879285D02*
X106380446Y-75793571D01*
X106780446Y-76507857D02*
X106380446Y-76507857D01*
X106780446Y-76250714D02*
X106466160Y-76250714D01*
X106466160Y-76250714D02*
X106409018Y-76279285D01*
X106409018Y-76279285D02*
X106380446Y-76336428D01*
X106380446Y-76336428D02*
X106380446Y-76422142D01*
X106380446Y-76422142D02*
X106409018Y-76479285D01*
X106409018Y-76479285D02*
X106437589Y-76507857D01*
X106780446Y-76707856D02*
X106780446Y-76936428D01*
X106980446Y-76793571D02*
X106466160Y-76793571D01*
X106466160Y-76793571D02*
X106409018Y-76822142D01*
X106409018Y-76822142D02*
X106380446Y-76879285D01*
X106380446Y-76879285D02*
X106380446Y-76936428D01*
X105471623Y-70336429D02*
X105443052Y-70307857D01*
X105443052Y-70307857D02*
X105414480Y-70222143D01*
X105414480Y-70222143D02*
X105414480Y-70165000D01*
X105414480Y-70165000D02*
X105443052Y-70079286D01*
X105443052Y-70079286D02*
X105500194Y-70022143D01*
X105500194Y-70022143D02*
X105557337Y-69993572D01*
X105557337Y-69993572D02*
X105671623Y-69965000D01*
X105671623Y-69965000D02*
X105757337Y-69965000D01*
X105757337Y-69965000D02*
X105871623Y-69993572D01*
X105871623Y-69993572D02*
X105928766Y-70022143D01*
X105928766Y-70022143D02*
X105985909Y-70079286D01*
X105985909Y-70079286D02*
X106014480Y-70165000D01*
X106014480Y-70165000D02*
X106014480Y-70222143D01*
X106014480Y-70222143D02*
X105985909Y-70307857D01*
X105985909Y-70307857D02*
X105957337Y-70336429D01*
X105585909Y-70565000D02*
X105585909Y-70850715D01*
X105414480Y-70507857D02*
X106014480Y-70707857D01*
X106014480Y-70707857D02*
X105414480Y-70907857D01*
X105414480Y-71107858D02*
X106014480Y-71107858D01*
X106014480Y-71107858D02*
X105414480Y-71450715D01*
X105414480Y-71450715D02*
X106014480Y-71450715D01*
X105471623Y-71736429D02*
X105443052Y-71765000D01*
X105443052Y-71765000D02*
X105414480Y-71736429D01*
X105414480Y-71736429D02*
X105443052Y-71707857D01*
X105443052Y-71707857D02*
X105471623Y-71736429D01*
X105471623Y-71736429D02*
X105414480Y-71736429D01*
X105785909Y-71736429D02*
X105757337Y-71765000D01*
X105757337Y-71765000D02*
X105728766Y-71736429D01*
X105728766Y-71736429D02*
X105757337Y-71707857D01*
X105757337Y-71707857D02*
X105785909Y-71736429D01*
X105785909Y-71736429D02*
X105728766Y-71736429D01*
X105985909Y-72793571D02*
X106014480Y-72736429D01*
X106014480Y-72736429D02*
X106014480Y-72650714D01*
X106014480Y-72650714D02*
X105985909Y-72565000D01*
X105985909Y-72565000D02*
X105928766Y-72507857D01*
X105928766Y-72507857D02*
X105871623Y-72479286D01*
X105871623Y-72479286D02*
X105757337Y-72450714D01*
X105757337Y-72450714D02*
X105671623Y-72450714D01*
X105671623Y-72450714D02*
X105557337Y-72479286D01*
X105557337Y-72479286D02*
X105500194Y-72507857D01*
X105500194Y-72507857D02*
X105443052Y-72565000D01*
X105443052Y-72565000D02*
X105414480Y-72650714D01*
X105414480Y-72650714D02*
X105414480Y-72707857D01*
X105414480Y-72707857D02*
X105443052Y-72793571D01*
X105443052Y-72793571D02*
X105471623Y-72822143D01*
X105471623Y-72822143D02*
X105671623Y-72822143D01*
X105671623Y-72822143D02*
X105671623Y-72707857D01*
X105414480Y-73079286D02*
X106014480Y-73079286D01*
X106014480Y-73079286D02*
X105414480Y-73422143D01*
X105414480Y-73422143D02*
X106014480Y-73422143D01*
X105414480Y-73707857D02*
X106014480Y-73707857D01*
X106014480Y-73707857D02*
X106014480Y-73850714D01*
X106014480Y-73850714D02*
X105985909Y-73936428D01*
X105985909Y-73936428D02*
X105928766Y-73993571D01*
X105928766Y-73993571D02*
X105871623Y-74022142D01*
X105871623Y-74022142D02*
X105757337Y-74050714D01*
X105757337Y-74050714D02*
X105671623Y-74050714D01*
X105671623Y-74050714D02*
X105557337Y-74022142D01*
X105557337Y-74022142D02*
X105500194Y-73993571D01*
X105500194Y-73993571D02*
X105443052Y-73936428D01*
X105443052Y-73936428D02*
X105414480Y-73850714D01*
X105414480Y-73850714D02*
X105414480Y-73707857D01*
X106014480Y-75050714D02*
X106014480Y-74765000D01*
X106014480Y-74765000D02*
X105728766Y-74736428D01*
X105728766Y-74736428D02*
X105757337Y-74765000D01*
X105757337Y-74765000D02*
X105785909Y-74822143D01*
X105785909Y-74822143D02*
X105785909Y-74965000D01*
X105785909Y-74965000D02*
X105757337Y-75022143D01*
X105757337Y-75022143D02*
X105728766Y-75050714D01*
X105728766Y-75050714D02*
X105671623Y-75079285D01*
X105671623Y-75079285D02*
X105528766Y-75079285D01*
X105528766Y-75079285D02*
X105471623Y-75050714D01*
X105471623Y-75050714D02*
X105443052Y-75022143D01*
X105443052Y-75022143D02*
X105414480Y-74965000D01*
X105414480Y-74965000D02*
X105414480Y-74822143D01*
X105414480Y-74822143D02*
X105443052Y-74765000D01*
X105443052Y-74765000D02*
X105471623Y-74736428D01*
X105471623Y-75336429D02*
X105443052Y-75365000D01*
X105443052Y-75365000D02*
X105414480Y-75336429D01*
X105414480Y-75336429D02*
X105443052Y-75307857D01*
X105443052Y-75307857D02*
X105471623Y-75336429D01*
X105471623Y-75336429D02*
X105414480Y-75336429D01*
X106014480Y-75736428D02*
X106014480Y-75793571D01*
X106014480Y-75793571D02*
X105985909Y-75850714D01*
X105985909Y-75850714D02*
X105957337Y-75879286D01*
X105957337Y-75879286D02*
X105900194Y-75907857D01*
X105900194Y-75907857D02*
X105785909Y-75936428D01*
X105785909Y-75936428D02*
X105643052Y-75936428D01*
X105643052Y-75936428D02*
X105528766Y-75907857D01*
X105528766Y-75907857D02*
X105471623Y-75879286D01*
X105471623Y-75879286D02*
X105443052Y-75850714D01*
X105443052Y-75850714D02*
X105414480Y-75793571D01*
X105414480Y-75793571D02*
X105414480Y-75736428D01*
X105414480Y-75736428D02*
X105443052Y-75679286D01*
X105443052Y-75679286D02*
X105471623Y-75650714D01*
X105471623Y-75650714D02*
X105528766Y-75622143D01*
X105528766Y-75622143D02*
X105643052Y-75593571D01*
X105643052Y-75593571D02*
X105785909Y-75593571D01*
X105785909Y-75593571D02*
X105900194Y-75622143D01*
X105900194Y-75622143D02*
X105957337Y-75650714D01*
X105957337Y-75650714D02*
X105985909Y-75679286D01*
X105985909Y-75679286D02*
X106014480Y-75736428D01*
X106014480Y-76107857D02*
X105414480Y-76307857D01*
X105414480Y-76307857D02*
X106014480Y-76507857D01*
X105471623Y-77507858D02*
X105443052Y-77479286D01*
X105443052Y-77479286D02*
X105414480Y-77393572D01*
X105414480Y-77393572D02*
X105414480Y-77336429D01*
X105414480Y-77336429D02*
X105443052Y-77250715D01*
X105443052Y-77250715D02*
X105500194Y-77193572D01*
X105500194Y-77193572D02*
X105557337Y-77165001D01*
X105557337Y-77165001D02*
X105671623Y-77136429D01*
X105671623Y-77136429D02*
X105757337Y-77136429D01*
X105757337Y-77136429D02*
X105871623Y-77165001D01*
X105871623Y-77165001D02*
X105928766Y-77193572D01*
X105928766Y-77193572D02*
X105985909Y-77250715D01*
X105985909Y-77250715D02*
X106014480Y-77336429D01*
X106014480Y-77336429D02*
X106014480Y-77393572D01*
X106014480Y-77393572D02*
X105985909Y-77479286D01*
X105985909Y-77479286D02*
X105957337Y-77507858D01*
X105643052Y-77765001D02*
X105643052Y-78222144D01*
X105414480Y-78507858D02*
X106014480Y-78507858D01*
X105728766Y-78507858D02*
X105728766Y-78850715D01*
X105414480Y-78850715D02*
X106014480Y-78850715D01*
X105471623Y-79936429D02*
X105443052Y-79907857D01*
X105443052Y-79907857D02*
X105414480Y-79822143D01*
X105414480Y-79822143D02*
X105414480Y-79765000D01*
X105414480Y-79765000D02*
X105443052Y-79679286D01*
X105443052Y-79679286D02*
X105500194Y-79622143D01*
X105500194Y-79622143D02*
X105557337Y-79593572D01*
X105557337Y-79593572D02*
X105671623Y-79565000D01*
X105671623Y-79565000D02*
X105757337Y-79565000D01*
X105757337Y-79565000D02*
X105871623Y-79593572D01*
X105871623Y-79593572D02*
X105928766Y-79622143D01*
X105928766Y-79622143D02*
X105985909Y-79679286D01*
X105985909Y-79679286D02*
X106014480Y-79765000D01*
X106014480Y-79765000D02*
X106014480Y-79822143D01*
X106014480Y-79822143D02*
X105985909Y-79907857D01*
X105985909Y-79907857D02*
X105957337Y-79936429D01*
X105643052Y-80193572D02*
X105643052Y-80650715D01*
X105414480Y-81222143D02*
X105414480Y-80936429D01*
X105414480Y-80936429D02*
X106014480Y-80936429D01*
X104448514Y-70364999D02*
X105048514Y-70364999D01*
X104991371Y-70622141D02*
X105019943Y-70650713D01*
X105019943Y-70650713D02*
X105048514Y-70707856D01*
X105048514Y-70707856D02*
X105048514Y-70850713D01*
X105048514Y-70850713D02*
X105019943Y-70907856D01*
X105019943Y-70907856D02*
X104991371Y-70936427D01*
X104991371Y-70936427D02*
X104934228Y-70964998D01*
X104934228Y-70964998D02*
X104877086Y-70964998D01*
X104877086Y-70964998D02*
X104791371Y-70936427D01*
X104791371Y-70936427D02*
X104448514Y-70593570D01*
X104448514Y-70593570D02*
X104448514Y-70964998D01*
X104505657Y-71564999D02*
X104477086Y-71536427D01*
X104477086Y-71536427D02*
X104448514Y-71450713D01*
X104448514Y-71450713D02*
X104448514Y-71393570D01*
X104448514Y-71393570D02*
X104477086Y-71307856D01*
X104477086Y-71307856D02*
X104534228Y-71250713D01*
X104534228Y-71250713D02*
X104591371Y-71222142D01*
X104591371Y-71222142D02*
X104705657Y-71193570D01*
X104705657Y-71193570D02*
X104791371Y-71193570D01*
X104791371Y-71193570D02*
X104905657Y-71222142D01*
X104905657Y-71222142D02*
X104962800Y-71250713D01*
X104962800Y-71250713D02*
X105019943Y-71307856D01*
X105019943Y-71307856D02*
X105048514Y-71393570D01*
X105048514Y-71393570D02*
X105048514Y-71450713D01*
X105048514Y-71450713D02*
X105019943Y-71536427D01*
X105019943Y-71536427D02*
X104991371Y-71564999D01*
X104505657Y-71822142D02*
X104477086Y-71850713D01*
X104477086Y-71850713D02*
X104448514Y-71822142D01*
X104448514Y-71822142D02*
X104477086Y-71793570D01*
X104477086Y-71793570D02*
X104505657Y-71822142D01*
X104505657Y-71822142D02*
X104448514Y-71822142D01*
X104819943Y-71822142D02*
X104791371Y-71850713D01*
X104791371Y-71850713D02*
X104762800Y-71822142D01*
X104762800Y-71822142D02*
X104791371Y-71793570D01*
X104791371Y-71793570D02*
X104819943Y-71822142D01*
X104819943Y-71822142D02*
X104762800Y-71822142D01*
X105019943Y-72879284D02*
X105048514Y-72822142D01*
X105048514Y-72822142D02*
X105048514Y-72736427D01*
X105048514Y-72736427D02*
X105019943Y-72650713D01*
X105019943Y-72650713D02*
X104962800Y-72593570D01*
X104962800Y-72593570D02*
X104905657Y-72564999D01*
X104905657Y-72564999D02*
X104791371Y-72536427D01*
X104791371Y-72536427D02*
X104705657Y-72536427D01*
X104705657Y-72536427D02*
X104591371Y-72564999D01*
X104591371Y-72564999D02*
X104534228Y-72593570D01*
X104534228Y-72593570D02*
X104477086Y-72650713D01*
X104477086Y-72650713D02*
X104448514Y-72736427D01*
X104448514Y-72736427D02*
X104448514Y-72793570D01*
X104448514Y-72793570D02*
X104477086Y-72879284D01*
X104477086Y-72879284D02*
X104505657Y-72907856D01*
X104505657Y-72907856D02*
X104705657Y-72907856D01*
X104705657Y-72907856D02*
X104705657Y-72793570D01*
X104448514Y-73164999D02*
X105048514Y-73164999D01*
X105048514Y-73164999D02*
X104448514Y-73507856D01*
X104448514Y-73507856D02*
X105048514Y-73507856D01*
X104448514Y-73793570D02*
X105048514Y-73793570D01*
X105048514Y-73793570D02*
X105048514Y-73936427D01*
X105048514Y-73936427D02*
X105019943Y-74022141D01*
X105019943Y-74022141D02*
X104962800Y-74079284D01*
X104962800Y-74079284D02*
X104905657Y-74107855D01*
X104905657Y-74107855D02*
X104791371Y-74136427D01*
X104791371Y-74136427D02*
X104705657Y-74136427D01*
X104705657Y-74136427D02*
X104591371Y-74107855D01*
X104591371Y-74107855D02*
X104534228Y-74079284D01*
X104534228Y-74079284D02*
X104477086Y-74022141D01*
X104477086Y-74022141D02*
X104448514Y-73936427D01*
X104448514Y-73936427D02*
X104448514Y-73793570D01*
X105048514Y-75136427D02*
X105048514Y-74850713D01*
X105048514Y-74850713D02*
X104762800Y-74822141D01*
X104762800Y-74822141D02*
X104791371Y-74850713D01*
X104791371Y-74850713D02*
X104819943Y-74907856D01*
X104819943Y-74907856D02*
X104819943Y-75050713D01*
X104819943Y-75050713D02*
X104791371Y-75107856D01*
X104791371Y-75107856D02*
X104762800Y-75136427D01*
X104762800Y-75136427D02*
X104705657Y-75164998D01*
X104705657Y-75164998D02*
X104562800Y-75164998D01*
X104562800Y-75164998D02*
X104505657Y-75136427D01*
X104505657Y-75136427D02*
X104477086Y-75107856D01*
X104477086Y-75107856D02*
X104448514Y-75050713D01*
X104448514Y-75050713D02*
X104448514Y-74907856D01*
X104448514Y-74907856D02*
X104477086Y-74850713D01*
X104477086Y-74850713D02*
X104505657Y-74822141D01*
X104505657Y-75422142D02*
X104477086Y-75450713D01*
X104477086Y-75450713D02*
X104448514Y-75422142D01*
X104448514Y-75422142D02*
X104477086Y-75393570D01*
X104477086Y-75393570D02*
X104505657Y-75422142D01*
X104505657Y-75422142D02*
X104448514Y-75422142D01*
X105048514Y-75822141D02*
X105048514Y-75879284D01*
X105048514Y-75879284D02*
X105019943Y-75936427D01*
X105019943Y-75936427D02*
X104991371Y-75964999D01*
X104991371Y-75964999D02*
X104934228Y-75993570D01*
X104934228Y-75993570D02*
X104819943Y-76022141D01*
X104819943Y-76022141D02*
X104677086Y-76022141D01*
X104677086Y-76022141D02*
X104562800Y-75993570D01*
X104562800Y-75993570D02*
X104505657Y-75964999D01*
X104505657Y-75964999D02*
X104477086Y-75936427D01*
X104477086Y-75936427D02*
X104448514Y-75879284D01*
X104448514Y-75879284D02*
X104448514Y-75822141D01*
X104448514Y-75822141D02*
X104477086Y-75764999D01*
X104477086Y-75764999D02*
X104505657Y-75736427D01*
X104505657Y-75736427D02*
X104562800Y-75707856D01*
X104562800Y-75707856D02*
X104677086Y-75679284D01*
X104677086Y-75679284D02*
X104819943Y-75679284D01*
X104819943Y-75679284D02*
X104934228Y-75707856D01*
X104934228Y-75707856D02*
X104991371Y-75736427D01*
X104991371Y-75736427D02*
X105019943Y-75764999D01*
X105019943Y-75764999D02*
X105048514Y-75822141D01*
X105048514Y-76193570D02*
X104448514Y-76393570D01*
X104448514Y-76393570D02*
X105048514Y-76593570D01*
X104477086Y-77222142D02*
X104448514Y-77307857D01*
X104448514Y-77307857D02*
X104448514Y-77450714D01*
X104448514Y-77450714D02*
X104477086Y-77507857D01*
X104477086Y-77507857D02*
X104505657Y-77536428D01*
X104505657Y-77536428D02*
X104562800Y-77564999D01*
X104562800Y-77564999D02*
X104619943Y-77564999D01*
X104619943Y-77564999D02*
X104677086Y-77536428D01*
X104677086Y-77536428D02*
X104705657Y-77507857D01*
X104705657Y-77507857D02*
X104734228Y-77450714D01*
X104734228Y-77450714D02*
X104762800Y-77336428D01*
X104762800Y-77336428D02*
X104791371Y-77279285D01*
X104791371Y-77279285D02*
X104819943Y-77250714D01*
X104819943Y-77250714D02*
X104877086Y-77222142D01*
X104877086Y-77222142D02*
X104934228Y-77222142D01*
X104934228Y-77222142D02*
X104991371Y-77250714D01*
X104991371Y-77250714D02*
X105019943Y-77279285D01*
X105019943Y-77279285D02*
X105048514Y-77336428D01*
X105048514Y-77336428D02*
X105048514Y-77479285D01*
X105048514Y-77479285D02*
X105019943Y-77564999D01*
X104448514Y-77822143D02*
X105048514Y-77822143D01*
X105048514Y-77822143D02*
X105048514Y-77965000D01*
X105048514Y-77965000D02*
X105019943Y-78050714D01*
X105019943Y-78050714D02*
X104962800Y-78107857D01*
X104962800Y-78107857D02*
X104905657Y-78136428D01*
X104905657Y-78136428D02*
X104791371Y-78165000D01*
X104791371Y-78165000D02*
X104705657Y-78165000D01*
X104705657Y-78165000D02*
X104591371Y-78136428D01*
X104591371Y-78136428D02*
X104534228Y-78107857D01*
X104534228Y-78107857D02*
X104477086Y-78050714D01*
X104477086Y-78050714D02*
X104448514Y-77965000D01*
X104448514Y-77965000D02*
X104448514Y-77822143D01*
X104619943Y-78393571D02*
X104619943Y-78679286D01*
X104448514Y-78336428D02*
X105048514Y-78536428D01*
X105048514Y-78536428D02*
X104448514Y-78736428D01*
X104477086Y-79365000D02*
X104448514Y-79450715D01*
X104448514Y-79450715D02*
X104448514Y-79593572D01*
X104448514Y-79593572D02*
X104477086Y-79650715D01*
X104477086Y-79650715D02*
X104505657Y-79679286D01*
X104505657Y-79679286D02*
X104562800Y-79707857D01*
X104562800Y-79707857D02*
X104619943Y-79707857D01*
X104619943Y-79707857D02*
X104677086Y-79679286D01*
X104677086Y-79679286D02*
X104705657Y-79650715D01*
X104705657Y-79650715D02*
X104734228Y-79593572D01*
X104734228Y-79593572D02*
X104762800Y-79479286D01*
X104762800Y-79479286D02*
X104791371Y-79422143D01*
X104791371Y-79422143D02*
X104819943Y-79393572D01*
X104819943Y-79393572D02*
X104877086Y-79365000D01*
X104877086Y-79365000D02*
X104934228Y-79365000D01*
X104934228Y-79365000D02*
X104991371Y-79393572D01*
X104991371Y-79393572D02*
X105019943Y-79422143D01*
X105019943Y-79422143D02*
X105048514Y-79479286D01*
X105048514Y-79479286D02*
X105048514Y-79622143D01*
X105048514Y-79622143D02*
X105019943Y-79707857D01*
X104505657Y-80307858D02*
X104477086Y-80279286D01*
X104477086Y-80279286D02*
X104448514Y-80193572D01*
X104448514Y-80193572D02*
X104448514Y-80136429D01*
X104448514Y-80136429D02*
X104477086Y-80050715D01*
X104477086Y-80050715D02*
X104534228Y-79993572D01*
X104534228Y-79993572D02*
X104591371Y-79965001D01*
X104591371Y-79965001D02*
X104705657Y-79936429D01*
X104705657Y-79936429D02*
X104791371Y-79936429D01*
X104791371Y-79936429D02*
X104905657Y-79965001D01*
X104905657Y-79965001D02*
X104962800Y-79993572D01*
X104962800Y-79993572D02*
X105019943Y-80050715D01*
X105019943Y-80050715D02*
X105048514Y-80136429D01*
X105048514Y-80136429D02*
X105048514Y-80193572D01*
X105048514Y-80193572D02*
X105019943Y-80279286D01*
X105019943Y-80279286D02*
X104991371Y-80307858D01*
X104448514Y-80850715D02*
X104448514Y-80565001D01*
X104448514Y-80565001D02*
X105048514Y-80565001D01*
X104053977Y-70893570D02*
X104082548Y-70836428D01*
X104082548Y-70836428D02*
X104082548Y-70750713D01*
X104082548Y-70750713D02*
X104053977Y-70664999D01*
X104053977Y-70664999D02*
X103996834Y-70607856D01*
X103996834Y-70607856D02*
X103939691Y-70579285D01*
X103939691Y-70579285D02*
X103825405Y-70550713D01*
X103825405Y-70550713D02*
X103739691Y-70550713D01*
X103739691Y-70550713D02*
X103625405Y-70579285D01*
X103625405Y-70579285D02*
X103568262Y-70607856D01*
X103568262Y-70607856D02*
X103511120Y-70664999D01*
X103511120Y-70664999D02*
X103482548Y-70750713D01*
X103482548Y-70750713D02*
X103482548Y-70807856D01*
X103482548Y-70807856D02*
X103511120Y-70893570D01*
X103511120Y-70893570D02*
X103539691Y-70922142D01*
X103539691Y-70922142D02*
X103739691Y-70922142D01*
X103739691Y-70922142D02*
X103739691Y-70807856D01*
X103482548Y-71179285D02*
X104082548Y-71179285D01*
X104082548Y-71179285D02*
X104082548Y-71407856D01*
X104082548Y-71407856D02*
X104053977Y-71464999D01*
X104053977Y-71464999D02*
X104025405Y-71493570D01*
X104025405Y-71493570D02*
X103968262Y-71522142D01*
X103968262Y-71522142D02*
X103882548Y-71522142D01*
X103882548Y-71522142D02*
X103825405Y-71493570D01*
X103825405Y-71493570D02*
X103796834Y-71464999D01*
X103796834Y-71464999D02*
X103768262Y-71407856D01*
X103768262Y-71407856D02*
X103768262Y-71179285D01*
X103482548Y-71779285D02*
X104082548Y-71779285D01*
X104082548Y-72179284D02*
X104082548Y-72293570D01*
X104082548Y-72293570D02*
X104053977Y-72350713D01*
X104053977Y-72350713D02*
X103996834Y-72407856D01*
X103996834Y-72407856D02*
X103882548Y-72436427D01*
X103882548Y-72436427D02*
X103682548Y-72436427D01*
X103682548Y-72436427D02*
X103568262Y-72407856D01*
X103568262Y-72407856D02*
X103511120Y-72350713D01*
X103511120Y-72350713D02*
X103482548Y-72293570D01*
X103482548Y-72293570D02*
X103482548Y-72179284D01*
X103482548Y-72179284D02*
X103511120Y-72122142D01*
X103511120Y-72122142D02*
X103568262Y-72064999D01*
X103568262Y-72064999D02*
X103682548Y-72036427D01*
X103682548Y-72036427D02*
X103882548Y-72036427D01*
X103882548Y-72036427D02*
X103996834Y-72064999D01*
X103996834Y-72064999D02*
X104053977Y-72122142D01*
X104053977Y-72122142D02*
X104082548Y-72179284D01*
X103539691Y-72693570D02*
X103511120Y-72722141D01*
X103511120Y-72722141D02*
X103482548Y-72693570D01*
X103482548Y-72693570D02*
X103511120Y-72664998D01*
X103511120Y-72664998D02*
X103539691Y-72693570D01*
X103539691Y-72693570D02*
X103482548Y-72693570D01*
X103853977Y-72693570D02*
X103825405Y-72722141D01*
X103825405Y-72722141D02*
X103796834Y-72693570D01*
X103796834Y-72693570D02*
X103825405Y-72664998D01*
X103825405Y-72664998D02*
X103853977Y-72693570D01*
X103853977Y-72693570D02*
X103796834Y-72693570D01*
X104053977Y-73293569D02*
X104082548Y-73236427D01*
X104082548Y-73236427D02*
X104082548Y-73150712D01*
X104082548Y-73150712D02*
X104053977Y-73064998D01*
X104053977Y-73064998D02*
X103996834Y-73007855D01*
X103996834Y-73007855D02*
X103939691Y-72979284D01*
X103939691Y-72979284D02*
X103825405Y-72950712D01*
X103825405Y-72950712D02*
X103739691Y-72950712D01*
X103739691Y-72950712D02*
X103625405Y-72979284D01*
X103625405Y-72979284D02*
X103568262Y-73007855D01*
X103568262Y-73007855D02*
X103511120Y-73064998D01*
X103511120Y-73064998D02*
X103482548Y-73150712D01*
X103482548Y-73150712D02*
X103482548Y-73207855D01*
X103482548Y-73207855D02*
X103511120Y-73293569D01*
X103511120Y-73293569D02*
X103539691Y-73322141D01*
X103539691Y-73322141D02*
X103739691Y-73322141D01*
X103739691Y-73322141D02*
X103739691Y-73207855D01*
X103482548Y-73579284D02*
X104082548Y-73579284D01*
X104082548Y-73579284D02*
X103482548Y-73922141D01*
X103482548Y-73922141D02*
X104082548Y-73922141D01*
X103482548Y-74207855D02*
X104082548Y-74207855D01*
X104082548Y-74207855D02*
X104082548Y-74350712D01*
X104082548Y-74350712D02*
X104053977Y-74436426D01*
X104053977Y-74436426D02*
X103996834Y-74493569D01*
X103996834Y-74493569D02*
X103939691Y-74522140D01*
X103939691Y-74522140D02*
X103825405Y-74550712D01*
X103825405Y-74550712D02*
X103739691Y-74550712D01*
X103739691Y-74550712D02*
X103625405Y-74522140D01*
X103625405Y-74522140D02*
X103568262Y-74493569D01*
X103568262Y-74493569D02*
X103511120Y-74436426D01*
X103511120Y-74436426D02*
X103482548Y-74350712D01*
X103482548Y-74350712D02*
X103482548Y-74207855D01*
X104082548Y-75207855D02*
X104082548Y-75579283D01*
X104082548Y-75579283D02*
X103853977Y-75379283D01*
X103853977Y-75379283D02*
X103853977Y-75464998D01*
X103853977Y-75464998D02*
X103825405Y-75522141D01*
X103825405Y-75522141D02*
X103796834Y-75550712D01*
X103796834Y-75550712D02*
X103739691Y-75579283D01*
X103739691Y-75579283D02*
X103596834Y-75579283D01*
X103596834Y-75579283D02*
X103539691Y-75550712D01*
X103539691Y-75550712D02*
X103511120Y-75522141D01*
X103511120Y-75522141D02*
X103482548Y-75464998D01*
X103482548Y-75464998D02*
X103482548Y-75293569D01*
X103482548Y-75293569D02*
X103511120Y-75236426D01*
X103511120Y-75236426D02*
X103539691Y-75207855D01*
X103539691Y-75836427D02*
X103511120Y-75864998D01*
X103511120Y-75864998D02*
X103482548Y-75836427D01*
X103482548Y-75836427D02*
X103511120Y-75807855D01*
X103511120Y-75807855D02*
X103539691Y-75836427D01*
X103539691Y-75836427D02*
X103482548Y-75836427D01*
X104082548Y-76064998D02*
X104082548Y-76436426D01*
X104082548Y-76436426D02*
X103853977Y-76236426D01*
X103853977Y-76236426D02*
X103853977Y-76322141D01*
X103853977Y-76322141D02*
X103825405Y-76379284D01*
X103825405Y-76379284D02*
X103796834Y-76407855D01*
X103796834Y-76407855D02*
X103739691Y-76436426D01*
X103739691Y-76436426D02*
X103596834Y-76436426D01*
X103596834Y-76436426D02*
X103539691Y-76407855D01*
X103539691Y-76407855D02*
X103511120Y-76379284D01*
X103511120Y-76379284D02*
X103482548Y-76322141D01*
X103482548Y-76322141D02*
X103482548Y-76150712D01*
X103482548Y-76150712D02*
X103511120Y-76093569D01*
X103511120Y-76093569D02*
X103539691Y-76064998D01*
X104082548Y-76607855D02*
X103482548Y-76807855D01*
X103482548Y-76807855D02*
X104082548Y-77007855D01*
X103653977Y-77636427D02*
X103653977Y-77922142D01*
X103482548Y-77579284D02*
X104082548Y-77779284D01*
X104082548Y-77779284D02*
X103482548Y-77979284D01*
X103482548Y-78493570D02*
X103482548Y-78150713D01*
X103482548Y-78322142D02*
X104082548Y-78322142D01*
X104082548Y-78322142D02*
X103996834Y-78264999D01*
X103996834Y-78264999D02*
X103939691Y-78207856D01*
X103939691Y-78207856D02*
X103911120Y-78150713D01*
X103482548Y-79665000D02*
X104082548Y-79665000D01*
X104082548Y-79665000D02*
X104082548Y-79807857D01*
X104082548Y-79807857D02*
X104053977Y-79893571D01*
X104053977Y-79893571D02*
X103996834Y-79950714D01*
X103996834Y-79950714D02*
X103939691Y-79979285D01*
X103939691Y-79979285D02*
X103825405Y-80007857D01*
X103825405Y-80007857D02*
X103739691Y-80007857D01*
X103739691Y-80007857D02*
X103625405Y-79979285D01*
X103625405Y-79979285D02*
X103568262Y-79950714D01*
X103568262Y-79950714D02*
X103511120Y-79893571D01*
X103511120Y-79893571D02*
X103482548Y-79807857D01*
X103482548Y-79807857D02*
X103482548Y-79665000D01*
X103482548Y-80579285D02*
X103482548Y-80236428D01*
X103482548Y-80407857D02*
X104082548Y-80407857D01*
X104082548Y-80407857D02*
X103996834Y-80350714D01*
X103996834Y-80350714D02*
X103939691Y-80293571D01*
X103939691Y-80293571D02*
X103911120Y-80236428D01*
D14*
X78450618Y-57384272D02*
X78450618Y-57050938D01*
X78450618Y-57050938D02*
X79150618Y-57050938D01*
X78817285Y-57617605D02*
X78817285Y-57850939D01*
X78450618Y-57950939D02*
X78450618Y-57617605D01*
X78450618Y-57617605D02*
X79150618Y-57617605D01*
X79150618Y-57617605D02*
X79150618Y-57950939D01*
X78450618Y-58250938D02*
X79150618Y-58250938D01*
X79150618Y-58250938D02*
X79150618Y-58417605D01*
X79150618Y-58417605D02*
X79117285Y-58517605D01*
X79117285Y-58517605D02*
X79050618Y-58584272D01*
X79050618Y-58584272D02*
X78983952Y-58617605D01*
X78983952Y-58617605D02*
X78850618Y-58650938D01*
X78850618Y-58650938D02*
X78750618Y-58650938D01*
X78750618Y-58650938D02*
X78617285Y-58617605D01*
X78617285Y-58617605D02*
X78550618Y-58584272D01*
X78550618Y-58584272D02*
X78483952Y-58517605D01*
X78483952Y-58517605D02*
X78450618Y-58417605D01*
X78450618Y-58417605D02*
X78450618Y-58250938D01*
D12*
X98316506Y-77936684D02*
X98387934Y-77960493D01*
X98387934Y-77960493D02*
X98506982Y-77960493D01*
X98506982Y-77960493D02*
X98554601Y-77936684D01*
X98554601Y-77936684D02*
X98578410Y-77912874D01*
X98578410Y-77912874D02*
X98602220Y-77865255D01*
X98602220Y-77865255D02*
X98602220Y-77817636D01*
X98602220Y-77817636D02*
X98578410Y-77770017D01*
X98578410Y-77770017D02*
X98554601Y-77746207D01*
X98554601Y-77746207D02*
X98506982Y-77722398D01*
X98506982Y-77722398D02*
X98411744Y-77698588D01*
X98411744Y-77698588D02*
X98364125Y-77674779D01*
X98364125Y-77674779D02*
X98340315Y-77650969D01*
X98340315Y-77650969D02*
X98316506Y-77603350D01*
X98316506Y-77603350D02*
X98316506Y-77555731D01*
X98316506Y-77555731D02*
X98340315Y-77508112D01*
X98340315Y-77508112D02*
X98364125Y-77484303D01*
X98364125Y-77484303D02*
X98411744Y-77460493D01*
X98411744Y-77460493D02*
X98530791Y-77460493D01*
X98530791Y-77460493D02*
X98602220Y-77484303D01*
X98745077Y-77627160D02*
X98935553Y-77627160D01*
X98816505Y-77460493D02*
X98816505Y-77889064D01*
X98816505Y-77889064D02*
X98840315Y-77936684D01*
X98840315Y-77936684D02*
X98887934Y-77960493D01*
X98887934Y-77960493D02*
X98935553Y-77960493D01*
X99292695Y-77936684D02*
X99245076Y-77960493D01*
X99245076Y-77960493D02*
X99149838Y-77960493D01*
X99149838Y-77960493D02*
X99102219Y-77936684D01*
X99102219Y-77936684D02*
X99078410Y-77889064D01*
X99078410Y-77889064D02*
X99078410Y-77698588D01*
X99078410Y-77698588D02*
X99102219Y-77650969D01*
X99102219Y-77650969D02*
X99149838Y-77627160D01*
X99149838Y-77627160D02*
X99245076Y-77627160D01*
X99245076Y-77627160D02*
X99292695Y-77650969D01*
X99292695Y-77650969D02*
X99316505Y-77698588D01*
X99316505Y-77698588D02*
X99316505Y-77746207D01*
X99316505Y-77746207D02*
X99078410Y-77793826D01*
X99530790Y-77627160D02*
X99530790Y-78127160D01*
X99530790Y-77650969D02*
X99578409Y-77627160D01*
X99578409Y-77627160D02*
X99673647Y-77627160D01*
X99673647Y-77627160D02*
X99721266Y-77650969D01*
X99721266Y-77650969D02*
X99745076Y-77674779D01*
X99745076Y-77674779D02*
X99768885Y-77722398D01*
X99768885Y-77722398D02*
X99768885Y-77865255D01*
X99768885Y-77865255D02*
X99745076Y-77912874D01*
X99745076Y-77912874D02*
X99721266Y-77936684D01*
X99721266Y-77936684D02*
X99673647Y-77960493D01*
X99673647Y-77960493D02*
X99578409Y-77960493D01*
X99578409Y-77960493D02*
X99530790Y-77936684D01*
X100364123Y-77960493D02*
X100364123Y-77460493D01*
X100364123Y-77460493D02*
X100530790Y-77817636D01*
X100530790Y-77817636D02*
X100697456Y-77460493D01*
X100697456Y-77460493D02*
X100697456Y-77960493D01*
X101006981Y-77960493D02*
X100959362Y-77936684D01*
X100959362Y-77936684D02*
X100935552Y-77912874D01*
X100935552Y-77912874D02*
X100911743Y-77865255D01*
X100911743Y-77865255D02*
X100911743Y-77722398D01*
X100911743Y-77722398D02*
X100935552Y-77674779D01*
X100935552Y-77674779D02*
X100959362Y-77650969D01*
X100959362Y-77650969D02*
X101006981Y-77627160D01*
X101006981Y-77627160D02*
X101078409Y-77627160D01*
X101078409Y-77627160D02*
X101126028Y-77650969D01*
X101126028Y-77650969D02*
X101149838Y-77674779D01*
X101149838Y-77674779D02*
X101173647Y-77722398D01*
X101173647Y-77722398D02*
X101173647Y-77865255D01*
X101173647Y-77865255D02*
X101149838Y-77912874D01*
X101149838Y-77912874D02*
X101126028Y-77936684D01*
X101126028Y-77936684D02*
X101078409Y-77960493D01*
X101078409Y-77960493D02*
X101006981Y-77960493D01*
X101602219Y-77960493D02*
X101602219Y-77460493D01*
X101602219Y-77936684D02*
X101554600Y-77960493D01*
X101554600Y-77960493D02*
X101459362Y-77960493D01*
X101459362Y-77960493D02*
X101411743Y-77936684D01*
X101411743Y-77936684D02*
X101387933Y-77912874D01*
X101387933Y-77912874D02*
X101364124Y-77865255D01*
X101364124Y-77865255D02*
X101364124Y-77722398D01*
X101364124Y-77722398D02*
X101387933Y-77674779D01*
X101387933Y-77674779D02*
X101411743Y-77650969D01*
X101411743Y-77650969D02*
X101459362Y-77627160D01*
X101459362Y-77627160D02*
X101554600Y-77627160D01*
X101554600Y-77627160D02*
X101602219Y-77650969D01*
X102030790Y-77936684D02*
X101983171Y-77960493D01*
X101983171Y-77960493D02*
X101887933Y-77960493D01*
X101887933Y-77960493D02*
X101840314Y-77936684D01*
X101840314Y-77936684D02*
X101816505Y-77889064D01*
X101816505Y-77889064D02*
X101816505Y-77698588D01*
X101816505Y-77698588D02*
X101840314Y-77650969D01*
X101840314Y-77650969D02*
X101887933Y-77627160D01*
X101887933Y-77627160D02*
X101983171Y-77627160D01*
X101983171Y-77627160D02*
X102030790Y-77650969D01*
X102030790Y-77650969D02*
X102054600Y-77698588D01*
X102054600Y-77698588D02*
X102054600Y-77746207D01*
X102054600Y-77746207D02*
X101816505Y-77793826D01*
X102268885Y-77912874D02*
X102292695Y-77936684D01*
X102292695Y-77936684D02*
X102268885Y-77960493D01*
X102268885Y-77960493D02*
X102245076Y-77936684D01*
X102245076Y-77936684D02*
X102268885Y-77912874D01*
X102268885Y-77912874D02*
X102268885Y-77960493D01*
X102268885Y-77650969D02*
X102292695Y-77674779D01*
X102292695Y-77674779D02*
X102268885Y-77698588D01*
X102268885Y-77698588D02*
X102245076Y-77674779D01*
X102245076Y-77674779D02*
X102268885Y-77650969D01*
X102268885Y-77650969D02*
X102268885Y-77698588D01*
X97923649Y-78741656D02*
X97995077Y-78765465D01*
X97995077Y-78765465D02*
X98114125Y-78765465D01*
X98114125Y-78765465D02*
X98161744Y-78741656D01*
X98161744Y-78741656D02*
X98185553Y-78717846D01*
X98185553Y-78717846D02*
X98209363Y-78670227D01*
X98209363Y-78670227D02*
X98209363Y-78622608D01*
X98209363Y-78622608D02*
X98185553Y-78574989D01*
X98185553Y-78574989D02*
X98161744Y-78551179D01*
X98161744Y-78551179D02*
X98114125Y-78527370D01*
X98114125Y-78527370D02*
X98018887Y-78503560D01*
X98018887Y-78503560D02*
X97971268Y-78479751D01*
X97971268Y-78479751D02*
X97947458Y-78455941D01*
X97947458Y-78455941D02*
X97923649Y-78408322D01*
X97923649Y-78408322D02*
X97923649Y-78360703D01*
X97923649Y-78360703D02*
X97947458Y-78313084D01*
X97947458Y-78313084D02*
X97971268Y-78289275D01*
X97971268Y-78289275D02*
X98018887Y-78265465D01*
X98018887Y-78265465D02*
X98137934Y-78265465D01*
X98137934Y-78265465D02*
X98209363Y-78289275D01*
X98423648Y-78432132D02*
X98423648Y-78932132D01*
X98423648Y-78455941D02*
X98471267Y-78432132D01*
X98471267Y-78432132D02*
X98566505Y-78432132D01*
X98566505Y-78432132D02*
X98614124Y-78455941D01*
X98614124Y-78455941D02*
X98637934Y-78479751D01*
X98637934Y-78479751D02*
X98661743Y-78527370D01*
X98661743Y-78527370D02*
X98661743Y-78670227D01*
X98661743Y-78670227D02*
X98637934Y-78717846D01*
X98637934Y-78717846D02*
X98614124Y-78741656D01*
X98614124Y-78741656D02*
X98566505Y-78765465D01*
X98566505Y-78765465D02*
X98471267Y-78765465D01*
X98471267Y-78765465D02*
X98423648Y-78741656D01*
X98876029Y-78765465D02*
X98876029Y-78432132D01*
X98876029Y-78527370D02*
X98899839Y-78479751D01*
X98899839Y-78479751D02*
X98923648Y-78455941D01*
X98923648Y-78455941D02*
X98971267Y-78432132D01*
X98971267Y-78432132D02*
X99018886Y-78432132D01*
X99376029Y-78741656D02*
X99328410Y-78765465D01*
X99328410Y-78765465D02*
X99233172Y-78765465D01*
X99233172Y-78765465D02*
X99185553Y-78741656D01*
X99185553Y-78741656D02*
X99161744Y-78694036D01*
X99161744Y-78694036D02*
X99161744Y-78503560D01*
X99161744Y-78503560D02*
X99185553Y-78455941D01*
X99185553Y-78455941D02*
X99233172Y-78432132D01*
X99233172Y-78432132D02*
X99328410Y-78432132D01*
X99328410Y-78432132D02*
X99376029Y-78455941D01*
X99376029Y-78455941D02*
X99399839Y-78503560D01*
X99399839Y-78503560D02*
X99399839Y-78551179D01*
X99399839Y-78551179D02*
X99161744Y-78598798D01*
X99828410Y-78765465D02*
X99828410Y-78503560D01*
X99828410Y-78503560D02*
X99804600Y-78455941D01*
X99804600Y-78455941D02*
X99756981Y-78432132D01*
X99756981Y-78432132D02*
X99661743Y-78432132D01*
X99661743Y-78432132D02*
X99614124Y-78455941D01*
X99828410Y-78741656D02*
X99780791Y-78765465D01*
X99780791Y-78765465D02*
X99661743Y-78765465D01*
X99661743Y-78765465D02*
X99614124Y-78741656D01*
X99614124Y-78741656D02*
X99590315Y-78694036D01*
X99590315Y-78694036D02*
X99590315Y-78646417D01*
X99590315Y-78646417D02*
X99614124Y-78598798D01*
X99614124Y-78598798D02*
X99661743Y-78574989D01*
X99661743Y-78574989D02*
X99780791Y-78574989D01*
X99780791Y-78574989D02*
X99828410Y-78551179D01*
X100280791Y-78765465D02*
X100280791Y-78265465D01*
X100280791Y-78741656D02*
X100233172Y-78765465D01*
X100233172Y-78765465D02*
X100137934Y-78765465D01*
X100137934Y-78765465D02*
X100090315Y-78741656D01*
X100090315Y-78741656D02*
X100066505Y-78717846D01*
X100066505Y-78717846D02*
X100042696Y-78670227D01*
X100042696Y-78670227D02*
X100042696Y-78527370D01*
X100042696Y-78527370D02*
X100066505Y-78479751D01*
X100066505Y-78479751D02*
X100090315Y-78455941D01*
X100090315Y-78455941D02*
X100137934Y-78432132D01*
X100137934Y-78432132D02*
X100233172Y-78432132D01*
X100233172Y-78432132D02*
X100280791Y-78455941D01*
X100804600Y-78717846D02*
X100780791Y-78741656D01*
X100780791Y-78741656D02*
X100709362Y-78765465D01*
X100709362Y-78765465D02*
X100661743Y-78765465D01*
X100661743Y-78765465D02*
X100590315Y-78741656D01*
X100590315Y-78741656D02*
X100542696Y-78694036D01*
X100542696Y-78694036D02*
X100518886Y-78646417D01*
X100518886Y-78646417D02*
X100495077Y-78551179D01*
X100495077Y-78551179D02*
X100495077Y-78479751D01*
X100495077Y-78479751D02*
X100518886Y-78384513D01*
X100518886Y-78384513D02*
X100542696Y-78336894D01*
X100542696Y-78336894D02*
X100590315Y-78289275D01*
X100590315Y-78289275D02*
X100661743Y-78265465D01*
X100661743Y-78265465D02*
X100709362Y-78265465D01*
X100709362Y-78265465D02*
X100780791Y-78289275D01*
X100780791Y-78289275D02*
X100804600Y-78313084D01*
X100971267Y-78432132D02*
X101090315Y-78765465D01*
X101209362Y-78432132D02*
X101090315Y-78765465D01*
X101090315Y-78765465D02*
X101042696Y-78884513D01*
X101042696Y-78884513D02*
X101018886Y-78908322D01*
X101018886Y-78908322D02*
X100971267Y-78932132D01*
X101614124Y-78741656D02*
X101566505Y-78765465D01*
X101566505Y-78765465D02*
X101471267Y-78765465D01*
X101471267Y-78765465D02*
X101423648Y-78741656D01*
X101423648Y-78741656D02*
X101399838Y-78717846D01*
X101399838Y-78717846D02*
X101376029Y-78670227D01*
X101376029Y-78670227D02*
X101376029Y-78527370D01*
X101376029Y-78527370D02*
X101399838Y-78479751D01*
X101399838Y-78479751D02*
X101423648Y-78455941D01*
X101423648Y-78455941D02*
X101471267Y-78432132D01*
X101471267Y-78432132D02*
X101566505Y-78432132D01*
X101566505Y-78432132D02*
X101614124Y-78455941D01*
X101899838Y-78765465D02*
X101852219Y-78741656D01*
X101852219Y-78741656D02*
X101828409Y-78694036D01*
X101828409Y-78694036D02*
X101828409Y-78265465D01*
X102280790Y-78741656D02*
X102233171Y-78765465D01*
X102233171Y-78765465D02*
X102137933Y-78765465D01*
X102137933Y-78765465D02*
X102090314Y-78741656D01*
X102090314Y-78741656D02*
X102066505Y-78694036D01*
X102066505Y-78694036D02*
X102066505Y-78503560D01*
X102066505Y-78503560D02*
X102090314Y-78455941D01*
X102090314Y-78455941D02*
X102137933Y-78432132D01*
X102137933Y-78432132D02*
X102233171Y-78432132D01*
X102233171Y-78432132D02*
X102280790Y-78455941D01*
X102280790Y-78455941D02*
X102304600Y-78503560D01*
X102304600Y-78503560D02*
X102304600Y-78551179D01*
X102304600Y-78551179D02*
X102066505Y-78598798D01*
X97959363Y-80351600D02*
X98030791Y-80375409D01*
X98030791Y-80375409D02*
X98149839Y-80375409D01*
X98149839Y-80375409D02*
X98197458Y-80351600D01*
X98197458Y-80351600D02*
X98221267Y-80327790D01*
X98221267Y-80327790D02*
X98245077Y-80280171D01*
X98245077Y-80280171D02*
X98245077Y-80232552D01*
X98245077Y-80232552D02*
X98221267Y-80184933D01*
X98221267Y-80184933D02*
X98197458Y-80161123D01*
X98197458Y-80161123D02*
X98149839Y-80137314D01*
X98149839Y-80137314D02*
X98054601Y-80113504D01*
X98054601Y-80113504D02*
X98006982Y-80089695D01*
X98006982Y-80089695D02*
X97983172Y-80065885D01*
X97983172Y-80065885D02*
X97959363Y-80018266D01*
X97959363Y-80018266D02*
X97959363Y-79970647D01*
X97959363Y-79970647D02*
X97983172Y-79923028D01*
X97983172Y-79923028D02*
X98006982Y-79899219D01*
X98006982Y-79899219D02*
X98054601Y-79875409D01*
X98054601Y-79875409D02*
X98173648Y-79875409D01*
X98173648Y-79875409D02*
X98245077Y-79899219D01*
X98387934Y-80042076D02*
X98578410Y-80042076D01*
X98459362Y-79875409D02*
X98459362Y-80303980D01*
X98459362Y-80303980D02*
X98483172Y-80351600D01*
X98483172Y-80351600D02*
X98530791Y-80375409D01*
X98530791Y-80375409D02*
X98578410Y-80375409D01*
X98935552Y-80351600D02*
X98887933Y-80375409D01*
X98887933Y-80375409D02*
X98792695Y-80375409D01*
X98792695Y-80375409D02*
X98745076Y-80351600D01*
X98745076Y-80351600D02*
X98721267Y-80303980D01*
X98721267Y-80303980D02*
X98721267Y-80113504D01*
X98721267Y-80113504D02*
X98745076Y-80065885D01*
X98745076Y-80065885D02*
X98792695Y-80042076D01*
X98792695Y-80042076D02*
X98887933Y-80042076D01*
X98887933Y-80042076D02*
X98935552Y-80065885D01*
X98935552Y-80065885D02*
X98959362Y-80113504D01*
X98959362Y-80113504D02*
X98959362Y-80161123D01*
X98959362Y-80161123D02*
X98721267Y-80208742D01*
X99387933Y-80375409D02*
X99387933Y-80113504D01*
X99387933Y-80113504D02*
X99364123Y-80065885D01*
X99364123Y-80065885D02*
X99316504Y-80042076D01*
X99316504Y-80042076D02*
X99221266Y-80042076D01*
X99221266Y-80042076D02*
X99173647Y-80065885D01*
X99387933Y-80351600D02*
X99340314Y-80375409D01*
X99340314Y-80375409D02*
X99221266Y-80375409D01*
X99221266Y-80375409D02*
X99173647Y-80351600D01*
X99173647Y-80351600D02*
X99149838Y-80303980D01*
X99149838Y-80303980D02*
X99149838Y-80256361D01*
X99149838Y-80256361D02*
X99173647Y-80208742D01*
X99173647Y-80208742D02*
X99221266Y-80184933D01*
X99221266Y-80184933D02*
X99340314Y-80184933D01*
X99340314Y-80184933D02*
X99387933Y-80161123D01*
X99697457Y-80375409D02*
X99649838Y-80351600D01*
X99649838Y-80351600D02*
X99626028Y-80303980D01*
X99626028Y-80303980D02*
X99626028Y-79875409D01*
X99816505Y-80042076D02*
X100006981Y-80042076D01*
X99887933Y-79875409D02*
X99887933Y-80303980D01*
X99887933Y-80303980D02*
X99911743Y-80351600D01*
X99911743Y-80351600D02*
X99959362Y-80375409D01*
X99959362Y-80375409D02*
X100006981Y-80375409D01*
X100173647Y-80375409D02*
X100173647Y-79875409D01*
X100387933Y-80375409D02*
X100387933Y-80113504D01*
X100387933Y-80113504D02*
X100364123Y-80065885D01*
X100364123Y-80065885D02*
X100316504Y-80042076D01*
X100316504Y-80042076D02*
X100245076Y-80042076D01*
X100245076Y-80042076D02*
X100197457Y-80065885D01*
X100197457Y-80065885D02*
X100173647Y-80089695D01*
X100911742Y-80327790D02*
X100887933Y-80351600D01*
X100887933Y-80351600D02*
X100816504Y-80375409D01*
X100816504Y-80375409D02*
X100768885Y-80375409D01*
X100768885Y-80375409D02*
X100697457Y-80351600D01*
X100697457Y-80351600D02*
X100649838Y-80303980D01*
X100649838Y-80303980D02*
X100626028Y-80256361D01*
X100626028Y-80256361D02*
X100602219Y-80161123D01*
X100602219Y-80161123D02*
X100602219Y-80089695D01*
X100602219Y-80089695D02*
X100626028Y-79994457D01*
X100626028Y-79994457D02*
X100649838Y-79946838D01*
X100649838Y-79946838D02*
X100697457Y-79899219D01*
X100697457Y-79899219D02*
X100768885Y-79875409D01*
X100768885Y-79875409D02*
X100816504Y-79875409D01*
X100816504Y-79875409D02*
X100887933Y-79899219D01*
X100887933Y-79899219D02*
X100911742Y-79923028D01*
X101126028Y-80375409D02*
X101126028Y-79875409D01*
X101340314Y-80375409D02*
X101340314Y-80113504D01*
X101340314Y-80113504D02*
X101316504Y-80065885D01*
X101316504Y-80065885D02*
X101268885Y-80042076D01*
X101268885Y-80042076D02*
X101197457Y-80042076D01*
X101197457Y-80042076D02*
X101149838Y-80065885D01*
X101149838Y-80065885D02*
X101126028Y-80089695D01*
X101649838Y-80375409D02*
X101602219Y-80351600D01*
X101602219Y-80351600D02*
X101578409Y-80327790D01*
X101578409Y-80327790D02*
X101554600Y-80280171D01*
X101554600Y-80280171D02*
X101554600Y-80137314D01*
X101554600Y-80137314D02*
X101578409Y-80089695D01*
X101578409Y-80089695D02*
X101602219Y-80065885D01*
X101602219Y-80065885D02*
X101649838Y-80042076D01*
X101649838Y-80042076D02*
X101721266Y-80042076D01*
X101721266Y-80042076D02*
X101768885Y-80065885D01*
X101768885Y-80065885D02*
X101792695Y-80089695D01*
X101792695Y-80089695D02*
X101816504Y-80137314D01*
X101816504Y-80137314D02*
X101816504Y-80280171D01*
X101816504Y-80280171D02*
X101792695Y-80327790D01*
X101792695Y-80327790D02*
X101768885Y-80351600D01*
X101768885Y-80351600D02*
X101721266Y-80375409D01*
X101721266Y-80375409D02*
X101649838Y-80375409D01*
X102030790Y-80042076D02*
X102030790Y-80542076D01*
X102030790Y-80065885D02*
X102078409Y-80042076D01*
X102078409Y-80042076D02*
X102173647Y-80042076D01*
X102173647Y-80042076D02*
X102221266Y-80065885D01*
X102221266Y-80065885D02*
X102245076Y-80089695D01*
X102245076Y-80089695D02*
X102268885Y-80137314D01*
X102268885Y-80137314D02*
X102268885Y-80280171D01*
X102268885Y-80280171D02*
X102245076Y-80327790D01*
X102245076Y-80327790D02*
X102221266Y-80351600D01*
X102221266Y-80351600D02*
X102173647Y-80375409D01*
X102173647Y-80375409D02*
X102078409Y-80375409D01*
X102078409Y-80375409D02*
X102030790Y-80351600D01*
D10*
X96767855Y-97717028D02*
X96767855Y-98193219D01*
X96434522Y-97193219D02*
X96767855Y-97717028D01*
X96767855Y-97717028D02*
X97101188Y-97193219D01*
D12*
X105511667Y-86646966D02*
X105445000Y-86613633D01*
X105445000Y-86613633D02*
X105345000Y-86613633D01*
X105345000Y-86613633D02*
X105245000Y-86646966D01*
X105245000Y-86646966D02*
X105178334Y-86713633D01*
X105178334Y-86713633D02*
X105145000Y-86780300D01*
X105145000Y-86780300D02*
X105111667Y-86913633D01*
X105111667Y-86913633D02*
X105111667Y-87013633D01*
X105111667Y-87013633D02*
X105145000Y-87146966D01*
X105145000Y-87146966D02*
X105178334Y-87213633D01*
X105178334Y-87213633D02*
X105245000Y-87280300D01*
X105245000Y-87280300D02*
X105345000Y-87313633D01*
X105345000Y-87313633D02*
X105411667Y-87313633D01*
X105411667Y-87313633D02*
X105511667Y-87280300D01*
X105511667Y-87280300D02*
X105545000Y-87246966D01*
X105545000Y-87246966D02*
X105545000Y-87013633D01*
X105545000Y-87013633D02*
X105411667Y-87013633D01*
X105845000Y-87313633D02*
X105845000Y-86613633D01*
X105845000Y-86613633D02*
X106245000Y-87313633D01*
X106245000Y-87313633D02*
X106245000Y-86613633D01*
X106578333Y-87313633D02*
X106578333Y-86613633D01*
X106578333Y-86613633D02*
X106745000Y-86613633D01*
X106745000Y-86613633D02*
X106845000Y-86646966D01*
X106845000Y-86646966D02*
X106911667Y-86713633D01*
X106911667Y-86713633D02*
X106945000Y-86780300D01*
X106945000Y-86780300D02*
X106978333Y-86913633D01*
X106978333Y-86913633D02*
X106978333Y-87013633D01*
X106978333Y-87013633D02*
X106945000Y-87146966D01*
X106945000Y-87146966D02*
X106911667Y-87213633D01*
X106911667Y-87213633D02*
X106845000Y-87280300D01*
X106845000Y-87280300D02*
X106745000Y-87313633D01*
X106745000Y-87313633D02*
X106578333Y-87313633D01*
D10*
X104059171Y-58564560D02*
X104654409Y-58564560D01*
X103940123Y-58921703D02*
X104356790Y-57671703D01*
X104356790Y-57671703D02*
X104773456Y-58921703D01*
X105190124Y-58445513D02*
X106142505Y-58445513D01*
X105666314Y-58921703D02*
X105666314Y-57969322D01*
X104446076Y-60279371D02*
X104624648Y-60338895D01*
X104624648Y-60338895D02*
X104684171Y-60398419D01*
X104684171Y-60398419D02*
X104743695Y-60517467D01*
X104743695Y-60517467D02*
X104743695Y-60696038D01*
X104743695Y-60696038D02*
X104684171Y-60815086D01*
X104684171Y-60815086D02*
X104624648Y-60874610D01*
X104624648Y-60874610D02*
X104505600Y-60934133D01*
X104505600Y-60934133D02*
X104029410Y-60934133D01*
X104029410Y-60934133D02*
X104029410Y-59684133D01*
X104029410Y-59684133D02*
X104446076Y-59684133D01*
X104446076Y-59684133D02*
X104565124Y-59743657D01*
X104565124Y-59743657D02*
X104624648Y-59803181D01*
X104624648Y-59803181D02*
X104684171Y-59922229D01*
X104684171Y-59922229D02*
X104684171Y-60041276D01*
X104684171Y-60041276D02*
X104624648Y-60160324D01*
X104624648Y-60160324D02*
X104565124Y-60219848D01*
X104565124Y-60219848D02*
X104446076Y-60279371D01*
X104446076Y-60279371D02*
X104029410Y-60279371D01*
X105279410Y-60457943D02*
X106231791Y-60457943D01*
X105755600Y-60934133D02*
X105755600Y-59981752D01*
X104059171Y-62589420D02*
X104654409Y-62589420D01*
X103940123Y-62946563D02*
X104356790Y-61696563D01*
X104356790Y-61696563D02*
X104773456Y-62946563D01*
X105190124Y-62470373D02*
X106142505Y-62470373D01*
X104446076Y-64304231D02*
X104624648Y-64363755D01*
X104624648Y-64363755D02*
X104684171Y-64423279D01*
X104684171Y-64423279D02*
X104743695Y-64542327D01*
X104743695Y-64542327D02*
X104743695Y-64720898D01*
X104743695Y-64720898D02*
X104684171Y-64839946D01*
X104684171Y-64839946D02*
X104624648Y-64899470D01*
X104624648Y-64899470D02*
X104505600Y-64958993D01*
X104505600Y-64958993D02*
X104029410Y-64958993D01*
X104029410Y-64958993D02*
X104029410Y-63708993D01*
X104029410Y-63708993D02*
X104446076Y-63708993D01*
X104446076Y-63708993D02*
X104565124Y-63768517D01*
X104565124Y-63768517D02*
X104624648Y-63828041D01*
X104624648Y-63828041D02*
X104684171Y-63947089D01*
X104684171Y-63947089D02*
X104684171Y-64066136D01*
X104684171Y-64066136D02*
X104624648Y-64185184D01*
X104624648Y-64185184D02*
X104565124Y-64244708D01*
X104565124Y-64244708D02*
X104446076Y-64304231D01*
X104446076Y-64304231D02*
X104029410Y-64304231D01*
X105279410Y-64482803D02*
X106231791Y-64482803D01*
X104148457Y-66971423D02*
X104148457Y-65721423D01*
X104148457Y-65721423D02*
X104862742Y-66971423D01*
X104862742Y-66971423D02*
X104862742Y-65721423D01*
X106172266Y-66852376D02*
X106112742Y-66911900D01*
X106112742Y-66911900D02*
X105934171Y-66971423D01*
X105934171Y-66971423D02*
X105815123Y-66971423D01*
X105815123Y-66971423D02*
X105636552Y-66911900D01*
X105636552Y-66911900D02*
X105517504Y-66792852D01*
X105517504Y-66792852D02*
X105457981Y-66673804D01*
X105457981Y-66673804D02*
X105398457Y-66435709D01*
X105398457Y-66435709D02*
X105398457Y-66257138D01*
X105398457Y-66257138D02*
X105457981Y-66019042D01*
X105457981Y-66019042D02*
X105517504Y-65899995D01*
X105517504Y-65899995D02*
X105636552Y-65780947D01*
X105636552Y-65780947D02*
X105815123Y-65721423D01*
X105815123Y-65721423D02*
X105934171Y-65721423D01*
X105934171Y-65721423D02*
X106112742Y-65780947D01*
X106112742Y-65780947D02*
X106172266Y-65840471D01*
D14*
X77584206Y-65681333D02*
X77584206Y-65281333D01*
X77584206Y-65481333D02*
X78284206Y-65481333D01*
X78284206Y-65481333D02*
X78184206Y-65414666D01*
X78184206Y-65414666D02*
X78117540Y-65348000D01*
X78117540Y-65348000D02*
X78084206Y-65281333D01*
X78217540Y-65948000D02*
X78250873Y-65981333D01*
X78250873Y-65981333D02*
X78284206Y-66048000D01*
X78284206Y-66048000D02*
X78284206Y-66214667D01*
X78284206Y-66214667D02*
X78250873Y-66281333D01*
X78250873Y-66281333D02*
X78217540Y-66314667D01*
X78217540Y-66314667D02*
X78150873Y-66348000D01*
X78150873Y-66348000D02*
X78084206Y-66348000D01*
X78084206Y-66348000D02*
X77984206Y-66314667D01*
X77984206Y-66314667D02*
X77584206Y-65914667D01*
X77584206Y-65914667D02*
X77584206Y-66348000D01*
X78284206Y-66781334D02*
X78284206Y-66848000D01*
X78284206Y-66848000D02*
X78250873Y-66914667D01*
X78250873Y-66914667D02*
X78217540Y-66948000D01*
X78217540Y-66948000D02*
X78150873Y-66981334D01*
X78150873Y-66981334D02*
X78017540Y-67014667D01*
X78017540Y-67014667D02*
X77850873Y-67014667D01*
X77850873Y-67014667D02*
X77717540Y-66981334D01*
X77717540Y-66981334D02*
X77650873Y-66948000D01*
X77650873Y-66948000D02*
X77617540Y-66914667D01*
X77617540Y-66914667D02*
X77584206Y-66848000D01*
X77584206Y-66848000D02*
X77584206Y-66781334D01*
X77584206Y-66781334D02*
X77617540Y-66714667D01*
X77617540Y-66714667D02*
X77650873Y-66681334D01*
X77650873Y-66681334D02*
X77717540Y-66648000D01*
X77717540Y-66648000D02*
X77850873Y-66614667D01*
X77850873Y-66614667D02*
X78017540Y-66614667D01*
X78017540Y-66614667D02*
X78150873Y-66648000D01*
X78150873Y-66648000D02*
X78217540Y-66681334D01*
X78217540Y-66681334D02*
X78250873Y-66714667D01*
X78250873Y-66714667D02*
X78284206Y-66781334D01*
X77584206Y-67281334D02*
X77584206Y-67448001D01*
X77584206Y-67448001D02*
X77717540Y-67448001D01*
X77717540Y-67448001D02*
X77750873Y-67381334D01*
X77750873Y-67381334D02*
X77817540Y-67314667D01*
X77817540Y-67314667D02*
X77917540Y-67281334D01*
X77917540Y-67281334D02*
X78084206Y-67281334D01*
X78084206Y-67281334D02*
X78184206Y-67314667D01*
X78184206Y-67314667D02*
X78250873Y-67381334D01*
X78250873Y-67381334D02*
X78284206Y-67481334D01*
X78284206Y-67481334D02*
X78284206Y-67614667D01*
X78284206Y-67614667D02*
X78250873Y-67714667D01*
X78250873Y-67714667D02*
X78184206Y-67781334D01*
X78184206Y-67781334D02*
X78084206Y-67814667D01*
X78084206Y-67814667D02*
X77917540Y-67814667D01*
X77917540Y-67814667D02*
X77817540Y-67781334D01*
X77817540Y-67781334D02*
X77750873Y-67714667D01*
X77750873Y-67714667D02*
X77717540Y-67648001D01*
X77717540Y-67648001D02*
X77584206Y-67648001D01*
X77584206Y-67648001D02*
X77584206Y-67814667D01*
D10*
X95643941Y-98869619D02*
X96310607Y-98869619D01*
X96310607Y-98869619D02*
X95643941Y-99869619D01*
X95643941Y-99869619D02*
X96310607Y-99869619D01*
X84096266Y-55411019D02*
X84096266Y-56125304D01*
X84096266Y-56125304D02*
X84048647Y-56268161D01*
X84048647Y-56268161D02*
X83953409Y-56363400D01*
X83953409Y-56363400D02*
X83810552Y-56411019D01*
X83810552Y-56411019D02*
X83715314Y-56411019D01*
X85001028Y-55744352D02*
X85001028Y-56411019D01*
X84762933Y-55363400D02*
X84524838Y-56077685D01*
X84524838Y-56077685D02*
X85143885Y-56077685D01*
X86398171Y-68237500D02*
X87541029Y-68237500D01*
X79946571Y-67881900D02*
X81089429Y-67881900D01*
X80518000Y-68453328D02*
X80518000Y-67310471D01*
X81016866Y-96843019D02*
X81016866Y-97557304D01*
X81016866Y-97557304D02*
X80969247Y-97700161D01*
X80969247Y-97700161D02*
X80874009Y-97795400D01*
X80874009Y-97795400D02*
X80731152Y-97843019D01*
X80731152Y-97843019D02*
X80635914Y-97843019D01*
X81969247Y-96843019D02*
X81493057Y-96843019D01*
X81493057Y-96843019D02*
X81445438Y-97319209D01*
X81445438Y-97319209D02*
X81493057Y-97271590D01*
X81493057Y-97271590D02*
X81588295Y-97223971D01*
X81588295Y-97223971D02*
X81826390Y-97223971D01*
X81826390Y-97223971D02*
X81921628Y-97271590D01*
X81921628Y-97271590D02*
X81969247Y-97319209D01*
X81969247Y-97319209D02*
X82016866Y-97414447D01*
X82016866Y-97414447D02*
X82016866Y-97652542D01*
X82016866Y-97652542D02*
X81969247Y-97747780D01*
X81969247Y-97747780D02*
X81921628Y-97795400D01*
X81921628Y-97795400D02*
X81826390Y-97843019D01*
X81826390Y-97843019D02*
X81588295Y-97843019D01*
X81588295Y-97843019D02*
X81493057Y-97795400D01*
X81493057Y-97795400D02*
X81445438Y-97747780D01*
X86573533Y-93254633D02*
X86340200Y-92921300D01*
X86173533Y-93254633D02*
X86173533Y-92554633D01*
X86173533Y-92554633D02*
X86440200Y-92554633D01*
X86440200Y-92554633D02*
X86506867Y-92587966D01*
X86506867Y-92587966D02*
X86540200Y-92621300D01*
X86540200Y-92621300D02*
X86573533Y-92687966D01*
X86573533Y-92687966D02*
X86573533Y-92787966D01*
X86573533Y-92787966D02*
X86540200Y-92854633D01*
X86540200Y-92854633D02*
X86506867Y-92887966D01*
X86506867Y-92887966D02*
X86440200Y-92921300D01*
X86440200Y-92921300D02*
X86173533Y-92921300D01*
X86906867Y-93254633D02*
X87040200Y-93254633D01*
X87040200Y-93254633D02*
X87106867Y-93221300D01*
X87106867Y-93221300D02*
X87140200Y-93187966D01*
X87140200Y-93187966D02*
X87206867Y-93087966D01*
X87206867Y-93087966D02*
X87240200Y-92954633D01*
X87240200Y-92954633D02*
X87240200Y-92687966D01*
X87240200Y-92687966D02*
X87206867Y-92621300D01*
X87206867Y-92621300D02*
X87173533Y-92587966D01*
X87173533Y-92587966D02*
X87106867Y-92554633D01*
X87106867Y-92554633D02*
X86973533Y-92554633D01*
X86973533Y-92554633D02*
X86906867Y-92587966D01*
X86906867Y-92587966D02*
X86873533Y-92621300D01*
X86873533Y-92621300D02*
X86840200Y-92687966D01*
X86840200Y-92687966D02*
X86840200Y-92854633D01*
X86840200Y-92854633D02*
X86873533Y-92921300D01*
X86873533Y-92921300D02*
X86906867Y-92954633D01*
X86906867Y-92954633D02*
X86973533Y-92987966D01*
X86973533Y-92987966D02*
X87106867Y-92987966D01*
X87106867Y-92987966D02*
X87173533Y-92954633D01*
X87173533Y-92954633D02*
X87206867Y-92921300D01*
X87206867Y-92921300D02*
X87240200Y-92854633D01*
X84776458Y-90803638D02*
X84728839Y-90898876D01*
X84728839Y-90898876D02*
X84633601Y-90994114D01*
X84633601Y-90994114D02*
X84490743Y-91136971D01*
X84490743Y-91136971D02*
X84443124Y-91232209D01*
X84443124Y-91232209D02*
X84443124Y-91327447D01*
X84681220Y-91279828D02*
X84633601Y-91375066D01*
X84633601Y-91375066D02*
X84538362Y-91470304D01*
X84538362Y-91470304D02*
X84347886Y-91517923D01*
X84347886Y-91517923D02*
X84014553Y-91517923D01*
X84014553Y-91517923D02*
X83824077Y-91470304D01*
X83824077Y-91470304D02*
X83728839Y-91375066D01*
X83728839Y-91375066D02*
X83681220Y-91279828D01*
X83681220Y-91279828D02*
X83681220Y-91089352D01*
X83681220Y-91089352D02*
X83728839Y-90994114D01*
X83728839Y-90994114D02*
X83824077Y-90898876D01*
X83824077Y-90898876D02*
X84014553Y-90851257D01*
X84014553Y-90851257D02*
X84347886Y-90851257D01*
X84347886Y-90851257D02*
X84538362Y-90898876D01*
X84538362Y-90898876D02*
X84633601Y-90994114D01*
X84633601Y-90994114D02*
X84681220Y-91089352D01*
X84681220Y-91089352D02*
X84681220Y-91279828D01*
X83776458Y-90470304D02*
X83728839Y-90422685D01*
X83728839Y-90422685D02*
X83681220Y-90327447D01*
X83681220Y-90327447D02*
X83681220Y-90089352D01*
X83681220Y-90089352D02*
X83728839Y-89994114D01*
X83728839Y-89994114D02*
X83776458Y-89946495D01*
X83776458Y-89946495D02*
X83871696Y-89898876D01*
X83871696Y-89898876D02*
X83966934Y-89898876D01*
X83966934Y-89898876D02*
X84109791Y-89946495D01*
X84109791Y-89946495D02*
X84681220Y-90517923D01*
X84681220Y-90517923D02*
X84681220Y-89898876D01*
X79183033Y-73221000D02*
X78849700Y-73454333D01*
X79183033Y-73621000D02*
X78483033Y-73621000D01*
X78483033Y-73621000D02*
X78483033Y-73354333D01*
X78483033Y-73354333D02*
X78516366Y-73287667D01*
X78516366Y-73287667D02*
X78549700Y-73254333D01*
X78549700Y-73254333D02*
X78616366Y-73221000D01*
X78616366Y-73221000D02*
X78716366Y-73221000D01*
X78716366Y-73221000D02*
X78783033Y-73254333D01*
X78783033Y-73254333D02*
X78816366Y-73287667D01*
X78816366Y-73287667D02*
X78849700Y-73354333D01*
X78849700Y-73354333D02*
X78849700Y-73621000D01*
X79183033Y-72554333D02*
X79183033Y-72954333D01*
X79183033Y-72754333D02*
X78483033Y-72754333D01*
X78483033Y-72754333D02*
X78583033Y-72821000D01*
X78583033Y-72821000D02*
X78649700Y-72887667D01*
X78649700Y-72887667D02*
X78683033Y-72954333D01*
X78483033Y-72321000D02*
X78483033Y-71854333D01*
X78483033Y-71854333D02*
X79183033Y-72154333D01*
D15*
X97577837Y-98031718D02*
X97577837Y-96761718D01*
X98908314Y-97910765D02*
X98847838Y-97971242D01*
X98847838Y-97971242D02*
X98666409Y-98031718D01*
X98666409Y-98031718D02*
X98545457Y-98031718D01*
X98545457Y-98031718D02*
X98364028Y-97971242D01*
X98364028Y-97971242D02*
X98243076Y-97850289D01*
X98243076Y-97850289D02*
X98182599Y-97729337D01*
X98182599Y-97729337D02*
X98122123Y-97487432D01*
X98122123Y-97487432D02*
X98122123Y-97306003D01*
X98122123Y-97306003D02*
X98182599Y-97064099D01*
X98182599Y-97064099D02*
X98243076Y-96943146D01*
X98243076Y-96943146D02*
X98364028Y-96822194D01*
X98364028Y-96822194D02*
X98545457Y-96761718D01*
X98545457Y-96761718D02*
X98666409Y-96761718D01*
X98666409Y-96761718D02*
X98847838Y-96822194D01*
X98847838Y-96822194D02*
X98908314Y-96882670D01*
X99331647Y-96761718D02*
X100117838Y-96761718D01*
X100117838Y-96761718D02*
X99694504Y-97245527D01*
X99694504Y-97245527D02*
X99875933Y-97245527D01*
X99875933Y-97245527D02*
X99996885Y-97306003D01*
X99996885Y-97306003D02*
X100057361Y-97366480D01*
X100057361Y-97366480D02*
X100117838Y-97487432D01*
X100117838Y-97487432D02*
X100117838Y-97789813D01*
X100117838Y-97789813D02*
X100057361Y-97910765D01*
X100057361Y-97910765D02*
X99996885Y-97971242D01*
X99996885Y-97971242D02*
X99875933Y-98031718D01*
X99875933Y-98031718D02*
X99513076Y-98031718D01*
X99513076Y-98031718D02*
X99392123Y-97971242D01*
X99392123Y-97971242D02*
X99331647Y-97910765D01*
D10*
X90558199Y-93254633D02*
X90324866Y-92921300D01*
X90158199Y-93254633D02*
X90158199Y-92554633D01*
X90158199Y-92554633D02*
X90424866Y-92554633D01*
X90424866Y-92554633D02*
X90491533Y-92587966D01*
X90491533Y-92587966D02*
X90524866Y-92621300D01*
X90524866Y-92621300D02*
X90558199Y-92687966D01*
X90558199Y-92687966D02*
X90558199Y-92787966D01*
X90558199Y-92787966D02*
X90524866Y-92854633D01*
X90524866Y-92854633D02*
X90491533Y-92887966D01*
X90491533Y-92887966D02*
X90424866Y-92921300D01*
X90424866Y-92921300D02*
X90158199Y-92921300D01*
X91224866Y-93254633D02*
X90824866Y-93254633D01*
X91024866Y-93254633D02*
X91024866Y-92554633D01*
X91024866Y-92554633D02*
X90958199Y-92654633D01*
X90958199Y-92654633D02*
X90891533Y-92721300D01*
X90891533Y-92721300D02*
X90824866Y-92754633D01*
X91824866Y-92787966D02*
X91824866Y-93254633D01*
X91658200Y-92521300D02*
X91491533Y-93021300D01*
X91491533Y-93021300D02*
X91924866Y-93021300D01*
X78194819Y-81232333D02*
X78909104Y-81232333D01*
X78909104Y-81232333D02*
X79051961Y-81279952D01*
X79051961Y-81279952D02*
X79147200Y-81375190D01*
X79147200Y-81375190D02*
X79194819Y-81518047D01*
X79194819Y-81518047D02*
X79194819Y-81613285D01*
X78290057Y-80803761D02*
X78242438Y-80756142D01*
X78242438Y-80756142D02*
X78194819Y-80660904D01*
X78194819Y-80660904D02*
X78194819Y-80422809D01*
X78194819Y-80422809D02*
X78242438Y-80327571D01*
X78242438Y-80327571D02*
X78290057Y-80279952D01*
X78290057Y-80279952D02*
X78385295Y-80232333D01*
X78385295Y-80232333D02*
X78480533Y-80232333D01*
X78480533Y-80232333D02*
X78623390Y-80279952D01*
X78623390Y-80279952D02*
X79194819Y-80851380D01*
X79194819Y-80851380D02*
X79194819Y-80232333D01*
X80194670Y-64371867D02*
X79793976Y-64301156D01*
X79911827Y-64654710D02*
X79416852Y-64159735D01*
X79416852Y-64159735D02*
X79605414Y-63971173D01*
X79605414Y-63971173D02*
X79676125Y-63947603D01*
X79676125Y-63947603D02*
X79723265Y-63947603D01*
X79723265Y-63947603D02*
X79793976Y-63971173D01*
X79793976Y-63971173D02*
X79864686Y-64041884D01*
X79864686Y-64041884D02*
X79888257Y-64112595D01*
X79888257Y-64112595D02*
X79888257Y-64159735D01*
X79888257Y-64159735D02*
X79864686Y-64230446D01*
X79864686Y-64230446D02*
X79676125Y-64419008D01*
X80666074Y-63900463D02*
X80383231Y-64183305D01*
X80524653Y-64041884D02*
X80029678Y-63546909D01*
X80029678Y-63546909D02*
X80053248Y-63664760D01*
X80053248Y-63664760D02*
X80053248Y-63759041D01*
X80053248Y-63759041D02*
X80029678Y-63829752D01*
X80595364Y-62981224D02*
X80501083Y-63075504D01*
X80501083Y-63075504D02*
X80477512Y-63146215D01*
X80477512Y-63146215D02*
X80477512Y-63193356D01*
X80477512Y-63193356D02*
X80501083Y-63311207D01*
X80501083Y-63311207D02*
X80571793Y-63429058D01*
X80571793Y-63429058D02*
X80760355Y-63617620D01*
X80760355Y-63617620D02*
X80831066Y-63641190D01*
X80831066Y-63641190D02*
X80878206Y-63641190D01*
X80878206Y-63641190D02*
X80948917Y-63617620D01*
X80948917Y-63617620D02*
X81043198Y-63523339D01*
X81043198Y-63523339D02*
X81066768Y-63452628D01*
X81066768Y-63452628D02*
X81066768Y-63405488D01*
X81066768Y-63405488D02*
X81043198Y-63334777D01*
X81043198Y-63334777D02*
X80925347Y-63216926D01*
X80925347Y-63216926D02*
X80854636Y-63193356D01*
X80854636Y-63193356D02*
X80807496Y-63193356D01*
X80807496Y-63193356D02*
X80736785Y-63216926D01*
X80736785Y-63216926D02*
X80642504Y-63311207D01*
X80642504Y-63311207D02*
X80618934Y-63381917D01*
X80618934Y-63381917D02*
X80618934Y-63429058D01*
X80618934Y-63429058D02*
X80642504Y-63499769D01*
D12*
X89026600Y-81679371D02*
X88826600Y-81393657D01*
X88683743Y-81679371D02*
X88683743Y-81079371D01*
X88683743Y-81079371D02*
X88912314Y-81079371D01*
X88912314Y-81079371D02*
X88969457Y-81107942D01*
X88969457Y-81107942D02*
X88998028Y-81136514D01*
X88998028Y-81136514D02*
X89026600Y-81193657D01*
X89026600Y-81193657D02*
X89026600Y-81279371D01*
X89026600Y-81279371D02*
X88998028Y-81336514D01*
X88998028Y-81336514D02*
X88969457Y-81365085D01*
X88969457Y-81365085D02*
X88912314Y-81393657D01*
X88912314Y-81393657D02*
X88683743Y-81393657D01*
X89255171Y-81136514D02*
X89283743Y-81107942D01*
X89283743Y-81107942D02*
X89340886Y-81079371D01*
X89340886Y-81079371D02*
X89483743Y-81079371D01*
X89483743Y-81079371D02*
X89540886Y-81107942D01*
X89540886Y-81107942D02*
X89569457Y-81136514D01*
X89569457Y-81136514D02*
X89598028Y-81193657D01*
X89598028Y-81193657D02*
X89598028Y-81250800D01*
X89598028Y-81250800D02*
X89569457Y-81336514D01*
X89569457Y-81336514D02*
X89226600Y-81679371D01*
X89226600Y-81679371D02*
X89598028Y-81679371D01*
X89815090Y-77449133D02*
X89838900Y-77472942D01*
X89838900Y-77472942D02*
X89862709Y-77544371D01*
X89862709Y-77544371D02*
X89862709Y-77591990D01*
X89862709Y-77591990D02*
X89838900Y-77663418D01*
X89838900Y-77663418D02*
X89791280Y-77711037D01*
X89791280Y-77711037D02*
X89743661Y-77734847D01*
X89743661Y-77734847D02*
X89648423Y-77758656D01*
X89648423Y-77758656D02*
X89576995Y-77758656D01*
X89576995Y-77758656D02*
X89481757Y-77734847D01*
X89481757Y-77734847D02*
X89434138Y-77711037D01*
X89434138Y-77711037D02*
X89386519Y-77663418D01*
X89386519Y-77663418D02*
X89362709Y-77591990D01*
X89362709Y-77591990D02*
X89362709Y-77544371D01*
X89362709Y-77544371D02*
X89386519Y-77472942D01*
X89386519Y-77472942D02*
X89410328Y-77449133D01*
X89362709Y-77282466D02*
X89362709Y-76972942D01*
X89362709Y-76972942D02*
X89553185Y-77139609D01*
X89553185Y-77139609D02*
X89553185Y-77068180D01*
X89553185Y-77068180D02*
X89576995Y-77020561D01*
X89576995Y-77020561D02*
X89600804Y-76996752D01*
X89600804Y-76996752D02*
X89648423Y-76972942D01*
X89648423Y-76972942D02*
X89767471Y-76972942D01*
X89767471Y-76972942D02*
X89815090Y-76996752D01*
X89815090Y-76996752D02*
X89838900Y-77020561D01*
X89838900Y-77020561D02*
X89862709Y-77068180D01*
X89862709Y-77068180D02*
X89862709Y-77211037D01*
X89862709Y-77211037D02*
X89838900Y-77258656D01*
X89838900Y-77258656D02*
X89815090Y-77282466D01*
D10*
X78129005Y-63065819D02*
X78129005Y-62065819D01*
X78129005Y-62065819D02*
X78367100Y-62065819D01*
X78367100Y-62065819D02*
X78509957Y-62113438D01*
X78509957Y-62113438D02*
X78605195Y-62208676D01*
X78605195Y-62208676D02*
X78652814Y-62303914D01*
X78652814Y-62303914D02*
X78700433Y-62494390D01*
X78700433Y-62494390D02*
X78700433Y-62637247D01*
X78700433Y-62637247D02*
X78652814Y-62827723D01*
X78652814Y-62827723D02*
X78605195Y-62922961D01*
X78605195Y-62922961D02*
X78509957Y-63018200D01*
X78509957Y-63018200D02*
X78367100Y-63065819D01*
X78367100Y-63065819D02*
X78129005Y-63065819D01*
X79652814Y-63065819D02*
X79081386Y-63065819D01*
X79367100Y-63065819D02*
X79367100Y-62065819D01*
X79367100Y-62065819D02*
X79271862Y-62208676D01*
X79271862Y-62208676D02*
X79176624Y-62303914D01*
X79176624Y-62303914D02*
X79081386Y-62351533D01*
D15*
X91909267Y-62278718D02*
X91909267Y-63185861D01*
X91909267Y-63185861D02*
X91848790Y-63367289D01*
X91848790Y-63367289D02*
X91727838Y-63488242D01*
X91727838Y-63488242D02*
X91546409Y-63548718D01*
X91546409Y-63548718D02*
X91425457Y-63548718D01*
X92393076Y-62278718D02*
X93239743Y-62278718D01*
X93239743Y-62278718D02*
X92695457Y-63548718D01*
D10*
X84897133Y-88504833D02*
X84663800Y-88171500D01*
X84497133Y-88504833D02*
X84497133Y-87804833D01*
X84497133Y-87804833D02*
X84763800Y-87804833D01*
X84763800Y-87804833D02*
X84830467Y-87838166D01*
X84830467Y-87838166D02*
X84863800Y-87871500D01*
X84863800Y-87871500D02*
X84897133Y-87938166D01*
X84897133Y-87938166D02*
X84897133Y-88038166D01*
X84897133Y-88038166D02*
X84863800Y-88104833D01*
X84863800Y-88104833D02*
X84830467Y-88138166D01*
X84830467Y-88138166D02*
X84763800Y-88171500D01*
X84763800Y-88171500D02*
X84497133Y-88171500D01*
X85297133Y-88104833D02*
X85230467Y-88071500D01*
X85230467Y-88071500D02*
X85197133Y-88038166D01*
X85197133Y-88038166D02*
X85163800Y-87971500D01*
X85163800Y-87971500D02*
X85163800Y-87938166D01*
X85163800Y-87938166D02*
X85197133Y-87871500D01*
X85197133Y-87871500D02*
X85230467Y-87838166D01*
X85230467Y-87838166D02*
X85297133Y-87804833D01*
X85297133Y-87804833D02*
X85430467Y-87804833D01*
X85430467Y-87804833D02*
X85497133Y-87838166D01*
X85497133Y-87838166D02*
X85530467Y-87871500D01*
X85530467Y-87871500D02*
X85563800Y-87938166D01*
X85563800Y-87938166D02*
X85563800Y-87971500D01*
X85563800Y-87971500D02*
X85530467Y-88038166D01*
X85530467Y-88038166D02*
X85497133Y-88071500D01*
X85497133Y-88071500D02*
X85430467Y-88104833D01*
X85430467Y-88104833D02*
X85297133Y-88104833D01*
X85297133Y-88104833D02*
X85230467Y-88138166D01*
X85230467Y-88138166D02*
X85197133Y-88171500D01*
X85197133Y-88171500D02*
X85163800Y-88238166D01*
X85163800Y-88238166D02*
X85163800Y-88371500D01*
X85163800Y-88371500D02*
X85197133Y-88438166D01*
X85197133Y-88438166D02*
X85230467Y-88471500D01*
X85230467Y-88471500D02*
X85297133Y-88504833D01*
X85297133Y-88504833D02*
X85430467Y-88504833D01*
X85430467Y-88504833D02*
X85497133Y-88471500D01*
X85497133Y-88471500D02*
X85530467Y-88438166D01*
X85530467Y-88438166D02*
X85563800Y-88371500D01*
X85563800Y-88371500D02*
X85563800Y-88238166D01*
X85563800Y-88238166D02*
X85530467Y-88171500D01*
X85530467Y-88171500D02*
X85497133Y-88138166D01*
X85497133Y-88138166D02*
X85430467Y-88104833D01*
X93564857Y-90651237D02*
X93517238Y-90746475D01*
X93517238Y-90746475D02*
X93422000Y-90841713D01*
X93422000Y-90841713D02*
X93279142Y-90984570D01*
X93279142Y-90984570D02*
X93231523Y-91079808D01*
X93231523Y-91079808D02*
X93231523Y-91175046D01*
X93469619Y-91127427D02*
X93422000Y-91222665D01*
X93422000Y-91222665D02*
X93326761Y-91317903D01*
X93326761Y-91317903D02*
X93136285Y-91365522D01*
X93136285Y-91365522D02*
X92802952Y-91365522D01*
X92802952Y-91365522D02*
X92612476Y-91317903D01*
X92612476Y-91317903D02*
X92517238Y-91222665D01*
X92517238Y-91222665D02*
X92469619Y-91127427D01*
X92469619Y-91127427D02*
X92469619Y-90936951D01*
X92469619Y-90936951D02*
X92517238Y-90841713D01*
X92517238Y-90841713D02*
X92612476Y-90746475D01*
X92612476Y-90746475D02*
X92802952Y-90698856D01*
X92802952Y-90698856D02*
X93136285Y-90698856D01*
X93136285Y-90698856D02*
X93326761Y-90746475D01*
X93326761Y-90746475D02*
X93422000Y-90841713D01*
X93422000Y-90841713D02*
X93469619Y-90936951D01*
X93469619Y-90936951D02*
X93469619Y-91127427D01*
X93469619Y-89746475D02*
X93469619Y-90317903D01*
X93469619Y-90032189D02*
X92469619Y-90032189D01*
X92469619Y-90032189D02*
X92612476Y-90127427D01*
X92612476Y-90127427D02*
X92707714Y-90222665D01*
X92707714Y-90222665D02*
X92755333Y-90317903D01*
D15*
X89539837Y-85019118D02*
X89539837Y-83749118D01*
X90870314Y-84898165D02*
X90809838Y-84958642D01*
X90809838Y-84958642D02*
X90628409Y-85019118D01*
X90628409Y-85019118D02*
X90507457Y-85019118D01*
X90507457Y-85019118D02*
X90326028Y-84958642D01*
X90326028Y-84958642D02*
X90205076Y-84837689D01*
X90205076Y-84837689D02*
X90144599Y-84716737D01*
X90144599Y-84716737D02*
X90084123Y-84474832D01*
X90084123Y-84474832D02*
X90084123Y-84293403D01*
X90084123Y-84293403D02*
X90144599Y-84051499D01*
X90144599Y-84051499D02*
X90205076Y-83930546D01*
X90205076Y-83930546D02*
X90326028Y-83809594D01*
X90326028Y-83809594D02*
X90507457Y-83749118D01*
X90507457Y-83749118D02*
X90628409Y-83749118D01*
X90628409Y-83749118D02*
X90809838Y-83809594D01*
X90809838Y-83809594D02*
X90870314Y-83870070D01*
X91354123Y-83870070D02*
X91414599Y-83809594D01*
X91414599Y-83809594D02*
X91535552Y-83749118D01*
X91535552Y-83749118D02*
X91837933Y-83749118D01*
X91837933Y-83749118D02*
X91958885Y-83809594D01*
X91958885Y-83809594D02*
X92019361Y-83870070D01*
X92019361Y-83870070D02*
X92079838Y-83991022D01*
X92079838Y-83991022D02*
X92079838Y-84111975D01*
X92079838Y-84111975D02*
X92019361Y-84293403D01*
X92019361Y-84293403D02*
X91293647Y-85019118D01*
X91293647Y-85019118D02*
X92079838Y-85019118D01*
D12*
X93898828Y-96264399D02*
X93927400Y-96292971D01*
X93927400Y-96292971D02*
X93955971Y-96378685D01*
X93955971Y-96378685D02*
X93955971Y-96435828D01*
X93955971Y-96435828D02*
X93927400Y-96521542D01*
X93927400Y-96521542D02*
X93870257Y-96578685D01*
X93870257Y-96578685D02*
X93813114Y-96607256D01*
X93813114Y-96607256D02*
X93698828Y-96635828D01*
X93698828Y-96635828D02*
X93613114Y-96635828D01*
X93613114Y-96635828D02*
X93498828Y-96607256D01*
X93498828Y-96607256D02*
X93441685Y-96578685D01*
X93441685Y-96578685D02*
X93384542Y-96521542D01*
X93384542Y-96521542D02*
X93355971Y-96435828D01*
X93355971Y-96435828D02*
X93355971Y-96378685D01*
X93355971Y-96378685D02*
X93384542Y-96292971D01*
X93384542Y-96292971D02*
X93413114Y-96264399D01*
X93355971Y-96064399D02*
X93355971Y-95664399D01*
X93355971Y-95664399D02*
X93955971Y-95921542D01*
X101186466Y-96800090D02*
X101162657Y-96823900D01*
X101162657Y-96823900D02*
X101091228Y-96847709D01*
X101091228Y-96847709D02*
X101043609Y-96847709D01*
X101043609Y-96847709D02*
X100972181Y-96823900D01*
X100972181Y-96823900D02*
X100924562Y-96776280D01*
X100924562Y-96776280D02*
X100900752Y-96728661D01*
X100900752Y-96728661D02*
X100876943Y-96633423D01*
X100876943Y-96633423D02*
X100876943Y-96561995D01*
X100876943Y-96561995D02*
X100900752Y-96466757D01*
X100900752Y-96466757D02*
X100924562Y-96419138D01*
X100924562Y-96419138D02*
X100972181Y-96371519D01*
X100972181Y-96371519D02*
X101043609Y-96347709D01*
X101043609Y-96347709D02*
X101091228Y-96347709D01*
X101091228Y-96347709D02*
X101162657Y-96371519D01*
X101162657Y-96371519D02*
X101186466Y-96395328D01*
X101472181Y-96561995D02*
X101424562Y-96538185D01*
X101424562Y-96538185D02*
X101400752Y-96514376D01*
X101400752Y-96514376D02*
X101376943Y-96466757D01*
X101376943Y-96466757D02*
X101376943Y-96442947D01*
X101376943Y-96442947D02*
X101400752Y-96395328D01*
X101400752Y-96395328D02*
X101424562Y-96371519D01*
X101424562Y-96371519D02*
X101472181Y-96347709D01*
X101472181Y-96347709D02*
X101567419Y-96347709D01*
X101567419Y-96347709D02*
X101615038Y-96371519D01*
X101615038Y-96371519D02*
X101638847Y-96395328D01*
X101638847Y-96395328D02*
X101662657Y-96442947D01*
X101662657Y-96442947D02*
X101662657Y-96466757D01*
X101662657Y-96466757D02*
X101638847Y-96514376D01*
X101638847Y-96514376D02*
X101615038Y-96538185D01*
X101615038Y-96538185D02*
X101567419Y-96561995D01*
X101567419Y-96561995D02*
X101472181Y-96561995D01*
X101472181Y-96561995D02*
X101424562Y-96585804D01*
X101424562Y-96585804D02*
X101400752Y-96609614D01*
X101400752Y-96609614D02*
X101376943Y-96657233D01*
X101376943Y-96657233D02*
X101376943Y-96752471D01*
X101376943Y-96752471D02*
X101400752Y-96800090D01*
X101400752Y-96800090D02*
X101424562Y-96823900D01*
X101424562Y-96823900D02*
X101472181Y-96847709D01*
X101472181Y-96847709D02*
X101567419Y-96847709D01*
X101567419Y-96847709D02*
X101615038Y-96823900D01*
X101615038Y-96823900D02*
X101638847Y-96800090D01*
X101638847Y-96800090D02*
X101662657Y-96752471D01*
X101662657Y-96752471D02*
X101662657Y-96657233D01*
X101662657Y-96657233D02*
X101638847Y-96609614D01*
X101638847Y-96609614D02*
X101615038Y-96585804D01*
X101615038Y-96585804D02*
X101567419Y-96561995D01*
X95298309Y-98482933D02*
X95060214Y-98649599D01*
X95298309Y-98768647D02*
X94798309Y-98768647D01*
X94798309Y-98768647D02*
X94798309Y-98578171D01*
X94798309Y-98578171D02*
X94822119Y-98530552D01*
X94822119Y-98530552D02*
X94845928Y-98506742D01*
X94845928Y-98506742D02*
X94893547Y-98482933D01*
X94893547Y-98482933D02*
X94964976Y-98482933D01*
X94964976Y-98482933D02*
X95012595Y-98506742D01*
X95012595Y-98506742D02*
X95036404Y-98530552D01*
X95036404Y-98530552D02*
X95060214Y-98578171D01*
X95060214Y-98578171D02*
X95060214Y-98768647D01*
X94798309Y-98316266D02*
X94798309Y-98006742D01*
X94798309Y-98006742D02*
X94988785Y-98173409D01*
X94988785Y-98173409D02*
X94988785Y-98101980D01*
X94988785Y-98101980D02*
X95012595Y-98054361D01*
X95012595Y-98054361D02*
X95036404Y-98030552D01*
X95036404Y-98030552D02*
X95084023Y-98006742D01*
X95084023Y-98006742D02*
X95203071Y-98006742D01*
X95203071Y-98006742D02*
X95250690Y-98030552D01*
X95250690Y-98030552D02*
X95274500Y-98054361D01*
X95274500Y-98054361D02*
X95298309Y-98101980D01*
X95298309Y-98101980D02*
X95298309Y-98244837D01*
X95298309Y-98244837D02*
X95274500Y-98292456D01*
X95274500Y-98292456D02*
X95250690Y-98316266D01*
D10*
X95140542Y-55004619D02*
X95140542Y-55718904D01*
X95140542Y-55718904D02*
X95092923Y-55861761D01*
X95092923Y-55861761D02*
X94997685Y-55957000D01*
X94997685Y-55957000D02*
X94854828Y-56004619D01*
X94854828Y-56004619D02*
X94759590Y-56004619D01*
X95616733Y-56004619D02*
X95616733Y-55337952D01*
X95616733Y-55528428D02*
X95664352Y-55433190D01*
X95664352Y-55433190D02*
X95711971Y-55385571D01*
X95711971Y-55385571D02*
X95807209Y-55337952D01*
X95807209Y-55337952D02*
X95902447Y-55337952D01*
X96759590Y-56004619D02*
X96188162Y-56004619D01*
X96473876Y-56004619D02*
X96473876Y-55004619D01*
X96473876Y-55004619D02*
X96378638Y-55147476D01*
X96378638Y-55147476D02*
X96283400Y-55242714D01*
X96283400Y-55242714D02*
X96188162Y-55290333D01*
D12*
X97534066Y-75540291D02*
X97510257Y-75564101D01*
X97510257Y-75564101D02*
X97438828Y-75587910D01*
X97438828Y-75587910D02*
X97391209Y-75587910D01*
X97391209Y-75587910D02*
X97319781Y-75564101D01*
X97319781Y-75564101D02*
X97272162Y-75516481D01*
X97272162Y-75516481D02*
X97248352Y-75468862D01*
X97248352Y-75468862D02*
X97224543Y-75373624D01*
X97224543Y-75373624D02*
X97224543Y-75302196D01*
X97224543Y-75302196D02*
X97248352Y-75206958D01*
X97248352Y-75206958D02*
X97272162Y-75159339D01*
X97272162Y-75159339D02*
X97319781Y-75111720D01*
X97319781Y-75111720D02*
X97391209Y-75087910D01*
X97391209Y-75087910D02*
X97438828Y-75087910D01*
X97438828Y-75087910D02*
X97510257Y-75111720D01*
X97510257Y-75111720D02*
X97534066Y-75135529D01*
X97724543Y-75135529D02*
X97748352Y-75111720D01*
X97748352Y-75111720D02*
X97795971Y-75087910D01*
X97795971Y-75087910D02*
X97915019Y-75087910D01*
X97915019Y-75087910D02*
X97962638Y-75111720D01*
X97962638Y-75111720D02*
X97986447Y-75135529D01*
X97986447Y-75135529D02*
X98010257Y-75183148D01*
X98010257Y-75183148D02*
X98010257Y-75230767D01*
X98010257Y-75230767D02*
X97986447Y-75302196D01*
X97986447Y-75302196D02*
X97700733Y-75587910D01*
X97700733Y-75587910D02*
X98010257Y-75587910D01*
D10*
X91323333Y-88504833D02*
X91090000Y-88171500D01*
X90923333Y-88504833D02*
X90923333Y-87804833D01*
X90923333Y-87804833D02*
X91190000Y-87804833D01*
X91190000Y-87804833D02*
X91256667Y-87838166D01*
X91256667Y-87838166D02*
X91290000Y-87871500D01*
X91290000Y-87871500D02*
X91323333Y-87938166D01*
X91323333Y-87938166D02*
X91323333Y-88038166D01*
X91323333Y-88038166D02*
X91290000Y-88104833D01*
X91290000Y-88104833D02*
X91256667Y-88138166D01*
X91256667Y-88138166D02*
X91190000Y-88171500D01*
X91190000Y-88171500D02*
X90923333Y-88171500D01*
X91556667Y-87804833D02*
X92023333Y-87804833D01*
X92023333Y-87804833D02*
X91723333Y-88504833D01*
D12*
X85686228Y-80897399D02*
X85714800Y-80925971D01*
X85714800Y-80925971D02*
X85743371Y-81011685D01*
X85743371Y-81011685D02*
X85743371Y-81068828D01*
X85743371Y-81068828D02*
X85714800Y-81154542D01*
X85714800Y-81154542D02*
X85657657Y-81211685D01*
X85657657Y-81211685D02*
X85600514Y-81240256D01*
X85600514Y-81240256D02*
X85486228Y-81268828D01*
X85486228Y-81268828D02*
X85400514Y-81268828D01*
X85400514Y-81268828D02*
X85286228Y-81240256D01*
X85286228Y-81240256D02*
X85229085Y-81211685D01*
X85229085Y-81211685D02*
X85171942Y-81154542D01*
X85171942Y-81154542D02*
X85143371Y-81068828D01*
X85143371Y-81068828D02*
X85143371Y-81011685D01*
X85143371Y-81011685D02*
X85171942Y-80925971D01*
X85171942Y-80925971D02*
X85200514Y-80897399D01*
X85343371Y-80383114D02*
X85743371Y-80383114D01*
X85114800Y-80525971D02*
X85543371Y-80668828D01*
X85543371Y-80668828D02*
X85543371Y-80297399D01*
X95665171Y-71323890D02*
X95641362Y-71347700D01*
X95641362Y-71347700D02*
X95569933Y-71371509D01*
X95569933Y-71371509D02*
X95522314Y-71371509D01*
X95522314Y-71371509D02*
X95450886Y-71347700D01*
X95450886Y-71347700D02*
X95403267Y-71300080D01*
X95403267Y-71300080D02*
X95379457Y-71252461D01*
X95379457Y-71252461D02*
X95355648Y-71157223D01*
X95355648Y-71157223D02*
X95355648Y-71085795D01*
X95355648Y-71085795D02*
X95379457Y-70990557D01*
X95379457Y-70990557D02*
X95403267Y-70942938D01*
X95403267Y-70942938D02*
X95450886Y-70895319D01*
X95450886Y-70895319D02*
X95522314Y-70871509D01*
X95522314Y-70871509D02*
X95569933Y-70871509D01*
X95569933Y-70871509D02*
X95641362Y-70895319D01*
X95641362Y-70895319D02*
X95665171Y-70919128D01*
X96141362Y-71371509D02*
X95855648Y-71371509D01*
X95998505Y-71371509D02*
X95998505Y-70871509D01*
X95998505Y-70871509D02*
X95950886Y-70942938D01*
X95950886Y-70942938D02*
X95903267Y-70990557D01*
X95903267Y-70990557D02*
X95855648Y-71014366D01*
X96450885Y-70871509D02*
X96498504Y-70871509D01*
X96498504Y-70871509D02*
X96546123Y-70895319D01*
X96546123Y-70895319D02*
X96569933Y-70919128D01*
X96569933Y-70919128D02*
X96593742Y-70966747D01*
X96593742Y-70966747D02*
X96617552Y-71061985D01*
X96617552Y-71061985D02*
X96617552Y-71181033D01*
X96617552Y-71181033D02*
X96593742Y-71276271D01*
X96593742Y-71276271D02*
X96569933Y-71323890D01*
X96569933Y-71323890D02*
X96546123Y-71347700D01*
X96546123Y-71347700D02*
X96498504Y-71371509D01*
X96498504Y-71371509D02*
X96450885Y-71371509D01*
X96450885Y-71371509D02*
X96403266Y-71347700D01*
X96403266Y-71347700D02*
X96379457Y-71323890D01*
X96379457Y-71323890D02*
X96355647Y-71276271D01*
X96355647Y-71276271D02*
X96331838Y-71181033D01*
X96331838Y-71181033D02*
X96331838Y-71061985D01*
X96331838Y-71061985D02*
X96355647Y-70966747D01*
X96355647Y-70966747D02*
X96379457Y-70919128D01*
X96379457Y-70919128D02*
X96403266Y-70895319D01*
X96403266Y-70895319D02*
X96450885Y-70871509D01*
X96980828Y-84163799D02*
X97009400Y-84192371D01*
X97009400Y-84192371D02*
X97037971Y-84278085D01*
X97037971Y-84278085D02*
X97037971Y-84335228D01*
X97037971Y-84335228D02*
X97009400Y-84420942D01*
X97009400Y-84420942D02*
X96952257Y-84478085D01*
X96952257Y-84478085D02*
X96895114Y-84506656D01*
X96895114Y-84506656D02*
X96780828Y-84535228D01*
X96780828Y-84535228D02*
X96695114Y-84535228D01*
X96695114Y-84535228D02*
X96580828Y-84506656D01*
X96580828Y-84506656D02*
X96523685Y-84478085D01*
X96523685Y-84478085D02*
X96466542Y-84420942D01*
X96466542Y-84420942D02*
X96437971Y-84335228D01*
X96437971Y-84335228D02*
X96437971Y-84278085D01*
X96437971Y-84278085D02*
X96466542Y-84192371D01*
X96466542Y-84192371D02*
X96495114Y-84163799D01*
X96437971Y-83649514D02*
X96437971Y-83763799D01*
X96437971Y-83763799D02*
X96466542Y-83820942D01*
X96466542Y-83820942D02*
X96495114Y-83849514D01*
X96495114Y-83849514D02*
X96580828Y-83906656D01*
X96580828Y-83906656D02*
X96695114Y-83935228D01*
X96695114Y-83935228D02*
X96923685Y-83935228D01*
X96923685Y-83935228D02*
X96980828Y-83906656D01*
X96980828Y-83906656D02*
X97009400Y-83878085D01*
X97009400Y-83878085D02*
X97037971Y-83820942D01*
X97037971Y-83820942D02*
X97037971Y-83706656D01*
X97037971Y-83706656D02*
X97009400Y-83649514D01*
X97009400Y-83649514D02*
X96980828Y-83620942D01*
X96980828Y-83620942D02*
X96923685Y-83592371D01*
X96923685Y-83592371D02*
X96780828Y-83592371D01*
X96780828Y-83592371D02*
X96723685Y-83620942D01*
X96723685Y-83620942D02*
X96695114Y-83649514D01*
X96695114Y-83649514D02*
X96666542Y-83706656D01*
X96666542Y-83706656D02*
X96666542Y-83820942D01*
X96666542Y-83820942D02*
X96695114Y-83878085D01*
X96695114Y-83878085D02*
X96723685Y-83906656D01*
X96723685Y-83906656D02*
X96780828Y-83935228D01*
D10*
X77940819Y-90122333D02*
X78655104Y-90122333D01*
X78655104Y-90122333D02*
X78797961Y-90169952D01*
X78797961Y-90169952D02*
X78893200Y-90265190D01*
X78893200Y-90265190D02*
X78940819Y-90408047D01*
X78940819Y-90408047D02*
X78940819Y-90503285D01*
X78940819Y-89122333D02*
X78940819Y-89693761D01*
X78940819Y-89408047D02*
X77940819Y-89408047D01*
X77940819Y-89408047D02*
X78083676Y-89503285D01*
X78083676Y-89503285D02*
X78178914Y-89598523D01*
X78178914Y-89598523D02*
X78226533Y-89693761D01*
D12*
X100643571Y-95653909D02*
X100476905Y-95415814D01*
X100357857Y-95653909D02*
X100357857Y-95153909D01*
X100357857Y-95153909D02*
X100548333Y-95153909D01*
X100548333Y-95153909D02*
X100595952Y-95177719D01*
X100595952Y-95177719D02*
X100619762Y-95201528D01*
X100619762Y-95201528D02*
X100643571Y-95249147D01*
X100643571Y-95249147D02*
X100643571Y-95320576D01*
X100643571Y-95320576D02*
X100619762Y-95368195D01*
X100619762Y-95368195D02*
X100595952Y-95392004D01*
X100595952Y-95392004D02*
X100548333Y-95415814D01*
X100548333Y-95415814D02*
X100357857Y-95415814D01*
X101119762Y-95653909D02*
X100834048Y-95653909D01*
X100976905Y-95653909D02*
X100976905Y-95153909D01*
X100976905Y-95153909D02*
X100929286Y-95225338D01*
X100929286Y-95225338D02*
X100881667Y-95272957D01*
X100881667Y-95272957D02*
X100834048Y-95296766D01*
X101572142Y-95153909D02*
X101334047Y-95153909D01*
X101334047Y-95153909D02*
X101310238Y-95392004D01*
X101310238Y-95392004D02*
X101334047Y-95368195D01*
X101334047Y-95368195D02*
X101381666Y-95344385D01*
X101381666Y-95344385D02*
X101500714Y-95344385D01*
X101500714Y-95344385D02*
X101548333Y-95368195D01*
X101548333Y-95368195D02*
X101572142Y-95392004D01*
X101572142Y-95392004D02*
X101595952Y-95439623D01*
X101595952Y-95439623D02*
X101595952Y-95558671D01*
X101595952Y-95558671D02*
X101572142Y-95606290D01*
X101572142Y-95606290D02*
X101548333Y-95630100D01*
X101548333Y-95630100D02*
X101500714Y-95653909D01*
X101500714Y-95653909D02*
X101381666Y-95653909D01*
X101381666Y-95653909D02*
X101334047Y-95630100D01*
X101334047Y-95630100D02*
X101310238Y-95606290D01*
D15*
X92230837Y-74422918D02*
X92230837Y-73152918D01*
X93561314Y-74301965D02*
X93500838Y-74362442D01*
X93500838Y-74362442D02*
X93319409Y-74422918D01*
X93319409Y-74422918D02*
X93198457Y-74422918D01*
X93198457Y-74422918D02*
X93017028Y-74362442D01*
X93017028Y-74362442D02*
X92896076Y-74241489D01*
X92896076Y-74241489D02*
X92835599Y-74120537D01*
X92835599Y-74120537D02*
X92775123Y-73878632D01*
X92775123Y-73878632D02*
X92775123Y-73697203D01*
X92775123Y-73697203D02*
X92835599Y-73455299D01*
X92835599Y-73455299D02*
X92896076Y-73334346D01*
X92896076Y-73334346D02*
X93017028Y-73213394D01*
X93017028Y-73213394D02*
X93198457Y-73152918D01*
X93198457Y-73152918D02*
X93319409Y-73152918D01*
X93319409Y-73152918D02*
X93500838Y-73213394D01*
X93500838Y-73213394D02*
X93561314Y-73273870D01*
X94649885Y-73576251D02*
X94649885Y-74422918D01*
X94347504Y-73092442D02*
X94045123Y-73999584D01*
X94045123Y-73999584D02*
X94831314Y-73999584D01*
D12*
X86414428Y-85250999D02*
X86443000Y-85279571D01*
X86443000Y-85279571D02*
X86471571Y-85365285D01*
X86471571Y-85365285D02*
X86471571Y-85422428D01*
X86471571Y-85422428D02*
X86443000Y-85508142D01*
X86443000Y-85508142D02*
X86385857Y-85565285D01*
X86385857Y-85565285D02*
X86328714Y-85593856D01*
X86328714Y-85593856D02*
X86214428Y-85622428D01*
X86214428Y-85622428D02*
X86128714Y-85622428D01*
X86128714Y-85622428D02*
X86014428Y-85593856D01*
X86014428Y-85593856D02*
X85957285Y-85565285D01*
X85957285Y-85565285D02*
X85900142Y-85508142D01*
X85900142Y-85508142D02*
X85871571Y-85422428D01*
X85871571Y-85422428D02*
X85871571Y-85365285D01*
X85871571Y-85365285D02*
X85900142Y-85279571D01*
X85900142Y-85279571D02*
X85928714Y-85250999D01*
X85871571Y-84708142D02*
X85871571Y-84993856D01*
X85871571Y-84993856D02*
X86157285Y-85022428D01*
X86157285Y-85022428D02*
X86128714Y-84993856D01*
X86128714Y-84993856D02*
X86100142Y-84936714D01*
X86100142Y-84936714D02*
X86100142Y-84793856D01*
X86100142Y-84793856D02*
X86128714Y-84736714D01*
X86128714Y-84736714D02*
X86157285Y-84708142D01*
X86157285Y-84708142D02*
X86214428Y-84679571D01*
X86214428Y-84679571D02*
X86357285Y-84679571D01*
X86357285Y-84679571D02*
X86414428Y-84708142D01*
X86414428Y-84708142D02*
X86443000Y-84736714D01*
X86443000Y-84736714D02*
X86471571Y-84793856D01*
X86471571Y-84793856D02*
X86471571Y-84936714D01*
X86471571Y-84936714D02*
X86443000Y-84993856D01*
X86443000Y-84993856D02*
X86414428Y-85022428D01*
D10*
X89436266Y-96843019D02*
X89436266Y-97557304D01*
X89436266Y-97557304D02*
X89388647Y-97700161D01*
X89388647Y-97700161D02*
X89293409Y-97795400D01*
X89293409Y-97795400D02*
X89150552Y-97843019D01*
X89150552Y-97843019D02*
X89055314Y-97843019D01*
X90341028Y-96843019D02*
X90150552Y-96843019D01*
X90150552Y-96843019D02*
X90055314Y-96890638D01*
X90055314Y-96890638D02*
X90007695Y-96938257D01*
X90007695Y-96938257D02*
X89912457Y-97081114D01*
X89912457Y-97081114D02*
X89864838Y-97271590D01*
X89864838Y-97271590D02*
X89864838Y-97652542D01*
X89864838Y-97652542D02*
X89912457Y-97747780D01*
X89912457Y-97747780D02*
X89960076Y-97795400D01*
X89960076Y-97795400D02*
X90055314Y-97843019D01*
X90055314Y-97843019D02*
X90245790Y-97843019D01*
X90245790Y-97843019D02*
X90341028Y-97795400D01*
X90341028Y-97795400D02*
X90388647Y-97747780D01*
X90388647Y-97747780D02*
X90436266Y-97652542D01*
X90436266Y-97652542D02*
X90436266Y-97414447D01*
X90436266Y-97414447D02*
X90388647Y-97319209D01*
X90388647Y-97319209D02*
X90341028Y-97271590D01*
X90341028Y-97271590D02*
X90245790Y-97223971D01*
X90245790Y-97223971D02*
X90055314Y-97223971D01*
X90055314Y-97223971D02*
X89960076Y-97271590D01*
X89960076Y-97271590D02*
X89912457Y-97319209D01*
X89912457Y-97319209D02*
X89864838Y-97414447D01*
X98412467Y-91821800D02*
X98555324Y-91869419D01*
X98555324Y-91869419D02*
X98793419Y-91869419D01*
X98793419Y-91869419D02*
X98888657Y-91821800D01*
X98888657Y-91821800D02*
X98936276Y-91774180D01*
X98936276Y-91774180D02*
X98983895Y-91678942D01*
X98983895Y-91678942D02*
X98983895Y-91583704D01*
X98983895Y-91583704D02*
X98936276Y-91488466D01*
X98936276Y-91488466D02*
X98888657Y-91440847D01*
X98888657Y-91440847D02*
X98793419Y-91393228D01*
X98793419Y-91393228D02*
X98602943Y-91345609D01*
X98602943Y-91345609D02*
X98507705Y-91297990D01*
X98507705Y-91297990D02*
X98460086Y-91250371D01*
X98460086Y-91250371D02*
X98412467Y-91155133D01*
X98412467Y-91155133D02*
X98412467Y-91059895D01*
X98412467Y-91059895D02*
X98460086Y-90964657D01*
X98460086Y-90964657D02*
X98507705Y-90917038D01*
X98507705Y-90917038D02*
X98602943Y-90869419D01*
X98602943Y-90869419D02*
X98841038Y-90869419D01*
X98841038Y-90869419D02*
X98983895Y-90917038D01*
X99317229Y-90869419D02*
X99555324Y-91869419D01*
X99555324Y-91869419D02*
X99745800Y-91155133D01*
X99745800Y-91155133D02*
X99936276Y-91869419D01*
X99936276Y-91869419D02*
X100174372Y-90869419D01*
X101079133Y-91869419D02*
X100507705Y-91869419D01*
X100793419Y-91869419D02*
X100793419Y-90869419D01*
X100793419Y-90869419D02*
X100698181Y-91012276D01*
X100698181Y-91012276D02*
X100602943Y-91107514D01*
X100602943Y-91107514D02*
X100507705Y-91155133D01*
D15*
X97485809Y-87400318D02*
X96881047Y-87400318D01*
X96881047Y-87400318D02*
X96881047Y-86130318D01*
X97909142Y-86735080D02*
X98332476Y-86735080D01*
X98513904Y-87400318D02*
X97909142Y-87400318D01*
X97909142Y-87400318D02*
X97909142Y-86130318D01*
X97909142Y-86130318D02*
X98513904Y-86130318D01*
X99058190Y-87400318D02*
X99058190Y-86130318D01*
X99058190Y-86130318D02*
X99360571Y-86130318D01*
X99360571Y-86130318D02*
X99542000Y-86190794D01*
X99542000Y-86190794D02*
X99662952Y-86311746D01*
X99662952Y-86311746D02*
X99723429Y-86432699D01*
X99723429Y-86432699D02*
X99783905Y-86674603D01*
X99783905Y-86674603D02*
X99783905Y-86856032D01*
X99783905Y-86856032D02*
X99723429Y-87097937D01*
X99723429Y-87097937D02*
X99662952Y-87218889D01*
X99662952Y-87218889D02*
X99542000Y-87339842D01*
X99542000Y-87339842D02*
X99360571Y-87400318D01*
X99360571Y-87400318D02*
X99058190Y-87400318D01*
X100993429Y-87400318D02*
X100267714Y-87400318D01*
X100630571Y-87400318D02*
X100630571Y-86130318D01*
X100630571Y-86130318D02*
X100509619Y-86311746D01*
X100509619Y-86311746D02*
X100388667Y-86432699D01*
X100388667Y-86432699D02*
X100267714Y-86493175D01*
D12*
X86556066Y-69291890D02*
X86532257Y-69315700D01*
X86532257Y-69315700D02*
X86460828Y-69339509D01*
X86460828Y-69339509D02*
X86413209Y-69339509D01*
X86413209Y-69339509D02*
X86341781Y-69315700D01*
X86341781Y-69315700D02*
X86294162Y-69268080D01*
X86294162Y-69268080D02*
X86270352Y-69220461D01*
X86270352Y-69220461D02*
X86246543Y-69125223D01*
X86246543Y-69125223D02*
X86246543Y-69053795D01*
X86246543Y-69053795D02*
X86270352Y-68958557D01*
X86270352Y-68958557D02*
X86294162Y-68910938D01*
X86294162Y-68910938D02*
X86341781Y-68863319D01*
X86341781Y-68863319D02*
X86413209Y-68839509D01*
X86413209Y-68839509D02*
X86460828Y-68839509D01*
X86460828Y-68839509D02*
X86532257Y-68863319D01*
X86532257Y-68863319D02*
X86556066Y-68887128D01*
X86794162Y-69339509D02*
X86889400Y-69339509D01*
X86889400Y-69339509D02*
X86937019Y-69315700D01*
X86937019Y-69315700D02*
X86960828Y-69291890D01*
X86960828Y-69291890D02*
X87008447Y-69220461D01*
X87008447Y-69220461D02*
X87032257Y-69125223D01*
X87032257Y-69125223D02*
X87032257Y-68934747D01*
X87032257Y-68934747D02*
X87008447Y-68887128D01*
X87008447Y-68887128D02*
X86984638Y-68863319D01*
X86984638Y-68863319D02*
X86937019Y-68839509D01*
X86937019Y-68839509D02*
X86841781Y-68839509D01*
X86841781Y-68839509D02*
X86794162Y-68863319D01*
X86794162Y-68863319D02*
X86770352Y-68887128D01*
X86770352Y-68887128D02*
X86746543Y-68934747D01*
X86746543Y-68934747D02*
X86746543Y-69053795D01*
X86746543Y-69053795D02*
X86770352Y-69101414D01*
X86770352Y-69101414D02*
X86794162Y-69125223D01*
X86794162Y-69125223D02*
X86841781Y-69149033D01*
X86841781Y-69149033D02*
X86937019Y-69149033D01*
X86937019Y-69149033D02*
X86984638Y-69125223D01*
X86984638Y-69125223D02*
X87008447Y-69101414D01*
X87008447Y-69101414D02*
X87032257Y-69053795D01*
X89801028Y-72667799D02*
X89829600Y-72696371D01*
X89829600Y-72696371D02*
X89858171Y-72782085D01*
X89858171Y-72782085D02*
X89858171Y-72839228D01*
X89858171Y-72839228D02*
X89829600Y-72924942D01*
X89829600Y-72924942D02*
X89772457Y-72982085D01*
X89772457Y-72982085D02*
X89715314Y-73010656D01*
X89715314Y-73010656D02*
X89601028Y-73039228D01*
X89601028Y-73039228D02*
X89515314Y-73039228D01*
X89515314Y-73039228D02*
X89401028Y-73010656D01*
X89401028Y-73010656D02*
X89343885Y-72982085D01*
X89343885Y-72982085D02*
X89286742Y-72924942D01*
X89286742Y-72924942D02*
X89258171Y-72839228D01*
X89258171Y-72839228D02*
X89258171Y-72782085D01*
X89258171Y-72782085D02*
X89286742Y-72696371D01*
X89286742Y-72696371D02*
X89315314Y-72667799D01*
X89858171Y-72096371D02*
X89858171Y-72439228D01*
X89858171Y-72267799D02*
X89258171Y-72267799D01*
X89258171Y-72267799D02*
X89343885Y-72324942D01*
X89343885Y-72324942D02*
X89401028Y-72382085D01*
X89401028Y-72382085D02*
X89429600Y-72439228D01*
D10*
X86053705Y-79982219D02*
X86053705Y-78982219D01*
X86053705Y-78982219D02*
X86291800Y-78982219D01*
X86291800Y-78982219D02*
X86434657Y-79029838D01*
X86434657Y-79029838D02*
X86529895Y-79125076D01*
X86529895Y-79125076D02*
X86577514Y-79220314D01*
X86577514Y-79220314D02*
X86625133Y-79410790D01*
X86625133Y-79410790D02*
X86625133Y-79553647D01*
X86625133Y-79553647D02*
X86577514Y-79744123D01*
X86577514Y-79744123D02*
X86529895Y-79839361D01*
X86529895Y-79839361D02*
X86434657Y-79934600D01*
X86434657Y-79934600D02*
X86291800Y-79982219D01*
X86291800Y-79982219D02*
X86053705Y-79982219D01*
X87006086Y-79077457D02*
X87053705Y-79029838D01*
X87053705Y-79029838D02*
X87148943Y-78982219D01*
X87148943Y-78982219D02*
X87387038Y-78982219D01*
X87387038Y-78982219D02*
X87482276Y-79029838D01*
X87482276Y-79029838D02*
X87529895Y-79077457D01*
X87529895Y-79077457D02*
X87577514Y-79172695D01*
X87577514Y-79172695D02*
X87577514Y-79267933D01*
X87577514Y-79267933D02*
X87529895Y-79410790D01*
X87529895Y-79410790D02*
X86958467Y-79982219D01*
X86958467Y-79982219D02*
X87577514Y-79982219D01*
X81663395Y-77091919D02*
X81596051Y-77091919D01*
X81596051Y-77091919D02*
X81461364Y-77024575D01*
X81461364Y-77024575D02*
X81394021Y-76957232D01*
X81394021Y-76957232D02*
X81326677Y-76822545D01*
X81326677Y-76822545D02*
X81326677Y-76687858D01*
X81326677Y-76687858D02*
X81360349Y-76586843D01*
X81360349Y-76586843D02*
X81461364Y-76418484D01*
X81461364Y-76418484D02*
X81562379Y-76317469D01*
X81562379Y-76317469D02*
X81730738Y-76216453D01*
X81730738Y-76216453D02*
X81831753Y-76182782D01*
X81831753Y-76182782D02*
X81966440Y-76182782D01*
X81966440Y-76182782D02*
X82101127Y-76250125D01*
X82101127Y-76250125D02*
X82168471Y-76317469D01*
X82168471Y-76317469D02*
X82235814Y-76452156D01*
X82235814Y-76452156D02*
X82235814Y-76519499D01*
X82269486Y-77832697D02*
X81865425Y-77428636D01*
X82067456Y-77630667D02*
X82774562Y-76923560D01*
X82774562Y-76923560D02*
X82606204Y-76957232D01*
X82606204Y-76957232D02*
X82471517Y-76957232D01*
X82471517Y-76957232D02*
X82370501Y-76923560D01*
X82942921Y-78506133D02*
X82538860Y-78102072D01*
X82740891Y-78304102D02*
X83447998Y-77596995D01*
X83447998Y-77596995D02*
X83279639Y-77630667D01*
X83279639Y-77630667D02*
X83144952Y-77630667D01*
X83144952Y-77630667D02*
X83043937Y-77596995D01*
D14*
%TO.C,J4*%
X78766000Y-54516000D02*
X79356000Y-54516000D01*
X78766000Y-56736000D02*
X79356000Y-56736000D01*
X79356000Y-52416000D02*
X79356000Y-54516000D01*
X79356000Y-52416000D02*
X89476000Y-52416000D01*
X79356000Y-56736000D02*
X79356000Y-61636000D01*
X79356000Y-61636000D02*
X89476000Y-61636000D01*
X89476000Y-52416000D02*
X89476000Y-54516000D01*
X89476000Y-54516000D02*
X90066000Y-54516000D01*
X89476000Y-56736000D02*
X89476000Y-61636000D01*
X89476000Y-56736000D02*
X90066000Y-56736000D01*
X78766000Y-56736000D02*
G75*
G02*
X78766000Y-54516000I0J1110000D01*
G01*
X90066000Y-54516000D02*
G75*
G02*
X90066000Y-56736000I0J-1110000D01*
G01*
%TO.C,R13*%
X103379000Y-88617359D02*
X103379000Y-88924641D01*
X104139000Y-88617359D02*
X104139000Y-88924641D01*
%TO.C,J5*%
X78240200Y-95603200D02*
X79290200Y-95603200D01*
X78240200Y-98103200D02*
X78240200Y-95603200D01*
X79290200Y-95603200D02*
X79290200Y-94613200D01*
X79410200Y-100073200D02*
X83290200Y-100073200D01*
X84460200Y-95603200D02*
X83410200Y-95603200D01*
X84460200Y-98103200D02*
X84460200Y-95603200D01*
%TO.C,R9*%
X85245641Y-92863400D02*
X84938359Y-92863400D01*
X85245641Y-93623400D02*
X84938359Y-93623400D01*
%TO.C,R11*%
X103379000Y-93805441D02*
X103379000Y-93498159D01*
X104139000Y-93805441D02*
X104139000Y-93498159D01*
%TO.C,J8*%
X104715000Y-87443000D02*
X106045000Y-87443000D01*
X104715000Y-88773000D02*
X104715000Y-87443000D01*
X104715000Y-90043001D02*
X104715000Y-95182999D01*
X104715000Y-90043001D02*
X107375000Y-90043001D01*
X104715000Y-95182999D02*
X107375000Y-95182999D01*
X107375000Y-90043001D02*
X107375000Y-95182999D01*
%TO.C,Q2*%
X84830000Y-88832200D02*
X84830000Y-92432200D01*
X84830000Y-92432200D02*
X88430000Y-92432200D01*
X88430000Y-88832200D02*
X84830000Y-88832200D01*
X88430000Y-92432200D02*
X88430000Y-88832200D01*
%TO.C,JP2*%
X77391975Y-60898000D02*
X77391975Y-59498000D01*
X78805000Y-59498000D02*
X78805000Y-60898000D01*
X77391975Y-59436001D02*
G75*
G02*
X78091975Y-58736002I699997J2D01*
G01*
X78091975Y-61536002D02*
G75*
G02*
X77391975Y-60836001I-3J699997D01*
G01*
X78105000Y-58736002D02*
G75*
G02*
X78805000Y-59436001I-1J-700001D01*
G01*
X78805000Y-60836001D02*
G75*
G02*
X78105000Y-61536000I-700000J1D01*
G01*
%TO.C,R17*%
X77725000Y-72899241D02*
X77725000Y-72591959D01*
X78485000Y-72899241D02*
X78485000Y-72591959D01*
D16*
%TO.C,IC3*%
X96826600Y-96607400D02*
X96826600Y-96607400D01*
X96826600Y-96807400D02*
X96826600Y-96807400D01*
X96826600Y-96607400D02*
G75*
G02*
X96826600Y-96807400I0J-100000D01*
G01*
X96826600Y-96807400D02*
G75*
G02*
X96826600Y-96607400I0J100000D01*
G01*
D14*
%TO.C,R14*%
X88926159Y-92939600D02*
X89233441Y-92939600D01*
X88926159Y-93699600D02*
X89233441Y-93699600D01*
%TO.C,J2*%
X77788800Y-79310000D02*
X77788800Y-83190000D01*
X79758800Y-78140000D02*
X82258800Y-78140000D01*
X79758800Y-84360000D02*
X82258800Y-84360000D01*
X82258800Y-78140000D02*
X82258800Y-79190000D01*
X82258800Y-79190000D02*
X83248800Y-79190000D01*
X82258800Y-84360000D02*
X82258800Y-83310000D01*
%TO.C,R16*%
X78510641Y-63755000D02*
X78203359Y-63755000D01*
X78510641Y-64515000D02*
X78203359Y-64515000D01*
%TO.C,R2*%
X90446159Y-80976200D02*
X90753441Y-80976200D01*
X90446159Y-81736200D02*
X90753441Y-81736200D01*
%TO.C,C3*%
X89225800Y-75784764D02*
X89225800Y-76000436D01*
X89945800Y-75784764D02*
X89945800Y-76000436D01*
%TO.C,D1*%
X77382100Y-61876000D02*
X77382100Y-63346000D01*
X77382100Y-63346000D02*
X79667100Y-63346000D01*
X79667100Y-61876000D02*
X77382100Y-61876000D01*
D12*
%TO.C,J7*%
X89732600Y-57874400D02*
X94932600Y-57874400D01*
X89732600Y-68074400D02*
X89732600Y-57874400D01*
X94932600Y-57874400D02*
X94932600Y-68074400D01*
X94932600Y-68074400D02*
X89732600Y-68074400D01*
D14*
%TO.C,R1*%
X103379000Y-91339641D02*
X103379000Y-91032359D01*
X104139000Y-91339641D02*
X104139000Y-91032359D01*
%TO.C,R8*%
X86740241Y-87783400D02*
X86432959Y-87783400D01*
X86740241Y-88543400D02*
X86432959Y-88543400D01*
%TO.C,Q1*%
X88716200Y-88817000D02*
X88716200Y-92417000D01*
X88716200Y-92417000D02*
X92316200Y-92417000D01*
X92316200Y-88817000D02*
X88716200Y-88817000D01*
X92316200Y-92417000D02*
X92316200Y-88817000D01*
D16*
%TO.C,IC2*%
X89179600Y-81994800D02*
X92379600Y-81994800D01*
X89179600Y-86894800D02*
X89179600Y-81994800D01*
X92379600Y-81994800D02*
X92379600Y-86894800D01*
X92379600Y-86894800D02*
X89179600Y-86894800D01*
X94229600Y-87024800D02*
X92729600Y-87024800D01*
D14*
%TO.C,C7*%
X94483600Y-96272236D02*
X94483600Y-96056564D01*
X95203600Y-96272236D02*
X95203600Y-96056564D01*
%TO.C,C8*%
X102508164Y-96363200D02*
X102723836Y-96363200D01*
X102508164Y-97083200D02*
X102723836Y-97083200D01*
%TO.C,R3*%
X93879400Y-99315241D02*
X93879400Y-99007959D01*
X94639400Y-99315241D02*
X94639400Y-99007959D01*
%TO.C,R12*%
X94590600Y-92760041D02*
X94590600Y-92452759D01*
X95350600Y-92760041D02*
X95350600Y-92452759D01*
%TO.C,Jr1*%
X97261800Y-54785400D02*
X97261800Y-69885400D01*
X97261800Y-69885400D02*
X103211801Y-69885400D01*
X98011800Y-55535400D02*
X98011800Y-62335400D01*
X98011800Y-69135400D02*
X98011800Y-62335400D01*
X100961799Y-69135400D02*
X98011800Y-69135400D01*
X100961799Y-69885400D02*
X100961799Y-69135400D01*
X100961800Y-54785400D02*
X100961800Y-55535400D01*
X100961800Y-55535400D02*
X98011800Y-55535400D01*
X102461800Y-54785400D02*
X102461800Y-56585399D01*
X102461800Y-56585399D02*
X103211801Y-56585400D01*
X102461800Y-58085401D02*
X102461800Y-66585400D01*
X102461800Y-66585400D02*
X103211800Y-66585400D01*
X102461800Y-68085399D02*
X102461800Y-69885401D01*
X102461800Y-69885401D02*
X103211801Y-69885400D01*
X103211800Y-54785400D02*
X97261800Y-54785400D01*
X103211800Y-54785400D02*
X102461800Y-54785400D01*
X103211800Y-66585400D02*
X103211801Y-58085400D01*
X103211801Y-56585400D02*
X103211800Y-54785400D01*
X103211801Y-58085400D02*
X102461800Y-58085401D01*
X103211801Y-68085400D02*
X102461800Y-68085399D01*
X103211801Y-69885400D02*
X103211800Y-54785400D01*
X103211801Y-69885400D02*
X103211801Y-68085400D01*
X103511800Y-54485400D02*
X101011800Y-54485400D01*
X103511800Y-56985400D02*
X103511800Y-54485400D01*
%TO.C,C2*%
X97532364Y-75865400D02*
X97748036Y-75865400D01*
X97532364Y-76585400D02*
X97748036Y-76585400D01*
%TO.C,JP1*%
X77486000Y-70854800D02*
X77486000Y-69454800D01*
X78186000Y-68754800D02*
X78786000Y-68754800D01*
X78786000Y-71554800D02*
X78186000Y-71554800D01*
X79486000Y-69454800D02*
X79486000Y-70854800D01*
X77486000Y-69454800D02*
G75*
G02*
X78186000Y-68754800I700000J0D01*
G01*
X78186000Y-71554800D02*
G75*
G02*
X77486000Y-70854800I-1J699999D01*
G01*
X78786000Y-68754800D02*
G75*
G02*
X79486000Y-69454800I0J-700000D01*
G01*
X79486000Y-70854800D02*
G75*
G02*
X78786000Y-71554800I-699999J-1D01*
G01*
%TO.C,R7*%
X89968041Y-87758000D02*
X89660759Y-87758000D01*
X89968041Y-88518000D02*
X89660759Y-88518000D01*
%TO.C,C4*%
X84247400Y-80791164D02*
X84247400Y-81006836D01*
X84967400Y-80791164D02*
X84967400Y-81006836D01*
%TO.C,C10*%
X97770836Y-70734600D02*
X97555164Y-70734600D01*
X97770836Y-71454600D02*
X97555164Y-71454600D01*
%TO.C,C6*%
X95245600Y-83955964D02*
X95245600Y-84171636D01*
X95965600Y-83955964D02*
X95965600Y-84171636D01*
%TO.C,J1*%
X77788800Y-87438000D02*
X77788800Y-91318000D01*
X79758800Y-86268000D02*
X82258800Y-86268000D01*
X79758800Y-92488000D02*
X82258800Y-92488000D01*
X82258800Y-86268000D02*
X82258800Y-87318000D01*
X82258800Y-87318000D02*
X83248800Y-87318000D01*
X82258800Y-92488000D02*
X82258800Y-91438000D01*
%TO.C,JP3*%
X95289500Y-77671800D02*
X95289500Y-78271800D01*
X95589500Y-77971800D02*
X95289500Y-77671800D01*
X95589500Y-77971800D02*
X95289500Y-78271800D01*
X95789500Y-80571800D02*
X95789500Y-77771800D01*
X96489500Y-77121800D02*
X97089500Y-77121800D01*
X97089500Y-81221800D02*
X96489500Y-81221800D01*
X97789500Y-77771800D02*
X97789500Y-80571800D01*
X95789500Y-77821800D02*
G75*
G02*
X96489500Y-77121800I699999J1D01*
G01*
X96489500Y-81221800D02*
G75*
G02*
X95789500Y-80521800I0J700000D01*
G01*
X97089500Y-77121800D02*
G75*
G02*
X97789500Y-77821800I1J-699999D01*
G01*
X97789500Y-80521800D02*
G75*
G02*
X97089500Y-81221800I-700000J0D01*
G01*
%TO.C,R15*%
X102744241Y-95149400D02*
X102436959Y-95149400D01*
X102744241Y-95909400D02*
X102436959Y-95909400D01*
D17*
%TO.C,IC4*%
X90695600Y-71598600D02*
G75*
G02*
X90445600Y-71598600I-125000J0D01*
G01*
X90445600Y-71598600D02*
G75*
G02*
X90695600Y-71598600I125000J0D01*
G01*
D14*
%TO.C,C5*%
X84679200Y-85043164D02*
X84679200Y-85258836D01*
X85399200Y-85043164D02*
X85399200Y-85258836D01*
%TO.C,J6*%
X86659600Y-95603200D02*
X87709600Y-95603200D01*
X86659600Y-98103200D02*
X86659600Y-95603200D01*
X87709600Y-95603200D02*
X87709600Y-94613200D01*
X87829600Y-100073200D02*
X91709600Y-100073200D01*
X92879600Y-95603200D02*
X91829600Y-95603200D01*
X92879600Y-98103200D02*
X92879600Y-95603200D01*
%TO.C,R10*%
X94590600Y-90218041D02*
X94590600Y-89910759D01*
X95350600Y-90218041D02*
X95350600Y-89910759D01*
%TO.C,JP4*%
X100413601Y-99588601D02*
X100413601Y-98988599D01*
X101113601Y-98288600D02*
X102513601Y-98288600D01*
X102513601Y-100288600D02*
X101113601Y-100288600D01*
X103213601Y-98988599D02*
X103213601Y-99588601D01*
X100413601Y-98988599D02*
G75*
G02*
X101113601Y-98288600I700000J-1D01*
G01*
X101113601Y-100288600D02*
G75*
G02*
X100413601Y-99588601I0J700000D01*
G01*
X102513601Y-98288600D02*
G75*
G02*
X103213601Y-98988599I1J-699999D01*
G01*
X103213601Y-99588601D02*
G75*
G02*
X102513601Y-100288600I-699999J0D01*
G01*
%TO.C,SW1*%
X96202600Y-88855000D02*
X96781600Y-88855000D01*
X96781600Y-88205000D02*
X96781600Y-88855000D01*
X96781600Y-88205000D02*
X102302600Y-88205000D01*
X96781600Y-93965000D02*
X96781600Y-94675000D01*
X96781600Y-94675000D02*
X102302600Y-94675000D01*
X102302600Y-88205000D02*
X102302600Y-88915000D01*
X102302600Y-93965000D02*
X102302600Y-94675000D01*
D16*
%TO.C,LED1*%
X97907000Y-85326000D02*
X97907000Y-85326000D01*
X98107000Y-85326000D02*
X98107000Y-85326000D01*
D12*
X99307000Y-85826000D02*
X98507000Y-85826000D01*
X99307000Y-87826000D02*
X98507000Y-87826000D01*
D16*
X97907000Y-85326000D02*
G75*
G02*
X98107000Y-85326000I100000J0D01*
G01*
X98107000Y-85326000D02*
G75*
G02*
X97907000Y-85326000I-100000J0D01*
G01*
D14*
%TO.C,C9*%
X87981964Y-69109000D02*
X88197636Y-69109000D01*
X87981964Y-69829000D02*
X88197636Y-69829000D01*
%TO.C,C1*%
X89225800Y-73910364D02*
X89225800Y-74126036D01*
X89945800Y-73910364D02*
X89945800Y-74126036D01*
%TO.C,D2*%
X92504600Y-78629000D02*
X88494600Y-78629000D01*
X92504600Y-80629000D02*
X88494600Y-80629000D01*
X92504600Y-80629000D02*
X92504600Y-78629000D01*
%TO.C,C11*%
X80431329Y-72598679D02*
X84485879Y-68544129D01*
X80431329Y-72655248D02*
X84542448Y-68544129D01*
X80432036Y-72541404D02*
X84428604Y-68544836D01*
X80432743Y-72710402D02*
X84597602Y-68545543D01*
X80433450Y-72483421D02*
X84370621Y-68546250D01*
X80434158Y-72765557D02*
X84652757Y-68546958D01*
X80435572Y-72424731D02*
X84311931Y-68548372D01*
X80436986Y-72819297D02*
X81836350Y-71419932D01*
X80438400Y-72365334D02*
X84252534Y-68551200D01*
X80439814Y-72873037D02*
X81864635Y-71448217D01*
X80442643Y-72304523D02*
X84191723Y-68555443D01*
X80443350Y-72926070D02*
X81892919Y-71476501D01*
X80447593Y-72243005D02*
X84130205Y-68560393D01*
X80447593Y-72978396D02*
X81921203Y-71504785D01*
X80453249Y-72180779D02*
X84067979Y-68566049D01*
X80453249Y-73029307D02*
X81949487Y-71533069D01*
X80458199Y-73080926D02*
X81977772Y-71561354D01*
X80461028Y-72116433D02*
X84003633Y-68573828D01*
X80464563Y-73131131D02*
X82006056Y-71589638D01*
X80468806Y-72052086D02*
X83939286Y-68581606D01*
X80471634Y-73180628D02*
X82034340Y-71617922D01*
X80478705Y-71985618D02*
X83872818Y-68591505D01*
X80478705Y-73230126D02*
X82062624Y-71646207D01*
X80486483Y-73278916D02*
X82090909Y-71674491D01*
X80489312Y-71918443D02*
X83805643Y-68602112D01*
X80494262Y-73327706D02*
X82119193Y-71702775D01*
X80502040Y-71849146D02*
X83736346Y-68614840D01*
X80503454Y-73375083D02*
X82147477Y-71731059D01*
X80512646Y-73422459D02*
X82175762Y-71759344D01*
X80515475Y-71779143D02*
X83666343Y-68628275D01*
X80522546Y-73469128D02*
X82204046Y-71787628D01*
X80531031Y-71707018D02*
X83594218Y-68643831D01*
X80532445Y-73515797D02*
X82232330Y-71815912D01*
X80543052Y-73561759D02*
X82260614Y-71844196D01*
X80548002Y-71633479D02*
X83520679Y-68660802D01*
X80554366Y-73607014D02*
X82288899Y-71872481D01*
X80565679Y-73652268D02*
X82317183Y-71900765D01*
X80567801Y-71557111D02*
X83444311Y-68680601D01*
X80577700Y-73696816D02*
X82345467Y-71929049D01*
X80589014Y-71479329D02*
X83366529Y-68701814D01*
X80590428Y-73740657D02*
X82373751Y-71957334D01*
X80603156Y-73784497D02*
X82402036Y-71985618D01*
X80613056Y-71398719D02*
X83285919Y-68725856D01*
X80615884Y-73828338D02*
X82430320Y-72013902D01*
X80629319Y-73871472D02*
X82458604Y-72042186D01*
X80639218Y-71315988D02*
X83203188Y-68752018D01*
X80643461Y-73913898D02*
X82486888Y-72070471D01*
X80658310Y-73955617D02*
X82515173Y-72098755D01*
X80668917Y-71229721D02*
X83116921Y-68781717D01*
X80672452Y-73998044D02*
X82543457Y-72127039D01*
X80688009Y-74039056D02*
X82571741Y-72155323D01*
X80701444Y-71140625D02*
X83027825Y-68814244D01*
X80703565Y-74080068D02*
X82600026Y-72183608D01*
X80719122Y-74121080D02*
X82628310Y-72211892D01*
X80735385Y-74161385D02*
X82656594Y-72240176D01*
X80738921Y-71046580D02*
X82933780Y-68851721D01*
X80751648Y-74201690D02*
X82684878Y-72268460D01*
X80768619Y-74241288D02*
X82713163Y-72296745D01*
X80780640Y-70948292D02*
X82835492Y-68893440D01*
X80786297Y-74280179D02*
X82741447Y-72325029D01*
X80803267Y-74319777D02*
X82769731Y-72353313D01*
X80821652Y-74357961D02*
X82798015Y-72381598D01*
X80828016Y-70844347D02*
X82731547Y-68940816D01*
X80839330Y-74396852D02*
X82826300Y-72409882D01*
X80858422Y-74434329D02*
X82854584Y-72438166D01*
X80876806Y-74472512D02*
X82882868Y-72466450D01*
X80882463Y-70733332D02*
X82620532Y-68995263D01*
X80896605Y-74509282D02*
X82911153Y-72494735D01*
X80915697Y-74546759D02*
X82939437Y-72523019D01*
X80935496Y-74583528D02*
X82967721Y-72551303D01*
X80946810Y-70612416D02*
X82499616Y-69059610D01*
X80956002Y-74619591D02*
X82996005Y-72579587D01*
X80976508Y-74655653D02*
X83024290Y-72607872D01*
X80997015Y-74691715D02*
X83052574Y-72636156D01*
X81018228Y-74727071D02*
X83080858Y-72664440D01*
X81024592Y-70478066D02*
X82365266Y-69137392D01*
X81039441Y-74762426D02*
X83109142Y-72692725D01*
X81061361Y-74797074D02*
X83137427Y-72721009D01*
X81083282Y-74831723D02*
X83165711Y-72749293D01*
X81105202Y-74866371D02*
X83193995Y-72777577D01*
X81123587Y-70322503D02*
X82209703Y-69236387D01*
X81127829Y-74900312D02*
X83222280Y-72805862D01*
X81150457Y-74934253D02*
X83250564Y-72834146D01*
X81173791Y-74967487D02*
X83278848Y-72862430D01*
X81197833Y-75001428D02*
X86888628Y-69310633D01*
X81221874Y-75033955D02*
X86921155Y-69334674D01*
X81245209Y-75067189D02*
X86954389Y-69358009D01*
X81261472Y-70128048D02*
X82015248Y-69374272D01*
X81269958Y-75099009D02*
X86986209Y-69382758D01*
X81293999Y-75131536D02*
X87018736Y-69406799D01*
X81319455Y-75162649D02*
X87049849Y-69432255D01*
X81344204Y-75194468D02*
X87081668Y-69457004D01*
X81369660Y-75225581D02*
X87112781Y-69482460D01*
X81395116Y-75256694D02*
X87143894Y-69507916D01*
X81421279Y-75287099D02*
X87174299Y-69534079D01*
X81447442Y-75317505D02*
X87204705Y-69560242D01*
X81473604Y-75347911D02*
X87235111Y-69586404D01*
X81500475Y-75377609D02*
X87264809Y-69613275D01*
X81528052Y-75406600D02*
X87293800Y-69640852D01*
X81554922Y-75436299D02*
X87323499Y-69667722D01*
X81582499Y-75465290D02*
X87352490Y-69695299D01*
X81610783Y-75493575D02*
X87380775Y-69723583D01*
X81639067Y-75521859D02*
X87409059Y-69751867D01*
X83307132Y-69949150D02*
X84706497Y-68549786D01*
X83335417Y-69977435D02*
X84760237Y-68552614D01*
X83363701Y-70005719D02*
X84813270Y-68556150D01*
X83391985Y-70034003D02*
X84865596Y-68560393D01*
X83420269Y-70062287D02*
X84916507Y-68566049D01*
X83448554Y-70090572D02*
X84968126Y-68570999D01*
X83476838Y-70118856D02*
X85018331Y-68577363D01*
X83505122Y-70147140D02*
X85067828Y-68584434D01*
X83533407Y-70175424D02*
X85117326Y-68591505D01*
X83561691Y-70203709D02*
X85166116Y-68599283D01*
X83589975Y-70231993D02*
X85214906Y-68607062D01*
X83618259Y-70260277D02*
X85262283Y-68616254D01*
X83646544Y-70288562D02*
X85309659Y-68625446D01*
X83674828Y-70316846D02*
X85356328Y-68635346D01*
X83703112Y-70345130D02*
X85402997Y-68645245D01*
X83731396Y-70373414D02*
X85448959Y-68655852D01*
X83759681Y-70401699D02*
X85494214Y-68667166D01*
X83787965Y-70429983D02*
X85539468Y-68678479D01*
X83816249Y-70458267D02*
X85584016Y-68690500D01*
X83844534Y-70486551D02*
X85627857Y-68703228D01*
X83872818Y-70514836D02*
X85671697Y-68715956D01*
X83901102Y-70543120D02*
X85715538Y-68728684D01*
X83929386Y-70571404D02*
X85758672Y-68742119D01*
X83957671Y-70599688D02*
X85801098Y-68756261D01*
X83985955Y-70627973D02*
X85842817Y-68771110D01*
X84014239Y-70656257D02*
X85885244Y-68785252D01*
X84042523Y-70684541D02*
X85926256Y-68800809D01*
X84070808Y-70712826D02*
X85967268Y-68816365D01*
X84099092Y-70741110D02*
X86008280Y-68831922D01*
X84127376Y-70769394D02*
X86048585Y-68848185D01*
X84155660Y-70797678D02*
X86088890Y-68864448D01*
X84183945Y-70825963D02*
X86128488Y-68881419D01*
X84212229Y-70854247D02*
X86167379Y-68899097D01*
X84240513Y-70882531D02*
X86206977Y-68916067D01*
X84268798Y-70910815D02*
X86245161Y-68934452D01*
X84297082Y-70939100D02*
X86284052Y-68952130D01*
X84325366Y-70967384D02*
X86321529Y-68971222D01*
X84353650Y-70995668D02*
X86359712Y-68989606D01*
X84381935Y-71023953D02*
X86396482Y-69009405D01*
X84410219Y-71052237D02*
X86433959Y-69028497D01*
X84438503Y-71080521D02*
X86470728Y-69048296D01*
X84466787Y-71108805D02*
X86506791Y-69068802D01*
X84495072Y-71137090D02*
X86542853Y-69089308D01*
X84523356Y-71165374D02*
X86578915Y-69109815D01*
X84551640Y-71193658D02*
X86614271Y-69131028D01*
X84579925Y-71221942D02*
X86649626Y-69152241D01*
X84608209Y-71250227D02*
X86684274Y-69174161D01*
X84636493Y-71278511D02*
X86718923Y-69196082D01*
X84664777Y-71306795D02*
X86753571Y-69218002D01*
X84693062Y-71335080D02*
X86787512Y-69240629D01*
X84721346Y-71363364D02*
X86821453Y-69263257D01*
X84749630Y-71391648D02*
X86854687Y-69286591D01*
X85439553Y-77391943D02*
X86005238Y-76826257D01*
X86005238Y-77391943D02*
X85439553Y-76826257D01*
X88644063Y-72636863D02*
G75*
G02*
X80404063Y-72636863I-4120000J0D01*
G01*
X80404063Y-72636863D02*
G75*
G02*
X88644063Y-72636863I4120000J0D01*
G01*
%TD*%
%LPC*%
D18*
%TO.C,J4*%
X78916000Y-55626000D03*
X89916000Y-55626000D03*
D19*
X86916000Y-65626000D03*
D20*
X81916000Y-65626000D03*
%TD*%
D21*
%TO.C,R13*%
X103759000Y-88261000D03*
X103759000Y-89281000D03*
%TD*%
D22*
%TO.C,J5*%
X79850200Y-95388200D03*
X80850200Y-95388200D03*
X81850200Y-95388200D03*
X82850200Y-95388200D03*
D23*
X78550200Y-99263200D03*
X84150200Y-99263200D03*
%TD*%
D24*
%TO.C,R9*%
X85602000Y-93243400D03*
X84582000Y-93243400D03*
%TD*%
D25*
%TO.C,R11*%
X103759000Y-94161800D03*
X103759000Y-93141800D03*
%TD*%
D26*
%TO.C,J8*%
X106045000Y-88773000D03*
D27*
X106045000Y-91313000D03*
X106045000Y-93852999D03*
%TD*%
D28*
%TO.C,Q2*%
X85630000Y-89682200D03*
X85630000Y-91582200D03*
X87630000Y-90632200D03*
%TD*%
D29*
%TO.C,JP2*%
X78105556Y-59499980D03*
X78105556Y-60769980D03*
%TD*%
D25*
%TO.C,R17*%
X78105000Y-73255600D03*
X78105000Y-72235600D03*
%TD*%
D30*
%TO.C,IC3*%
X97863600Y-96707400D03*
X97863600Y-97207400D03*
X97863600Y-97707400D03*
X97863600Y-98207400D03*
D31*
X98526600Y-98369400D03*
X99026600Y-98369400D03*
X99526600Y-98369400D03*
D30*
X100189600Y-98207400D03*
X100189600Y-97707400D03*
X100189600Y-97207400D03*
X100189600Y-96707400D03*
D31*
X99526600Y-96545400D03*
X99026600Y-96545400D03*
X98526600Y-96545400D03*
%TD*%
D32*
%TO.C,R14*%
X88569800Y-93319600D03*
X89589800Y-93319600D03*
%TD*%
D33*
%TO.C,J2*%
X82473800Y-79750000D03*
X82473800Y-80750000D03*
X82473800Y-81750000D03*
X82473800Y-82750000D03*
D34*
X78598800Y-78450000D03*
X78598800Y-84050000D03*
%TD*%
D24*
%TO.C,R16*%
X78867000Y-64135000D03*
X77847000Y-64135000D03*
%TD*%
D32*
%TO.C,R2*%
X90089801Y-81356200D03*
X91109799Y-81356200D03*
%TD*%
D35*
%TO.C,C3*%
X89585800Y-75412600D03*
X89585800Y-76372600D03*
%TD*%
D36*
%TO.C,D1*%
X78079600Y-62611000D03*
X79654600Y-62611000D03*
%TD*%
D37*
%TO.C,J7*%
X92332600Y-65474400D03*
X92332600Y-60474400D03*
%TD*%
D25*
%TO.C,R1*%
X103759000Y-91696000D03*
X103759000Y-90676000D03*
%TD*%
D24*
%TO.C,R8*%
X87096600Y-88163400D03*
X86076600Y-88163400D03*
%TD*%
D38*
%TO.C,Q1*%
X91516200Y-91567000D03*
X91516200Y-89667000D03*
X89516200Y-90617000D03*
%TD*%
D39*
%TO.C,IC2*%
X93479600Y-86349800D03*
X93479600Y-85079800D03*
X93479600Y-83809800D03*
X93479600Y-82539800D03*
X88079600Y-82539800D03*
X88079600Y-83809800D03*
X88079600Y-85079800D03*
X88079600Y-86349800D03*
%TD*%
D40*
%TO.C,C7*%
X94843600Y-96644400D03*
X94843600Y-95684400D03*
%TD*%
D41*
%TO.C,C8*%
X102136000Y-96723200D03*
X103096000Y-96723200D03*
%TD*%
D25*
%TO.C,R3*%
X94259400Y-99671599D03*
X94259400Y-98651601D03*
%TD*%
%TO.C,R12*%
X94970600Y-93116400D03*
X94970600Y-92096400D03*
%TD*%
D42*
%TO.C,Jr1*%
X100761800Y-57335400D03*
D43*
X100761800Y-59835400D03*
X100761800Y-62335400D03*
X100761800Y-64835400D03*
X100761800Y-67335400D03*
%TD*%
D41*
%TO.C,C2*%
X97160200Y-76225400D03*
X98120200Y-76225400D03*
%TD*%
D44*
%TO.C,JP1*%
X78486000Y-70804800D03*
D45*
X78486000Y-69504800D03*
%TD*%
D24*
%TO.C,R7*%
X90324400Y-88138000D03*
X89304400Y-88138000D03*
%TD*%
D35*
%TO.C,C4*%
X84607400Y-80419000D03*
X84607400Y-81379000D03*
%TD*%
D46*
%TO.C,C10*%
X98143000Y-71094600D03*
X97183000Y-71094600D03*
%TD*%
D35*
%TO.C,C6*%
X95605600Y-83583800D03*
X95605600Y-84543800D03*
%TD*%
D33*
%TO.C,J1*%
X82473800Y-87878000D03*
X82473800Y-88878000D03*
X82473800Y-89878000D03*
X82473800Y-90878000D03*
D34*
X78598800Y-86578000D03*
X78598800Y-92178000D03*
%TD*%
D47*
%TO.C,JP3*%
X96789500Y-77871800D03*
D48*
X96789500Y-79171800D03*
D49*
X96789500Y-80471800D03*
%TD*%
D24*
%TO.C,R15*%
X103100599Y-95529400D03*
X102080601Y-95529400D03*
%TD*%
D50*
%TO.C,IC4*%
X90970600Y-72348600D03*
X90970600Y-72848600D03*
X90970600Y-73348600D03*
X90970600Y-73848600D03*
X90970600Y-74348600D03*
X90970600Y-74848600D03*
X90970600Y-75348600D03*
D51*
X91970600Y-76348600D03*
X92470600Y-76348600D03*
X92970600Y-76348600D03*
X93470600Y-76348600D03*
X93970600Y-76348600D03*
X94470600Y-76348600D03*
X94970600Y-76348600D03*
D50*
X95970600Y-75348600D03*
X95970600Y-74848600D03*
X95970600Y-74348600D03*
X95970600Y-73848600D03*
X95970600Y-73348600D03*
X95970600Y-72848600D03*
X95970600Y-72348600D03*
D51*
X94970600Y-71348600D03*
X94470600Y-71348600D03*
X93970600Y-71348600D03*
X93470600Y-71348600D03*
X92970600Y-71348600D03*
X92470600Y-71348600D03*
X91970600Y-71348600D03*
D52*
X93470600Y-73848600D03*
%TD*%
D35*
%TO.C,C5*%
X85039200Y-84671000D03*
X85039200Y-85631000D03*
%TD*%
D22*
%TO.C,J6*%
X88269600Y-95388200D03*
X89269600Y-95388200D03*
X90269600Y-95388200D03*
X91269600Y-95388200D03*
D23*
X86969600Y-99263200D03*
X92569600Y-99263200D03*
%TD*%
D25*
%TO.C,R10*%
X94970600Y-90574400D03*
X94970600Y-89554400D03*
%TD*%
D53*
%TO.C,JP4*%
X102463600Y-99288600D03*
D54*
X101163602Y-99288600D03*
%TD*%
D55*
%TO.C,SW1*%
X97002600Y-89535000D03*
X97002600Y-90805000D03*
X97002600Y-92075000D03*
X97002600Y-93345000D03*
X102082600Y-93345000D03*
X102082600Y-92075000D03*
X102082600Y-90805000D03*
X102082600Y-89535000D03*
%TD*%
D56*
%TO.C,LED1*%
X97992000Y-86276000D03*
X97992000Y-87376000D03*
X99822000Y-87376000D03*
X99822000Y-86276000D03*
%TD*%
D41*
%TO.C,C9*%
X87609800Y-69469000D03*
X88569800Y-69469000D03*
%TD*%
D35*
%TO.C,C1*%
X89585800Y-73538200D03*
X89585800Y-74498200D03*
%TD*%
D57*
%TO.C,D2*%
X91794600Y-79629000D03*
X88494600Y-79629000D03*
%TD*%
D58*
%TO.C,C11*%
X85761500Y-73874300D03*
D59*
X83286626Y-71399426D03*
%TD*%
%LPD*%
M02*
